<?xml version="1.0" encoding="UTF-8" standalone="no"?>
<!-- Created with Inkscape (http://www.inkscape.org/) -->

<svg
   xmlns:dc="http://purl.org/dc/elements/1.1/"
   xmlns:cc="http://creativecommons.org/ns#"
   xmlns:rdf="http://www.w3.org/1999/02/22-rdf-syntax-ns#"
   xmlns:svg="http://www.w3.org/2000/svg"
   xmlns="http://www.w3.org/2000/svg"
   xmlns:sodipodi="http://sodipodi.sourceforge.net/DTD/sodipodi-0.dtd"
   xmlns:inkscape="http://www.inkscape.org/namespaces/inkscape"
   width="800px"
   height="600px"
   id="svg2985"
   version="1.1"
   inkscape:version="0.48.1 r9760"
   sodipodi:docname="cleaving.svg">
  <defs
     id="defs2987" />
  <sodipodi:namedview
     id="base"
     pagecolor="#ffffff"
     bordercolor="#666666"
     borderopacity="1.0"
     inkscape:pageopacity="0.0"
     inkscape:pageshadow="2"
     inkscape:zoom="0.84852814"
     inkscape:cx="459.14376"
     inkscape:cy="465.7487"
     inkscape:current-layer="layer1"
     inkscape:document-units="px"
     showgrid="false"
     inkscape:window-width="1024"
     inkscape:window-height="549"
     inkscape:window-x="0"
     inkscape:window-y="25"
     inkscape:window-maximized="1" />
  <metadata
     id="metadata2990">
    <rdf:RDF>
      <cc:Work
         rdf:about="">
        <dc:format>image/svg+xml</dc:format>
        <dc:type
           rdf:resource="http://purl.org/dc/dcmitype/StillImage" />
        <dc:title />
      </cc:Work>
    </rdf:RDF>
  </metadata>
  <g
     id="layer1"
     inkscape:label="Layer 1"
     inkscape:groupmode="layer">
    <rect
       style="fill:#00ffff"
       id="rect2985"
       width="692.28082"
       height="52.898537"
       x="52.898636"
       y="39.440922" />
    <rect
       style="fill:#00ffff"
       id="rect2985-6"
       width="692.28082"
       height="52.898537"
       x="51.748695"
       y="141.78807" />
    <rect
       style="fill:#00ffff"
       id="rect2985-6-7"
       width="692.28082"
       height="52.898537"
       x="51.748695"
       y="242.98531" />
    <path
       style="fill:#000000;fill-opacity:0.00423728;stroke:#000000;stroke-width:4.13988543;stroke-miterlimit:4;stroke-opacity:1;stroke-dasharray:none"
       d="m 657.26734,144.10885 5.69205,10.57095 -9.7578,9.75781 9.7578,10.57095 -10.57096,8.13151 10.57096,8.94465"
       id="path10992"
       inkscape:connector-curvature="0" />
    <path
       style="fill:#000000;fill-opacity:0.00423728;stroke:#000000;stroke-width:4.13988543;stroke-miterlimit:4;stroke-opacity:1;stroke-dasharray:none"
       d="m 694.69003,41.831438 5.69205,10.570954 -9.75781,9.757804 9.75781,10.570955 -10.57096,8.131505 10.57096,8.944651"
       id="path10992-3"
       inkscape:connector-curvature="0" />
    <path
       style="fill:#000000;fill-opacity:0.00423728;stroke:#000000;stroke-width:4.13988543;stroke-miterlimit:4;stroke-opacity:1;stroke-dasharray:none"
       d="m 364.13345,41.212273 5.69206,10.570953 -9.75781,9.757804 9.75781,10.570955 -10.57097,8.131503 10.57097,8.944657"
       id="path10992-6"
       inkscape:connector-curvature="0" />
    <path
       style="fill:#000000;fill-opacity:0.00423728;stroke:#000000;stroke-width:4.13988543;stroke-miterlimit:4;stroke-opacity:1;stroke-dasharray:none"
       d="m 499.8297,41.212273 5.69205,10.570953 -9.7578,9.757804 9.7578,10.570955 -10.57096,8.13151 10.57096,8.94465"
       id="path10992-2"
       inkscape:connector-curvature="0" />
    <path
       style="fill:#000000;fill-opacity:0.00423728;stroke:#000000;stroke-width:4.13988543;stroke-miterlimit:4;stroke-opacity:1;stroke-dasharray:none"
       d="m 128.38997,42.362241 5.69206,10.570953 -9.75781,9.757804 9.75781,10.570955 -10.57097,8.131505 10.57097,8.944651"
       id="path10992-39"
       inkscape:connector-curvature="0" />
    <path
       style="fill:#000000;fill-opacity:0.00423728;stroke:#000000;stroke-width:4.13988543;stroke-miterlimit:4;stroke-opacity:1;stroke-dasharray:none"
       d="m 564.22792,143.09945 5.69206,10.57095 -9.75781,9.75781 9.75781,10.57095 -10.57097,8.13151 10.57097,8.94465"
       id="path10992-5"
       inkscape:connector-curvature="0" />
    <path
       style="fill:#000000;fill-opacity:0.00423728;stroke:#000000;stroke-width:4.13988543;stroke-miterlimit:4;stroke-opacity:1;stroke-dasharray:none"
       d="m 293.98538,144.24942 5.69206,10.57095 -9.75781,9.7578 9.75781,10.57095 -10.57097,8.13151 10.57097,8.94465"
       id="path10992-1"
       inkscape:connector-curvature="0" />
    <path
       style="fill:#000000;fill-opacity:0.00423728;stroke:#000000;stroke-width:4.13988543;stroke-miterlimit:4;stroke-opacity:1;stroke-dasharray:none"
       d="m 174.3887,245.90661 5.69205,10.57095 -9.75781,9.75781 9.75781,10.57095 -10.57096,8.1315 10.57096,8.94466"
       id="path10992-4"
       inkscape:connector-curvature="0" />
    <path
       style="fill:#000000;fill-opacity:0.00423728;stroke:#000000;stroke-width:4.13988543;stroke-miterlimit:4;stroke-opacity:1;stroke-dasharray:none"
       d="m 434.28151,244.29665 5.69205,10.57095 -9.7578,9.75781 9.7578,10.57095 -10.57096,8.1315 10.57096,8.94466"
       id="path10992-28"
       inkscape:connector-curvature="0" />
    <path
       style="fill:#000000;fill-opacity:0.00423728;stroke:#000000;stroke-width:4.13988543;stroke-miterlimit:4;stroke-opacity:1;stroke-dasharray:none"
       d="m 326.1845,243.60667 5.69206,10.57095 -9.75781,9.75781 9.75781,10.57095 -10.57097,8.1315 10.57097,8.94465"
       id="path10992-282"
       inkscape:connector-curvature="0" />
    <path
       style="fill:#000000;fill-opacity:0.00423728;stroke:#000000;stroke-width:4.13988543;stroke-miterlimit:4;stroke-opacity:1;stroke-dasharray:none"
       d="m 630.92608,245.44663 5.69205,10.57095 -9.75781,9.7578 9.75781,10.57095 -10.57096,8.13151 10.57096,8.94465"
       id="path10992-9"
       inkscape:connector-curvature="0" />
  </g>
</svg>
