<?xml version="1.0" encoding="UTF-8" standalone="no"?>
<!-- Created with Inkscape (http://www.inkscape.org/) -->

<svg
   xmlns:dc="http://purl.org/dc/elements/1.1/"
   xmlns:cc="http://creativecommons.org/ns#"
   xmlns:rdf="http://www.w3.org/1999/02/22-rdf-syntax-ns#"
   xmlns:svg="http://www.w3.org/2000/svg"
   xmlns="http://www.w3.org/2000/svg"
   xmlns:sodipodi="http://sodipodi.sourceforge.net/DTD/sodipodi-0.dtd"
   xmlns:inkscape="http://www.inkscape.org/namespaces/inkscape"
   width="1024px"
   height="768px"
   id="svg2985"
   version="1.1"
   inkscape:version="0.48.1 r9760"
   sodipodi:docname="expression3.svg">
  <defs
     id="defs2987" />
  <sodipodi:namedview
     id="base"
     pagecolor="#ffffff"
     bordercolor="#666666"
     borderopacity="1.0"
     inkscape:pageopacity="0.0"
     inkscape:pageshadow="2"
     inkscape:zoom="0.5"
     inkscape:cx="483.5122"
     inkscape:cy="464.42623"
     inkscape:current-layer="layer1"
     inkscape:document-units="px"
     showgrid="false"
     inkscape:window-width="1024"
     inkscape:window-height="549"
     inkscape:window-x="0"
     inkscape:window-y="25"
     inkscape:window-maximized="1" />
  <metadata
     id="metadata2990">
    <rdf:RDF>
      <cc:Work
         rdf:about="">
        <dc:format>image/svg+xml</dc:format>
        <dc:type
           rdf:resource="http://purl.org/dc/dcmitype/StillImage" />
        <dc:title />
      </cc:Work>
    </rdf:RDF>
  </metadata>
  <g
     id="layer1"
     inkscape:label="Layer 1"
     inkscape:groupmode="layer">
    <rect
       style="fill:#0000ff;fill-rule:evenodd;stroke:#000000;stroke-width:1px;stroke-linecap:butt;stroke-linejoin:miter;stroke-opacity:1"
       id="rect2993"
       width="150"
       height="36"
       x="96"
       y="190" />
    <rect
       style="fill:#008000;fill-rule:evenodd;stroke:#000000;stroke-width:0.61831813999999996px;stroke-linecap:butt;stroke-linejoin:miter;stroke-opacity:1"
       id="rect2993-8"
       width="57.347599"
       height="36"
       x="264"
       y="190" />
    <rect
       style="fill:#ff0000;fill-rule:evenodd;stroke:#000000;stroke-width:0.61831813999999996px;stroke-linecap:butt;stroke-linejoin:miter;stroke-opacity:1"
       id="rect2993-8-2"
       width="57.347599"
       height="36"
       x="340.3262"
       y="189" />
    <rect
       style="fill:#ff00ff;fill-rule:evenodd;stroke:#000000;stroke-width:1.63859034px;stroke-linecap:butt;stroke-linejoin:miter;stroke-opacity:1"
       id="rect2993-8-2-8"
       width="402.7468"
       height="36"
       x="417.3262"
       y="188" />
    <path
       style="fill:none;stroke:#000000;stroke-width:2;stroke-linecap:butt;stroke-linejoin:miter;stroke-miterlimit:4;stroke-opacity:1;stroke-dasharray:none"
       d="m 568,264 c -0.67912,-11.47836 -6.78891,-2.39445 -10,-4 -0.84327,-0.42164 -1.15673,-1.57836 -2,-2 -0.59628,-0.29814 -1.36754,0.21082 -2,0 -1.41421,-0.4714 -2.5538,-1.63845 -4,-2 -1.29352,-0.32338 -2.66667,0 -4,0 -4.66667,0 -9.33333,0 -14,0 -1.33333,0 -2.66667,0 -4,0 -1.33333,0 -2.70648,-0.32338 -4,0 -1.4462,0.36155 -2.5538,1.63845 -4,2 -0.0669,0.0167 -5.98938,-0.0106 -6,0 -0.4714,0.4714 0,1.33333 0,2 0,1.33333 -0.8,2.93333 0,4 0.7607,1.01427 7.86857,5.28952 10,6 2.60768,0.86923 5.35702,1.24486 8,2 2.02707,0.57916 3.93275,1.58655 6,2 1.30744,0.26149 2.66667,0 4,0 4,0 8,0 12,0 1.33333,0 2.66667,0 4,0 0.66667,0 1.5286,0.4714 2,0 3.01846,-3.01846 3.73125,-10 8,-10 4.26875,0 11.33333,7.33333 8,10 -3.33333,2.66667 -5.33333,-6.66667 -8,-10 -2.66667,-3.33333 -4.98154,-6.98154 -8,-10 -0.4714,-0.4714 -1.33333,0 -2,0 -0.66667,0 -1.33333,0 -2,0 -0.66667,0 -1.5286,-0.4714 -2,0 -0.4714,0.4714 0.29814,1.40372 0,2 -0.42164,0.84327 -1.57836,1.15673 -2,2 -0.59628,1.19257 0.94281,3.05719 0,4 -0.4714,0.4714 -1.5286,0.4714 -2,0 -0.4714,-0.4714 0,-1.33333 0,-2 0,-0.66667 0,-1.33333 0,-2 0,-1.61007 -0.41844,-6.74469 0,-8 0.94281,-2.82843 3.41529,-5.07647 4,-8 0.39223,-1.96116 -0.63246,-4.10263 0,-6 2.15077,-6.45232 4.58469,-4.33878 6,-10 0.32338,-1.29352 -0.59628,-2.80743 0,-4 0.29814,-0.59628 1.5286,0.4714 2,0 0.4714,-0.4714 0.66667,-2 0,-2 -0.94281,0 -1.15673,1.57836 -2,2 -1.19257,0.59628 -3.05719,-0.94281 -4,0 -0.4714,0.4714 0.29814,1.40372 0,2 -0.42164,0.84327 -1.47702,1.21554 -2,2 -0.8269,1.24035 -1.1731,2.75965 -2,4 -0.52298,0.78446 -1.57836,1.15673 -2,2 -0.29814,0.59628 0.4714,1.5286 0,2 -0.4714,0.4714 -1.5286,-0.4714 -2,0 -0.4714,0.4714 0.29814,1.40372 0,2 -2.54055,5.08109 -2.39035,-2.04824 -4,6 0,11.37399 0.89443,1.31672 -2,10 -0.21082,0.63246 0.4714,1.5286 0,2 -0.4714,0.4714 -1.5286,-0.4714 -2,0 -0.2,0.2 -0.2,5.8 0,6 0.4714,0.4714 1.33333,0 2,0 2.66667,0 5.36434,-0.40549 8,0 6.07489,0.9346 11.85364,4 18,4 6,0 17,-5 24,-6 3.29983,-0.4714 6.66667,0 10,0 0.66667,0 1.5286,0.4714 2,0 0.94281,-0.94281 -0.59628,-2.80743 0,-4 0.42164,-0.84327 1.70186,-1.10557 2,-2 0.3584,-1.07521 0,-6.3067 0,-8 0,-1.33333 0,-2.66667 0,-4 0,-1.33333 0.42164,-2.73509 0,-4 -0.29814,-0.89443 -1.33333,-1.33333 -2,-2 -0.66667,-0.66667 -1.15673,-1.57836 -2,-2 -0.59628,-0.29814 -1.33333,0 -2,0 -0.66667,0 -1.33333,0 -2,0 -1.33333,0 -2.69256,-0.26149 -4,0 -6.63316,1.32663 -4.66667,1.86667 -10,4 -4.68488,1.87395 -9.72393,3.14929 -14,6 -1.82063,1.21375 -4.22732,5.11366 -6,6 -1.19257,0.59628 -3.05719,-0.94281 -4,0 -0.4714,0.4714 0.4714,1.5286 0,2 -0.94281,0.94281 -3.05719,-0.94281 -4,0 -1.05409,1.05409 -1.1731,2.75965 -2,4 -0.52298,0.78446 -1.47702,1.21554 -2,2 -4.40633,1.00719 -1.05719,4.11438 -2,6 -0.42164,0.84327 -1.57836,1.15673 -2,2 -0.29814,0.59628 0,1.33333 0,2 0,0.66667 -0.4714,1.5286 0,2 0.4714,0.4714 1.5286,-0.4714 2,0 0.4714,0.4714 -0.4714,1.5286 0,2 2.29814,2.29814 3.53705,2 6,2 0.66667,0 1.4453,0.3698 2,0 3.55181,-2.36788 5.8587,-9.03532 10,-8 3.29785,0.82446 -1.44115,6.64691 -2,10 -0.14293,0.85758 -0.28039,7.43923 0,8 0.42164,0.84327 1.57836,1.15673 2,2 0.59628,1.19257 -0.94281,3.05719 0,4 0.4714,0.4714 1.33333,0 2,0 1.33333,0 2.66667,0 4,0 4,0 8,0 12,0 1.33333,0 2.66667,0 4,0 0.66667,0 1.40372,0.29814 2,0 0.84327,-0.42164 1.57836,-1.15673 2,-2 0.29814,-0.59628 0,-1.33333 0,-2 0,-1.33333 0.32338,-2.70648 0,-4 -1.09194,-4.36775 -5.00516,-7.00516 -8,-10 -0.66667,-0.66667 -1.33333,-1.33333 -2,-2 -0.66667,-0.66667 -1.15673,-1.57836 -2,-2 -1.19257,-0.59628 -2.68481,0.2192 -4,0 -3.35309,-0.55885 -7.04854,-3.68655 -10,-2 -6.47338,3.69908 -5.981,9.346 -2,12 1.24035,0.8269 2.66667,1.33333 4,2 1.33333,0.66667 2.5538,1.63845 4,2 1.57323,0.39331 9.92015,0 12,0 1.33333,0 2.66667,0 4,0 0.66667,0 1.40372,0.29814 2,0 0.84327,-0.42164 1.15673,-1.57836 2,-2 0.59628,-0.29814 1.40372,0.29814 2,0 0.34312,-0.17156 5.91718,-5.75155 6,-6 0.42164,-1.26491 0,-2.66667 0,-4 0,-0.66667 -0.29814,-1.40372 0,-2 0.42164,-0.84327 1.57836,-1.15673 2,-2 0.29814,-0.59628 0,-1.33333 0,-2 0,-0.66667 0,-1.33333 0,-2 0,-1.33333 -0.32338,-2.70648 0,-4 0.36155,-1.4462 1.5286,-2.58579 2,-4 0.33091,-0.99272 0.17032,-5.82968 0,-6 -0.4714,-0.4714 -1.36754,0.21082 -2,0 -1.41421,-0.4714 -2.58579,-1.5286 -4,-2 -0.63246,-0.21082 -1.36754,0.21082 -2,0 -1.41421,-0.4714 -2.58579,-1.5286 -4,-2 -1.8,-0.6 -4.2,0.6 -6,0 -1.41421,-0.4714 -2.58579,-1.5286 -4,-2 -0.43916,-0.14639 -7.70267,-0.14867 -8,0 -0.84327,0.42164 -1.15673,1.57836 -2,2 -0.60867,0.30433 -5.09928,0 -6,0 -0.66667,0 -1.33333,0 -2,0 -0.66667,0 -1.40372,0.29814 -2,0 -0.5207,-0.26035 -2.43655,-3.56345 -4,-2 -0.4714,0.4714 0.29814,1.40372 0,2 -0.42164,0.84327 -1.57836,1.15673 -2,2 -0.29814,0.59628 0,1.33333 0,2 0,1.33333 0.32338,2.70648 0,4 -0.36155,1.4462 -1.63845,2.5538 -2,4 -0.32338,1.29352 0,2.66667 0,4 0,1.33333 -0.26149,2.69256 0,4 0.41345,2.06725 -0.0795,5.65342 2,6 3.54126,0.59021 8.86471,-7.40588 10,-4 1.3499,4.04969 -6.09096,6.18191 -8,10 -0.42164,0.84327 1.33333,1.33333 2,2 0.66667,0.66667 1.15673,1.57836 2,2 0.59628,0.29814 1.36754,-0.21082 2,0 1.41421,0.4714 2.5538,1.63845 4,2 1.29352,0.32338 2.73509,-0.42164 4,0 0.89443,0.29814 1.15673,1.57836 2,2 0.59628,0.29814 1.33333,0 2,0 2,0 4,0 6,0 15.98136,0 -5.88057,0.48507 14,-2 2.64607,-0.33076 5.36013,0.37712 8,0 1.61085,-0.23012 16.42857,-5.21429 18,-6 0.84327,-0.42164 1.15673,-1.57836 2,-2 1.19257,-0.59628 3.05719,0.94281 4,0 0.4714,-0.4714 -0.4714,-1.5286 0,-2 0.4714,-0.4714 1.5286,0.4714 2,0 0.4714,-0.4714 0,-1.33333 0,-2 0,-1.39108 0.36163,-9.27673 0,-10 -0.42164,-0.84327 -1.33333,-1.33333 -2,-2 -0.66667,-0.66667 -1.15673,-1.57836 -2,-2 -0.59628,-0.29814 -1.40372,0.29814 -2,0 -0.84327,-0.42164 -1.15673,-1.57836 -2,-2 -0.60867,-0.30433 -5.09928,0 -6,0 -0.73447,0 -7.91952,-0.0805 -8,0 -0.94281,0.94281 0.59628,2.80743 0,4 -0.42164,0.84327 -1.70186,1.10557 -2,2 -0.0495,0.14837 -0.21956,11.56088 0,12 0.42164,0.84327 1.57836,1.15673 2,2 0.59628,1.19257 -0.94281,3.05719 0,4 0.4714,0.4714 1.5286,-0.4714 2,0 0.4714,0.4714 -0.4714,1.5286 0,2 0.4714,0.4714 1.33333,0 2,0 0.66667,0 1.33333,0 2,0 0.66667,0 1.40372,0.29814 2,0 0.84327,-0.42164 1.15673,-1.57836 2,-2 0.59628,-0.29814 1.40372,0.29814 2,0 0.84327,-0.42164 1.15673,-1.57836 2,-2 1.19257,-0.59628 3.05719,0.94281 4,0 0.4714,-0.4714 -0.4714,-1.5286 0,-2 0.4714,-0.4714 1.33333,0 2,0"
       id="path3850"
       inkscape:connector-curvature="0" />
    <path
       style="fill:none;stroke:#0000ff;stroke-width:2;stroke-linecap:butt;stroke-linejoin:miter;stroke-miterlimit:4;stroke-opacity:1;stroke-dasharray:none"
       d="m 467.96078,470.93375 c 0,-4.66667 0,-9.33333 0,-14 0,-0.66667 -0.21082,-1.36754 0,-2 0.4714,-1.41421 1.5286,-2.58579 2,-4 0.42164,-1.26491 -0.59628,-2.80743 0,-4 0.42164,-0.84327 1.57836,-1.15673 2,-2 0.29814,-0.59628 -0.29814,-1.40372 0,-2 4.16176,-8.32352 -0.13807,2.13807 4,-2 4.13807,-4.13807 -6.32352,0.16176 2,-4 0.60867,-0.30433 5.09928,0 6,0 2,0 4.10263,-0.63246 6,0 0.89443,0.29814 1.15673,1.57836 2,2 0.59628,0.29814 1.40372,-0.29814 2,0 0.84327,0.42164 1.33333,1.33333 2,2 0.66667,0.66667 1.57836,1.15673 2,2 0.29814,0.59628 -0.29814,1.40372 0,2 0.84327,1.68655 3.15673,2.31345 4,4 0.29814,0.59628 -0.29814,1.40372 0,2 0.42164,0.84327 1.57836,1.15673 2,2 0.30404,0.60807 0,6.61896 0,8 0,0.90072 0.30433,5.39133 0,6 -0.42164,0.84327 -1.57836,1.15673 -2,2 -0.29814,0.59628 0.4714,1.5286 0,2 -0.4714,0.4714 -1.40372,-0.29814 -2,0 -9.15321,4.57661 8.48683,-0.82894 -6,4 -1.26491,0.42164 -2.80743,-0.59628 -4,0 -0.84327,0.42164 -1.15673,1.57836 -2,2 -0.59628,0.29814 -1.33333,0 -2,0 -0.66667,0 -1.40372,0.29814 -2,0 -7.11715,-3.55858 5.26754,-0.7807 -6,-4 -3.26855,-0.93387 -8.47977,1.04047 -10,-2 -1.60555,-3.21109 2.86471,-6.59412 4,-10 0.57637,-1.72911 -0.63632,-8.72736 0,-10 0.84327,-1.68655 3.15673,-2.31345 4,-4 0.29814,-0.59628 -0.4714,-1.5286 0,-2 0.4714,-0.4714 1.5286,0.4714 2,0 0.4714,-0.4714 -0.4714,-1.5286 0,-2 1.56345,-1.56345 3.4793,1.73965 4,2 0.79298,0.39649 5.59113,-0.40887 6,0 0.4714,0.4714 -0.4714,1.5286 0,2 0.4714,0.4714 1.5286,-0.4714 2,0 0.4714,0.4714 -0.29814,1.40372 0,2 0.42164,0.84327 1.57836,1.15673 2,2 0.29814,0.59628 -0.21082,1.36754 0,2 0.4714,1.41421 1.63845,2.5538 2,4 0.0167,0.0669 -0.0106,5.98938 0,6 0.71843,0.71843 6.7061,-0.64695 8,0 0.59628,0.29814 0.4714,1.5286 0,2 -0.4714,0.4714 -1.33333,0 -2,0 -0.66667,0 -1.33333,0 -2,0 -1.33333,0 -2.73509,-0.42164 -4,0 -0.89443,0.29814 -1.10557,1.70186 -2,2 -1.07521,0.3584 -6.3067,0 -8,0 -0.66667,0 -1.5286,0.4714 -2,0 -0.4714,-0.4714 0.4714,-1.5286 0,-2 -0.4714,-0.4714 -1.5286,0.4714 -2,0 -0.4714,-0.4714 0.4714,-1.5286 0,-2 -0.4714,-0.4714 -1.4453,-0.3698 -2,0 -3.55181,2.36788 -6.98154,11.01846 -10,8 -3.01846,-3.01846 6.6501,-5.95031 8,-10 0.4714,-1.41421 -2.75965,-1.1731 -4,-2 -0.78446,-0.52298 -1.57836,-1.15673 -2,-2 -0.20513,-0.41026 -0.28205,-5.71795 0,-6 0.4714,-0.4714 1.36754,0.21082 2,0 1.41421,-0.4714 2.53824,-1.70765 4,-2 1.96116,-0.39223 4,0 6,0 4,0 8,0 12,0 7.8129,0 0.21115,-0.59628 8,2 1.26491,0.42164 3.05719,-0.94281 4,0 0.4714,0.4714 0.4714,1.5286 0,2 -0.4714,0.4714 -1.33333,0 -2,0 -3.49071,0 -1.40372,0.29814 -6,-2 -1.33333,-0.66667 -2.75965,-1.1731 -4,-2 -0.83173,-0.55449 -7.64234,-7.28469 -8,-8 -0.59628,-1.19257 0.94281,-3.05719 0,-4 -0.4714,-0.4714 -1.5286,0.4714 -2,0 -0.4714,-0.4714 -0.66667,-2 0,-2 0.66667,0 0,1.33333 0,2 0,0.66667 0,1.33333 0,2 0,1.78744 0.31867,9.36265 0,10 -0.42164,0.84327 -1.57836,1.15673 -2,2 -0.25855,0.5171 0,10.5824 0,12 0,0.66667 0.4714,1.5286 0,2 -0.4714,0.4714 -1.5286,-0.4714 -2,0 -0.4714,0.4714 0,1.33333 0,2 0,0.66667 0,1.33333 0,2 0,0.48505 0.0643,5.93568 0,6 -0.4714,0.4714 -1.36754,0.21082 -2,0 -3.40588,-1.13529 -6.5613,-2.96839 -10,-4 -3.25598,-0.97679 -6.84379,-0.73751 -10,-2 -0.61898,-0.24759 0,-1.33333 0,-2 0,-0.90072 -0.30433,-5.39133 0,-6 0.42164,-0.84327 1.57836,-1.15673 2,-2 0.69073,-1.38147 -0.70204,-9.29796 0,-10 0.4714,-0.4714 1.70186,0.59628 2,0 0.8,-1.6 -0.8,-4.4 0,-6 0.42164,-0.84327 1.57836,-1.15673 2,-2 0.29814,-0.59628 -0.4714,-1.5286 0,-2 0.4714,-0.4714 2,-0.66667 2,0 0,0.66667 -2,0.66667 -2,0 0,-0.66667 1.33333,0 2,0"
       id="path3858-3"
       inkscape:connector-curvature="0" />
    <path
       style="fill:none;stroke:#ed0c08;stroke-width:2;stroke-linecap:butt;stroke-linejoin:miter;stroke-miterlimit:4;stroke-opacity:1;stroke-dasharray:none"
       d="m 472,454 c 0,-4.66667 0,-9.33333 0,-14 0,-0.66667 -0.4714,-1.5286 0,-2 0.4714,-0.4714 1.5286,0.4714 2,0 0.4714,-0.4714 0,-1.33333 0,-2 0,-0.66667 0,-1.33333 0,-2 0,-1.39108 0.36163,-9.27673 0,-10 -0.42164,-0.84327 -1.57836,-1.15673 -2,-2 -0.59628,-1.19257 0.94281,-3.05719 0,-4 -0.4714,-0.4714 -1.5286,0.4714 -2,0 -0.4714,-0.4714 0.4714,-1.5286 0,-2 -0.2,-0.2 -5.8,-0.2 -6,0 -0.4714,0.4714 0.29814,1.40372 0,2 -0.42164,0.84327 -1.57836,1.15673 -2,2 -0.59628,1.19257 0.59628,2.80743 0,4 -0.42164,0.84327 -1.57836,1.15673 -2,2 -0.59628,1.19257 0.59628,2.80743 0,4 -0.42164,0.84327 -1.57836,1.15673 -2,2 -0.29814,0.59628 0.29814,1.40372 0,2 -2.4714,4.94281 -2,-0.69036 -2,4 0,9.10457 0.94281,0.11438 -2,6 -0.29814,0.59628 0.66667,2 0,2 -0.66667,0 0,-1.33333 0,-2 0,-4.51847 -0.29814,0.89443 2,-6 0.45855,-1.37566 -0.59002,-4.81996 0,-6 0.42164,-0.84327 1.57836,-1.15673 2,-2 0.59628,-1.19257 -0.59628,-2.80743 0,-4 0.42164,-0.84327 1.57836,-1.15673 2,-2 0.29814,-0.59628 0,-1.33333 0,-2 0,-1.33333 -0.42164,-2.73509 0,-4 0.29814,-0.89443 1.70186,-1.10557 2,-2 0.42164,-1.26491 -0.42164,-2.73509 0,-4 0.29814,-0.89443 1.57836,-1.15673 2,-2 1.37936,-2.75871 -2.42211,-1.78895 2,-4 0.59628,-0.29814 1.5286,0.4714 2,0 0.4714,-0.4714 -0.4714,-1.5286 0,-2 0.4714,-0.4714 1.5286,0.4714 2,0 0.4714,-0.4714 -0.4714,-1.5286 0,-2 0.4714,-0.4714 1.40372,0.29814 2,0 0.84327,-0.42164 1.15673,-1.57836 2,-2 0.52588,-0.26294 6.95416,0 8,0 2,0 4.10263,-0.63246 6,0 0.89443,0.29814 1.33333,1.33333 2,2 0.66667,0.66667 1.57836,1.15673 2,2 0.29814,0.59628 -0.29814,1.40372 0,2 0.84327,1.68655 3.15673,2.31345 4,4 0.30404,0.60807 0,6.61896 0,8 0,6.66667 0,13.33333 0,20 0,0.66667 0,1.33333 0,2 0,0.66667 0.29814,1.40372 0,2 -0.42164,0.84327 -1.57836,1.15673 -2,2 -0.59763,1.19526 1.31658,4 -2,4 -3.509,0 -1.3105,-4.621 -2,-6 -0.42164,-0.84327 -1.57836,-1.15673 -2,-2 -0.54249,-1.08498 0.54724,-7.45276 0,-8 -0.4714,-0.4714 -1.5286,0.4714 -2,0 -0.94281,-0.94281 0.59628,-2.80743 0,-4 -0.42164,-0.84327 -1.57836,-1.15673 -2,-2 -0.29814,-0.59628 0.21082,-1.36754 0,-2 -0.4714,-1.41421 -1.5286,-2.58579 -2,-4 -0.42164,-1.26491 0.94281,-3.05719 0,-4 -0.4714,-0.4714 -2,0.66667 -2,0 0,-0.66667 2.66667,0 2,0 -1.33333,0 -2.80743,-0.59628 -4,0 -0.59628,0.29814 0.21082,1.36754 0,2 -4.82894,14.48683 0.57661,-3.15321 -4,6 -0.29814,0.59628 0.29814,1.40372 0,2 -0.42164,0.84327 -1.57836,1.15673 -2,2 -0.59628,1.19257 0.59628,2.80743 0,4 -2.4714,4.94281 -2,-0.69036 -2,4 0,0.66667 -0.4714,2.4714 0,2 2.74173,-2.74173 2,-6.59729 2,-10 0,-0.66667 -0.29814,-1.40372 0,-2 0.42164,-0.84327 1.57836,-1.15673 2,-2 0.69073,-1.38147 -0.70204,-9.29796 0,-10 0.4714,-0.4714 1.40372,0.29814 2,0 0.84327,-0.42164 1.15673,-1.57836 2,-2 0.59628,-0.29814 1.40372,0.29814 2,0 0.84327,-0.42164 1.15673,-1.57836 2,-2 1.19257,-0.59628 3.05719,0.94281 4,0 0.4714,-0.4714 -0.4714,-1.5286 0,-2 0.4714,-0.4714 1.33333,0 2,0 0.66667,0 1.40372,-0.29814 2,0 0.84327,0.42164 1.15673,1.57836 2,2 1.19257,0.59628 3.05719,-0.94281 4,0 0.4714,0.4714 -0.4714,1.5286 0,2 0.4714,0.4714 1.5286,-0.4714 2,0 0.4714,0.4714 -0.29814,1.40372 0,2 1.2,2.4 4.8,3.6 6,6 0.29814,0.59628 -0.29814,1.40372 0,2 0.42164,0.84327 1.57836,1.15673 2,2 0.30433,0.60867 0,5.09928 0,6 0,1.04584 0.26294,7.47412 0,8 -0.42164,0.84327 -1.57836,1.15673 -2,2 -0.29814,0.59628 0.4714,1.5286 0,2 -0.4714,0.4714 -1.33333,0 -2,0 -1.676,0 -9.14997,-0.42502 -10,0 -0.59628,0.29814 0.4714,1.5286 0,2 -0.4714,0.4714 -1.33333,0 -2,0 -0.66667,0 -1.5286,0.4714 -2,0 -0.4714,-0.4714 -0.66667,-2 0,-2 2.83333,0 -5.66667,9.33333 0,-2 2.66667,-5.33333 2,6 2,-2"
       id="path3979"
       inkscape:connector-curvature="0" />
    <path
       style="fill:none;stroke:#0000ff;stroke-width:2;stroke-linecap:butt;stroke-linejoin:miter;stroke-miterlimit:4;stroke-opacity:1;stroke-dasharray:none"
       d="m 639.95176,420.54117 c 0,-4.66667 0,-9.33333 0,-14 0,-0.66667 -0.21082,-1.36754 0,-2 0.4714,-1.41421 1.5286,-2.58579 2,-4 0.42164,-1.26491 -0.59628,-2.80743 0,-4 0.42164,-0.84327 1.57836,-1.15673 2,-2 0.29814,-0.59628 -0.29814,-1.40372 0,-2 4.16176,-8.32352 -0.13807,2.13807 4,-2 4.13807,-4.13807 -6.32352,0.16176 2,-4 0.60867,-0.30433 5.09928,0 6,0 2,0 4.10263,-0.63246 6,0 0.89443,0.29814 1.15673,1.57836 2,2 0.59628,0.29814 1.40372,-0.29814 2,0 0.84327,0.42164 1.33333,1.33333 2,2 0.66667,0.66667 1.57836,1.15673 2,2 0.29814,0.59628 -0.29814,1.40372 0,2 0.84327,1.68655 3.15673,2.31345 4,4 0.29814,0.59628 -0.29814,1.40372 0,2 0.42164,0.84327 1.57836,1.15673 2,2 0.30404,0.60807 0,6.61896 0,8 0,0.90072 0.30433,5.39133 0,6 -0.42164,0.84327 -1.57836,1.15673 -2,2 -0.29814,0.59628 0.4714,1.5286 0,2 -0.4714,0.4714 -1.40372,-0.29814 -2,0 -9.15321,4.57661 8.48683,-0.82894 -6,4 -1.26491,0.42164 -2.80743,-0.59628 -4,0 -0.84327,0.42164 -1.15673,1.57836 -2,2 -0.59628,0.29814 -1.33333,0 -2,0 -0.66667,0 -1.40372,0.29814 -2,0 -7.11715,-3.55858 5.26754,-0.7807 -6,-4 -3.26855,-0.93387 -8.47977,1.04047 -10,-2 -1.60555,-3.21109 2.86471,-6.59412 4,-10 0.57637,-1.72911 -0.63632,-8.72736 0,-10 0.84327,-1.68655 3.15673,-2.31345 4,-4 0.29814,-0.59628 -0.4714,-1.5286 0,-2 0.4714,-0.4714 1.5286,0.4714 2,0 0.4714,-0.4714 -0.4714,-1.5286 0,-2 1.56345,-1.56345 3.4793,1.73965 4,2 0.79298,0.39649 5.59113,-0.40887 6,0 0.4714,0.4714 -0.4714,1.5286 0,2 0.4714,0.4714 1.5286,-0.4714 2,0 0.4714,0.4714 -0.29814,1.40372 0,2 0.42164,0.84327 1.57836,1.15673 2,2 0.29814,0.59628 -0.21082,1.36754 0,2 0.4714,1.41421 1.63845,2.5538 2,4 0.0167,0.0669 -0.0106,5.98938 0,6 0.71843,0.71843 6.7061,-0.64695 8,0 0.59628,0.29814 0.4714,1.5286 0,2 -0.4714,0.4714 -1.33333,0 -2,0 -0.66667,0 -1.33333,0 -2,0 -1.33333,0 -2.73509,-0.42164 -4,0 -0.89443,0.29814 -1.10557,1.70186 -2,2 -1.07521,0.3584 -6.3067,0 -8,0 -0.66667,0 -1.5286,0.4714 -2,0 -0.4714,-0.4714 0.4714,-1.5286 0,-2 -0.4714,-0.4714 -1.5286,0.4714 -2,0 -0.4714,-0.4714 0.4714,-1.5286 0,-2 -0.4714,-0.4714 -1.4453,-0.3698 -2,0 -3.55181,2.36788 -6.98154,11.01846 -10,8 -3.01846,-3.01846 6.6501,-5.95031 8,-10 0.4714,-1.41421 -2.75965,-1.1731 -4,-2 -0.78446,-0.52298 -1.57836,-1.15673 -2,-2 -0.20513,-0.41026 -0.28205,-5.71795 0,-6 0.4714,-0.4714 1.36754,0.21082 2,0 1.41421,-0.4714 2.53824,-1.70765 4,-2 1.96116,-0.39223 4,0 6,0 4,0 8,0 12,0 7.8129,0 0.21115,-0.59628 8,2 1.26491,0.42164 3.05719,-0.94281 4,0 0.4714,0.4714 0.4714,1.5286 0,2 -0.4714,0.4714 -1.33333,0 -2,0 -3.49071,0 -1.40372,0.29814 -6,-2 -1.33333,-0.66667 -2.75965,-1.1731 -4,-2 -0.83173,-0.55449 -7.64234,-7.28469 -8,-8 -0.59628,-1.19257 0.94281,-3.05719 0,-4 -0.4714,-0.4714 -1.5286,0.4714 -2,0 -0.4714,-0.4714 -0.66667,-2 0,-2 0.66667,0 0,1.33333 0,2 0,0.66667 0,1.33333 0,2 0,1.78744 0.31867,9.36265 0,10 -0.42164,0.84327 -1.57836,1.15673 -2,2 -0.25855,0.5171 0,10.5824 0,12 0,0.66667 0.4714,1.5286 0,2 -0.4714,0.4714 -1.5286,-0.4714 -2,0 -0.4714,0.4714 0,1.33333 0,2 0,0.66667 0,1.33333 0,2 0,0.48505 0.0643,5.93568 0,6 -0.4714,0.4714 -1.36754,0.21082 -2,0 -3.40588,-1.13529 -6.5613,-2.96839 -10,-4 -3.25598,-0.97679 -6.84379,-0.73751 -10,-2 -0.61898,-0.24759 0,-1.33333 0,-2 0,-0.90072 -0.30433,-5.39133 0,-6 0.42164,-0.84327 1.57836,-1.15673 2,-2 0.69073,-1.38147 -0.70204,-9.29796 0,-10 0.4714,-0.4714 1.70186,0.59628 2,0 0.8,-1.6 -0.8,-4.4 0,-6 0.42164,-0.84327 1.57836,-1.15673 2,-2 0.29814,-0.59628 -0.4714,-1.5286 0,-2 0.4714,-0.4714 2,-0.66667 2,0 0,0.66667 -2,0.66667 -2,0 0,-0.66667 1.33333,0 2,0"
       id="path3858-3-2"
       inkscape:connector-curvature="0" />
    <path
       style="fill:none;stroke:#ed0c08;stroke-width:2;stroke-linecap:butt;stroke-linejoin:miter;stroke-miterlimit:4;stroke-opacity:1;stroke-dasharray:none"
       d="m 643.99098,403.60742 c 0,-4.66667 0,-9.33333 0,-14 0,-0.66667 -0.4714,-1.5286 0,-2 0.4714,-0.4714 1.5286,0.4714 2,0 0.4714,-0.4714 0,-1.33333 0,-2 0,-0.66667 0,-1.33333 0,-2 0,-1.39108 0.36163,-9.27673 0,-10 -0.42164,-0.84327 -1.57836,-1.15673 -2,-2 -0.59628,-1.19257 0.94281,-3.05719 0,-4 -0.4714,-0.4714 -1.5286,0.4714 -2,0 -0.4714,-0.4714 0.4714,-1.5286 0,-2 -0.2,-0.2 -5.8,-0.2 -6,0 -0.4714,0.4714 0.29814,1.40372 0,2 -0.42164,0.84327 -1.57836,1.15673 -2,2 -0.59628,1.19257 0.59628,2.80743 0,4 -0.42164,0.84327 -1.57836,1.15673 -2,2 -0.59628,1.19257 0.59628,2.80743 0,4 -0.42164,0.84327 -1.57836,1.15673 -2,2 -0.29814,0.59628 0.29814,1.40372 0,2 -2.4714,4.94281 -2,-0.69036 -2,4 0,9.10457 0.94281,0.11438 -2,6 -0.29814,0.59628 0.66667,2 0,2 -0.66667,0 0,-1.33333 0,-2 0,-4.51847 -0.29814,0.89443 2,-6 0.45855,-1.37566 -0.59002,-4.81996 0,-6 0.42164,-0.84327 1.57836,-1.15673 2,-2 0.59628,-1.19257 -0.59628,-2.80743 0,-4 0.42164,-0.84327 1.57836,-1.15673 2,-2 0.29814,-0.59628 0,-1.33333 0,-2 0,-1.33333 -0.42164,-2.73509 0,-4 0.29814,-0.89443 1.70186,-1.10557 2,-2 0.42164,-1.26491 -0.42164,-2.73509 0,-4 0.29814,-0.89443 1.57836,-1.15673 2,-2 1.37936,-2.75871 -2.42211,-1.78895 2,-4 0.59628,-0.29814 1.5286,0.4714 2,0 0.4714,-0.4714 -0.4714,-1.5286 0,-2 0.4714,-0.4714 1.5286,0.4714 2,0 0.4714,-0.4714 -0.4714,-1.5286 0,-2 0.4714,-0.4714 1.40372,0.29814 2,0 0.84327,-0.42164 1.15673,-1.57836 2,-2 0.52588,-0.26294 6.95416,0 8,0 2,0 4.10263,-0.63246 6,0 0.89443,0.29814 1.33333,1.33333 2,2 0.66667,0.66667 1.57836,1.15673 2,2 0.29814,0.59628 -0.29814,1.40372 0,2 0.84327,1.68655 3.15673,2.31345 4,4 0.30404,0.60807 0,6.61896 0,8 0,6.66667 0,13.33333 0,20 0,0.66667 0,1.33333 0,2 0,0.66667 0.29814,1.40372 0,2 -0.42164,0.84327 -1.57836,1.15673 -2,2 -0.59763,1.19526 1.31658,4 -2,4 -3.509,0 -1.3105,-4.621 -2,-6 -0.42164,-0.84327 -1.57836,-1.15673 -2,-2 -0.54249,-1.08498 0.54724,-7.45276 0,-8 -0.4714,-0.4714 -1.5286,0.4714 -2,0 -0.94281,-0.94281 0.59628,-2.80743 0,-4 -0.42164,-0.84327 -1.57836,-1.15673 -2,-2 -0.29814,-0.59628 0.21082,-1.36754 0,-2 -0.4714,-1.41421 -1.5286,-2.58579 -2,-4 -0.42164,-1.26491 0.94281,-3.05719 0,-4 -0.4714,-0.4714 -2,0.66667 -2,0 0,-0.66667 2.66667,0 2,0 -1.33333,0 -2.80743,-0.59628 -4,0 -0.59628,0.29814 0.21082,1.36754 0,2 -4.82894,14.48683 0.57661,-3.15321 -4,6 -0.29814,0.59628 0.29814,1.40372 0,2 -0.42164,0.84327 -1.57836,1.15673 -2,2 -0.59628,1.19257 0.59628,2.80743 0,4 -2.4714,4.94281 -2,-0.69036 -2,4 0,0.66667 -0.4714,2.4714 0,2 2.74173,-2.74173 2,-6.59729 2,-10 0,-0.66667 -0.29814,-1.40372 0,-2 0.42164,-0.84327 1.57836,-1.15673 2,-2 0.69073,-1.38147 -0.70204,-9.29796 0,-10 0.4714,-0.4714 1.40372,0.29814 2,0 0.84327,-0.42164 1.15673,-1.57836 2,-2 0.59628,-0.29814 1.40372,0.29814 2,0 0.84327,-0.42164 1.15673,-1.57836 2,-2 1.19257,-0.59628 3.05719,0.94281 4,0 0.4714,-0.4714 -0.4714,-1.5286 0,-2 0.4714,-0.4714 1.33333,0 2,0 0.66667,0 1.40372,-0.29814 2,0 0.84327,0.42164 1.15673,1.57836 2,2 1.19257,0.59628 3.05719,-0.94281 4,0 0.4714,0.4714 -0.4714,1.5286 0,2 0.4714,0.4714 1.5286,-0.4714 2,0 0.4714,0.4714 -0.29814,1.40372 0,2 1.2,2.4 4.8,3.6 6,6 0.29814,0.59628 -0.29814,1.40372 0,2 0.42164,0.84327 1.57836,1.15673 2,2 0.30433,0.60867 0,5.09928 0,6 0,1.04584 0.26294,7.47412 0,8 -0.42164,0.84327 -1.57836,1.15673 -2,2 -0.29814,0.59628 0.4714,1.5286 0,2 -0.4714,0.4714 -1.33333,0 -2,0 -1.676,0 -9.14997,-0.42502 -10,0 -0.59628,0.29814 0.4714,1.5286 0,2 -0.4714,0.4714 -1.33333,0 -2,0 -0.66667,0 -1.5286,0.4714 -2,0 -0.4714,-0.4714 -0.66667,-2 0,-2 2.83333,0 -5.66667,9.33333 0,-2 2.66667,-5.33333 2,6 2,-2"
       id="path3979-9"
       inkscape:connector-curvature="0" />
    <path
       style="fill:none;stroke:#0000ff;stroke-width:2;stroke-linecap:butt;stroke-linejoin:miter;stroke-miterlimit:4;stroke-opacity:1;stroke-dasharray:none"
       d="m 215.95176,454.54117 c 0,-4.66667 0,-9.33333 0,-14 0,-0.66667 -0.21082,-1.36754 0,-2 0.4714,-1.41421 1.5286,-2.58579 2,-4 0.42164,-1.26491 -0.59628,-2.80743 0,-4 0.42164,-0.84327 1.57836,-1.15673 2,-2 0.29814,-0.59628 -0.29814,-1.40372 0,-2 4.16176,-8.32352 -0.13807,2.13807 4,-2 4.13807,-4.13807 -6.32352,0.16176 2,-4 0.60867,-0.30433 5.09928,0 6,0 2,0 4.10263,-0.63246 6,0 0.89443,0.29814 1.15673,1.57836 2,2 0.59628,0.29814 1.40372,-0.29814 2,0 0.84327,0.42164 1.33333,1.33333 2,2 0.66667,0.66667 1.57836,1.15673 2,2 0.29814,0.59628 -0.29814,1.40372 0,2 0.84327,1.68655 3.15673,2.31345 4,4 0.29814,0.59628 -0.29814,1.40372 0,2 0.42164,0.84327 1.57836,1.15673 2,2 0.30404,0.60807 0,6.61896 0,8 0,0.90072 0.30433,5.39133 0,6 -0.42164,0.84327 -1.57836,1.15673 -2,2 -0.29814,0.59628 0.4714,1.5286 0,2 -0.4714,0.4714 -1.40372,-0.29814 -2,0 -9.15321,4.57661 8.48683,-0.82894 -6,4 -1.26491,0.42164 -2.80743,-0.59628 -4,0 -0.84327,0.42164 -1.15673,1.57836 -2,2 -0.59628,0.29814 -1.33333,0 -2,0 -0.66667,0 -1.40372,0.29814 -2,0 -7.11715,-3.55858 5.26754,-0.7807 -6,-4 -3.26855,-0.93387 -8.47977,1.04047 -10,-2 -1.60555,-3.21109 2.86471,-6.59412 4,-10 0.57637,-1.72911 -0.63632,-8.72736 0,-10 0.84327,-1.68655 3.15673,-2.31345 4,-4 0.29814,-0.59628 -0.4714,-1.5286 0,-2 0.4714,-0.4714 1.5286,0.4714 2,0 0.4714,-0.4714 -0.4714,-1.5286 0,-2 1.56345,-1.56345 3.4793,1.73965 4,2 0.79298,0.39649 5.59113,-0.40887 6,0 0.4714,0.4714 -0.4714,1.5286 0,2 0.4714,0.4714 1.5286,-0.4714 2,0 0.4714,0.4714 -0.29814,1.40372 0,2 0.42164,0.84327 1.57836,1.15673 2,2 0.29814,0.59628 -0.21082,1.36754 0,2 0.4714,1.41421 1.63845,2.5538 2,4 0.0167,0.0669 -0.0106,5.98938 0,6 0.71843,0.71843 6.7061,-0.64695 8,0 0.59628,0.29814 0.4714,1.5286 0,2 -0.4714,0.4714 -1.33333,0 -2,0 -0.66667,0 -1.33333,0 -2,0 -1.33333,0 -2.73509,-0.42164 -4,0 -0.89443,0.29814 -1.10557,1.70186 -2,2 -1.07521,0.3584 -6.3067,0 -8,0 -0.66667,0 -1.5286,0.4714 -2,0 -0.4714,-0.4714 0.4714,-1.5286 0,-2 -0.4714,-0.4714 -1.5286,0.4714 -2,0 -0.4714,-0.4714 0.4714,-1.5286 0,-2 -0.4714,-0.4714 -1.4453,-0.3698 -2,0 -3.55181,2.36788 -6.98154,11.01846 -10,8 -3.01846,-3.01846 6.6501,-5.95031 8,-10 0.4714,-1.41421 -2.75965,-1.1731 -4,-2 -0.78446,-0.52298 -1.57836,-1.15673 -2,-2 -0.20513,-0.41026 -0.28205,-5.71795 0,-6 0.4714,-0.4714 1.36754,0.21082 2,0 1.41421,-0.4714 2.53824,-1.70765 4,-2 1.96116,-0.39223 4,0 6,0 4,0 8,0 12,0 7.8129,0 0.21115,-0.59628 8,2 1.26491,0.42164 3.05719,-0.94281 4,0 0.4714,0.4714 0.4714,1.5286 0,2 -0.4714,0.4714 -1.33333,0 -2,0 -3.49071,0 -1.40372,0.29814 -6,-2 -1.33333,-0.66667 -2.75965,-1.1731 -4,-2 -0.83173,-0.55449 -7.64234,-7.28469 -8,-8 -0.59628,-1.19257 0.94281,-3.05719 0,-4 -0.4714,-0.4714 -1.5286,0.4714 -2,0 -0.4714,-0.4714 -0.66667,-2 0,-2 0.66667,0 0,1.33333 0,2 0,0.66667 0,1.33333 0,2 0,1.78744 0.31867,9.36265 0,10 -0.42164,0.84327 -1.57836,1.15673 -2,2 -0.25855,0.5171 0,10.5824 0,12 0,0.66667 0.4714,1.5286 0,2 -0.4714,0.4714 -1.5286,-0.4714 -2,0 -0.4714,0.4714 0,1.33333 0,2 0,0.66667 0,1.33333 0,2 0,0.48505 0.0643,5.93568 0,6 -0.4714,0.4714 -1.36754,0.21082 -2,0 -3.40588,-1.13529 -6.5613,-2.96839 -10,-4 -3.25598,-0.97679 -6.84379,-0.73751 -10,-2 -0.61898,-0.24759 0,-1.33333 0,-2 0,-0.90072 -0.30433,-5.39133 0,-6 0.42164,-0.84327 1.57836,-1.15673 2,-2 0.69073,-1.38147 -0.70204,-9.29796 0,-10 0.4714,-0.4714 1.70186,0.59628 2,0 0.8,-1.6 -0.8,-4.4 0,-6 0.42164,-0.84327 1.57836,-1.15673 2,-2 0.29814,-0.59628 -0.4714,-1.5286 0,-2 0.4714,-0.4714 2,-0.66667 2,0 0,0.66667 -2,0.66667 -2,0 0,-0.66667 1.33333,0 2,0"
       id="path3858-3-4"
       inkscape:connector-curvature="0" />
    <path
       style="fill:none;stroke:#ed0c08;stroke-width:2;stroke-linecap:butt;stroke-linejoin:miter;stroke-miterlimit:4;stroke-opacity:1;stroke-dasharray:none"
       d="m 219.99098,437.60742 c 0,-4.66667 0,-9.33333 0,-14 0,-0.66667 -0.4714,-1.5286 0,-2 0.4714,-0.4714 1.5286,0.4714 2,0 0.4714,-0.4714 0,-1.33333 0,-2 0,-0.66667 0,-1.33333 0,-2 0,-1.39108 0.36163,-9.27673 0,-10 -0.42164,-0.84327 -1.57836,-1.15673 -2,-2 -0.59628,-1.19257 0.94281,-3.05719 0,-4 -0.4714,-0.4714 -1.5286,0.4714 -2,0 -0.4714,-0.4714 0.4714,-1.5286 0,-2 -0.2,-0.2 -5.8,-0.2 -6,0 -0.4714,0.4714 0.29814,1.40372 0,2 -0.42164,0.84327 -1.57836,1.15673 -2,2 -0.59628,1.19257 0.59628,2.80743 0,4 -0.42164,0.84327 -1.57836,1.15673 -2,2 -0.59628,1.19257 0.59628,2.80743 0,4 -0.42164,0.84327 -1.57836,1.15673 -2,2 -0.29814,0.59628 0.29814,1.40372 0,2 -2.4714,4.94281 -2,-0.69036 -2,4 0,9.10457 0.94281,0.11438 -2,6 -0.29814,0.59628 0.66667,2 0,2 -0.66667,0 0,-1.33333 0,-2 0,-4.51847 -0.29814,0.89443 2,-6 0.45855,-1.37566 -0.59002,-4.81996 0,-6 0.42164,-0.84327 1.57836,-1.15673 2,-2 0.59628,-1.19257 -0.59628,-2.80743 0,-4 0.42164,-0.84327 1.57836,-1.15673 2,-2 0.29814,-0.59628 0,-1.33333 0,-2 0,-1.33333 -0.42164,-2.73509 0,-4 0.29814,-0.89443 1.70186,-1.10557 2,-2 0.42164,-1.26491 -0.42164,-2.73509 0,-4 0.29814,-0.89443 1.57836,-1.15673 2,-2 1.37936,-2.75871 -2.42211,-1.78895 2,-4 0.59628,-0.29814 1.5286,0.4714 2,0 0.4714,-0.4714 -0.4714,-1.5286 0,-2 0.4714,-0.4714 1.5286,0.4714 2,0 0.4714,-0.4714 -0.4714,-1.5286 0,-2 0.4714,-0.4714 1.40372,0.29814 2,0 0.84327,-0.42164 1.15673,-1.57836 2,-2 0.52588,-0.26294 6.95416,0 8,0 2,0 4.10263,-0.63246 6,0 0.89443,0.29814 1.33333,1.33333 2,2 0.66667,0.66667 1.57836,1.15673 2,2 0.29814,0.59628 -0.29814,1.40372 0,2 0.84327,1.68655 3.15673,2.31345 4,4 0.30404,0.60807 0,6.61896 0,8 0,6.66667 0,13.33333 0,20 0,0.66667 0,1.33333 0,2 0,0.66667 0.29814,1.40372 0,2 -0.42164,0.84327 -1.57836,1.15673 -2,2 -0.59763,1.19526 1.31658,4 -2,4 -3.509,0 -1.3105,-4.621 -2,-6 -0.42164,-0.84327 -1.57836,-1.15673 -2,-2 -0.54249,-1.08498 0.54724,-7.45276 0,-8 -0.4714,-0.4714 -1.5286,0.4714 -2,0 -0.94281,-0.94281 0.59628,-2.80743 0,-4 -0.42164,-0.84327 -1.57836,-1.15673 -2,-2 -0.29814,-0.59628 0.21082,-1.36754 0,-2 -0.4714,-1.41421 -1.5286,-2.58579 -2,-4 -0.42164,-1.26491 0.94281,-3.05719 0,-4 -0.4714,-0.4714 -2,0.66667 -2,0 0,-0.66667 2.66667,0 2,0 -1.33333,0 -2.80743,-0.59628 -4,0 -0.59628,0.29814 0.21082,1.36754 0,2 -4.82894,14.48683 0.57661,-3.15321 -4,6 -0.29814,0.59628 0.29814,1.40372 0,2 -0.42164,0.84327 -1.57836,1.15673 -2,2 -0.59628,1.19257 0.59628,2.80743 0,4 -2.4714,4.94281 -2,-0.69036 -2,4 0,0.66667 -0.4714,2.4714 0,2 2.74173,-2.74173 2,-6.59729 2,-10 0,-0.66667 -0.29814,-1.40372 0,-2 0.42164,-0.84327 1.57836,-1.15673 2,-2 0.69073,-1.38147 -0.70204,-9.29796 0,-10 0.4714,-0.4714 1.40372,0.29814 2,0 0.84327,-0.42164 1.15673,-1.57836 2,-2 0.59628,-0.29814 1.40372,0.29814 2,0 0.84327,-0.42164 1.15673,-1.57836 2,-2 1.19257,-0.59628 3.05719,0.94281 4,0 0.4714,-0.4714 -0.4714,-1.5286 0,-2 0.4714,-0.4714 1.33333,0 2,0 0.66667,0 1.40372,-0.29814 2,0 0.84327,0.42164 1.15673,1.57836 2,2 1.19257,0.59628 3.05719,-0.94281 4,0 0.4714,0.4714 -0.4714,1.5286 0,2 0.4714,0.4714 1.5286,-0.4714 2,0 0.4714,0.4714 -0.29814,1.40372 0,2 1.2,2.4 4.8,3.6 6,6 0.29814,0.59628 -0.29814,1.40372 0,2 0.42164,0.84327 1.57836,1.15673 2,2 0.30433,0.60867 0,5.09928 0,6 0,1.04584 0.26294,7.47412 0,8 -0.42164,0.84327 -1.57836,1.15673 -2,2 -0.29814,0.59628 0.4714,1.5286 0,2 -0.4714,0.4714 -1.33333,0 -2,0 -1.676,0 -9.14997,-0.42502 -10,0 -0.59628,0.29814 0.4714,1.5286 0,2 -0.4714,0.4714 -1.33333,0 -2,0 -0.66667,0 -1.5286,0.4714 -2,0 -0.4714,-0.4714 -0.66667,-2 0,-2 2.83333,0 -5.66667,9.33333 0,-2 2.66667,-5.33333 2,6 2,-2"
       id="path3979-6"
       inkscape:connector-curvature="0" />
    <path
       style="fill:none;stroke:#0000ff;stroke-width:2;stroke-linecap:butt;stroke-linejoin:miter;stroke-miterlimit:4;stroke-opacity:1;stroke-dasharray:none"
       d="m 57.951764,374.54117 c 0,-4.66667 0,-9.33333 0,-14 0,-0.66667 -0.21082,-1.36754 0,-2 0.4714,-1.41421 1.5286,-2.58579 2,-4 0.42164,-1.26491 -0.59628,-2.80743 0,-4 0.42164,-0.84327 1.57836,-1.15673 2,-2 0.29814,-0.59628 -0.29814,-1.40372 0,-2 4.16176,-8.32352 -0.13807,2.13807 4,-2 4.13807,-4.13807 -6.32352,0.16176 2,-4 0.60867,-0.30433 5.09928,0 6,0 2,0 4.10263,-0.63246 6,0 0.89443,0.29814 1.15673,1.57836 2,2 0.59628,0.29814 1.40372,-0.29814 2,0 0.84327,0.42164 1.33333,1.33333 2,2 0.66667,0.66667 1.57836,1.15673 2,2 0.29814,0.59628 -0.29814,1.40372 0,2 0.84327,1.68655 3.15673,2.31345 4,4 0.29814,0.59628 -0.29814,1.40372 0,2 0.42164,0.84327 1.57836,1.15673 2,2 0.30404,0.60807 0,6.61896 0,8 0,0.90072 0.30433,5.39133 0,6 -0.42164,0.84327 -1.57836,1.15673 -2,2 -0.29814,0.59628 0.4714,1.5286 0,2 -0.4714,0.4714 -1.40372,-0.29814 -2,0 -9.15321,4.57661 8.48683,-0.82894 -6,4 -1.26491,0.42164 -2.80743,-0.59628 -4,0 -0.84327,0.42164 -1.15673,1.57836 -2,2 -0.59628,0.29814 -1.33333,0 -2,0 -0.66667,0 -1.40372,0.29814 -2,0 -7.11715,-3.55858 5.26754,-0.7807 -6,-4 -3.26855,-0.93387 -8.47977,1.04047 -10,-2 -1.60555,-3.21109 2.86471,-6.59412 4,-10 0.57637,-1.72911 -0.63632,-8.72736 0,-10 0.84327,-1.68655 3.15673,-2.31345 4,-4 0.29814,-0.59628 -0.4714,-1.5286 0,-2 0.4714,-0.4714 1.5286,0.4714 2,0 0.4714,-0.4714 -0.4714,-1.5286 0,-2 1.56345,-1.56345 3.4793,1.73965 4,2 0.79298,0.39649 5.59113,-0.40887 6,0 0.4714,0.4714 -0.4714,1.5286 0,2 0.4714,0.4714 1.5286,-0.4714 2,0 0.4714,0.4714 -0.29814,1.40372 0,2 0.42164,0.84327 1.57836,1.15673 2,2 0.29814,0.59628 -0.21082,1.36754 0,2 0.4714,1.41421 1.63845,2.5538 2,4 0.0167,0.0669 -0.0106,5.98938 0,6 0.71843,0.71843 6.7061,-0.64695 8,0 0.59628,0.29814 0.4714,1.5286 0,2 -0.4714,0.4714 -1.33333,0 -2,0 -0.66667,0 -1.33333,0 -2,0 -1.33333,0 -2.73509,-0.42164 -4,0 -0.89443,0.29814 -1.10557,1.70186 -2,2 -1.07521,0.3584 -6.3067,0 -8,0 -0.66667,0 -1.5286,0.4714 -2,0 -0.4714,-0.4714 0.4714,-1.5286 0,-2 -0.4714,-0.4714 -1.5286,0.4714 -2,0 -0.4714,-0.4714 0.4714,-1.5286 0,-2 -0.4714,-0.4714 -1.4453,-0.3698 -2,0 -3.55181,2.36788 -6.98154,11.01846 -10,8 -3.01846,-3.01846 6.6501,-5.95031 8,-10 0.4714,-1.41421 -2.75965,-1.1731 -4,-2 -0.78446,-0.52298 -1.57836,-1.15673 -2,-2 -0.20513,-0.41026 -0.28205,-5.71795 0,-6 0.4714,-0.4714 1.36754,0.21082 2,0 1.41421,-0.4714 2.53824,-1.70765 4,-2 1.96116,-0.39223 4,0 6,0 4,0 8,0 12,0 7.8129,0 0.21115,-0.59628 8,2 1.26491,0.42164 3.05719,-0.94281 4,0 0.4714,0.4714 0.4714,1.5286 0,2 -0.4714,0.4714 -1.33333,0 -2,0 -3.49071,0 -1.40372,0.29814 -6,-2 -1.33333,-0.66667 -2.75965,-1.1731 -4,-2 -0.83173,-0.55449 -7.64234,-7.28469 -8,-8 -0.59628,-1.19257 0.94281,-3.05719 0,-4 -0.4714,-0.4714 -1.5286,0.4714 -2,0 -0.4714,-0.4714 -0.66667,-2 0,-2 0.66667,0 0,1.33333 0,2 0,0.66667 0,1.33333 0,2 0,1.78744 0.31867,9.36265 0,10 -0.42164,0.84327 -1.57836,1.15673 -2,2 -0.25855,0.5171 0,10.5824 0,12 0,0.66667 0.4714,1.5286 0,2 -0.4714,0.4714 -1.5286,-0.4714 -2,0 -0.4714,0.4714 0,1.33333 0,2 0,0.66667 0,1.33333 0,2 0,0.48505 0.0643,5.93568 0,6 -0.4714,0.4714 -1.36754,0.21082 -2,0 -3.40588,-1.13529 -6.5613,-2.96839 -10,-4 -3.25598,-0.97679 -6.84379,-0.73751 -10,-2 -0.61898,-0.24759 0,-1.33333 0,-2 0,-0.90072 -0.30433,-5.39133 0,-6 0.42164,-0.84327 1.57836,-1.15673 2,-2 0.69073,-1.38147 -0.70204,-9.29796 0,-10 0.4714,-0.4714 1.70186,0.59628 2,0 0.8,-1.6 -0.8,-4.4 0,-6 0.42164,-0.84327 1.57836,-1.15673 2,-2 0.29814,-0.59628 -0.4714,-1.5286 0,-2 0.4714,-0.4714 2,-0.66667 2,0 0,0.66667 -2,0.66667 -2,0 0,-0.66667 1.33333,0 2,0"
       id="path3858-3-20"
       inkscape:connector-curvature="0" />
    <path
       style="fill:none;stroke:#ed0c08;stroke-width:2;stroke-linecap:butt;stroke-linejoin:miter;stroke-miterlimit:4;stroke-opacity:1;stroke-dasharray:none"
       d="m 61.990984,357.60742 c 0,-4.66667 0,-9.33333 0,-14 0,-0.66667 -0.4714,-1.5286 0,-2 0.4714,-0.4714 1.5286,0.4714 2,0 0.4714,-0.4714 0,-1.33333 0,-2 0,-0.66667 0,-1.33333 0,-2 0,-1.39108 0.36163,-9.27673 0,-10 -0.42164,-0.84327 -1.57836,-1.15673 -2,-2 -0.59628,-1.19257 0.94281,-3.05719 0,-4 -0.4714,-0.4714 -1.5286,0.4714 -2,0 -0.4714,-0.4714 0.4714,-1.5286 0,-2 -0.2,-0.2 -5.8,-0.2 -6,0 -0.4714,0.4714 0.29814,1.40372 0,2 -0.42164,0.84327 -1.57836,1.15673 -2,2 -0.59628,1.19257 0.59628,2.80743 0,4 -0.42164,0.84327 -1.57836,1.15673 -2,2 -0.59628,1.19257 0.59628,2.80743 0,4 -0.42164,0.84327 -1.57836,1.15673 -2,2 -0.29814,0.59628 0.29814,1.40372 0,2 -2.4714,4.94281 -2,-0.69036 -2,4 0,9.10457 0.94281,0.11438 -2,6 -0.29814,0.59628 0.66667,2 0,2 -0.66667,0 0,-1.33333 0,-2 0,-4.51847 -0.29814,0.89443 2,-6 0.45855,-1.37566 -0.59002,-4.81996 0,-6 0.42164,-0.84327 1.57836,-1.15673 2,-2 0.59628,-1.19257 -0.59628,-2.80743 0,-4 0.42164,-0.84327 1.57836,-1.15673 2,-2 0.29814,-0.59628 0,-1.33333 0,-2 0,-1.33333 -0.42164,-2.73509 0,-4 0.29814,-0.89443 1.70186,-1.10557 2,-2 0.42164,-1.26491 -0.42164,-2.73509 0,-4 0.29814,-0.89443 1.57836,-1.15673 2,-2 1.37936,-2.75871 -2.42211,-1.78895 2,-4 0.59628,-0.29814 1.5286,0.4714 2,0 0.4714,-0.4714 -0.4714,-1.5286 0,-2 0.4714,-0.4714 1.5286,0.4714 2,0 0.4714,-0.4714 -0.4714,-1.5286 0,-2 0.4714,-0.4714 1.40372,0.29814 2,0 0.84327,-0.42164 1.15673,-1.57836 2,-2 0.52588,-0.26294 6.95416,0 8,0 2,0 4.10263,-0.63246 6,0 0.89443,0.29814 1.33333,1.33333 2,2 0.66667,0.66667 1.57836,1.15673 2,2 0.29814,0.59628 -0.29814,1.40372 0,2 0.84327,1.68655 3.15673,2.31345 4,4 0.30404,0.60807 0,6.61896 0,8 0,6.66667 0,13.33333 0,20 0,0.66667 0,1.33333 0,2 0,0.66667 0.29814,1.40372 0,2 -0.42164,0.84327 -1.57836,1.15673 -2,2 -0.59763,1.19526 1.31658,4 -2,4 -3.509,0 -1.3105,-4.621 -2,-6 -0.42164,-0.84327 -1.57836,-1.15673 -2,-2 -0.54249,-1.08498 0.54724,-7.45276 0,-8 -0.4714,-0.4714 -1.5286,0.4714 -2,0 -0.94281,-0.94281 0.59628,-2.80743 0,-4 -0.42164,-0.84327 -1.57836,-1.15673 -2,-2 -0.29814,-0.59628 0.21082,-1.36754 0,-2 -0.4714,-1.41421 -1.5286,-2.58579 -2,-4 -0.42164,-1.26491 0.94281,-3.05719 0,-4 -0.4714,-0.4714 -2,0.66667 -2,0 0,-0.66667 2.66667,0 2,0 -1.33333,0 -2.80743,-0.59628 -4,0 -0.59628,0.29814 0.21082,1.36754 0,2 -4.82894,14.48683 0.57661,-3.15321 -4,6 -0.29814,0.59628 0.29814,1.40372 0,2 -0.42164,0.84327 -1.57836,1.15673 -2,2 -0.59628,1.19257 0.59628,2.80743 0,4 -2.4714,4.94281 -2,-0.69036 -2,4 0,0.66667 -0.4714,2.4714 0,2 2.74173,-2.74173 2,-6.59729 2,-10 0,-0.66667 -0.29814,-1.40372 0,-2 0.42164,-0.84327 1.57836,-1.15673 2,-2 0.69073,-1.38147 -0.70204,-9.29796 0,-10 0.4714,-0.4714 1.40372,0.29814 2,0 0.84327,-0.42164 1.15673,-1.57836 2,-2 0.59628,-0.29814 1.40372,0.29814 2,0 0.84327,-0.42164 1.15673,-1.57836 2,-2 1.19257,-0.59628 3.05719,0.94281 4,0 0.4714,-0.4714 -0.4714,-1.5286 0,-2 0.4714,-0.4714 1.33333,0 2,0 0.66667,0 1.40372,-0.29814 2,0 0.84327,0.42164 1.15673,1.57836 2,2 1.19257,0.59628 3.05719,-0.94281 4,0 0.4714,0.4714 -0.4714,1.5286 0,2 0.4714,0.4714 1.5286,-0.4714 2,0 0.4714,0.4714 -0.29814,1.40372 0,2 1.2,2.4 4.8,3.6 6,6 0.29814,0.59628 -0.29814,1.40372 0,2 0.42164,0.84327 1.57836,1.15673 2,2 0.30433,0.60867 0,5.09928 0,6 0,1.04584 0.26294,7.47412 0,8 -0.42164,0.84327 -1.57836,1.15673 -2,2 -0.29814,0.59628 0.4714,1.5286 0,2 -0.4714,0.4714 -1.33333,0 -2,0 -1.676,0 -9.14997,-0.42502 -10,0 -0.59628,0.29814 0.4714,1.5286 0,2 -0.4714,0.4714 -1.33333,0 -2,0 -0.66667,0 -1.5286,0.4714 -2,0 -0.4714,-0.4714 -0.66667,-2 0,-2 2.83333,0 -5.66667,9.33333 0,-2 2.66667,-5.33333 2,6 2,-2"
       id="path3979-65"
       inkscape:connector-curvature="0" />
    <path
       style="fill:none;stroke:#ff00ff;stroke-width:2;stroke-linecap:butt;stroke-linejoin:miter;stroke-miterlimit:4;stroke-opacity:1;stroke-dasharray:none"
       d="m 538,262 c -2.66667,0.66667 -7.33333,4.66667 -8,2 -0.66667,-2.66667 10.74874,-2 8,-2 -3.39935,0 -6.64691,1.44115 -10,2 -0.6576,0.1096 -1.40372,-0.29814 -2,0 -0.5207,0.26035 -2.43655,3.56345 -4,2 -0.4714,-0.4714 0.4714,-1.5286 0,-2 -1.15313,-1.15313 -3.98165,1.32722 -6,2 -1.19254,0.39751 -10.06227,0 -12,0 -0.66667,0 -1.33333,0 -2,0 -0.66667,0 -1.40372,-0.29814 -2,0 -0.84327,0.42164 -1.15673,1.57836 -2,2 -0.59628,0.29814 -1.40372,-0.29814 -2,0 -0.84327,0.42164 -1.15673,1.57836 -2,2 -0.59628,0.29814 -1.40372,-0.29814 -2,0 -0.84327,0.42164 -1.21554,1.47702 -2,2 -1.24035,0.8269 -2.75965,1.1731 -4,2 -0.78446,0.52298 -1.15673,1.57836 -2,2 -0.59628,0.29814 -1.5286,-0.4714 -2,0 -0.4714,0.4714 0.4714,1.5286 0,2 -0.4714,0.4714 -1.5286,-0.4714 -2,0 -0.4714,0.4714 0.4714,1.5286 0,2 -0.4714,0.4714 -1.5286,-0.4714 -2,0 -0.4714,0.4714 0.29814,1.40372 0,2 -0.84327,1.68655 -3.15673,2.31345 -4,4 -0.29814,0.59628 0.4714,1.5286 0,2 -0.4714,0.4714 -1.5286,-0.4714 -2,0 -0.94281,0.94281 0.94281,3.05719 0,4 -0.4714,0.4714 -1.5286,-0.4714 -2,0 -0.4714,0.4714 0.29814,1.40372 0,2 -0.42164,0.84327 -1.57836,1.15673 -2,2 -0.29814,0.59628 0.4714,1.5286 0,2 -0.4714,0.4714 -1.5286,-0.4714 -2,0 -0.40887,0.40887 0.39649,5.20702 0,6 -0.42164,0.84327 -1.57836,1.15673 -2,2 -0.30433,0.60867 0,5.09928 0,6 0,4 0,8 0,12 0,0.66667 0,1.33333 0,2 0,0.66667 -0.4714,1.5286 0,2 0.4714,0.4714 1.5286,-0.4714 2,0 0.4714,0.4714 -0.4714,1.5286 0,2 0.4714,0.4714 1.5286,-0.4714 2,0 0.4714,0.4714 0,1.33333 0,2 0,0.66667 0,1.33333 0,2 0,2.44136 0.77608,4.61196 -2,6 -1.6,0.8 -4.4,-0.8 -6,0 -1.68655,0.84327 -2.31345,3.15673 -4,4 -0.59628,0.29814 -1.33333,0 -2,0 -0.66667,0 -1.40372,0.29814 -2,0 -0.84327,-0.42164 -1.15673,-1.57836 -2,-2 -1.19257,-0.59628 -3.05719,0.94281 -4,0 -0.4714,-0.4714 0.4714,-1.5286 0,-2 -1.05409,-1.05409 -2.94591,-0.94591 -4,-2 -0.4714,-0.4714 0.29814,-1.40372 0,-2 -0.84327,-1.68655 -3.15673,-2.31345 -4,-4 -0.29814,-0.59628 0.29814,-1.40372 0,-2 -0.42164,-0.84327 -1.57836,-1.15673 -2,-2 -0.2806,-0.56121 -0.2806,-7.43879 0,-8 0.42164,-0.84327 1.33333,-2.66667 2,-2 0.66667,0.66667 -2.94281,2 -2,2 1.49071,0 2.75965,-1.1731 4,-2 0.78446,-0.52298 1.15673,-1.57836 2,-2 0.32,-0.16 5.92,-0.16 6,0 0.59628,1.19257 0,2.66667 0,4 0,0.90072 0.30433,5.39133 0,6 -0.42164,0.84327 -1.57836,1.15673 -2,2 -0.29814,0.59628 0.29814,1.40372 0,2 -0.42164,0.84327 -1.57836,1.15673 -2,2 -0.29814,0.59628 0.4714,1.5286 0,2 -0.4714,0.4714 -1.5286,-0.4714 -2,0 -0.4714,0.4714 0.29814,1.40372 0,2 -0.42164,0.84327 -1.57836,1.15673 -2,2 -0.59628,1.19257 0.94281,3.05719 0,4 -0.4714,0.4714 -1.5286,-0.4714 -2,0 -1,1 1,5 0,6 -0.4714,0.4714 -1.5286,-0.4714 -2,0 -0.94281,0.94281 1.33333,4 0,4 -0.66667,0 -0.66667,-2 0,-2 0.94281,0 1.15673,1.57836 2,2 0.59628,0.29814 1.33333,0 2,0 0.66667,0 1.40372,0.29814 2,0 0.84327,-0.42164 1.10557,-1.70186 2,-2 1.26491,-0.42164 2.73509,0.42164 4,0 0.89443,-0.29814 1.15673,-1.57836 2,-2 0.59628,-0.29814 1.40372,0.29814 2,0 0.38284,-0.19142 7.80858,-7.61716 8,-8 0.29814,-0.59628 -0.4714,-1.5286 0,-2 0.4714,-0.4714 1.5286,0.4714 2,0 0.4714,-0.4714 -0.4714,-1.5286 0,-2 0.4714,-0.4714 1.5286,0.4714 2,0 0.4714,-0.4714 -0.21082,-1.36754 0,-2 0.4714,-1.41421 1.5286,-2.58579 2,-4 0.14639,-0.43916 0.14867,-7.70267 0,-8 -0.26551,-0.53102 -5.46898,-5.73449 -6,-6 -0.59628,-0.29814 -1.5286,0.4714 -2,0 -0.4714,-0.4714 0.4714,-1.5286 0,-2 -0.4714,-0.4714 -1.5286,0.4714 -2,0 -0.4714,-0.4714 0.4714,-1.5286 0,-2 -0.0805,-0.0805 -7.26553,0 -8,0 -4.69036,0 0.94281,0.4714 -4,-2 -0.59628,-0.29814 -1.33333,0 -2,0 -0.66667,0 -1.33333,0 -2,0 -0.66667,0 -1.5286,-0.4714 -2,0 -0.4714,0.4714 0.4714,1.5286 0,2 -0.4714,0.4714 -1.40372,-0.29814 -2,0 -1.68655,0.84327 -2.21115,3.40372 -4,4 -1.26491,0.42164 -2.73509,-0.42164 -4,0 -0.89443,0.29814 -1.15673,1.57836 -2,2 -0.59628,0.29814 -1.40372,-0.29814 -2,0 -1.68655,0.84327 -2.43107,2.95405 -4,4 -1.00719,4.40633 -4.11438,1.05719 -6,2 -4.42211,2.21105 -0.62064,1.24129 -2,4 -0.42164,0.84327 -1.57836,1.15673 -2,2 -0.29814,0.59628 0,1.33333 0,2 0,0.66667 -0.29814,1.40372 0,2 0.42164,0.84327 1.57836,1.15673 2,2 0.29814,0.59628 -0.4714,1.5286 0,2 0.4714,0.4714 1.5286,-0.4714 2,0 0.4714,0.4714 -0.4714,1.5286 0,2 0.4714,0.4714 1.5286,-0.4714 2,0 0.4714,0.4714 -0.29814,1.40372 0,2 0.42164,0.84327 1.57836,1.15673 2,2 0.29814,0.59628 -0.4714,1.5286 0,2 0.4714,0.4714 1.5286,-0.4714 2,0 0.4714,0.4714 -0.29814,1.40372 0,2 0.42164,0.84327 1.57836,1.15673 2,2 0.39649,0.79298 -0.40887,5.59113 0,6 0.4714,0.4714 1.5286,-0.4714 2,0 0.94281,0.94281 -0.94281,3.05719 0,4 0.94281,0.94281 2.80743,-0.59628 4,0 0.84327,0.42164 1.15673,1.57836 2,2 0.59628,0.29814 1.5286,-0.4714 2,0 0.4714,0.4714 -0.4714,1.5286 0,2 0.4714,0.4714 1.5286,-0.4714 2,0 0.4714,0.4714 -0.29814,1.40372 0,2 0.81311,1.62623 3.17259,1.65482 2,4 -2.21105,4.42211 -1.24129,0.62064 -4,2 -0.84327,0.42164 -1.15673,1.57836 -2,2 -0.85417,0.42708 -9.20937,0 -10,0 -4,0 -8,0 -12,0 -0.66667,0 -1.33333,0 -2,0 -0.66667,0 -1.40372,0.29814 -2,0 -0.84327,-0.42164 -1.15673,-1.57836 -2,-2 -4.9259,-2.46295 1.80547,5.80547 -6,-2 -0.4714,-0.4714 0.29814,-1.40372 0,-2 -0.76389,-1.52778 -5.54857,-4.6457 -6,-6 -0.34345,-1.03034 0,-11.88436 0,-14 0,-0.48505 -0.0643,-5.93568 0,-6 0.94281,-0.94281 2.80743,0.59628 4,0 0.84327,-0.42164 1.15673,-1.57836 2,-2 0.59628,-0.29814 1.33333,0 2,0 1.33333,0 2.66667,0 4,0 5.33333,0 10.66667,0 16,0 3.33333,0 6.66667,0 10,0 0.66667,0 1.33333,0 2,0 0.66667,0 1.40372,-0.29814 2,0 0.84327,0.42164 1.33333,1.33333 2,2"
       id="path4038"
       inkscape:connector-curvature="0" />
    <path
       style="fill:none;stroke:#ed0c08;stroke-width:2;stroke-linecap:butt;stroke-linejoin:miter;stroke-miterlimit:4;stroke-opacity:1;stroke-dasharray:none"
       d="m 222.08052,335.14055 c 0,-4.66667 0,-9.33333 0,-14 0,-0.66667 -0.4714,-1.5286 0,-2 0.4714,-0.4714 1.5286,0.4714 2,0 0.4714,-0.4714 0,-1.33333 0,-2 0,-0.66667 0,-1.33333 0,-2 0,-1.39108 0.36163,-9.27673 0,-10 -0.42164,-0.84327 -1.57836,-1.15673 -2,-2 -0.59628,-1.19257 0.94281,-3.05719 0,-4 -0.4714,-0.4714 -1.5286,0.4714 -2,0 -0.4714,-0.4714 0.4714,-1.5286 0,-2 -0.2,-0.2 -5.8,-0.2 -6,0 -0.4714,0.4714 0.29814,1.40372 0,2 -0.42164,0.84327 -1.57836,1.15673 -2,2 -0.59628,1.19257 0.59628,2.80743 0,4 -0.42164,0.84327 -1.57836,1.15673 -2,2 -0.59628,1.19257 0.59628,2.80743 0,4 -0.42164,0.84327 -1.57836,1.15673 -2,2 -0.29814,0.59628 0.29814,1.40372 0,2 -2.4714,4.94281 -2,-0.69036 -2,4 0,9.10457 0.94281,0.11438 -2,6 -0.29814,0.59628 0.66667,2 0,2 -0.66667,0 0,-1.33333 0,-2 0,-4.51847 -0.29814,0.89443 2,-6 0.45855,-1.37566 -0.59002,-4.81996 0,-6 0.42164,-0.84327 1.57836,-1.15673 2,-2 0.59628,-1.19257 -0.59628,-2.80743 0,-4 0.42164,-0.84327 1.57836,-1.15673 2,-2 0.29814,-0.59628 0,-1.33333 0,-2 0,-1.33333 -0.42164,-2.73509 0,-4 0.29814,-0.89443 1.70186,-1.10557 2,-2 0.42164,-1.26491 -0.42164,-2.73509 0,-4 0.29814,-0.89443 1.57836,-1.15673 2,-2 1.37936,-2.75871 -2.42211,-1.78895 2,-4 0.59628,-0.29814 1.5286,0.4714 2,0 0.4714,-0.4714 -0.4714,-1.5286 0,-2 0.4714,-0.4714 1.5286,0.4714 2,0 0.4714,-0.4714 -0.4714,-1.5286 0,-2 0.4714,-0.4714 1.40372,0.29814 2,0 0.84327,-0.42164 1.15673,-1.57836 2,-2 0.52588,-0.26294 6.95416,0 8,0 2,0 4.10263,-0.63246 6,0 0.89443,0.29814 1.33333,1.33333 2,2 0.66667,0.66667 1.57836,1.15673 2,2 0.29814,0.59628 -0.29814,1.40372 0,2 0.84327,1.68655 3.15673,2.31345 4,4 0.30404,0.60807 0,6.61896 0,8 0,6.66667 0,13.33333 0,20 0,0.66667 0,1.33333 0,2 0,0.66667 0.29814,1.40372 0,2 -0.42164,0.84327 -1.57836,1.15673 -2,2 -0.59763,1.19526 1.31658,4 -2,4 -3.509,0 -1.3105,-4.621 -2,-6 -0.42164,-0.84327 -1.57836,-1.15673 -2,-2 -0.54249,-1.08498 0.54724,-7.45276 0,-8 -0.4714,-0.4714 -1.5286,0.4714 -2,0 -0.94281,-0.94281 0.59628,-2.80743 0,-4 -0.42164,-0.84327 -1.57836,-1.15673 -2,-2 -0.29814,-0.59628 0.21082,-1.36754 0,-2 -0.4714,-1.41421 -1.5286,-2.58579 -2,-4 -0.42164,-1.26491 0.94281,-3.05719 0,-4 -0.4714,-0.4714 -2,0.66667 -2,0 0,-0.66667 2.66667,0 2,0 -1.33333,0 -2.80743,-0.59628 -4,0 -0.59628,0.29814 0.21082,1.36754 0,2 -4.82894,14.48683 0.57661,-3.15321 -4,6 -0.29814,0.59628 0.29814,1.40372 0,2 -0.42164,0.84327 -1.57836,1.15673 -2,2 -0.59628,1.19257 0.59628,2.80743 0,4 -2.4714,4.94281 -2,-0.69036 -2,4 0,0.66667 -0.4714,2.4714 0,2 2.74173,-2.74173 2,-6.59729 2,-10 0,-0.66667 -0.29814,-1.40372 0,-2 0.42164,-0.84327 1.57836,-1.15673 2,-2 0.69073,-1.38147 -0.70204,-9.29796 0,-10 0.4714,-0.4714 1.40372,0.29814 2,0 0.84327,-0.42164 1.15673,-1.57836 2,-2 0.59628,-0.29814 1.40372,0.29814 2,0 0.84327,-0.42164 1.15673,-1.57836 2,-2 1.19257,-0.59628 3.05719,0.94281 4,0 0.4714,-0.4714 -0.4714,-1.5286 0,-2 0.4714,-0.4714 1.33333,0 2,0 0.66667,0 1.40372,-0.29814 2,0 0.84327,0.42164 1.15673,1.57836 2,2 1.19257,0.59628 3.05719,-0.94281 4,0 0.4714,0.4714 -0.4714,1.5286 0,2 0.4714,0.4714 1.5286,-0.4714 2,0 0.4714,0.4714 -0.29814,1.40372 0,2 1.2,2.4 4.8,3.6 6,6 0.29814,0.59628 -0.29814,1.40372 0,2 0.42164,0.84327 1.57836,1.15673 2,2 0.30433,0.60867 0,5.09928 0,6 0,1.04584 0.26294,7.47412 0,8 -0.42164,0.84327 -1.57836,1.15673 -2,2 -0.29814,0.59628 0.4714,1.5286 0,2 -0.4714,0.4714 -1.33333,0 -2,0 -1.676,0 -9.14997,-0.42502 -10,0 -0.59628,0.29814 0.4714,1.5286 0,2 -0.4714,0.4714 -1.33333,0 -2,0 -0.66667,0 -1.5286,0.4714 -2,0 -0.4714,-0.4714 -0.66667,-2 0,-2 2.83333,0 -5.66667,9.33333 0,-2 2.66667,-5.33333 2,6 2,-2"
       id="path3979-65-5"
       inkscape:connector-curvature="0" />
    <path
       style="fill:none;stroke:#ed0c08;stroke-width:2;stroke-linecap:butt;stroke-linejoin:miter;stroke-miterlimit:4;stroke-opacity:1;stroke-dasharray:none"
       d="m 804.08052,333.14055 c 0,-4.66667 0,-9.33333 0,-14 0,-0.66667 -0.4714,-1.5286 0,-2 0.4714,-0.4714 1.5286,0.4714 2,0 0.4714,-0.4714 0,-1.33333 0,-2 0,-0.66667 0,-1.33333 0,-2 0,-1.39108 0.36163,-9.27673 0,-10 -0.42164,-0.84327 -1.57836,-1.15673 -2,-2 -0.59628,-1.19257 0.94281,-3.05719 0,-4 -0.4714,-0.4714 -1.5286,0.4714 -2,0 -0.4714,-0.4714 0.4714,-1.5286 0,-2 -0.2,-0.2 -5.8,-0.2 -6,0 -0.4714,0.4714 0.29814,1.40372 0,2 -0.42164,0.84327 -1.57836,1.15673 -2,2 -0.59628,1.19257 0.59628,2.80743 0,4 -0.42164,0.84327 -1.57836,1.15673 -2,2 -0.59628,1.19257 0.59628,2.80743 0,4 -0.42164,0.84327 -1.57836,1.15673 -2,2 -0.29814,0.59628 0.29814,1.40372 0,2 -2.4714,4.94281 -2,-0.69036 -2,4 0,9.10457 0.94281,0.11438 -2,6 -0.29814,0.59628 0.66667,2 0,2 -0.66667,0 0,-1.33333 0,-2 0,-4.51847 -0.29814,0.89443 2,-6 0.45855,-1.37566 -0.59002,-4.81996 0,-6 0.42164,-0.84327 1.57836,-1.15673 2,-2 0.59628,-1.19257 -0.59628,-2.80743 0,-4 0.42164,-0.84327 1.57836,-1.15673 2,-2 0.29814,-0.59628 0,-1.33333 0,-2 0,-1.33333 -0.42164,-2.73509 0,-4 0.29814,-0.89443 1.70186,-1.10557 2,-2 0.42164,-1.26491 -0.42164,-2.73509 0,-4 0.29814,-0.89443 1.57836,-1.15673 2,-2 1.37936,-2.75871 -2.42211,-1.78895 2,-4 0.59628,-0.29814 1.5286,0.4714 2,0 0.4714,-0.4714 -0.4714,-1.5286 0,-2 0.4714,-0.4714 1.5286,0.4714 2,0 0.4714,-0.4714 -0.4714,-1.5286 0,-2 0.4714,-0.4714 1.40372,0.29814 2,0 0.84327,-0.42164 1.15673,-1.57836 2,-2 0.52588,-0.26294 6.95416,0 8,0 2,0 4.10263,-0.63246 6,0 0.89443,0.29814 1.33333,1.33333 2,2 0.66667,0.66667 1.57836,1.15673 2,2 0.29814,0.59628 -0.29814,1.40372 0,2 0.84327,1.68655 3.15673,2.31345 4,4 0.30404,0.60807 0,6.61896 0,8 0,6.66667 0,13.33333 0,20 0,0.66667 0,1.33333 0,2 0,0.66667 0.29814,1.40372 0,2 -0.42164,0.84327 -1.57836,1.15673 -2,2 -0.59763,1.19526 1.31658,4 -2,4 -3.509,0 -1.3105,-4.621 -2,-6 -0.42164,-0.84327 -1.57836,-1.15673 -2,-2 -0.54249,-1.08498 0.54724,-7.45276 0,-8 -0.4714,-0.4714 -1.5286,0.4714 -2,0 -0.94281,-0.94281 0.59628,-2.80743 0,-4 -0.42164,-0.84327 -1.57836,-1.15673 -2,-2 -0.29814,-0.59628 0.21082,-1.36754 0,-2 -0.4714,-1.41421 -1.5286,-2.58579 -2,-4 -0.42164,-1.26491 0.94281,-3.05719 0,-4 -0.4714,-0.4714 -2,0.66667 -2,0 0,-0.66667 2.66667,0 2,0 -1.33333,0 -2.80743,-0.59628 -4,0 -0.59628,0.29814 0.21082,1.36754 0,2 -4.82894,14.48683 0.57661,-3.15321 -4,6 -0.29814,0.59628 0.29814,1.40372 0,2 -0.42164,0.84327 -1.57836,1.15673 -2,2 -0.59628,1.19257 0.59628,2.80743 0,4 -2.4714,4.94281 -2,-0.69036 -2,4 0,0.66667 -0.4714,2.4714 0,2 2.74173,-2.74173 2,-6.59729 2,-10 0,-0.66667 -0.29814,-1.40372 0,-2 0.42164,-0.84327 1.57836,-1.15673 2,-2 0.69073,-1.38147 -0.70204,-9.29796 0,-10 0.4714,-0.4714 1.40372,0.29814 2,0 0.84327,-0.42164 1.15673,-1.57836 2,-2 0.59628,-0.29814 1.40372,0.29814 2,0 0.84327,-0.42164 1.15673,-1.57836 2,-2 1.19257,-0.59628 3.05719,0.94281 4,0 0.4714,-0.4714 -0.4714,-1.5286 0,-2 0.4714,-0.4714 1.33333,0 2,0 0.66667,0 1.40372,-0.29814 2,0 0.84327,0.42164 1.15673,1.57836 2,2 1.19257,0.59628 3.05719,-0.94281 4,0 0.4714,0.4714 -0.4714,1.5286 0,2 0.4714,0.4714 1.5286,-0.4714 2,0 0.4714,0.4714 -0.29814,1.40372 0,2 1.2,2.4 4.8,3.6 6,6 0.29814,0.59628 -0.29814,1.40372 0,2 0.42164,0.84327 1.57836,1.15673 2,2 0.30433,0.60867 0,5.09928 0,6 0,1.04584 0.26294,7.47412 0,8 -0.42164,0.84327 -1.57836,1.15673 -2,2 -0.29814,0.59628 0.4714,1.5286 0,2 -0.4714,0.4714 -1.33333,0 -2,0 -1.676,0 -9.14997,-0.42502 -10,0 -0.59628,0.29814 0.4714,1.5286 0,2 -0.4714,0.4714 -1.33333,0 -2,0 -0.66667,0 -1.5286,0.4714 -2,0 -0.4714,-0.4714 -0.66667,-2 0,-2 2.83333,0 -5.66667,9.33333 0,-2 2.66667,-5.33333 2,6 2,-2"
       id="path3979-65-4"
       inkscape:connector-curvature="0" />
    <path
       style="fill:none;stroke:#ed0c08;stroke-width:2;stroke-linecap:butt;stroke-linejoin:miter;stroke-miterlimit:4;stroke-opacity:1;stroke-dasharray:none"
       d="m 362.08052,487.14055 c 0,-4.66667 0,-9.33333 0,-14 0,-0.66667 -0.4714,-1.5286 0,-2 0.4714,-0.4714 1.5286,0.4714 2,0 0.4714,-0.4714 0,-1.33333 0,-2 0,-0.66667 0,-1.33333 0,-2 0,-1.39108 0.36163,-9.27673 0,-10 -0.42164,-0.84327 -1.57836,-1.15673 -2,-2 -0.59628,-1.19257 0.94281,-3.05719 0,-4 -0.4714,-0.4714 -1.5286,0.4714 -2,0 -0.4714,-0.4714 0.4714,-1.5286 0,-2 -0.2,-0.2 -5.8,-0.2 -6,0 -0.4714,0.4714 0.29814,1.40372 0,2 -0.42164,0.84327 -1.57836,1.15673 -2,2 -0.59628,1.19257 0.59628,2.80743 0,4 -0.42164,0.84327 -1.57836,1.15673 -2,2 -0.59628,1.19257 0.59628,2.80743 0,4 -0.42164,0.84327 -1.57836,1.15673 -2,2 -0.29814,0.59628 0.29814,1.40372 0,2 -2.4714,4.94281 -2,-0.69036 -2,4 0,9.10457 0.94281,0.11438 -2,6 -0.29814,0.59628 0.66667,2 0,2 -0.66667,0 0,-1.33333 0,-2 0,-4.51847 -0.29814,0.89443 2,-6 0.45855,-1.37566 -0.59002,-4.81996 0,-6 0.42164,-0.84327 1.57836,-1.15673 2,-2 0.59628,-1.19257 -0.59628,-2.80743 0,-4 0.42164,-0.84327 1.57836,-1.15673 2,-2 0.29814,-0.59628 0,-1.33333 0,-2 0,-1.33333 -0.42164,-2.73509 0,-4 0.29814,-0.89443 1.70186,-1.10557 2,-2 0.42164,-1.26491 -0.42164,-2.73509 0,-4 0.29814,-0.89443 1.57836,-1.15673 2,-2 1.37936,-2.75871 -2.42211,-1.78895 2,-4 0.59628,-0.29814 1.5286,0.4714 2,0 0.4714,-0.4714 -0.4714,-1.5286 0,-2 0.4714,-0.4714 1.5286,0.4714 2,0 0.4714,-0.4714 -0.4714,-1.5286 0,-2 0.4714,-0.4714 1.40372,0.29814 2,0 0.84327,-0.42164 1.15673,-1.57836 2,-2 0.52588,-0.26294 6.95416,0 8,0 2,0 4.10263,-0.63246 6,0 0.89443,0.29814 1.33333,1.33333 2,2 0.66667,0.66667 1.57836,1.15673 2,2 0.29814,0.59628 -0.29814,1.40372 0,2 0.84327,1.68655 3.15673,2.31345 4,4 0.30404,0.60807 0,6.61896 0,8 0,6.66667 0,13.33333 0,20 0,0.66667 0,1.33333 0,2 0,0.66667 0.29814,1.40372 0,2 -0.42164,0.84327 -1.57836,1.15673 -2,2 -0.59763,1.19526 1.31658,4 -2,4 -3.509,0 -1.3105,-4.621 -2,-6 -0.42164,-0.84327 -1.57836,-1.15673 -2,-2 -0.54249,-1.08498 0.54724,-7.45276 0,-8 -0.4714,-0.4714 -1.5286,0.4714 -2,0 -0.94281,-0.94281 0.59628,-2.80743 0,-4 -0.42164,-0.84327 -1.57836,-1.15673 -2,-2 -0.29814,-0.59628 0.21082,-1.36754 0,-2 -0.4714,-1.41421 -1.5286,-2.58579 -2,-4 -0.42164,-1.26491 0.94281,-3.05719 0,-4 -0.4714,-0.4714 -2,0.66667 -2,0 0,-0.66667 2.66667,0 2,0 -1.33333,0 -2.80743,-0.59628 -4,0 -0.59628,0.29814 0.21082,1.36754 0,2 -4.82894,14.48683 0.57661,-3.15321 -4,6 -0.29814,0.59628 0.29814,1.40372 0,2 -0.42164,0.84327 -1.57836,1.15673 -2,2 -0.59628,1.19257 0.59628,2.80743 0,4 -2.4714,4.94281 -2,-0.69036 -2,4 0,0.66667 -0.4714,2.4714 0,2 2.74173,-2.74173 2,-6.59729 2,-10 0,-0.66667 -0.29814,-1.40372 0,-2 0.42164,-0.84327 1.57836,-1.15673 2,-2 0.69073,-1.38147 -0.70204,-9.29796 0,-10 0.4714,-0.4714 1.40372,0.29814 2,0 0.84327,-0.42164 1.15673,-1.57836 2,-2 0.59628,-0.29814 1.40372,0.29814 2,0 0.84327,-0.42164 1.15673,-1.57836 2,-2 1.19257,-0.59628 3.05719,0.94281 4,0 0.4714,-0.4714 -0.4714,-1.5286 0,-2 0.4714,-0.4714 1.33333,0 2,0 0.66667,0 1.40372,-0.29814 2,0 0.84327,0.42164 1.15673,1.57836 2,2 1.19257,0.59628 3.05719,-0.94281 4,0 0.4714,0.4714 -0.4714,1.5286 0,2 0.4714,0.4714 1.5286,-0.4714 2,0 0.4714,0.4714 -0.29814,1.40372 0,2 1.2,2.4 4.8,3.6 6,6 0.29814,0.59628 -0.29814,1.40372 0,2 0.42164,0.84327 1.57836,1.15673 2,2 0.30433,0.60867 0,5.09928 0,6 0,1.04584 0.26294,7.47412 0,8 -0.42164,0.84327 -1.57836,1.15673 -2,2 -0.29814,0.59628 0.4714,1.5286 0,2 -0.4714,0.4714 -1.33333,0 -2,0 -1.676,0 -9.14997,-0.42502 -10,0 -0.59628,0.29814 0.4714,1.5286 0,2 -0.4714,0.4714 -1.33333,0 -2,0 -0.66667,0 -1.5286,0.4714 -2,0 -0.4714,-0.4714 -0.66667,-2 0,-2 2.83333,0 -5.66667,9.33333 0,-2 2.66667,-5.33333 2,6 2,-2"
       id="path3979-65-6"
       inkscape:connector-curvature="0" />
    <path
       style="fill:none;stroke:#ed0c08;stroke-width:2;stroke-linecap:butt;stroke-linejoin:miter;stroke-miterlimit:4;stroke-opacity:1;stroke-dasharray:none"
       d="m 548.08052,379.14055 c 0,-4.66667 0,-9.33333 0,-14 0,-0.66667 -0.4714,-1.5286 0,-2 0.4714,-0.4714 1.5286,0.4714 2,0 0.4714,-0.4714 0,-1.33333 0,-2 0,-0.66667 0,-1.33333 0,-2 0,-1.39108 0.36163,-9.27673 0,-10 -0.42164,-0.84327 -1.57836,-1.15673 -2,-2 -0.59628,-1.19257 0.94281,-3.05719 0,-4 -0.4714,-0.4714 -1.5286,0.4714 -2,0 -0.4714,-0.4714 0.4714,-1.5286 0,-2 -0.2,-0.2 -5.8,-0.2 -6,0 -0.4714,0.4714 0.29814,1.40372 0,2 -0.42164,0.84327 -1.57836,1.15673 -2,2 -0.59628,1.19257 0.59628,2.80743 0,4 -0.42164,0.84327 -1.57836,1.15673 -2,2 -0.59628,1.19257 0.59628,2.80743 0,4 -0.42164,0.84327 -1.57836,1.15673 -2,2 -0.29814,0.59628 0.29814,1.40372 0,2 -2.4714,4.94281 -2,-0.69036 -2,4 0,9.10457 0.94281,0.11438 -2,6 -0.29814,0.59628 0.66667,2 0,2 -0.66667,0 0,-1.33333 0,-2 0,-4.51847 -0.29814,0.89443 2,-6 0.45855,-1.37566 -0.59002,-4.81996 0,-6 0.42164,-0.84327 1.57836,-1.15673 2,-2 0.59628,-1.19257 -0.59628,-2.80743 0,-4 0.42164,-0.84327 1.57836,-1.15673 2,-2 0.29814,-0.59628 0,-1.33333 0,-2 0,-1.33333 -0.42164,-2.73509 0,-4 0.29814,-0.89443 1.70186,-1.10557 2,-2 0.42164,-1.26491 -0.42164,-2.73509 0,-4 0.29814,-0.89443 1.57836,-1.15673 2,-2 1.37936,-2.75871 -2.42211,-1.78895 2,-4 0.59628,-0.29814 1.5286,0.4714 2,0 0.4714,-0.4714 -0.4714,-1.5286 0,-2 0.4714,-0.4714 1.5286,0.4714 2,0 0.4714,-0.4714 -0.4714,-1.5286 0,-2 0.4714,-0.4714 1.40372,0.29814 2,0 0.84327,-0.42164 1.15673,-1.57836 2,-2 0.52588,-0.26294 6.95416,0 8,0 2,0 4.10263,-0.63246 6,0 0.89443,0.29814 1.33333,1.33333 2,2 0.66667,0.66667 1.57836,1.15673 2,2 0.29814,0.59628 -0.29814,1.40372 0,2 0.84327,1.68655 3.15673,2.31345 4,4 0.30404,0.60807 0,6.61896 0,8 0,6.66667 0,13.33333 0,20 0,0.66667 0,1.33333 0,2 0,0.66667 0.29814,1.40372 0,2 -0.42164,0.84327 -1.57836,1.15673 -2,2 -0.59763,1.19526 1.31658,4 -2,4 -3.509,0 -1.3105,-4.621 -2,-6 -0.42164,-0.84327 -1.57836,-1.15673 -2,-2 -0.54249,-1.08498 0.54724,-7.45276 0,-8 -0.4714,-0.4714 -1.5286,0.4714 -2,0 -0.94281,-0.94281 0.59628,-2.80743 0,-4 -0.42164,-0.84327 -1.57836,-1.15673 -2,-2 -0.29814,-0.59628 0.21082,-1.36754 0,-2 -0.4714,-1.41421 -1.5286,-2.58579 -2,-4 -0.42164,-1.26491 0.94281,-3.05719 0,-4 -0.4714,-0.4714 -2,0.66667 -2,0 0,-0.66667 2.66667,0 2,0 -1.33333,0 -2.80743,-0.59628 -4,0 -0.59628,0.29814 0.21082,1.36754 0,2 -4.82894,14.48683 0.57661,-3.15321 -4,6 -0.29814,0.59628 0.29814,1.40372 0,2 -0.42164,0.84327 -1.57836,1.15673 -2,2 -0.59628,1.19257 0.59628,2.80743 0,4 -2.4714,4.94281 -2,-0.69036 -2,4 0,0.66667 -0.4714,2.4714 0,2 2.74173,-2.74173 2,-6.59729 2,-10 0,-0.66667 -0.29814,-1.40372 0,-2 0.42164,-0.84327 1.57836,-1.15673 2,-2 0.69073,-1.38147 -0.70204,-9.29796 0,-10 0.4714,-0.4714 1.40372,0.29814 2,0 0.84327,-0.42164 1.15673,-1.57836 2,-2 0.59628,-0.29814 1.40372,0.29814 2,0 0.84327,-0.42164 1.15673,-1.57836 2,-2 1.19257,-0.59628 3.05719,0.94281 4,0 0.4714,-0.4714 -0.4714,-1.5286 0,-2 0.4714,-0.4714 1.33333,0 2,0 0.66667,0 1.40372,-0.29814 2,0 0.84327,0.42164 1.15673,1.57836 2,2 1.19257,0.59628 3.05719,-0.94281 4,0 0.4714,0.4714 -0.4714,1.5286 0,2 0.4714,0.4714 1.5286,-0.4714 2,0 0.4714,0.4714 -0.29814,1.40372 0,2 1.2,2.4 4.8,3.6 6,6 0.29814,0.59628 -0.29814,1.40372 0,2 0.42164,0.84327 1.57836,1.15673 2,2 0.30433,0.60867 0,5.09928 0,6 0,1.04584 0.26294,7.47412 0,8 -0.42164,0.84327 -1.57836,1.15673 -2,2 -0.29814,0.59628 0.4714,1.5286 0,2 -0.4714,0.4714 -1.33333,0 -2,0 -1.676,0 -9.14997,-0.42502 -10,0 -0.59628,0.29814 0.4714,1.5286 0,2 -0.4714,0.4714 -1.33333,0 -2,0 -0.66667,0 -1.5286,0.4714 -2,0 -0.4714,-0.4714 -0.66667,-2 0,-2 2.83333,0 -5.66667,9.33333 0,-2 2.66667,-5.33333 2,6 2,-2"
       id="path3979-65-2"
       inkscape:connector-curvature="0" />
    <path
       style="fill:none;stroke:#ed0c08;stroke-width:2;stroke-linecap:butt;stroke-linejoin:miter;stroke-miterlimit:4;stroke-opacity:1;stroke-dasharray:none"
       d="m 736.08052,473.14055 c 0,-4.66667 0,-9.33333 0,-14 0,-0.66667 -0.4714,-1.5286 0,-2 0.4714,-0.4714 1.5286,0.4714 2,0 0.4714,-0.4714 0,-1.33333 0,-2 0,-0.66667 0,-1.33333 0,-2 0,-1.39108 0.36163,-9.27673 0,-10 -0.42164,-0.84327 -1.57836,-1.15673 -2,-2 -0.59628,-1.19257 0.94281,-3.05719 0,-4 -0.4714,-0.4714 -1.5286,0.4714 -2,0 -0.4714,-0.4714 0.4714,-1.5286 0,-2 -0.2,-0.2 -5.8,-0.2 -6,0 -0.4714,0.4714 0.29814,1.40372 0,2 -0.42164,0.84327 -1.57836,1.15673 -2,2 -0.59628,1.19257 0.59628,2.80743 0,4 -0.42164,0.84327 -1.57836,1.15673 -2,2 -0.59628,1.19257 0.59628,2.80743 0,4 -0.42164,0.84327 -1.57836,1.15673 -2,2 -0.29814,0.59628 0.29814,1.40372 0,2 -2.4714,4.94281 -2,-0.69036 -2,4 0,9.10457 0.94281,0.11438 -2,6 -0.29814,0.59628 0.66667,2 0,2 -0.66667,0 0,-1.33333 0,-2 0,-4.51847 -0.29814,0.89443 2,-6 0.45855,-1.37566 -0.59002,-4.81996 0,-6 0.42164,-0.84327 1.57836,-1.15673 2,-2 0.59628,-1.19257 -0.59628,-2.80743 0,-4 0.42164,-0.84327 1.57836,-1.15673 2,-2 0.29814,-0.59628 0,-1.33333 0,-2 0,-1.33333 -0.42164,-2.73509 0,-4 0.29814,-0.89443 1.70186,-1.10557 2,-2 0.42164,-1.26491 -0.42164,-2.73509 0,-4 0.29814,-0.89443 1.57836,-1.15673 2,-2 1.37936,-2.75871 -2.42211,-1.78895 2,-4 0.59628,-0.29814 1.5286,0.4714 2,0 0.4714,-0.4714 -0.4714,-1.5286 0,-2 0.4714,-0.4714 1.5286,0.4714 2,0 0.4714,-0.4714 -0.4714,-1.5286 0,-2 0.4714,-0.4714 1.40372,0.29814 2,0 0.84327,-0.42164 1.15673,-1.57836 2,-2 0.52588,-0.26294 6.95416,0 8,0 2,0 4.10263,-0.63246 6,0 0.89443,0.29814 1.33333,1.33333 2,2 0.66667,0.66667 1.57836,1.15673 2,2 0.29814,0.59628 -0.29814,1.40372 0,2 0.84327,1.68655 3.15673,2.31345 4,4 0.30404,0.60807 0,6.61896 0,8 0,6.66667 0,13.33333 0,20 0,0.66667 0,1.33333 0,2 0,0.66667 0.29814,1.40372 0,2 -0.42164,0.84327 -1.57836,1.15673 -2,2 -0.59763,1.19526 1.31658,4 -2,4 -3.509,0 -1.3105,-4.621 -2,-6 -0.42164,-0.84327 -1.57836,-1.15673 -2,-2 -0.54249,-1.08498 0.54724,-7.45276 0,-8 -0.4714,-0.4714 -1.5286,0.4714 -2,0 -0.94281,-0.94281 0.59628,-2.80743 0,-4 -0.42164,-0.84327 -1.57836,-1.15673 -2,-2 -0.29814,-0.59628 0.21082,-1.36754 0,-2 -0.4714,-1.41421 -1.5286,-2.58579 -2,-4 -0.42164,-1.26491 0.94281,-3.05719 0,-4 -0.4714,-0.4714 -2,0.66667 -2,0 0,-0.66667 2.66667,0 2,0 -1.33333,0 -2.80743,-0.59628 -4,0 -0.59628,0.29814 0.21082,1.36754 0,2 -4.82894,14.48683 0.57661,-3.15321 -4,6 -0.29814,0.59628 0.29814,1.40372 0,2 -0.42164,0.84327 -1.57836,1.15673 -2,2 -0.59628,1.19257 0.59628,2.80743 0,4 -2.4714,4.94281 -2,-0.69036 -2,4 0,0.66667 -0.4714,2.4714 0,2 2.74173,-2.74173 2,-6.59729 2,-10 0,-0.66667 -0.29814,-1.40372 0,-2 0.42164,-0.84327 1.57836,-1.15673 2,-2 0.69073,-1.38147 -0.70204,-9.29796 0,-10 0.4714,-0.4714 1.40372,0.29814 2,0 0.84327,-0.42164 1.15673,-1.57836 2,-2 0.59628,-0.29814 1.40372,0.29814 2,0 0.84327,-0.42164 1.15673,-1.57836 2,-2 1.19257,-0.59628 3.05719,0.94281 4,0 0.4714,-0.4714 -0.4714,-1.5286 0,-2 0.4714,-0.4714 1.33333,0 2,0 0.66667,0 1.40372,-0.29814 2,0 0.84327,0.42164 1.15673,1.57836 2,2 1.19257,0.59628 3.05719,-0.94281 4,0 0.4714,0.4714 -0.4714,1.5286 0,2 0.4714,0.4714 1.5286,-0.4714 2,0 0.4714,0.4714 -0.29814,1.40372 0,2 1.2,2.4 4.8,3.6 6,6 0.29814,0.59628 -0.29814,1.40372 0,2 0.42164,0.84327 1.57836,1.15673 2,2 0.30433,0.60867 0,5.09928 0,6 0,1.04584 0.26294,7.47412 0,8 -0.42164,0.84327 -1.57836,1.15673 -2,2 -0.29814,0.59628 0.4714,1.5286 0,2 -0.4714,0.4714 -1.33333,0 -2,0 -1.676,0 -9.14997,-0.42502 -10,0 -0.59628,0.29814 0.4714,1.5286 0,2 -0.4714,0.4714 -1.33333,0 -2,0 -0.66667,0 -1.5286,0.4714 -2,0 -0.4714,-0.4714 -0.66667,-2 0,-2 2.83333,0 -5.66667,9.33333 0,-2 2.66667,-5.33333 2,6 2,-2"
       id="path3979-65-3"
       inkscape:connector-curvature="0" />
    <text
       xml:space="preserve"
       style="font-size:40px;font-style:normal;font-weight:normal;line-height:125%;letter-spacing:0px;word-spacing:0px;fill:#0000ff;fill-opacity:1;stroke:none;font-family:Sans"
       x="87.789993"
       y="101.3783"
       id="text3828"
       sodipodi:linespacing="125%"><tspan
         sodipodi:role="line"
         id="tspan3830"
         x="87.789993"
         y="101.3783">Regulator</tspan><tspan
         sodipodi:role="line"
         x="87.789993"
         y="151.3783"
         id="tspan3832">   Gene</tspan></text>
    <text
       xml:space="preserve"
       style="font-size:40px;font-style:normal;font-weight:normal;line-height:125%;letter-spacing:0px;word-spacing:0px;fill:#008000;fill-opacity:1;stroke:none;font-family:Sans"
       x="201.24081"
       y="50.603683"
       id="text3834"
       sodipodi:linespacing="125%"><tspan
         sodipodi:role="line"
         id="tspan3836"
         x="201.24081"
         y="50.603683">Promoter</tspan></text>
    <text
       xml:space="preserve"
       style="font-size:40px;font-style:normal;font-weight:normal;line-height:125%;letter-spacing:0px;word-spacing:0px;fill:#ff0000;fill-opacity:1;stroke:none;font-family:Sans"
       x="285.54944"
       y="154.23616"
       id="text3838"
       sodipodi:linespacing="125%"><tspan
         sodipodi:role="line"
         id="tspan3840"
         x="285.54944"
         y="154.23616">Operator</tspan></text>
    <text
       xml:space="preserve"
       style="font-size:40px;font-style:normal;font-weight:normal;line-height:125%;letter-spacing:0px;word-spacing:0px;fill:#ff00ff;fill-opacity:1;stroke:none;font-family:Sans"
       x="500.99518"
       y="133.29001"
       id="text3842"
       sodipodi:linespacing="125%"><tspan
         sodipodi:role="line"
         id="tspan3844"
         x="500.99518"
         y="133.29001">Enzyme Gene</tspan></text>
    <rect
       style="fill:#008000;fill-rule:evenodd;stroke:#000000;stroke-width:0.61831814px;stroke-linecap:butt;stroke-linejoin:miter;stroke-opacity:1"
       id="rect2993-8-1"
       width="57.347599"
       height="36"
       x="19.326199"
       y="188" />
  </g>
</svg>
