<?xml version="1.0" encoding="UTF-8" standalone="no"?>
<!-- Created with Inkscape (http://www.inkscape.org/) -->

<svg
   xmlns:dc="http://purl.org/dc/elements/1.1/"
   xmlns:cc="http://creativecommons.org/ns#"
   xmlns:rdf="http://www.w3.org/1999/02/22-rdf-syntax-ns#"
   xmlns:svg="http://www.w3.org/2000/svg"
   xmlns="http://www.w3.org/2000/svg"
   xmlns:sodipodi="http://sodipodi.sourceforge.net/DTD/sodipodi-0.dtd"
   xmlns:inkscape="http://www.inkscape.org/namespaces/inkscape"
   width="1024px"
   height="768px"
   id="svg2985"
   version="1.1"
   inkscape:version="0.48.1 r9760"
   sodipodi:docname="expression1.svg">
  <defs
     id="defs2987" />
  <sodipodi:namedview
     id="base"
     pagecolor="#ffffff"
     bordercolor="#666666"
     borderopacity="1.0"
     inkscape:pageopacity="0.0"
     inkscape:pageshadow="2"
     inkscape:zoom="1"
     inkscape:cx="344.41176"
     inkscape:cy="609.18644"
     inkscape:current-layer="layer1"
     inkscape:document-units="px"
     showgrid="false"
     inkscape:window-width="1024"
     inkscape:window-height="549"
     inkscape:window-x="0"
     inkscape:window-y="25"
     inkscape:window-maximized="1" />
  <metadata
     id="metadata2990">
    <rdf:RDF>
      <cc:Work
         rdf:about="">
        <dc:format>image/svg+xml</dc:format>
        <dc:type
           rdf:resource="http://purl.org/dc/dcmitype/StillImage" />
        <dc:title />
      </cc:Work>
    </rdf:RDF>
  </metadata>
  <g
     id="layer1"
     inkscape:label="Layer 1"
     inkscape:groupmode="layer">
    <rect
       style="fill:#0000ff;fill-rule:evenodd;stroke:#000000;stroke-width:1px;stroke-linecap:butt;stroke-linejoin:miter;stroke-opacity:1"
       id="rect2993"
       width="150"
       height="36"
       x="96"
       y="190" />
    <rect
       style="fill:#008000;fill-rule:evenodd;stroke:#000000;stroke-width:0.61831813999999996px;stroke-linecap:butt;stroke-linejoin:miter;stroke-opacity:1"
       id="rect2993-8"
       width="57.347599"
       height="36"
       x="264"
       y="190" />
    <rect
       style="fill:#ff0000;fill-rule:evenodd;stroke:#000000;stroke-width:0.61831813999999996px;stroke-linecap:butt;stroke-linejoin:miter;stroke-opacity:1"
       id="rect2993-8-2"
       width="57.347599"
       height="36"
       x="340.3262"
       y="189" />
    <rect
       style="fill:#ff00ff;fill-rule:evenodd;stroke:#000000;stroke-width:1.63859034px;stroke-linecap:butt;stroke-linejoin:miter;stroke-opacity:1"
       id="rect2993-8-2-8"
       width="402.7468"
       height="36"
       x="417.3262"
       y="188" />
    <text
       xml:space="preserve"
       style="font-size:40px;font-style:normal;font-weight:normal;line-height:125%;letter-spacing:0px;word-spacing:0px;fill:#0000ff;fill-opacity:1;stroke:none;font-family:Sans"
       x="87.195961"
       y="105.93485"
       id="text3828"
       sodipodi:linespacing="125%"><tspan
         sodipodi:role="line"
         id="tspan3830"
         x="87.195961"
         y="105.93485">Regulator</tspan><tspan
         sodipodi:role="line"
         x="87.195961"
         y="155.93484"
         id="tspan3832">   Gene</tspan></text>
    <text
       xml:space="preserve"
       style="font-size:40px;font-style:normal;font-weight:normal;line-height:125%;letter-spacing:0px;word-spacing:0px;fill:#008000;fill-opacity:1;stroke:none;font-family:Sans"
       x="200.64679"
       y="55.160233"
       id="text3834"
       sodipodi:linespacing="125%"><tspan
         sodipodi:role="line"
         id="tspan3836"
         x="200.64679"
         y="55.160233">Promoter</tspan></text>
    <text
       xml:space="preserve"
       style="font-size:40px;font-style:normal;font-weight:normal;line-height:125%;letter-spacing:0px;word-spacing:0px;fill:#ff0000;fill-opacity:1;stroke:none;font-family:Sans"
       x="284.95541"
       y="158.79271"
       id="text3838"
       sodipodi:linespacing="125%"><tspan
         sodipodi:role="line"
         id="tspan3840"
         x="284.95541"
         y="158.79271">Operator</tspan></text>
    <text
       xml:space="preserve"
       style="font-size:40px;font-style:normal;font-weight:normal;line-height:125%;letter-spacing:0px;word-spacing:0px;fill:#ff00ff;fill-opacity:1;stroke:none;font-family:Sans"
       x="500.40112"
       y="137.84654"
       id="text3842"
       sodipodi:linespacing="125%"><tspan
         sodipodi:role="line"
         id="tspan3844"
         x="500.40112"
         y="137.84654">Enzyme Gene</tspan></text>
    <path
       style="fill:none;stroke:#000000;stroke-width:2;stroke-linecap:butt;stroke-linejoin:miter;stroke-miterlimit:4;stroke-opacity:1;stroke-dasharray:none"
       d="m 215,262 c -0.67912,-11.47836 -6.78891,-2.39445 -10,-4 -0.84327,-0.42164 -1.15673,-1.57836 -2,-2 -0.59628,-0.29814 -1.36754,0.21082 -2,0 -1.41421,-0.4714 -2.5538,-1.63845 -4,-2 -1.29352,-0.32338 -2.66667,0 -4,0 -4.66667,0 -9.33333,0 -14,0 -1.33333,0 -2.66667,0 -4,0 -1.33333,0 -2.70648,-0.32338 -4,0 -1.4462,0.36155 -2.5538,1.63845 -4,2 -0.0669,0.0167 -5.98938,-0.0106 -6,0 -0.4714,0.4714 0,1.33333 0,2 0,1.33333 -0.8,2.93333 0,4 0.7607,1.01427 7.86857,5.28952 10,6 2.60768,0.86923 5.35702,1.24486 8,2 2.02707,0.57916 3.93275,1.58655 6,2 1.30744,0.26149 2.66667,0 4,0 4,0 8,0 12,0 1.33333,0 2.66667,0 4,0 0.66667,0 1.5286,0.4714 2,0 3.01846,-3.01846 3.73125,-10 8,-10 4.26875,0 11.33333,7.33333 8,10 -3.33333,2.66667 -5.33333,-6.66667 -8,-10 -2.66667,-3.33333 -4.98154,-6.98154 -8,-10 -0.4714,-0.4714 -1.33333,0 -2,0 -0.66667,0 -1.33333,0 -2,0 -0.66667,0 -1.5286,-0.4714 -2,0 -0.4714,0.4714 0.29814,1.40372 0,2 -0.42164,0.84327 -1.57836,1.15673 -2,2 -0.59628,1.19257 0.94281,3.05719 0,4 -0.4714,0.4714 -1.5286,0.4714 -2,0 -0.4714,-0.4714 0,-1.33333 0,-2 0,-0.66667 0,-1.33333 0,-2 0,-1.61007 -0.41844,-6.74469 0,-8 0.94281,-2.82843 3.41529,-5.07647 4,-8 0.39223,-1.96116 -0.63246,-4.10263 0,-6 2.15077,-6.45232 4.58469,-4.33878 6,-10 0.32338,-1.29352 -0.59628,-2.80743 0,-4 0.29814,-0.59628 1.5286,0.4714 2,0 0.4714,-0.4714 0.66667,-2 0,-2 -0.94281,0 -1.15673,1.57836 -2,2 -1.19257,0.59628 -3.05719,-0.94281 -4,0 -0.4714,0.4714 0.29814,1.40372 0,2 -0.42164,0.84327 -1.47702,1.21554 -2,2 -0.8269,1.24035 -1.1731,2.75965 -2,4 -0.52298,0.78446 -1.57836,1.15673 -2,2 -0.29814,0.59628 0.4714,1.5286 0,2 -0.4714,0.4714 -1.5286,-0.4714 -2,0 -0.4714,0.4714 0.29814,1.40372 0,2 -2.54055,5.08109 -2.39035,-2.04824 -4,6 0,11.37399 0.89443,1.31672 -2,10 -0.21082,0.63246 0.4714,1.5286 0,2 -0.4714,0.4714 -1.5286,-0.4714 -2,0 -0.2,0.2 -0.2,5.8 0,6 0.4714,0.4714 1.33333,0 2,0 2.66667,0 5.36434,-0.40549 8,0 6.07489,0.9346 11.85364,4 18,4 6,0 17,-5 24,-6 3.29983,-0.4714 6.66667,0 10,0 0.66667,0 1.5286,0.4714 2,0 0.94281,-0.94281 -0.59628,-2.80743 0,-4 0.42164,-0.84327 1.70186,-1.10557 2,-2 0.3584,-1.07521 0,-6.3067 0,-8 0,-1.33333 0,-2.66667 0,-4 0,-1.33333 0.42164,-2.73509 0,-4 -0.29814,-0.89443 -1.33333,-1.33333 -2,-2 -0.66667,-0.66667 -1.15673,-1.57836 -2,-2 -0.59628,-0.29814 -1.33333,0 -2,0 -0.66667,0 -1.33333,0 -2,0 -1.33333,0 -2.69256,-0.26149 -4,0 -6.63316,1.32663 -4.66667,1.86667 -10,4 -4.68488,1.87395 -9.72393,3.14929 -14,6 -1.82063,1.21375 -4.22732,5.11366 -6,6 -1.19257,0.59628 -3.05719,-0.94281 -4,0 -0.4714,0.4714 0.4714,1.5286 0,2 -0.94281,0.94281 -3.05719,-0.94281 -4,0 -1.05409,1.05409 -1.1731,2.75965 -2,4 -0.52298,0.78446 -1.47702,1.21554 -2,2 -4.40633,1.00719 -1.05719,4.11438 -2,6 -0.42164,0.84327 -1.57836,1.15673 -2,2 -0.29814,0.59628 0,1.33333 0,2 0,0.66667 -0.4714,1.5286 0,2 0.4714,0.4714 1.5286,-0.4714 2,0 0.4714,0.4714 -0.4714,1.5286 0,2 2.29814,2.29814 3.53705,2 6,2 0.66667,0 1.4453,0.3698 2,0 3.55181,-2.36788 5.8587,-9.03532 10,-8 3.29785,0.82446 -1.44115,6.64691 -2,10 -0.14293,0.85758 -0.28039,7.43923 0,8 0.42164,0.84327 1.57836,1.15673 2,2 0.59628,1.19257 -0.94281,3.05719 0,4 0.4714,0.4714 1.33333,0 2,0 1.33333,0 2.66667,0 4,0 4,0 8,0 12,0 1.33333,0 2.66667,0 4,0 0.66667,0 1.40372,0.29814 2,0 0.84327,-0.42164 1.57836,-1.15673 2,-2 0.29814,-0.59628 0,-1.33333 0,-2 0,-1.33333 0.32338,-2.70648 0,-4 -1.09194,-4.36775 -5.00516,-7.00516 -8,-10 -0.66667,-0.66667 -1.33333,-1.33333 -2,-2 -0.66667,-0.66667 -1.15673,-1.57836 -2,-2 -1.19257,-0.59628 -2.68481,0.2192 -4,0 -3.35309,-0.55885 -7.04854,-3.68655 -10,-2 -6.47338,3.69908 -5.981,9.346 -2,12 1.24035,0.8269 2.66667,1.33333 4,2 1.33333,0.66667 2.5538,1.63845 4,2 1.57323,0.39331 9.92015,0 12,0 1.33333,0 2.66667,0 4,0 0.66667,0 1.40372,0.29814 2,0 0.84327,-0.42164 1.15673,-1.57836 2,-2 0.59628,-0.29814 1.40372,0.29814 2,0 0.34312,-0.17156 5.91718,-5.75155 6,-6 0.42164,-1.26491 0,-2.66667 0,-4 0,-0.66667 -0.29814,-1.40372 0,-2 0.42164,-0.84327 1.57836,-1.15673 2,-2 0.29814,-0.59628 0,-1.33333 0,-2 0,-0.66667 0,-1.33333 0,-2 0,-1.33333 -0.32338,-2.70648 0,-4 0.36155,-1.4462 1.5286,-2.58579 2,-4 0.33091,-0.99272 0.17032,-5.82968 0,-6 -0.4714,-0.4714 -1.36754,0.21082 -2,0 -1.41421,-0.4714 -2.58579,-1.5286 -4,-2 -0.63246,-0.21082 -1.36754,0.21082 -2,0 -1.41421,-0.4714 -2.58579,-1.5286 -4,-2 -1.8,-0.6 -4.2,0.6 -6,0 -1.41421,-0.4714 -2.58579,-1.5286 -4,-2 -0.43916,-0.14639 -7.70267,-0.14867 -8,0 -0.84327,0.42164 -1.15673,1.57836 -2,2 -0.60867,0.30433 -5.09928,0 -6,0 -0.66667,0 -1.33333,0 -2,0 -0.66667,0 -1.40372,0.29814 -2,0 -0.5207,-0.26035 -2.43655,-3.56345 -4,-2 -0.4714,0.4714 0.29814,1.40372 0,2 -0.42164,0.84327 -1.57836,1.15673 -2,2 -0.29814,0.59628 0,1.33333 0,2 0,1.33333 0.32338,2.70648 0,4 -0.36155,1.4462 -1.63845,2.5538 -2,4 -0.32338,1.29352 0,2.66667 0,4 0,1.33333 -0.26149,2.69256 0,4 0.41345,2.06725 -0.0795,5.65342 2,6 3.54126,0.59021 8.86471,-7.40588 10,-4 1.3499,4.04969 -6.09096,6.18191 -8,10 -0.42164,0.84327 1.33333,1.33333 2,2 0.66667,0.66667 1.15673,1.57836 2,2 0.59628,0.29814 1.36754,-0.21082 2,0 1.41421,0.4714 2.5538,1.63845 4,2 1.29352,0.32338 2.73509,-0.42164 4,0 0.89443,0.29814 1.15673,1.57836 2,2 0.59628,0.29814 1.33333,0 2,0 2,0 4,0 6,0 15.98136,0 -5.88057,0.48507 14,-2 2.64607,-0.33076 5.36013,0.37712 8,0 1.61085,-0.23012 16.42857,-5.21429 18,-6 0.84327,-0.42164 1.15673,-1.57836 2,-2 1.19257,-0.59628 3.05719,0.94281 4,0 0.4714,-0.4714 -0.4714,-1.5286 0,-2 0.4714,-0.4714 1.5286,0.4714 2,0 0.4714,-0.4714 0,-1.33333 0,-2 0,-1.39108 0.36163,-9.27673 0,-10 -0.42164,-0.84327 -1.33333,-1.33333 -2,-2 -0.66667,-0.66667 -1.15673,-1.57836 -2,-2 -0.59628,-0.29814 -1.40372,0.29814 -2,0 -0.84327,-0.42164 -1.15673,-1.57836 -2,-2 -0.60867,-0.30433 -5.09928,0 -6,0 -0.73447,0 -7.91952,-0.0805 -8,0 -0.94281,0.94281 0.59628,2.80743 0,4 -0.42164,0.84327 -1.70186,1.10557 -2,2 -0.0495,0.14837 -0.21956,11.56088 0,12 0.42164,0.84327 1.57836,1.15673 2,2 0.59628,1.19257 -0.94281,3.05719 0,4 0.4714,0.4714 1.5286,-0.4714 2,0 0.4714,0.4714 -0.4714,1.5286 0,2 0.4714,0.4714 1.33333,0 2,0 0.66667,0 1.33333,0 2,0 0.66667,0 1.40372,0.29814 2,0 0.84327,-0.42164 1.15673,-1.57836 2,-2 0.59628,-0.29814 1.40372,0.29814 2,0 0.84327,-0.42164 1.15673,-1.57836 2,-2 1.19257,-0.59628 3.05719,0.94281 4,0 0.4714,-0.4714 -0.4714,-1.5286 0,-2 0.4714,-0.4714 1.33333,0 2,0"
       id="path3850"
       inkscape:connector-curvature="0" />
    <path
       style="fill:none;stroke:#0000ff;stroke-width:2;stroke-linecap:butt;stroke-linejoin:miter;stroke-miterlimit:4;stroke-opacity:1;stroke-dasharray:none"
       d="m 184,259 c -2.66667,1.33333 -6.66667,6.66667 -8,4 -1.33333,-2.66667 10.98142,-4 8,-4 -3.33333,1.33333 -6.66667,2.66667 -10,4 0,0.66667 0.4714,1.5286 0,2 -0.4714,0.4714 -1.5286,-0.4714 -2,0 -0.4714,0.4714 0.4714,1.5286 0,2 -0.4714,0.4714 -1.5286,-0.4714 -2,0 -0.4714,0.4714 0.29814,1.40372 0,2 -0.42164,0.84327 -1.57836,1.15673 -2,2 -0.29814,0.59628 0.4714,1.5286 0,2 -0.4714,0.4714 -1.5286,-0.4714 -2,0 -0.4714,0.4714 0.29814,1.40372 0,2 -0.42164,0.84327 -1.57836,1.15673 -2,2 -0.30433,0.60867 0,5.09928 0,6 0,4 0,8 0,12 0,3.33333 0,6.66667 0,10 0,0.66667 0.4714,1.5286 0,2 -0.4714,0.4714 -1.5286,-0.4714 -2,0 -0.4714,0.4714 0.4714,1.5286 0,2 -0.4714,0.4714 -1.5286,-0.4714 -2,0 -2.66667,2.66667 4.24264,1.91912 -2,4 -1.26491,0.42164 -2.73509,-0.42164 -4,0 -1.78885,0.59628 -2.31345,3.15673 -4,4 -1.19257,0.59628 -3.05719,-0.94281 -4,0 -0.4714,0.4714 0.4714,1.5286 0,2 -1,1 -5,-1 -6,0 -0.4714,0.4714 0,1.33333 0,2 -0.66667,0 -1.40372,-0.29814 -2,0 -4.42211,2.21105 -0.62064,1.24129 -2,4 -0.42164,0.84327 -1.57836,1.15673 -2,2 -0.25855,0.5171 0,10.5824 0,12 0,0.66667 0,1.33333 0,2 0,0.66667 -0.66667,2 0,2 0.94281,0 1.15673,-1.57836 2,-2 0.59628,-0.29814 1.40372,0.29814 2,0 0.84327,-0.42164 1.15673,-1.57836 2,-2 0.59628,-0.29814 1.5286,0.4714 2,0 0.4714,-0.4714 -0.4714,-1.5286 0,-2 0.4714,-0.4714 1.40372,0.29814 2,0 0.84327,-0.42164 1.15673,-1.57836 2,-2 0.59628,-0.29814 1.40372,0.29814 2,0 2.77608,-1.38804 2,-3.55864 2,-6 0,-0.66667 0.4714,-1.5286 0,-2 -0.4714,-0.4714 -1.33333,0 -2,0 -1.33333,0 -2.66667,0 -4,0 -1.31384,0 -7.5297,-0.23515 -8,0 -0.59628,0.29814 0.4714,1.5286 0,2 -0.4714,0.4714 -1.40372,-0.29814 -2,0 -0.84327,0.42164 -1.15673,1.57836 -2,2 -0.59628,0.29814 -1.5286,-0.4714 -2,0 -0.4714,0.4714 0.4714,1.5286 0,2 -0.94281,0.94281 -3.05719,-0.94281 -4,0 -0.4714,0.4714 0.4714,1.5286 0,2 -0.4714,0.4714 -1.5286,-0.4714 -2,0 -0.0643,0.0643 0,5.51495 0,6 0,9.10457 -0.94281,0.11438 2,6 0.59628,1.19257 -0.94281,3.05719 0,4 0.4714,0.4714 1.5286,-0.4714 2,0 4.13807,4.13807 -6.32352,-0.16176 2,4 0.59628,0.29814 1.5286,-0.4714 2,0 0.4714,0.4714 -0.4714,1.5286 0,2 0.4714,0.4714 1.40372,-0.29814 2,0 1.68655,0.84327 2.31345,3.15673 4,4 1.19257,0.59628 2.80743,-0.59628 4,0 1.62623,0.81311 1.65482,3.17259 4,2 0.53102,-0.26551 5.73449,-5.46898 6,-6 0.29814,-0.59628 -0.4714,-1.5286 0,-2 0.4714,-0.4714 1.5286,0.4714 2,0 4.13807,-4.13807 -6.32352,0.16176 2,-4 1.19257,-0.59628 3.05719,0.94281 4,0 0.0643,-0.0643 0,-5.51495 0,-6 0,-4 0,-8 0,-12 0,-0.66667 0,-1.33333 0,-2 0,-0.66667 0.29814,-1.40372 0,-2 -0.42164,-0.84327 -1.57836,-1.15673 -2,-2 -0.29814,-0.59628 0,-1.33333 0,-2 0,-0.66667 0,-1.33333 0,-2 0,-1.04584 -0.26294,-7.47412 0,-8 0.84327,-1.68655 3.15673,-2.31345 4,-4 0.29814,-0.59628 -0.66667,-2 0,-2 0.66667,0 -0.29814,1.40372 0,2 0.84327,1.68655 3.15673,2.31345 4,4 0.59628,1.19257 -0.59628,2.80743 0,4 0.42164,0.84327 1.57836,1.15673 2,2 0.59628,1.19257 -0.59628,2.80743 0,4 0.42164,0.84327 1.57836,1.15673 2,2 0.59628,1.19257 -0.94281,3.05719 0,4 0.4714,0.4714 1.5286,-0.4714 2,0 0.4714,0.4714 0,1.33333 0,2 0,0.90072 0.30433,5.39133 0,6 -0.42164,0.84327 -1.57836,1.15673 -2,2 -0.59628,1.19257 0.94281,3.05719 0,4 -0.4714,0.4714 -1.5286,-0.4714 -2,0 -0.4714,0.4714 0.4714,1.5286 0,2 -0.4714,0.4714 -1.5286,-0.4714 -2,0 -0.94281,0.94281 0.94281,3.05719 0,4 -0.4714,0.4714 -1.33333,0 -2,0 -0.66667,0 -1.33333,0 -2,0 -3.33333,0 -6.66667,0 -10,0 -1.33333,0 -2.73509,-0.42164 -4,0 -6.89443,2.29814 -1.48153,2 -6,2 -0.48505,0 -5.93568,-0.0643 -6,0 -0.4714,0.4714 0,1.33333 0,2 0,0.66667 -0.29814,1.40372 0,2 0.42164,0.84327 1.57836,1.15673 2,2 0.59628,1.19257 -0.94281,3.05719 0,4 0.4714,0.4714 1.33333,0 2,0"
       id="path3852"
       inkscape:connector-curvature="0" />
    <rect
       style="fill:#008000;fill-rule:evenodd;stroke:#000000;stroke-width:0.61831814px;stroke-linecap:butt;stroke-linejoin:miter;stroke-opacity:1"
       id="rect2993-8-1"
       width="57.347599"
       height="36"
       x="17.326199"
       y="190" />
  </g>
</svg>
