<?xml version="1.0" encoding="UTF-8" standalone="no"?>
<!-- Created with Inkscape (http://www.inkscape.org/) -->

<svg
   xmlns:dc="http://purl.org/dc/elements/1.1/"
   xmlns:cc="http://creativecommons.org/ns#"
   xmlns:rdf="http://www.w3.org/1999/02/22-rdf-syntax-ns#"
   xmlns:svg="http://www.w3.org/2000/svg"
   xmlns="http://www.w3.org/2000/svg"
   xmlns:sodipodi="http://sodipodi.sourceforge.net/DTD/sodipodi-0.dtd"
   xmlns:inkscape="http://www.inkscape.org/namespaces/inkscape"
   width="800px"
   height="600px"
   id="svg2983"
   version="1.1"
   inkscape:version="0.48.2 r9819"
   sodipodi:docname="infection2.svg">
  <defs
     id="defs2985" />
  <sodipodi:namedview
     id="base"
     pagecolor="#ffffff"
     bordercolor="#666666"
     borderopacity="1.0"
     inkscape:pageopacity="0.0"
     inkscape:pageshadow="2"
     inkscape:zoom="2.4"
     inkscape:cx="413.28533"
     inkscape:cy="462.75832"
     inkscape:current-layer="layer1"
     inkscape:document-units="px"
     showgrid="false"
     inkscape:window-width="1280"
     inkscape:window-height="949"
     inkscape:window-x="0"
     inkscape:window-y="25"
     inkscape:window-maximized="1" />
  <metadata
     id="metadata2988">
    <rdf:RDF>
      <cc:Work
         rdf:about="">
        <dc:format>image/svg+xml</dc:format>
        <dc:type
           rdf:resource="http://purl.org/dc/dcmitype/StillImage" />
        <dc:title />
      </cc:Work>
    </rdf:RDF>
  </metadata>
  <g
     id="layer1"
     inkscape:label="Layer 1"
     inkscape:groupmode="layer">
    <path
       style="fill:none;stroke:#000000;stroke-width:5;stroke-linecap:butt;stroke-linejoin:miter;stroke-miterlimit:4;stroke-opacity:1;stroke-dasharray:none"
       d="m 223.71968,80.292326 c 1.23409,1.213737 6.24705,0.469128 8.15061,1.274019 1.61811,0.68419 2.64465,2.450302 4.29348,3.056753 1.10607,0.406816 2.47962,-0.05542 3.49312,0.546009 0.95554,0.56702 0.95634,2.226178 1.96474,2.692747 1.78262,0.824793 3.97841,0.231977 5.82187,0.910014 1.98545,0.730263 3.57831,2.267872 5.45785,3.238756 12.01029,6.204012 -1.81737,-1.160963 7.96861,2.4384 0.82441,0.303225 1.31297,1.251888 2.14674,1.528376 1.49148,0.49459 3.10499,0.485341 4.65749,0.728012 3.88124,0.606675 7.76249,1.213351 11.64373,1.820026 1.5525,0.242671 3.10499,0.485341 4.65749,0.728012 1.16437,0.182002 2.36031,0.220984 3.49312,0.546007 1.9254,0.552423 3.70141,1.569643 5.63986,2.074383 1.90081,0.49493 3.88124,0.60668 5.82186,0.91001 3.49312,0.54601 6.98624,1.09202 10.47936,1.63803 7.90403,1.23548 3.7397,0.58455 11.64373,1.82003 2.71687,0.42467 5.40917,1.05897 8.15061,1.27402 2.38221,0.18687 4.78602,-0.25922 7.16824,-0.0724 2.74144,0.21505 5.43374,0.84935 8.1506,1.27402 2.71687,0.42467 5.43374,0.84935 8.15061,1.27402 2.71687,0.42467 5.40099,1.23784 8.15061,1.27402 2.85965,0.0376 5.65497,-1.09236 8.51462,-1.05474 2.74962,0.0362 5.43374,0.84935 8.15061,1.27402 3.49312,0.54601 6.98623,1.09202 10.47935,1.63803 14.74872,2.30537 29.49744,4.61073 44.24616,6.9161 5.43374,0.84935 10.86748,1.69869 16.30122,2.54804 3.49312,0.54601 7.0579,0.74715 10.47936,1.63802 22.93031,5.97059 1.66285,3.06936 27.21693,9.02556 5.35616,1.24842 10.86748,1.69869 16.30122,2.54804 16.68935,2.60871 33.37869,5.21741 50.06803,7.82612 8.15061,1.27401 16.30122,2.54803 24.45183,3.82205 2.32875,0.36401 4.65749,0.72801 6.98623,1.09202 1.02659,0.16046 2.46223,0.63895 3.49313,0.54601 3.48526,-0.31426 6.35877,-1.60327 9.86099,-2.0371 14.46984,-1.79242 -2.91388,0.22317 8.33261,0.10964 2.48439,-0.0251 4.86585,-1.21165 7.35023,-1.23673 1.17846,-0.0119 2.31567,0.5959 3.49313,0.54601 0.87762,-0.0372 1.64451,-0.65461 2.51074,-0.80037 0.70964,-0.1194 3.64847,0.5703 4.6575,0.72802 1.21086,0.18926 6.10611,0.71987 6.98623,1.09201 0.80906,0.3421 1.39132,1.08011 2.14675,1.52838 2.13664,1.26791 4.48559,2.15286 6.62222,3.42076 0.75543,0.44828 1.36631,1.12524 2.14675,1.52838 0.34902,0.18029 0.84435,-0.0458 1.16437,0.18201 0.45257,0.32221 0.57326,0.97051 0.98237,1.34637 0.64687,0.59428 1.49988,0.93409 2.14674,1.52838 0.40912,0.37585 0.65492,0.89758 0.98237,1.34637 0.98237,1.34638 1.96475,2.69275 2.94712,4.03913 1.63728,2.24396 3.27456,4.48791 4.91184,6.73187 0.65492,0.89759 1.00921,2.12573 1.96475,2.69275 1.0135,0.60143 2.40765,0.087 3.49311,0.54601 0.5117,0.21636 0.65491,0.89759 0.98237,1.34638 0.32746,0.44879 0.7493,0.84207 0.98237,1.34637 0.36854,0.79737 0.43184,1.71339 0.80037,2.51075 0.23308,0.5043 0.65492,0.89759 0.98238,1.34638 0.32744,0.44879 0.57325,0.97051 0.98236,1.34637 0.64687,0.59428 1.7782,0.73102 2.14675,1.52838 0.32962,0.71318 -0.69363,1.61556 -0.36401,2.32874 0.36853,0.79737 1.49988,0.9341 2.14674,1.52839 0.40911,0.37585 0.65492,0.89758 0.98237,1.34637 0.32746,0.44879 0.81364,0.81706 0.98237,1.34638 0.11932,0.37428 -0.30131,0.79008 -0.18201,1.16437 0.16875,0.52931 0.8902,0.79852 0.98238,1.34637 0.13036,0.77479 -0.49437,1.55397 -0.364,2.32875 0.18435,1.09571 1.62726,1.63413 1.96473,2.69276 0.11932,0.37427 -0.30131,0.79008 -0.182,1.16437 0.16873,0.5293 0.89019,0.79851 0.98237,1.34637 -0.82853,5.30056 -0.5593,-0.0192 0.61837,3.67512 0.25152,0.78903 -0.97954,3.86846 -0.72802,4.65749 1.83149,5.74535 0.28972,-5.01636 1.78274,3.85712 0.12987,0.77184 -0.95307,6.09735 -1.09202,6.98624 -0.364,2.32874 -0.72801,4.65749 -1.09201,6.98624 -0.12134,0.77624 -0.058,1.6051 -0.36401,2.32874 -0.34209,0.80906 -1.18627,1.33769 -1.52837,2.14674 -0.30598,0.72365 -0.058,1.60511 -0.36401,2.32875 -0.34209,0.80906 -1.18628,1.33768 -1.52838,2.14675 -0.74211,1.75509 -0.1679,4.06677 -0.91001,5.82185 -0.34209,0.80907 -1.18628,1.33769 -1.52838,2.14675 -0.74211,1.75509 -0.1679,4.06677 -0.91001,5.82186 -0.3421,0.80907 -1.18629,1.33769 -1.52838,2.14675 -0.30598,0.72364 -0.24267,1.55249 -0.364,2.32875 -0.26321,1.6839 -0.83591,6.95947 -1.27402,8.15061 -0.30323,0.82441 -1.18629,1.33768 -1.52838,2.14674 -0.30599,0.72364 -0.24267,1.55249 -0.364,2.32874 -0.18201,1.16437 -0.36401,2.32874 -0.54601,3.49312 -0.42468,2.71687 -0.84935,5.43374 -1.27402,8.15061 -0.182,1.16437 -0.17507,2.3745 -0.54601,3.49312 -0.39102,1.17912 -1.31937,2.132 -1.71038,3.31111 -0.37095,1.11861 -0.364,2.32875 -0.54601,3.49312 -0.57013,1.10371 -1.28156,2.14521 -1.71039,3.31111 -0.54242,1.47476 -0.11604,3.21021 -0.72801,4.6575 -0.34209,0.80906 -1.18627,1.33769 -1.52837,2.14674 -0.42888,1.01431 -0.69859,4.46924 -0.91002,5.82187 -0.0607,0.38811 0.13535,0.93282 -0.182,1.16437 -0.31734,0.23154 -0.84703,-0.41355 -1.16437,-0.182 -0.31735,0.23154 0.0458,0.84434 -0.182,1.16437 -0.32221,0.45257 -0.89758,0.65491 -1.34638,0.98237 -0.44879,0.32746 -0.84208,0.74928 -1.34637,0.98237 -6.00881,2.77723 1.75108,-2.06212 -6.36788,2.5831 -0.96441,0.55179 -1.69971,1.4663 -2.69275,1.96474 -2.0472,1.02756 -4.31097,1.57509 -6.36787,2.5831 -2.25873,1.10694 -4.29114,2.64055 -6.54987,3.74749 -4.11379,2.01603 -8.57721,3.24416 -12.73575,5.1662 -10.57046,4.88561 -7.92934,4.67369 -19.28562,8.91369 -3.29169,1.229 -6.69532,2.13431 -10.04299,3.20147 -1.16825,0.37241 -6.64135,2.36336 -7.53224,2.40111 -1.17746,0.0499 -2.31566,-0.5959 -3.49312,-0.54601 -0.87762,0.0372 -1.63313,0.76318 -2.51075,0.80036 -1.17746,0.0499 -2.32874,-0.364 -3.49311,-0.546 -1.94063,-0.30334 -3.88124,-0.60668 -5.82187,-0.91002 -5.04561,-0.78867 -10.09124,-1.57735 -15.13685,-2.36603 -1.5525,-0.24267 -3.14129,-0.31539 -4.65748,-0.72801 -1.9328,-0.52601 -3.77504,-1.34309 -5.63987,-2.07439 -1.50791,-0.59133 -2.91262,-1.46706 -4.47548,-1.89239 -3.79052,-1.03157 -7.85322,-0.78845 -11.64374,-1.82003 -12.79482,-3.48207 2.38821,-0.81952 -7.9686,-2.43839 -2.32875,-0.364 -4.65749,-0.72801 -6.98623,-1.09201 -0.77626,-0.12134 -1.5525,-0.24267 -2.32875,-0.36401 -0.77625,-0.12133 -1.6051,-0.058 -2.32875,-0.364 -0.80905,-0.34209 -1.33768,-1.18628 -2.14674,-1.52838 -1.44728,-0.61196 -3.21021,-0.11605 -4.65749,-0.72801 -1.61811,-0.68419 -2.64466,-2.4503 -4.29348,-3.05675 -1.10608,-0.40683 -2.38706,-0.1392 -3.49313,-0.54601 -0.82441,-0.30323 -1.43115,-1.01892 -2.14674,-1.52838 -1.1037,-0.57013 -2.12323,-1.34689 -3.31111,-1.71038 -1.50258,-0.45979 -3.15492,-0.26822 -4.6575,-0.72801 -1.18788,-0.3635 -2.14522,-1.28156 -3.31111,-1.71038 -0.73738,-0.27122 -1.59137,-0.0928 -2.32874,-0.364 -1.1659,-0.42883 -2.132,-1.31938 -3.31112,-1.71039 -1.11861,-0.37095 -2.37451,-0.17506 -3.49312,-0.54601 -1.17912,-0.39101 -2.12322,-1.34688 -3.31112,-1.71038 -2.6295,-0.80463 -5.52109,-0.46939 -8.15061,-1.27402 -1.54882,-0.47394 -2.92666,-1.41845 -4.47548,-1.89238 -1.12694,-0.34484 -2.32874,-0.36401 -3.49312,-0.54601 -1.94062,-0.30334 -3.91667,-0.43222 -5.82186,-0.91001 -19.03938,-4.77474 8.68929,0.45327 -17.10159,-5.05879 -3.45745,-0.73893 -7.08094,-0.66296 -10.47935,-1.63802 -2.749,-0.78873 -5.06104,-2.73659 -7.78661,-3.60276 -2.24632,-0.71389 -4.65749,-0.72801 -6.98624,-1.09202 -5.04561,-0.78868 -10.09122,-1.57736 -15.13685,-2.36603 -22.3179,-3.48851 6.57345,1.49535 -12.62609,-3.1664 -2.67222,-0.64884 -5.43374,-0.84935 -8.15061,-1.27402 -1.94063,-0.30334 -3.88124,-0.60668 -5.82187,-0.91002 -1.94061,-0.30333 -3.99325,-0.19292 -5.82185,-0.91001 -1.63556,-0.64139 -2.67537,-2.37257 -4.29349,-3.05676 -1.44729,-0.61197 -3.10499,-0.48534 -4.65749,-0.72801 -3.49312,-0.54601 -6.98624,-1.09202 -10.47935,-1.63803 -1.5525,-0.24267 -3.14709,-0.29465 -4.6575,-0.72801 -1.55689,-0.4467 -2.92667,-1.41845 -4.47549,-1.89238 -1.12693,-0.34485 -2.32874,-0.36401 -3.49312,-0.54601 -1.16437,-0.182 -2.32874,-0.364 -3.49311,-0.54601 -5.43374,-0.84934 -10.86748,-1.69869 -16.30122,-2.54804 -15.91309,-2.48737 -31.82619,-4.97473 -47.73928,-7.4621 -1.2317,-0.19253 -7.51951,-1.38021 -8.15061,-1.27402 -0.54786,0.0922 -0.81707,0.81363 -1.34638,0.98236 -0.40006,0.12753 -4.78124,-0.74735 -5.82186,-0.91001 -1.94063,-0.30334 -3.88124,-0.60667 -5.82187,-0.91001 -0.77624,-0.12134 -1.6051,-0.058 -2.32874,-0.36401 -0.80906,-0.34209 -1.36631,-1.12523 -2.14674,-1.52837 -0.34903,-0.18029 -0.77626,-0.12134 -1.16437,-0.18201 -1.5525,-0.24267 -3.16602,-0.23341 -4.6575,-0.72801 -0.83376,-0.27649 -1.39133,-1.0801 -2.14674,-1.52837 -1.06832,-0.63396 -2.2428,-1.07643 -3.31112,-1.71038 -1.51083,-0.89655 -2.7326,-2.25048 -4.29348,-3.05676 -0.34903,-0.18029 -0.84436,0.0458 -1.16437,-0.182 -0.90515,-0.64443 -0.97756,-2.18282 -1.96475,-2.69276 -0.69804,-0.36058 -1.55249,-0.24267 -2.32874,-0.364 -0.71558,-0.50946 -1.36631,-1.12524 -2.14674,-1.52838 -0.34903,-0.18029 -0.93283,0.13534 -1.16438,-0.182 -0.23154,-0.31735 0.47129,-0.8986 0.18201,-1.16437 -0.9148,-0.84044 -2.29913,-0.9899 -3.31112,-1.71039 -0.45257,-0.3222 -0.48878,-1.0914 -0.98237,-1.34637 -0.69804,-0.36058 -1.6051,-0.058 -2.32875,-0.364 -0.80905,-0.3421 -1.3663,-1.12525 -2.14674,-1.52838 -0.34902,-0.18029 -0.81535,-0.002 -1.16437,-0.182 -0.78044,-0.40315 -1.43116,-1.01893 -2.14675,-1.52838 -0.71558,-0.50946 -1.49988,-0.9341 -2.14674,-1.52839 -0.40911,-0.37585 -0.5298,-1.02415 -0.98237,-1.34637 -2.64366,-1.88215 0.52281,3.54417 -3.31111,-1.71038 -0.23155,-0.31735 0.41354,-0.84703 0.182,-1.16437 -0.23154,-0.31735 -0.77625,-0.12134 -1.16438,-0.18201 -0.59424,-1.2857 -0.94788,-2.71292 -1.78273,-3.85712 -2.92543,-4.0094 -1.78896,1.50437 -4.11148,-4.22113 -0.23804,-0.58678 -0.9987,-6.76345 -1.23674,-7.35024 -2.10255,-5.1832 -1.92765,-0.22621 -2.7651,-5.2035 -0.1163,-0.69116 0.42641,-2.728 0.54601,-3.49311 0.364,-2.32876 0.72801,-4.6575 1.09201,-6.98624 0.42468,-2.71687 0.84935,-5.43374 1.27402,-8.15061 0.12134,-0.77626 0.24267,-1.5525 0.36401,-2.32874 0.0607,-0.38813 0.002,-0.81536 0.182,-1.16439 0.40314,-0.78043 1.18629,-1.33767 1.52838,-2.14674 0.70822,-1.67495 0.43521,-5.2005 1.09201,-6.98623 0.42883,-1.1659 1.28156,-2.14521 1.71038,-3.31112 0.27122,-0.73738 0.24267,-1.5525 0.36401,-2.32874 0.30334,-1.94063 0.60667,-3.88124 0.91001,-5.82187 0.60668,-3.88124 1.21335,-7.76248 1.82003,-11.64372 0.15445,-0.98814 1.20565,-6.3109 1.09201,-6.98624 -0.0922,-0.54786 -0.89019,-0.79852 -0.98236,-1.34637 -0.13036,-0.77479 0.24267,-1.5525 0.364,-2.32875 0.36401,-2.32875 0.72801,-4.65749 1.09202,-6.98624 0.48534,-3.10499 0.97068,-6.20998 1.45602,-9.31498 0.182,-1.16437 0.13919,-2.38705 0.54601,-3.49312 0.0195,-0.0532 2.96721,-4.14258 3.05675,-4.29348 0.63396,-1.06832 1.07643,-2.2428 1.71039,-3.31111 0.44827,-0.75543 1.0801,-1.39133 1.52838,-2.14675 1.2679,-2.13665 2.28051,-4.41482 3.42075,-6.62223 0.57014,-1.10371 1.28156,-2.14522 1.71039,-3.31112 0.27121,-0.73738 0.058,-1.6051 0.364,-2.32875 0.3421,-0.80905 1.18629,-1.33768 1.52838,-2.14674 0.30598,-0.72364 -0.0917,-1.68871 0.364,-2.32875 0.22784,-0.32001 0.84704,0.41355 1.16437,0.182 0.27525,-0.20083 0.24302,-3.067526 0.54601,-3.49311 0.32222,-0.452568 0.89759,-0.654908 1.34638,-0.982369 0.12133,-0.776254 -0.0917,-1.688715 0.364,-2.328743 0.22785,-0.320022 0.84704,0.413543 1.16438,0.182004 0.31734,-0.23155 -0.0458,-0.844359 0.18201,-1.164381 0.3222,-0.45257 1.02416,-0.52979 1.34637,-0.982369 0.22783,-0.320014 -0.0458,-0.844348 0.182,-1.164372 0.32221,-0.452569 1.02417,-0.529799 1.34638,-0.982368 0.22783,-0.320014 -0.0458,-0.844358 0.182,-1.164372 0.32221,-0.452569 1.02417,-0.529799 1.34637,-0.982369 1.01892,-1.431164 -0.98237,-1.346374 1.34638,-0.982369 0.38812,0.06067 0.77625,0.121336 1.16437,0.182003 0.38813,0.06067 0.84704,0.413542 1.16437,0.182002 2.78571,-2.032565 -3.69618,-0.481292 1.52838,-2.14675 1.0043,-0.320143 2.48882,0.866161 3.49312,0.546009 0.52931,-0.168731 0.81707,-0.813638 1.34638,-0.982369 0.37427,-0.119311 0.82737,0.38387 1.16437,0.182002 2.38298,-1.4274 4.04973,-4.189229 6.73188,-4.911843 1.56394,-0.421358 2.95534,1.333262 4.47548,1.892381 0.73738,0.271211 1.5525,0.242671 2.32875,0.364007 0.38812,0.06067 1.55249,0.242669 1.16437,0.182002 -0.77625,-0.121336 -2.20741,-1.140261 -2.32875,-0.364006 -0.13565,0.867871 1.49989,0.93409 2.14675,1.528378 0.40911,0.37586 0.65491,0.897578 0.98237,1.346374"
       id="path3765"
       inkscape:connector-curvature="0" />
    <path
       style="fill:none;stroke:#000000;stroke-width:5;stroke-linecap:butt;stroke-linejoin:miter;stroke-miterlimit:4;stroke-opacity:1;stroke-dasharray:none"
       d="m 175.8663,157.50271 c 0.24267,-1.5525 0.48534,-3.105 0.72802,-4.65749 -0.32747,-0.44879 -0.8902,-0.79852 -0.98237,-1.34638 -0.13037,-0.77478 0.43455,-1.54624 0.364,-2.32874 1.03121,-1.99775 -1.54772,-2.46036 -1.78273,-3.85712 -0.13037,-0.77479 0.24267,-1.5525 0.364,-2.32875 0.0607,-0.38812 0.12134,-0.77625 0.182,-1.16437 0.0607,-0.38813 0.30132,-0.7901 0.18201,-1.16438 -0.16874,-0.52931 -0.81364,-0.81706 -0.98238,-1.34637 -0.32014,-1.0043 0.86616,-2.48883 0.54601,-3.49312 -0.16873,-0.52931 -0.81364,-0.81706 -0.98237,-1.34638 -0.11931,-0.37428 0.41355,-0.84703 0.182,-1.16437 -0.23155,-0.31735 -0.93282,0.13534 -1.16437,-0.182 -0.43661,-0.59839 1.2494,-2.05781 -0.98237,-1.34638 -0.2403,0.0766 -5.23922,3.72402 -5.38551,3.92949 -0.22783,0.32001 0.0459,0.84435 -0.182,1.16437 -0.32221,0.45257 -0.97051,0.57325 -1.34637,0.98237 -4.8409,5.26922 -0.0131,0.0256 -1.71038,3.31111 -0.40315,0.78044 -1.18628,1.33768 -1.52838,2.14675 -0.4027,0.95239 -0.47132,5.20567 -0.91001,5.82186 -0.32221,0.45258 -1.02417,0.5298 -1.34638,0.98237 -0.22783,0.32002 -0.12133,0.77625 -0.182,1.16437 -0.12134,0.77625 -0.24267,1.5525 -0.36401,2.32875 -0.30333,1.94062 -0.60667,3.88124 -0.91001,5.82186 -0.18329,1.17259 -0.77672,6.37587 -1.09201,6.98624 -0.25497,0.49359 -1.02417,0.5298 -1.34638,0.98236 -0.44136,0.61993 -0.62786,5.88852 -1.09201,6.98624 -0.3421,0.80906 -1.12524,1.36631 -1.52838,2.14674 -1.69717,3.28555 3.13051,-1.9581 -1.71038,3.31113 -0.37586,0.40911 -1.02417,0.52979 -1.34638,0.98236 -0.22784,0.32002 0.0458,0.84436 -0.182,1.16438 -0.32222,0.45256 -1.02416,0.5298 -1.34637,0.98236 -0.22785,0.32003 0.0458,0.84436 -0.182,1.16438 -0.20291,0.28499 -3.70582,2.84085 -4.03914,2.94711 -0.37427,0.11931 -0.79009,-0.30132 -1.16437,-0.182 -0.52931,0.16873 -0.81707,0.81364 -1.34637,0.98237 -0.38206,0.12179 -2.96874,-0.46404 -3.49313,-0.54601 -0.38811,-0.0607 -0.77624,-0.12134 -1.16437,-0.182 -0.38812,-0.0607 -0.84435,0.0458 -1.16437,-0.18201 -0.45257,-0.3222 -0.52979,-1.02416 -0.98237,-1.34637 -0.32001,-0.22784 -0.87508,0.0838 -1.16437,-0.182 -2.70686,-2.48684 -1.44989,-2.35791 -2.7651,-5.20351 -0.23309,-0.50429 -0.7493,-0.84207 -0.98238,-1.34637 -0.36853,-0.79736 -0.43183,-1.71338 -0.80037,-2.51075 -0.23308,-0.50429 -0.81364,-0.81706 -0.98237,-1.34637 -0.11931,-0.37429 0.24719,-0.77699 0.18201,-1.16438 -0.14576,-0.86623 -0.65462,-1.64451 -0.80037,-2.51075 -0.12987,-0.77183 0.95307,-6.09734 1.09202,-6.98624 0.78867,-5.04561 1.57735,-10.09122 2.36603,-15.13683 0.24267,-1.5525 0.48534,-3.105 0.72801,-4.6575 0.12134,-0.77624 0.39726,-1.54377 0.36401,-2.32874 -0.10516,-2.48229 -1.01362,-4.87576 -1.23673,-7.35025 -0.0353,-0.39125 0.30131,-0.79009 0.182,-1.16437 -0.16873,-0.52931 -0.89019,-0.79851 -0.98237,-1.34637 -0.13037,-0.77479 0.43456,-1.54625 0.36401,-2.32875 -0.0789,-0.87486 -0.53359,-1.67383 -0.80037,-2.51075 -0.26679,-0.83691 -0.53358,-1.67383 -0.80037,-2.51075 -0.53358,-1.67383 -1.30923,-3.28903 -1.60074,-5.02149 -0.0652,-0.38739 0.24719,-0.77699 0.18201,-1.16438 -0.37437,-2.22495 -0.65876,-2.31666 -1.78274,-3.85712 -0.32746,-0.44879 -0.5298,-1.02417 -0.98237,-1.34637 -0.32002,-0.22784 -0.93283,0.13534 -1.16437,-0.18201 -0.23155,-0.31734 0.41354,-0.84702 0.182,-1.16437 -0.23154,-0.31734 -0.77625,-0.12133 -1.16437,-0.182 -0.42761,-0.0668 -4.60332,-0.76752 -4.65749,-0.72801 -0.31735,0.23155 0.13534,0.93282 -0.18201,1.16437 -0.31734,0.23155 -0.79009,-0.30131 -1.16437,-0.182 -0.52931,0.16873 -0.89759,0.65491 -1.34637,0.98237 -0.4488,0.32746 -0.89759,0.65491 -1.34638,0.98237 -1.05163,0.76731 -3.21225,2.04707 -4.03913,2.94711 -0.59428,0.64686 -1.01891,1.43116 -1.52837,2.14674 -0.50946,0.71558 -1.18629,1.33769 -1.52838,2.14674 -0.30598,0.72365 -0.003,1.63071 -0.36401,2.32875 -0.25497,0.49359 -1.0914,0.48878 -1.34637,0.98237 -0.82853,5.30055 0.53848,0.15239 -1.71038,3.31112 -0.303,0.42558 -0.27076,3.29228 -0.54601,3.49311 -0.31735,0.23155 -0.84703,-0.41354 -1.16437,-0.182 -0.31735,0.23155 -0.12134,0.77625 -0.18201,1.16437 -0.10158,0.64991 -0.64903,5.31663 -0.91001,5.82187 -0.254973,0.49359 -1.091413,0.48878 -1.346373,0.98236 -0.3153,0.61038 -0.90874,5.81366 -1.09202,6.98624 -0.06067,0.38813 -0.121336,0.77625 -0.182004,1.16437 -0.06067,0.38813 0.04583,0.84436 -0.182002,1.16438 -0.322212,0.45258 -1.024166,0.5298 -1.346376,0.98237 -0.232568,0.32666 -0.464043,2.96874 -0.546009,3.49312 -0.242671,1.5525 -0.48534,3.10499 -0.72801,4.65749 -0.121336,0.77625 -0.242671,1.55249 -0.364007,2.32875 -0.06067,0.38812 0.04584,0.84435 -0.182002,1.16437 -0.32221,0.45257 -1.091406,0.48877 -1.346375,0.98237 -0.360579,0.69804 0.09167,1.6887 -0.364005,2.32874 -0.227836,0.32001 -0.790093,-0.30131 -1.164372,-0.182 -0.529312,0.16873 -0.817064,0.81364 -1.346376,0.98237 -0.37428,0.11931 -0.776249,-0.12134 -1.164373,-0.18201 -0.388124,-0.0607 -0.776248,-0.12133 -1.164372,-0.182 -0.776249,-0.12133 -1.552498,-0.24267 -2.328746,-0.364 -0.388124,-0.0607 -0.815351,-0.002 -1.164373,-0.18201 -0.780436,-0.40314 -1.366305,-1.12523 -2.146743,-1.52837 -0.349022,-0.1803 -0.932826,0.13534 -1.164372,-0.18201 -1.309827,-1.79516 2.122624,-0.86103 -0.98237,-1.34637 -0.388125,-0.0607 -0.932827,0.13534 -1.164374,-0.182 -0.231546,-0.31735 0.121335,-0.77625 0.182003,-1.16437 0.24267,-1.5525 0.485341,-3.105 0.728011,-4.6575 1.152683,-7.37436 2.305367,-14.74872 3.45805,-22.12308"
       id="path3767"
       inkscape:connector-curvature="0" />
    <text
       xml:space="preserve"
       style="font-size:56px;font-style:normal;font-variant:normal;font-weight:normal;font-stretch:normal;text-align:start;line-height:125%;letter-spacing:0px;word-spacing:0px;writing-mode:lr-tb;text-anchor:start;fill:#000000;fill-opacity:1;stroke:none;font-family:Sans;-inkscape-font-specification:Sans"
       x="360.71484"
       y="160.27316"
       id="text3769"
       sodipodi:linespacing="125%"
       transform="matrix(0.98800304,0.1544344,-0.1544344,0.98800304,0,0)"><tspan
         sodipodi:role="line"
         id="tspan3771"
         x="360.71484"
         y="160.27316">E. Coli</tspan></text>
    <path
       sodipodi:type="arc"
       style="fill:#000000;fill-opacity:1;stroke:#000000;stroke-width:5;stroke-miterlimit:4;stroke-opacity:1;stroke-dasharray:none"
       id="path3773"
       sodipodi:cx="556.25732"
       sodipodi:cy="165.71858"
       sodipodi:rx="3.5355339"
       sodipodi:ry="4.1247897"
       d="m 559.79286,165.71858 a 3.5355339,4.1247897 0 1 1 -7.07107,0 3.5355339,4.1247897 0 1 1 7.07107,0 z"
       transform="matrix(0.98800305,0.1544344,-0.1544344,0.98800305,55.384994,-33.235402)" />
    <path
       transform="matrix(0.98800305,0.1544344,-0.1544344,0.98800305,85.567695,-27.921141)"
       sodipodi:type="arc"
       style="fill:#000000;fill-opacity:1;stroke:#000000;stroke-width:5;stroke-miterlimit:4;stroke-opacity:1;stroke-dasharray:none"
       id="path3773-0"
       sodipodi:cx="556.25732"
       sodipodi:cy="165.71858"
       sodipodi:rx="3.5355339"
       sodipodi:ry="4.1247897"
       d="m 559.79286,165.71858 a 3.5355339,4.1247897 0 1 1 -7.07107,0 3.5355339,4.1247897 0 1 1 7.07107,0 z" />
    <path
       style="fill:none;stroke:#000000;stroke-width:5;stroke-linecap:butt;stroke-linejoin:miter;stroke-miterlimit:4;stroke-opacity:1;stroke-dasharray:none"
       d="m 570.80574,240.70634 c -0.8138,5.20638 -1.65419,3.38811 0.25436,6.00386 0.32746,0.44879 0.89019,0.79852 0.98237,1.34638 0.13036,0.77478 -0.49437,1.55396 -0.36401,2.32874 0.0922,0.54785 0.81364,0.81707 0.98237,1.34638 0.11932,0.37427 -0.30131,0.79009 -0.182,1.16437 0.33747,1.05863 1.62728,1.63413 1.96475,2.69275 0.11931,0.37428 -0.30132,0.79009 -0.18201,1.16438 0.16874,0.52931 0.65491,0.89758 0.98237,1.34637 0.32745,0.44879 0.52979,1.02417 0.98237,1.34638 0.32002,0.22783 0.84436,-0.0458 1.16437,0.182 0.45257,0.32221 0.5298,1.02417 0.98237,1.34637 0.32003,0.22784 0.93283,-0.13534 1.16437,0.18201 0.23155,0.31734 -0.41355,0.84702 -0.182,1.16437 0.23155,0.31734 0.77626,0.12133 1.16437,0.182 0.82531,0.129 6.70873,0.89444 6.98624,1.09202 0.45258,0.32221 0.5298,1.02416 0.98237,1.34637 0.31835,0.22665 5.86003,0.91598 6.98624,1.09202 0.38813,0.0607 0.84703,0.41355 1.16437,0.182 2.7857,-2.03256 -3.69618,-0.48129 1.52838,-2.14674 0.45398,-0.14473 5.012,0.78342 5.82186,0.91001 0.38813,0.0607 0.84703,0.41355 1.16438,0.182 0.31734,-0.23154 -0.13535,-0.93282 0.182,-1.16437 0.31735,-0.23155 0.79009,0.30132 1.16437,0.18201 0.33332,-0.10626 3.83623,-2.66213 4.03913,-2.94712 0.22784,-0.32001 -0.13534,-0.93282 0.18201,-1.16437 2.78569,-2.03256 -0.66961,3.66675 2.51074,-0.80037 0.61135,-0.8587 -0.0653,-2.63441 0.54601,-3.49311 0.32221,-0.45258 1.02417,-0.5298 1.34637,-0.98237 0.41456,-0.58229 0.35961,-4.3887 0.72801,-4.6575 1.79517,-1.30982 0.86104,2.12263 1.34638,-0.98237"
       id="path3793"
       inkscape:connector-curvature="0" />
    <path
       style="fill:none;stroke:#000000;stroke-width:3;stroke-linecap:butt;stroke-linejoin:miter;stroke-miterlimit:4;stroke-opacity:1;stroke-dasharray:none"
       d="m 490.41667,98.749999 c -1.0738,0.567151 -1.81457,-1.323953 -2.5,-1.666666 -0.24845,-0.124226 -0.63691,0.196418 -0.83333,0 -0.0982,-0.09821 0.0982,-0.318458 0,-0.416667 -0.0982,-0.09821 -0.27778,0 -0.41667,0 0,-0.277778 0.12423,-0.584881 0,-0.833333 -0.0621,-0.124226 -0.31846,0.09821 -0.41667,0 -0.0982,-0.09821 0.0621,-0.292441 0,-0.416667 -0.86703,-1.734067 0.0288,0.445432 -0.83333,-0.416667 -0.0982,-0.09821 0.0621,-0.29244 0,-0.416666 -0.0878,-0.175682 -0.32883,-0.240985 -0.41667,-0.416667 -0.0621,-0.124226 0.12423,-0.354554 0,-0.416667 -0.24845,-0.124226 -0.58488,0.124226 -0.83333,0 -0.12423,-0.06211 0.0982,-0.318457 0,-0.416666 -0.0982,-0.09821 -0.29244,0.06211 -0.41667,0 -0.17568,-0.08784 -0.24098,-0.328826 -0.41666,-0.416667 -0.22604,-0.113018 -1.55266,0.114009 -1.66667,0 -0.0982,-0.09821 -0.0982,-0.318457 0,-0.416667 0.0982,-0.09821 0.31846,0.09821 0.41667,0 0.0982,-0.09821 0,-0.277777 0,-0.416666 0,-0.335432 0.0872,-1.405145 0,-1.666667 -0.0982,-0.294628 -0.2444,-0.574928 -0.41667,-0.833333 -0.10895,-0.16343 -0.35455,-0.230328 -0.41667,-0.416667 -0.11182,-0.335486 0.11962,-2.26077 0,-2.5 -0.0878,-0.175682 -0.32882,-0.240985 -0.41666,-0.416667 -0.13249,-0.264976 0.11503,-1.738241 0,-2.083333 -0.0621,-0.186339 -0.32883,-0.240985 -0.41667,-0.416667 -0.11302,-0.226036 0.11401,-1.552657 0,-1.666666 -0.0982,-0.09821 -0.31846,0.09821 -0.41667,0 -0.0982,-0.09821 0,-0.277778 0,-0.416667 0,-0.833333 0,-1.666667 0,-2.5 0,-0.138889 0,-0.277778 0,-0.416667 0,-0.138888 -0.0982,-0.318457 0,-0.416666 0.0982,-0.09821 0.31846,0.09821 0.41667,0 0.0982,-0.09821 -0.0982,-0.318458 0,-0.416667 0.0982,-0.09821 0.31846,0.09821 0.41667,0 0.0982,-0.09821 -0.0982,-0.318457 0,-0.416667 0.19642,-0.196418 0.63691,0.196419 0.83333,0 0.0982,-0.09821 -0.0982,-0.318457 0,-0.416666 0.0982,-0.09821 0.31846,0.09821 0.41667,0 0.8621,-0.862098 -1.3174,0.0337 0.41666,-0.833334 0.12423,-0.06211 0.31846,0.09821 0.41667,0 0.19642,-0.196418 -0.19642,-0.636914 0,-0.833333 0.2196,-0.219603 0.57493,-0.244396 0.83333,-0.416667 0.82544,0.04159 0.19707,-0.61373 0.41667,-0.833333 0.2196,-0.219603 0.57493,-0.244396 0.83333,-0.416667 0.16343,-0.108953 0.27778,-0.277777 0.41667,-0.416666 0.41667,-0.416667 0.83333,-0.833334 1.25,-1.25 0.13889,-0.138889 0.24099,-0.328826 0.41667,-0.416667 0.12422,-0.06211 0.29244,0.06211 0.41666,0 1.73407,-0.867033 -0.44543,0.02876 0.41667,-0.833333 0.19642,-0.196419 0.63692,0.196418 0.83333,0 0.0982,-0.09821 -0.0982,-0.318458 0,-0.416667 0.0982,-0.09821 0.29244,0.06211 0.41667,0 0.17568,-0.08784 0.24099,-0.328826 0.41667,-0.416667 0.12422,-0.06211 0.31845,0.09821 0.41666,0 0.0982,-0.09821 -0.0982,-0.318457 0,-0.416666 0.19642,-0.196419 0.58489,0.124226 0.83334,0 0.17568,-0.08784 0.24098,-0.328826 0.41666,-0.416667 0.12423,-0.06211 0.31846,0.09821 0.41667,0 0.0982,-0.09821 -0.0982,-0.318457 0,-0.416667 0.19642,-0.196418 0.58488,0.124226 0.83333,0 0.35137,-0.175682 0.48197,-0.657651 0.83334,-0.833333 0.12422,-0.06211 0.31845,0.09821 0.41666,0 0.0982,-0.09821 -0.0982,-0.318457 0,-0.416667 0.0982,-0.09821 0.31846,0.09821 0.41667,0 0.0982,-0.09821 -0.0982,-0.318457 0,-0.416666 0.0982,-0.09821 0.31846,0.09821 0.41667,0 0.0982,-0.09821 -0.0982,-0.318458 0,-0.416667 0.59829,-0.598291 0.38461,0.769231 0.41666,0.833333 0.95346,1.90692 -0.17269,-1.76809 0.83334,1.25 0.0439,0.131762 0,0.277778 0,0.416667 0.13889,0.277778 0.31845,0.538706 0.41666,0.833333 0.0439,0.131762 -0.0621,0.292441 0,0.416667 0.0878,0.175682 0.32883,0.240985 0.41667,0.416667 0.0621,0.124226 -0.0621,0.29244 0,0.416666 0.0878,0.175682 0.32883,0.240985 0.41667,0.416667 0.0621,0.124226 -0.0621,0.292441 0,0.416667 0.0878,0.175682 0.32882,0.240984 0.41666,0.416666 0.0621,0.124226 -0.0982,0.318458 0,0.416667 0.0982,0.09821 0.29244,-0.06211 0.41667,0 0.17568,0.08784 0.27778,0.277778 0.41667,0.416667 0.13889,0.138889 0.32882,0.240984 0.41666,0.416666 0.12423,0.248452 -0.19641,0.636915 0,0.833334 0.0982,0.09821 0.27778,0 0.41667,0 0.13889,0 0.27778,0 0.41667,0 0.13889,0 0.27778,0 0.41666,0 0.13889,0 0.31846,-0.09821 0.41667,0 0.0982,0.09821 -0.0982,0.318457 0,0.416666 0.19642,0.196419 0.63692,-0.196418 0.83333,0 0.0982,0.09821 0,0.277778 0,0.416667 0,0.196457 0.0189,2.064449 0,2.083333 -0.0982,0.09821 -0.31845,-0.09821 -0.41666,0 -0.0134,0.0134 0,1.148948 0,1.25 0,2.638889 0,5.277778 0,7.916667 0,0.416667 0.13176,0.854715 0,1.25 -0.0621,0.186339 -0.32883,0.240985 -0.41667,0.416667 -0.0621,0.124226 0.13889,0.416666 0,0.416666 -0.13889,0 0,-0.555555 0,-0.416666 0,0.277778 0.12423,0.584881 0,0.833333 -0.12423,0.248452 -0.63691,-0.196418 -0.83333,0 -0.0982,0.09821 0.0982,0.318457 0,0.416667 -0.0982,0.09821 -0.31846,-0.09821 -0.41667,0 -0.0982,0.09821 0.0982,0.318457 0,0.416666 -0.0982,0.09821 -0.29244,-0.06211 -0.41667,0 -0.17568,0.08784 -0.24098,0.328826 -0.41666,0.416667 -0.12423,0.06211 -0.31846,-0.09821 -0.41667,0 -0.8621,0.862098 1.3174,-0.0337 -0.41667,0.833333 -0.24845,0.124226 -0.63691,-0.196418 -0.83333,0 -0.0982,0.09821 0.0621,0.292441 0,0.416667 -0.0878,0.175682 -0.27778,0.277778 -0.41667,0.416667 -0.13888,0.138889 -0.24098,0.328825 -0.41666,0.416666 -0.12423,0.06211 -0.31846,-0.09821 -0.41667,0 -0.0982,0.09821 0.0982,0.318458 0,0.416667 -0.0982,0.09821 -0.31846,-0.09821 -0.41667,0 -0.0982,0.09821 0.0982,0.318457 0,0.416667 -0.86209,0.862098 0.0337,-1.3174 -0.83333,0.416666 -0.0621,0.124226 0.0982,0.318458 0,0.416667 -0.7159,0.715897 -1.27142,0.04284 -1.66667,0.833333 -0.0621,0.124226 0.0982,0.318458 0,0.416667 -0.0982,0.09821 -0.29244,-0.06211 -0.41666,0 -0.17568,0.08784 -0.24099,0.328826 -0.41667,0.416667 -0.12423,0.06211 -0.31846,-0.09821 -0.41667,0 -0.86209,0.862098 1.3174,-0.0337 -0.41666,0.833333 -0.12423,0.06211 -0.38943,-0.136192 -0.41667,0 -0.13619,0.680959 0.13619,1.402375 0,2.083333 -0.14668,0.733415 -0.59681,1.373781 -0.83333,2.083331 -0.0828,0.24845 0,2.09631 0,2.5 0,0.13889 0.0621,0.29244 0,0.41667 -0.0878,0.17568 -0.32883,0.24098 -0.41667,0.41667 -0.16667,0.33333 0.16667,0.91666 0,1.25 -0.0878,0.17568 -0.32883,0.24098 -0.41667,0.41666 -0.16666,0.33334 0.16667,0.91667 0,1.25 -0.0878,0.17569 -0.32882,0.24099 -0.41666,0.41667 -0.0826,0.1652 0.0852,1.16482 0,1.25 -0.0982,0.0982 -0.31846,-0.0982 -0.41667,0 -0.20833,0.20833 0.20833,1.04167 0,1.25 -0.0982,0.0982 -0.31846,-0.0982 -0.41667,0 -0.0852,0.0852 0.0826,1.08479 0,1.25 -0.0878,0.17568 -0.32882,0.24098 -0.41666,0.41667 -0.0634,0.1268 0,1.06235 0,1.25 0,1.09735 0.0829,1.83462 0,2.08333 -0.0621,0.18634 -0.32883,0.24098 -0.41667,0.41667 -0.0621,0.12422 0.0982,0.31845 0,0.41666 -0.0982,0.0982 -0.31846,-0.0982 -0.41667,0 -0.19641,0.19642 0.19642,0.63692 0,0.83334 -0.20833,0.20833 -1.04166,-0.20834 -1.25,0 -0.0982,0.0982 0.0982,0.31845 0,0.41666 -0.11139,0.1114 -1.81755,-0.13289 -2.08333,0 -0.17568,0.0878 -0.24098,0.32883 -0.41667,0.41667 -0.12422,0.0621 -0.29244,-0.0621 -0.41666,0 -0.17568,0.0878 -0.24099,0.32883 -0.41667,0.41667 -0.12423,0.0621 -0.27778,0 -0.41667,0 -0.27777,0 -0.56981,-0.0878 -0.83333,0 -0.18634,0.0621 -0.24098,0.32882 -0.41667,0.41666 -0.12422,0.0621 -0.2849,-0.0439 -0.41666,0 -0.29463,0.0982 -0.53871,0.31846 -0.83334,0.41667 -0.13176,0.0439 -0.31845,-0.0982 -0.41666,0 -0.0982,0.0982 0.0982,0.31846 0,0.41667 -0.0982,0.0982 -0.29244,-0.0621 -0.41667,0 -0.17568,0.0878 -0.24098,0.32882 -0.41667,0.41666 -0.24845,0.12423 -0.63691,-0.19642 -0.83333,0 -0.0982,0.0982 0.0982,0.31846 0,0.41667 -0.20833,0.20833 -1.04167,-0.20833 -1.25,0 -0.0982,0.0982 0.0982,0.31846 0,0.41667 -0.19642,0.19642 -0.58488,-0.12423 -0.83333,0 -0.17568,0.0878 -0.24099,0.32882 -0.41667,0.41666 -0.12423,0.0621 -0.31846,-0.0982 -0.41667,0 -0.86209,0.8621 1.3174,-0.0337 -0.41666,0.83334 -0.24845,0.12422 -0.63692,-0.19642 -0.83334,0 -0.19641,0.19642 0.19642,0.63691 0,0.83333 -0.0982,0.0982 -0.29244,-0.0621 -0.41666,0 -1.73407,0.86703 0.44543,-0.0288 -0.41667,0.83333 -0.19642,0.19642 -0.63691,-0.19642 -0.83333,0 -0.19642,0.19642 0.12422,0.58488 0,0.83334 -0.0878,0.17568 -0.32883,0.24098 -0.41667,0.41666 -0.0621,0.12423 0.0982,0.31846 0,0.41667 -0.0982,0.0982 -0.31846,-0.0982 -0.41667,0 -0.0982,0.0982 0.0621,0.29244 0,0.41667 -0.17568,0.35136 -0.65765,0.48197 -0.83333,0.83333 -0.0621,0.12423 0.0621,0.29244 0,0.41667 -0.0878,0.17568 -0.32883,0.24098 -0.41667,0.41666 -0.0634,0.12681 0,1.06235 0,1.25 0,0.97223 0,1.94445 0,2.91667"
       id="path3814"
       inkscape:connector-curvature="0" />
    <path
       style="fill:none;stroke:#000000;stroke-width:3;stroke-linecap:butt;stroke-linejoin:miter;stroke-miterlimit:4;stroke-opacity:1;stroke-dasharray:none"
       d="m 485,117.91667 c -2.51508,-0.21293 0.0841,1.58256 -0.41666,2.08333 -0.8621,0.8621 0.0337,-1.3174 -0.83334,0.41667 -0.0621,0.12422 0.0621,0.29244 0,0.41666 -0.17568,0.35137 -0.65765,0.48197 -0.83333,0.83334 -0.0621,0.12422 0.0982,0.31845 0,0.41666 -0.0982,0.0982 -0.31846,-0.0982 -0.41667,0 -0.0982,0.0982 0.0621,0.29244 0,0.41667 -0.0878,0.17568 -0.32882,0.24098 -0.41666,0.41667 -0.0621,0.12422 0.0621,0.29244 0,0.41666 -0.0878,0.17569 -0.32883,0.24099 -0.41667,0.41667 -0.0621,0.12423 0.0621,0.29244 0,0.41667 -0.17568,0.35136 -0.70911,0.46065 -0.83333,0.83333 -0.0878,0.26352 0.0878,0.56981 0,0.83333 -0.0621,0.18634 -0.32883,0.24099 -0.41667,0.41667 -0.0621,0.12423 0.0439,0.28491 0,0.41667 -0.0982,0.29462 -0.31846,0.5387 -0.41667,0.83333 -0.0784,0.23508 0,0.97621 0,1.25 0,0.83333 0,1.66667 0,2.5 0,0.13889 0,0.27778 0,0.41667 0,0.13889 -0.0982,0.31845 0,0.41666 0.0982,0.0982 0.31846,-0.0982 0.41667,0 0.0982,0.0982 0,0.27778 0,0.41667 0,0.13889 0,0.27778 0,0.41667 0,1.11111 0,2.22222 0,3.33333"
       id="path3816"
       inkscape:connector-curvature="0" />
    <path
       style="fill:none;stroke:#000000;stroke-width:3;stroke-linecap:butt;stroke-linejoin:miter;stroke-miterlimit:4;stroke-opacity:1;stroke-dasharray:none"
       d="m 501.25,136.25 c 0,-1.27045 -0.4223,-0.006 -0.83333,-0.41667 -0.0168,-0.0168 0,-1.51365 0,-1.66666 0,-0.13889 0,-0.27778 0,-0.41667 0,-0.13889 0.0982,-0.31846 0,-0.41667 -0.0982,-0.0982 -0.31847,0.0982 -0.41667,0 -0.0852,-0.0852 0.0826,-1.08479 0,-1.25 -0.0878,-0.17568 -0.32886,-0.24098 -0.41666,-0.41666 -0.0621,-0.12423 0.0439,-0.28491 0,-0.41667 -0.50352,-1.51054 -0.1977,-0.29654 -0.83334,-1.25 -1.40328,-2.10492 -0.003,-0.01 -0.41666,-1.25 -0.0982,-0.29463 -0.2444,-0.57493 -0.41667,-0.83333 -0.10895,-0.16343 -0.35457,-0.23033 -0.41667,-0.41667 -0.0878,-0.26352 0.15409,-0.60221 0,-0.83333 -0.17227,-0.25841 -0.61373,-0.19707 -0.83333,-0.41667 -0.0982,-0.0982 0.0439,-0.28491 0,-0.41667 -0.0982,-0.29462 -0.2444,-0.57492 -0.41667,-0.83333 -0.2179,-0.32686 -0.61542,-0.50647 -0.83333,-0.83333 -0.17227,-0.25841 -0.31847,-0.53871 -0.41667,-0.83334 -0.0439,-0.13176 0.0982,-0.31845 0,-0.41666 -0.0982,-0.0982 -0.31846,0.0982 -0.41666,0 -0.0982,-0.0982 0.0621,-0.29244 0,-0.41667 -0.17568,-0.35136 -0.65765,-0.48197 -0.83334,-0.83333 -0.0621,-0.12423 0.0621,-0.29244 0,-0.41667 -0.86703,-1.73407 0.0288,0.44543 -0.83333,-0.41667 -0.19642,-0.19642 0.19642,-0.63691 0,-0.83333 -0.19642,-0.19642 -0.63691,0.19642 -0.83333,0 -0.0982,-0.0982 0.0982,-0.31846 0,-0.41667 -0.12902,-0.12902 -1.95432,0.12902 -2.08334,0 -0.0982,-0.0982 0.0982,-0.31845 0,-0.41666 -0.0982,-0.0982 -0.29244,0.0621 -0.41666,0 -0.17568,-0.0878 -0.2343,-0.34372 -0.41667,-0.41667 -0.53169,-0.21268 -1.11111,-0.27778 -1.66667,-0.41667 0.13889,0.69445 0.15365,1.42579 0.41667,2.08334 0.0516,0.12895 0.31846,-0.0982 0.41667,0 0.19642,0.19642 -0.12423,0.58488 0,0.83333 0.17568,0.35136 0.65765,0.48197 0.83333,0.83333 0.0621,0.12423 -0.0982,0.31846 0,0.41667 0.0982,0.0982 0.31846,-0.0982 0.41667,0 0.0982,0.0982 -0.0621,0.29244 0,0.41667 0.0878,0.17568 0.32882,0.24098 0.41666,0.41666 0.16667,0.33334 -0.16666,0.91667 0,1.25 0.0878,0.17569 0.32883,0.24099 0.41667,0.41667 0.0548,0.10956 0,1.44878 0,1.66667 0,1.38889 0,2.77777 0,4.16666 0,0.83334 0,1.66667 0,2.5 0,0.13889 -0.0982,0.31846 0,0.41667 0.0982,0.0982 0.31846,-0.0982 0.41667,0 0.0982,0.0982 0,0.27778 0,0.41667 0,0.13889 0,0.27777 0,0.41666"
       id="path3818"
       inkscape:connector-curvature="0" />
    <path
       style="fill:none;stroke:#ff0000;stroke-width:3;stroke-linecap:butt;stroke-linejoin:miter;stroke-miterlimit:4;stroke-opacity:1;stroke-dasharray:none"
       d="m 484.16667,141.875 c 0.48509,3.26064 -1.55446,0.30446 -2.08333,0.83333 -0.0982,0.0982 0.0982,0.31846 0,0.41667 -0.19642,0.19642 -0.63691,-0.19642 -0.83333,0 -0.19642,0.19642 0.19642,0.63691 0,0.83333 -0.20834,0.20834 -1.04167,-0.20833 -1.25,0 -0.0982,0.0982 0.0982,0.31846 0,0.41667 -0.19642,0.19642 -0.63692,-0.19642 -0.83334,0 -0.0982,0.0982 0.0982,0.31846 0,0.41667 -0.0982,0.0982 -0.29244,-0.0621 -0.41666,0 -0.11063,0.0553 -1.19469,1.13937 -1.25,1.25 -0.0621,0.12422 0.0982,0.31845 0,0.41666 -0.8621,0.8621 0.0337,-1.3174 -0.83334,0.41667 -0.0621,0.12423 0,0.27778 0,0.41667 -0.13888,0.13889 -0.32882,0.24098 -0.41666,0.41666 -0.12423,0.24845 0.19642,0.63692 0,0.83334 -0.0982,0.0982 -0.31846,-0.0982 -0.41667,0 -0.14626,0.14625 0.1439,1.79552 0,2.08333 -0.0878,0.17568 -0.32883,0.24098 -0.41667,0.41667 -0.0634,0.1268 0,1.06235 0,1.25 0,0.13889 -0.0982,0.31845 0,0.41666 0.19642,0.19642 0.63692,-0.19642 0.83334,0 0.0982,0.0982 -0.0982,0.31846 0,0.41667 0.19642,0.19642 0.63691,-0.19642 0.83333,0 0.19642,0.19642 -0.19642,0.63691 0,0.83333 0.19642,0.19642 0.63692,-0.19642 0.83333,0 0.0982,0.0982 -0.0982,0.31846 0,0.41667 0.0982,0.0982 0.29244,-0.0621 0.41667,0 0.17568,0.0878 0.24099,0.32883 0.41667,0.41667 0.12422,0.0621 0.31845,-0.0982 0.41666,0 0.0982,0.0982 -0.0982,0.31845 0,0.41666 0.0982,0.0982 0.31846,-0.0982 0.41667,0 0.0982,0.0982 -0.0982,0.31846 0,0.41667 0.19642,0.19642 0.63692,-0.19642 0.83333,0 0.0982,0.0982 -0.0982,0.31846 0,0.41667 0.0134,0.0134 1.14895,0 1.25,0 0.13889,0 0.31846,0.0982 0.41667,0 0.0982,-0.0982 -0.13889,-0.41667 0,-0.41667 0.13889,0 0,0.55556 0,0.41667 0,-2.36111 -0.27778,-0.13889 0.41667,-0.83334 0.20833,-0.20833 -0.20834,-1.04166 0,-1.25 0.0982,-0.0982 0.31845,0.0982 0.41666,0 0.20834,-0.20833 -0.20833,-1.04166 0,-1.25 0.0982,-0.0982 0.31846,0.0982 0.41667,0 0.19642,-0.19642 -0.19642,-0.63691 0,-0.83333 0.0982,-0.0982 0.31846,0.0982 0.41667,0 0.0982,-0.0982 0,-0.27778 0,-0.41667 0,-0.15301 0.0168,-1.6499 0,-1.66666 -0.0982,-0.0982 -0.31846,0.0982 -0.41667,0 -0.0982,-0.0982 0.0982,-0.31846 0,-0.41667 -0.19642,-0.19642 -0.63691,0.19642 -0.83333,0 -0.0982,-0.0982 0.0621,-0.29244 0,-0.41667 -0.17568,-0.35136 -0.65765,-0.48197 -0.83334,-0.83333 -0.0621,-0.12423 0.0982,-0.31846 0,-0.41667 -0.0982,-0.0982 -0.41666,0.13889 -0.41666,0 0,-0.83252 1.00174,-0.16841 1.25,-0.41666 0.0982,-0.0982 -0.0982,-0.31846 0,-0.41667 0.19642,-0.19642 0.63691,0.19642 0.83333,0 0.0982,-0.0982 -0.0982,-0.31846 0,-0.41667 0.0982,-0.0982 0.27778,0 0.41667,0 0.13889,0 0.27778,0 0.41666,0 0.13889,0 0.55556,0 0.41667,0 -0.27778,0 -0.83333,0.27778 -0.83333,0 0,-1.14736 0.951,-0.11767 1.25,-0.41666 0.19642,-0.19642 -0.19642,-0.63692 0,-0.83334 0.0982,-0.0982 0.31845,0.0982 0.41666,0 0.41104,-0.41103 -0.85378,-0.83333 0.41667,-0.83333 1.27045,0 0.006,-0.4223 0.41667,-0.83333 0.0982,-0.0982 0.31845,0.0982 0.41666,0 0.0417,-0.0417 0.0417,-1.20834 0,-1.25 -0.0982,-0.0982 -0.27966,0.0228 -0.41666,0 -0.69856,-0.11643 -1.38889,-0.27778 -2.08334,-0.41667 z"
       id="path3820"
       inkscape:connector-curvature="0" />
  </g>
</svg>
