<?xml version="1.0" encoding="UTF-8" standalone="no"?>
<!-- Created with Inkscape (http://www.inkscape.org/) -->

<svg
   xmlns:dc="http://purl.org/dc/elements/1.1/"
   xmlns:cc="http://creativecommons.org/ns#"
   xmlns:rdf="http://www.w3.org/1999/02/22-rdf-syntax-ns#"
   xmlns:svg="http://www.w3.org/2000/svg"
   xmlns="http://www.w3.org/2000/svg"
   xmlns:sodipodi="http://sodipodi.sourceforge.net/DTD/sodipodi-0.dtd"
   xmlns:inkscape="http://www.inkscape.org/namespaces/inkscape"
   width="800px"
   height="600px"
   id="svg2983"
   version="1.1"
   inkscape:version="0.48.2 r9819"
   sodipodi:docname="infection1.svg">
  <defs
     id="defs2985" />
  <sodipodi:namedview
     id="base"
     pagecolor="#ffffff"
     bordercolor="#666666"
     borderopacity="1.0"
     inkscape:pageopacity="0.0"
     inkscape:pageshadow="2"
     inkscape:zoom="1.6970563"
     inkscape:cx="495.25612"
     inkscape:cy="430.63023"
     inkscape:current-layer="layer1"
     inkscape:document-units="px"
     showgrid="false"
     inkscape:window-width="1280"
     inkscape:window-height="949"
     inkscape:window-x="0"
     inkscape:window-y="25"
     inkscape:window-maximized="1" />
  <metadata
     id="metadata2988">
    <rdf:RDF>
      <cc:Work
         rdf:about="">
        <dc:format>image/svg+xml</dc:format>
        <dc:type
           rdf:resource="http://purl.org/dc/dcmitype/StillImage" />
        <dc:title />
      </cc:Work>
    </rdf:RDF>
  </metadata>
  <g
     id="layer1"
     inkscape:label="Layer 1"
     inkscape:groupmode="layer">
    <path
       style="fill:none;stroke:#000000;stroke-width:5;stroke-linecap:butt;stroke-linejoin:miter;stroke-miterlimit:4;stroke-opacity:1;stroke-dasharray:none"
       d="m 223.71968,80.292326 c 1.23409,1.213737 6.24705,0.469128 8.15061,1.274019 1.61811,0.68419 2.64465,2.450302 4.29348,3.056753 1.10607,0.406816 2.47962,-0.05542 3.49312,0.546009 0.95554,0.56702 0.95634,2.226178 1.96474,2.692747 1.78262,0.824793 3.97841,0.231977 5.82187,0.910014 1.98545,0.730263 3.57831,2.267872 5.45785,3.238756 12.01029,6.204012 -1.81737,-1.160963 7.96861,2.4384 0.82441,0.303225 1.31297,1.251888 2.14674,1.528376 1.49148,0.49459 3.10499,0.485341 4.65749,0.728012 3.88124,0.606675 7.76249,1.213351 11.64373,1.820026 1.5525,0.242671 3.10499,0.485341 4.65749,0.728012 1.16437,0.182002 2.36031,0.220984 3.49312,0.546007 1.9254,0.552423 3.70141,1.569643 5.63986,2.074383 1.90081,0.49493 3.88124,0.60668 5.82186,0.91001 3.49312,0.54601 6.98624,1.09202 10.47936,1.63803 7.90403,1.23548 3.7397,0.58455 11.64373,1.82003 2.71687,0.42467 5.40917,1.05897 8.15061,1.27402 2.38221,0.18687 4.78602,-0.25922 7.16824,-0.0724 2.74144,0.21505 5.43374,0.84935 8.1506,1.27402 2.71687,0.42467 5.43374,0.84935 8.15061,1.27402 2.71687,0.42467 5.40099,1.23784 8.15061,1.27402 2.85965,0.0376 5.65497,-1.09236 8.51462,-1.05474 2.74962,0.0362 5.43374,0.84935 8.15061,1.27402 3.49312,0.54601 6.98623,1.09202 10.47935,1.63803 14.74872,2.30537 29.49744,4.61073 44.24616,6.9161 5.43374,0.84935 10.86748,1.69869 16.30122,2.54804 3.49312,0.54601 7.0579,0.74715 10.47936,1.63802 22.93031,5.97059 1.66285,3.06936 27.21693,9.02556 5.35616,1.24842 10.86748,1.69869 16.30122,2.54804 16.68935,2.60871 33.37869,5.21741 50.06803,7.82612 8.15061,1.27401 16.30122,2.54803 24.45183,3.82205 2.32875,0.36401 4.65749,0.72801 6.98623,1.09202 1.02659,0.16046 2.46223,0.63895 3.49313,0.54601 3.48526,-0.31426 6.35877,-1.60327 9.86099,-2.0371 14.46984,-1.79242 -2.91388,0.22317 8.33261,0.10964 2.48439,-0.0251 4.86585,-1.21165 7.35023,-1.23673 1.17846,-0.0119 2.31567,0.5959 3.49313,0.54601 0.87762,-0.0372 1.64451,-0.65461 2.51074,-0.80037 0.70964,-0.1194 3.64847,0.5703 4.6575,0.72802 1.21086,0.18926 6.10611,0.71987 6.98623,1.09201 0.80906,0.3421 1.39132,1.08011 2.14675,1.52838 2.13664,1.26791 4.48559,2.15286 6.62222,3.42076 0.75543,0.44828 1.36631,1.12524 2.14675,1.52838 0.34902,0.18029 0.84435,-0.0458 1.16437,0.18201 0.45257,0.32221 0.57326,0.97051 0.98237,1.34637 0.64687,0.59428 1.49988,0.93409 2.14674,1.52838 0.40912,0.37585 0.65492,0.89758 0.98237,1.34637 0.98237,1.34638 1.96475,2.69275 2.94712,4.03913 1.63728,2.24396 3.27456,4.48791 4.91184,6.73187 0.65492,0.89759 1.00921,2.12573 1.96475,2.69275 1.0135,0.60143 2.40765,0.087 3.49311,0.54601 0.5117,0.21636 0.65491,0.89759 0.98237,1.34638 0.32746,0.44879 0.7493,0.84207 0.98237,1.34637 0.36854,0.79737 0.43184,1.71339 0.80037,2.51075 0.23308,0.5043 0.65492,0.89759 0.98238,1.34638 0.32744,0.44879 0.57325,0.97051 0.98236,1.34637 0.64687,0.59428 1.7782,0.73102 2.14675,1.52838 0.32962,0.71318 -0.69363,1.61556 -0.36401,2.32874 0.36853,0.79737 1.49988,0.9341 2.14674,1.52839 0.40911,0.37585 0.65492,0.89758 0.98237,1.34637 0.32746,0.44879 0.81364,0.81706 0.98237,1.34638 0.11932,0.37428 -0.30131,0.79008 -0.18201,1.16437 0.16875,0.52931 0.8902,0.79852 0.98238,1.34637 0.13036,0.77479 -0.49437,1.55397 -0.364,2.32875 0.18435,1.09571 1.62726,1.63413 1.96473,2.69276 0.11932,0.37427 -0.30131,0.79008 -0.182,1.16437 0.16873,0.5293 0.89019,0.79851 0.98237,1.34637 -0.82853,5.30056 -0.5593,-0.0192 0.61837,3.67512 0.25152,0.78903 -0.97954,3.86846 -0.72802,4.65749 1.83149,5.74535 0.28972,-5.01636 1.78274,3.85712 0.12987,0.77184 -0.95307,6.09735 -1.09202,6.98624 -0.364,2.32874 -0.72801,4.65749 -1.09201,6.98624 -0.12134,0.77624 -0.058,1.6051 -0.36401,2.32874 -0.34209,0.80906 -1.18627,1.33769 -1.52837,2.14674 -0.30598,0.72365 -0.058,1.60511 -0.36401,2.32875 -0.34209,0.80906 -1.18628,1.33768 -1.52838,2.14675 -0.74211,1.75509 -0.1679,4.06677 -0.91001,5.82185 -0.34209,0.80907 -1.18628,1.33769 -1.52838,2.14675 -0.74211,1.75509 -0.1679,4.06677 -0.91001,5.82186 -0.3421,0.80907 -1.18629,1.33769 -1.52838,2.14675 -0.30598,0.72364 -0.24267,1.55249 -0.364,2.32875 -0.26321,1.6839 -0.83591,6.95947 -1.27402,8.15061 -0.30323,0.82441 -1.18629,1.33768 -1.52838,2.14674 -0.30599,0.72364 -0.24267,1.55249 -0.364,2.32874 -0.18201,1.16437 -0.36401,2.32874 -0.54601,3.49312 -0.42468,2.71687 -0.84935,5.43374 -1.27402,8.15061 -0.182,1.16437 -0.17507,2.3745 -0.54601,3.49312 -0.39102,1.17912 -1.31937,2.132 -1.71038,3.31111 -0.37095,1.11861 -0.364,2.32875 -0.54601,3.49312 -0.57013,1.10371 -1.28156,2.14521 -1.71039,3.31111 -0.54242,1.47476 -0.11604,3.21021 -0.72801,4.6575 -0.34209,0.80906 -1.18627,1.33769 -1.52837,2.14674 -0.42888,1.01431 -0.69859,4.46924 -0.91002,5.82187 -0.0607,0.38811 0.13535,0.93282 -0.182,1.16437 -0.31734,0.23154 -0.84703,-0.41355 -1.16437,-0.182 -0.31735,0.23154 0.0458,0.84434 -0.182,1.16437 -0.32221,0.45257 -0.89758,0.65491 -1.34638,0.98237 -0.44879,0.32746 -0.84208,0.74928 -1.34637,0.98237 -6.00881,2.77723 1.75108,-2.06212 -6.36788,2.5831 -0.96441,0.55179 -1.69971,1.4663 -2.69275,1.96474 -2.0472,1.02756 -4.31097,1.57509 -6.36787,2.5831 -2.25873,1.10694 -4.29114,2.64055 -6.54987,3.74749 -4.11379,2.01603 -8.57721,3.24416 -12.73575,5.1662 -10.57046,4.88561 -7.92934,4.67369 -19.28562,8.91369 -3.29169,1.229 -6.69532,2.13431 -10.04299,3.20147 -1.16825,0.37241 -6.64135,2.36336 -7.53224,2.40111 -1.17746,0.0499 -2.31566,-0.5959 -3.49312,-0.54601 -0.87762,0.0372 -1.63313,0.76318 -2.51075,0.80036 -1.17746,0.0499 -2.32874,-0.364 -3.49311,-0.546 -1.94063,-0.30334 -3.88124,-0.60668 -5.82187,-0.91002 -5.04561,-0.78867 -10.09124,-1.57735 -15.13685,-2.36603 -1.5525,-0.24267 -3.14129,-0.31539 -4.65748,-0.72801 -1.9328,-0.52601 -3.77504,-1.34309 -5.63987,-2.07439 -1.50791,-0.59133 -2.91262,-1.46706 -4.47548,-1.89239 -3.79052,-1.03157 -7.85322,-0.78845 -11.64374,-1.82003 -12.79482,-3.48207 2.38821,-0.81952 -7.9686,-2.43839 -2.32875,-0.364 -4.65749,-0.72801 -6.98623,-1.09201 -0.77626,-0.12134 -1.5525,-0.24267 -2.32875,-0.36401 -0.77625,-0.12133 -1.6051,-0.058 -2.32875,-0.364 -0.80905,-0.34209 -1.33768,-1.18628 -2.14674,-1.52838 -1.44728,-0.61196 -3.21021,-0.11605 -4.65749,-0.72801 -1.61811,-0.68419 -2.64466,-2.4503 -4.29348,-3.05675 -1.10608,-0.40683 -2.38706,-0.1392 -3.49313,-0.54601 -0.82441,-0.30323 -1.43115,-1.01892 -2.14674,-1.52838 -1.1037,-0.57013 -2.12323,-1.34689 -3.31111,-1.71038 -1.50258,-0.45979 -3.15492,-0.26822 -4.6575,-0.72801 -1.18788,-0.3635 -2.14522,-1.28156 -3.31111,-1.71038 -0.73738,-0.27122 -1.59137,-0.0928 -2.32874,-0.364 -1.1659,-0.42883 -2.132,-1.31938 -3.31112,-1.71039 -1.11861,-0.37095 -2.37451,-0.17506 -3.49312,-0.54601 -1.17912,-0.39101 -2.12322,-1.34688 -3.31112,-1.71038 -2.6295,-0.80463 -5.52109,-0.46939 -8.15061,-1.27402 -1.54882,-0.47394 -2.92666,-1.41845 -4.47548,-1.89238 -1.12694,-0.34484 -2.32874,-0.36401 -3.49312,-0.54601 -1.94062,-0.30334 -3.91667,-0.43222 -5.82186,-0.91001 -19.03938,-4.77474 8.68929,0.45327 -17.10159,-5.05879 -3.45745,-0.73893 -7.08094,-0.66296 -10.47935,-1.63802 -2.749,-0.78873 -5.06104,-2.73659 -7.78661,-3.60276 -2.24632,-0.71389 -4.65749,-0.72801 -6.98624,-1.09202 -5.04561,-0.78868 -10.09122,-1.57736 -15.13685,-2.36603 -22.3179,-3.48851 6.57345,1.49535 -12.62609,-3.1664 -2.67222,-0.64884 -5.43374,-0.84935 -8.15061,-1.27402 -1.94063,-0.30334 -3.88124,-0.60668 -5.82187,-0.91002 -1.94061,-0.30333 -3.99325,-0.19292 -5.82185,-0.91001 -1.63556,-0.64139 -2.67537,-2.37257 -4.29349,-3.05676 -1.44729,-0.61197 -3.10499,-0.48534 -4.65749,-0.72801 -3.49312,-0.54601 -6.98624,-1.09202 -10.47935,-1.63803 -1.5525,-0.24267 -3.14709,-0.29465 -4.6575,-0.72801 -1.55689,-0.4467 -2.92667,-1.41845 -4.47549,-1.89238 -1.12693,-0.34485 -2.32874,-0.36401 -3.49312,-0.54601 -1.16437,-0.182 -2.32874,-0.364 -3.49311,-0.54601 -5.43374,-0.84934 -10.86748,-1.69869 -16.30122,-2.54804 -15.91309,-2.48737 -31.82619,-4.97473 -47.73928,-7.4621 -1.2317,-0.19253 -7.51951,-1.38021 -8.15061,-1.27402 -0.54786,0.0922 -0.81707,0.81363 -1.34638,0.98236 -0.40006,0.12753 -4.78124,-0.74735 -5.82186,-0.91001 -1.94063,-0.30334 -3.88124,-0.60667 -5.82187,-0.91001 -0.77624,-0.12134 -1.6051,-0.058 -2.32874,-0.36401 -0.80906,-0.34209 -1.36631,-1.12523 -2.14674,-1.52837 -0.34903,-0.18029 -0.77626,-0.12134 -1.16437,-0.18201 -1.5525,-0.24267 -3.16602,-0.23341 -4.6575,-0.72801 -0.83376,-0.27649 -1.39133,-1.0801 -2.14674,-1.52837 -1.06832,-0.63396 -2.2428,-1.07643 -3.31112,-1.71038 -1.51083,-0.89655 -2.7326,-2.25048 -4.29348,-3.05676 -0.34903,-0.18029 -0.84436,0.0458 -1.16437,-0.182 -0.90515,-0.64443 -0.97756,-2.18282 -1.96475,-2.69276 -0.69804,-0.36058 -1.55249,-0.24267 -2.32874,-0.364 -0.71558,-0.50946 -1.36631,-1.12524 -2.14674,-1.52838 -0.34903,-0.18029 -0.93283,0.13534 -1.16438,-0.182 -0.23154,-0.31735 0.47129,-0.8986 0.18201,-1.16437 -0.9148,-0.84044 -2.29913,-0.9899 -3.31112,-1.71039 -0.45257,-0.3222 -0.48878,-1.0914 -0.98237,-1.34637 -0.69804,-0.36058 -1.6051,-0.058 -2.32875,-0.364 -0.80905,-0.3421 -1.3663,-1.12525 -2.14674,-1.52838 -0.34902,-0.18029 -0.81535,-0.002 -1.16437,-0.182 -0.78044,-0.40315 -1.43116,-1.01893 -2.14675,-1.52838 -0.71558,-0.50946 -1.49988,-0.9341 -2.14674,-1.52839 -0.40911,-0.37585 -0.5298,-1.02415 -0.98237,-1.34637 -2.64366,-1.88215 0.52281,3.54417 -3.31111,-1.71038 -0.23155,-0.31735 0.41354,-0.84703 0.182,-1.16437 -0.23154,-0.31735 -0.77625,-0.12134 -1.16438,-0.18201 -0.59424,-1.2857 -0.94788,-2.71292 -1.78273,-3.85712 -2.92543,-4.0094 -1.78896,1.50437 -4.11148,-4.22113 -0.23804,-0.58678 -0.9987,-6.76345 -1.23674,-7.35024 -2.10255,-5.1832 -1.92765,-0.22621 -2.7651,-5.2035 -0.1163,-0.69116 0.42641,-2.728 0.54601,-3.49311 0.364,-2.32876 0.72801,-4.6575 1.09201,-6.98624 0.42468,-2.71687 0.84935,-5.43374 1.27402,-8.15061 0.12134,-0.77626 0.24267,-1.5525 0.36401,-2.32874 0.0607,-0.38813 0.002,-0.81536 0.182,-1.16439 0.40314,-0.78043 1.18629,-1.33767 1.52838,-2.14674 0.70822,-1.67495 0.43521,-5.2005 1.09201,-6.98623 0.42883,-1.1659 1.28156,-2.14521 1.71038,-3.31112 0.27122,-0.73738 0.24267,-1.5525 0.36401,-2.32874 0.30334,-1.94063 0.60667,-3.88124 0.91001,-5.82187 0.60668,-3.88124 1.21335,-7.76248 1.82003,-11.64372 0.15445,-0.98814 1.20565,-6.3109 1.09201,-6.98624 -0.0922,-0.54786 -0.89019,-0.79852 -0.98236,-1.34637 -0.13036,-0.77479 0.24267,-1.5525 0.364,-2.32875 0.36401,-2.32875 0.72801,-4.65749 1.09202,-6.98624 0.48534,-3.10499 0.97068,-6.20998 1.45602,-9.31498 0.182,-1.16437 0.13919,-2.38705 0.54601,-3.49312 0.0195,-0.0532 2.96721,-4.14258 3.05675,-4.29348 0.63396,-1.06832 1.07643,-2.2428 1.71039,-3.31111 0.44827,-0.75543 1.0801,-1.39133 1.52838,-2.14675 1.2679,-2.13665 2.28051,-4.41482 3.42075,-6.62223 0.57014,-1.10371 1.28156,-2.14522 1.71039,-3.31112 0.27121,-0.73738 0.058,-1.6051 0.364,-2.32875 0.3421,-0.80905 1.18629,-1.33768 1.52838,-2.14674 0.30598,-0.72364 -0.0917,-1.68871 0.364,-2.32875 0.22784,-0.32001 0.84704,0.41355 1.16437,0.182 0.27525,-0.20083 0.24302,-3.067526 0.54601,-3.49311 0.32222,-0.452568 0.89759,-0.654908 1.34638,-0.982369 0.12133,-0.776254 -0.0917,-1.688715 0.364,-2.328743 0.22785,-0.320022 0.84704,0.413543 1.16438,0.182004 0.31734,-0.23155 -0.0458,-0.844359 0.18201,-1.164381 0.3222,-0.45257 1.02416,-0.52979 1.34637,-0.982369 0.22783,-0.320014 -0.0458,-0.844348 0.182,-1.164372 0.32221,-0.452569 1.02417,-0.529799 1.34638,-0.982368 0.22783,-0.320014 -0.0458,-0.844358 0.182,-1.164372 0.32221,-0.452569 1.02417,-0.529799 1.34637,-0.982369 1.01892,-1.431164 -0.98237,-1.346374 1.34638,-0.982369 0.38812,0.06067 0.77625,0.121336 1.16437,0.182003 0.38813,0.06067 0.84704,0.413542 1.16437,0.182002 2.78571,-2.032565 -3.69618,-0.481292 1.52838,-2.14675 1.0043,-0.320143 2.48882,0.866161 3.49312,0.546009 0.52931,-0.168731 0.81707,-0.813638 1.34638,-0.982369 0.37427,-0.119311 0.82737,0.38387 1.16437,0.182002 2.38298,-1.4274 4.04973,-4.189229 6.73188,-4.911843 1.56394,-0.421358 2.95534,1.333262 4.47548,1.892381 0.73738,0.271211 1.5525,0.242671 2.32875,0.364007 0.38812,0.06067 1.55249,0.242669 1.16437,0.182002 -0.77625,-0.121336 -2.20741,-1.140261 -2.32875,-0.364006 -0.13565,0.867871 1.49989,0.93409 2.14675,1.528378 0.40911,0.37586 0.65491,0.897578 0.98237,1.346374"
       id="path3765"
       inkscape:connector-curvature="0" />
    <path
       style="fill:none;stroke:#000000;stroke-width:5;stroke-linecap:butt;stroke-linejoin:miter;stroke-miterlimit:4;stroke-opacity:1;stroke-dasharray:none"
       d="m 175.8663,157.50271 c 0.24267,-1.5525 0.48534,-3.105 0.72802,-4.65749 -0.32747,-0.44879 -0.8902,-0.79852 -0.98237,-1.34638 -0.13037,-0.77478 0.43455,-1.54624 0.364,-2.32874 1.03121,-1.99775 -1.54772,-2.46036 -1.78273,-3.85712 -0.13037,-0.77479 0.24267,-1.5525 0.364,-2.32875 0.0607,-0.38812 0.12134,-0.77625 0.182,-1.16437 0.0607,-0.38813 0.30132,-0.7901 0.18201,-1.16438 -0.16874,-0.52931 -0.81364,-0.81706 -0.98238,-1.34637 -0.32014,-1.0043 0.86616,-2.48883 0.54601,-3.49312 -0.16873,-0.52931 -0.81364,-0.81706 -0.98237,-1.34638 -0.11931,-0.37428 0.41355,-0.84703 0.182,-1.16437 -0.23155,-0.31735 -0.93282,0.13534 -1.16437,-0.182 -0.43661,-0.59839 1.2494,-2.05781 -0.98237,-1.34638 -0.2403,0.0766 -5.23922,3.72402 -5.38551,3.92949 -0.22783,0.32001 0.0459,0.84435 -0.182,1.16437 -0.32221,0.45257 -0.97051,0.57325 -1.34637,0.98237 -4.8409,5.26922 -0.0131,0.0256 -1.71038,3.31111 -0.40315,0.78044 -1.18628,1.33768 -1.52838,2.14675 -0.4027,0.95239 -0.47132,5.20567 -0.91001,5.82186 -0.32221,0.45258 -1.02417,0.5298 -1.34638,0.98237 -0.22783,0.32002 -0.12133,0.77625 -0.182,1.16437 -0.12134,0.77625 -0.24267,1.5525 -0.36401,2.32875 -0.30333,1.94062 -0.60667,3.88124 -0.91001,5.82186 -0.18329,1.17259 -0.77672,6.37587 -1.09201,6.98624 -0.25497,0.49359 -1.02417,0.5298 -1.34638,0.98236 -0.44136,0.61993 -0.62786,5.88852 -1.09201,6.98624 -0.3421,0.80906 -1.12524,1.36631 -1.52838,2.14674 -1.69717,3.28555 3.13051,-1.9581 -1.71038,3.31113 -0.37586,0.40911 -1.02417,0.52979 -1.34638,0.98236 -0.22784,0.32002 0.0458,0.84436 -0.182,1.16438 -0.32222,0.45256 -1.02416,0.5298 -1.34637,0.98236 -0.22785,0.32003 0.0458,0.84436 -0.182,1.16438 -0.20291,0.28499 -3.70582,2.84085 -4.03914,2.94711 -0.37427,0.11931 -0.79009,-0.30132 -1.16437,-0.182 -0.52931,0.16873 -0.81707,0.81364 -1.34637,0.98237 -0.38206,0.12179 -2.96874,-0.46404 -3.49313,-0.54601 -0.38811,-0.0607 -0.77624,-0.12134 -1.16437,-0.182 -0.38812,-0.0607 -0.84435,0.0458 -1.16437,-0.18201 -0.45257,-0.3222 -0.52979,-1.02416 -0.98237,-1.34637 -0.32001,-0.22784 -0.87508,0.0838 -1.16437,-0.182 -2.70686,-2.48684 -1.44989,-2.35791 -2.7651,-5.20351 -0.23309,-0.50429 -0.7493,-0.84207 -0.98238,-1.34637 -0.36853,-0.79736 -0.43183,-1.71338 -0.80037,-2.51075 -0.23308,-0.50429 -0.81364,-0.81706 -0.98237,-1.34637 -0.11931,-0.37429 0.24719,-0.77699 0.18201,-1.16438 -0.14576,-0.86623 -0.65462,-1.64451 -0.80037,-2.51075 -0.12987,-0.77183 0.95307,-6.09734 1.09202,-6.98624 0.78867,-5.04561 1.57735,-10.09122 2.36603,-15.13683 0.24267,-1.5525 0.48534,-3.105 0.72801,-4.6575 0.12134,-0.77624 0.39726,-1.54377 0.36401,-2.32874 -0.10516,-2.48229 -1.01362,-4.87576 -1.23673,-7.35025 -0.0353,-0.39125 0.30131,-0.79009 0.182,-1.16437 -0.16873,-0.52931 -0.89019,-0.79851 -0.98237,-1.34637 -0.13037,-0.77479 0.43456,-1.54625 0.36401,-2.32875 -0.0789,-0.87486 -0.53359,-1.67383 -0.80037,-2.51075 -0.26679,-0.83691 -0.53358,-1.67383 -0.80037,-2.51075 -0.53358,-1.67383 -1.30923,-3.28903 -1.60074,-5.02149 -0.0652,-0.38739 0.24719,-0.77699 0.18201,-1.16438 -0.37437,-2.22495 -0.65876,-2.31666 -1.78274,-3.85712 -0.32746,-0.44879 -0.5298,-1.02417 -0.98237,-1.34637 -0.32002,-0.22784 -0.93283,0.13534 -1.16437,-0.18201 -0.23155,-0.31734 0.41354,-0.84702 0.182,-1.16437 -0.23154,-0.31734 -0.77625,-0.12133 -1.16437,-0.182 -0.42761,-0.0668 -4.60332,-0.76752 -4.65749,-0.72801 -0.31735,0.23155 0.13534,0.93282 -0.18201,1.16437 -0.31734,0.23155 -0.79009,-0.30131 -1.16437,-0.182 -0.52931,0.16873 -0.89759,0.65491 -1.34637,0.98237 -0.4488,0.32746 -0.89759,0.65491 -1.34638,0.98237 -1.05163,0.76731 -3.21225,2.04707 -4.03913,2.94711 -0.59428,0.64686 -1.01891,1.43116 -1.52837,2.14674 -0.50946,0.71558 -1.18629,1.33769 -1.52838,2.14674 -0.30598,0.72365 -0.003,1.63071 -0.36401,2.32875 -0.25497,0.49359 -1.0914,0.48878 -1.34637,0.98237 -0.82853,5.30055 0.53848,0.15239 -1.71038,3.31112 -0.303,0.42558 -0.27076,3.29228 -0.54601,3.49311 -0.31735,0.23155 -0.84703,-0.41354 -1.16437,-0.182 -0.31735,0.23155 -0.12134,0.77625 -0.18201,1.16437 -0.10158,0.64991 -0.64903,5.31663 -0.91001,5.82187 -0.254973,0.49359 -1.091413,0.48878 -1.346373,0.98236 -0.3153,0.61038 -0.90874,5.81366 -1.09202,6.98624 -0.06067,0.38813 -0.121336,0.77625 -0.182004,1.16437 -0.06067,0.38813 0.04583,0.84436 -0.182002,1.16438 -0.322212,0.45258 -1.024166,0.5298 -1.346376,0.98237 -0.232568,0.32666 -0.464043,2.96874 -0.546009,3.49312 -0.242671,1.5525 -0.48534,3.10499 -0.72801,4.65749 -0.121336,0.77625 -0.242671,1.55249 -0.364007,2.32875 -0.06067,0.38812 0.04584,0.84435 -0.182002,1.16437 -0.32221,0.45257 -1.091406,0.48877 -1.346375,0.98237 -0.360579,0.69804 0.09167,1.6887 -0.364005,2.32874 -0.227836,0.32001 -0.790093,-0.30131 -1.164372,-0.182 -0.529312,0.16873 -0.817064,0.81364 -1.346376,0.98237 -0.37428,0.11931 -0.776249,-0.12134 -1.164373,-0.18201 -0.388124,-0.0607 -0.776248,-0.12133 -1.164372,-0.182 -0.776249,-0.12133 -1.552498,-0.24267 -2.328746,-0.364 -0.388124,-0.0607 -0.815351,-0.002 -1.164373,-0.18201 -0.780436,-0.40314 -1.366305,-1.12523 -2.146743,-1.52837 -0.349022,-0.1803 -0.932826,0.13534 -1.164372,-0.18201 -1.309827,-1.79516 2.122624,-0.86103 -0.98237,-1.34637 -0.388125,-0.0607 -0.932827,0.13534 -1.164374,-0.182 -0.231546,-0.31735 0.121335,-0.77625 0.182003,-1.16437 0.24267,-1.5525 0.485341,-3.105 0.728011,-4.6575 1.152683,-7.37436 2.305367,-14.74872 3.45805,-22.12308"
       id="path3767"
       inkscape:connector-curvature="0" />
    <text
       xml:space="preserve"
       style="font-size:56px;font-style:normal;font-variant:normal;font-weight:normal;font-stretch:normal;text-align:start;line-height:125%;letter-spacing:0px;word-spacing:0px;writing-mode:lr-tb;text-anchor:start;fill:#000000;fill-opacity:1;stroke:none;font-family:Sans;-inkscape-font-specification:Sans"
       x="360.71484"
       y="160.27316"
       id="text3769"
       sodipodi:linespacing="125%"
       transform="matrix(0.98800304,0.1544344,-0.1544344,0.98800304,0,0)"><tspan
         sodipodi:role="line"
         id="tspan3771"
         x="360.71484"
         y="160.27316">E. Coli</tspan></text>
    <path
       sodipodi:type="arc"
       style="fill:#000000;fill-opacity:1;stroke:#000000;stroke-width:5;stroke-miterlimit:4;stroke-opacity:1;stroke-dasharray:none"
       id="path3773"
       sodipodi:cx="556.25732"
       sodipodi:cy="165.71858"
       sodipodi:rx="3.5355339"
       sodipodi:ry="4.1247897"
       d="m 559.79286,165.71858 a 3.5355339,4.1247897 0 1 1 -7.07107,0 3.5355339,4.1247897 0 1 1 7.07107,0 z"
       transform="matrix(0.98800305,0.1544344,-0.1544344,0.98800305,55.384994,-33.235402)" />
    <path
       transform="matrix(0.98800305,0.1544344,-0.1544344,0.98800305,85.567695,-27.921141)"
       sodipodi:type="arc"
       style="fill:#000000;fill-opacity:1;stroke:#000000;stroke-width:5;stroke-miterlimit:4;stroke-opacity:1;stroke-dasharray:none"
       id="path3773-0"
       sodipodi:cx="556.25732"
       sodipodi:cy="165.71858"
       sodipodi:rx="3.5355339"
       sodipodi:ry="4.1247897"
       d="m 559.79286,165.71858 a 3.5355339,4.1247897 0 1 1 -7.07107,0 3.5355339,4.1247897 0 1 1 7.07107,0 z" />
    <path
       style="fill:none;stroke:#000000;stroke-width:5;stroke-linecap:butt;stroke-linejoin:miter;stroke-miterlimit:4;stroke-opacity:1;stroke-dasharray:none"
       d="m 570.80574,240.70634 c -0.8138,5.20638 -1.65419,3.38811 0.25436,6.00386 0.32746,0.44879 0.89019,0.79852 0.98237,1.34638 0.13036,0.77478 -0.49437,1.55396 -0.36401,2.32874 0.0922,0.54785 0.81364,0.81707 0.98237,1.34638 0.11932,0.37427 -0.30131,0.79009 -0.182,1.16437 0.33747,1.05863 1.62728,1.63413 1.96475,2.69275 0.11931,0.37428 -0.30132,0.79009 -0.18201,1.16438 0.16874,0.52931 0.65491,0.89758 0.98237,1.34637 0.32745,0.44879 0.52979,1.02417 0.98237,1.34638 0.32002,0.22783 0.84436,-0.0458 1.16437,0.182 0.45257,0.32221 0.5298,1.02417 0.98237,1.34637 0.32003,0.22784 0.93283,-0.13534 1.16437,0.18201 0.23155,0.31734 -0.41355,0.84702 -0.182,1.16437 0.23155,0.31734 0.77626,0.12133 1.16437,0.182 0.82531,0.129 6.70873,0.89444 6.98624,1.09202 0.45258,0.32221 0.5298,1.02416 0.98237,1.34637 0.31835,0.22665 5.86003,0.91598 6.98624,1.09202 0.38813,0.0607 0.84703,0.41355 1.16437,0.182 2.7857,-2.03256 -3.69618,-0.48129 1.52838,-2.14674 0.45398,-0.14473 5.012,0.78342 5.82186,0.91001 0.38813,0.0607 0.84703,0.41355 1.16438,0.182 0.31734,-0.23154 -0.13535,-0.93282 0.182,-1.16437 0.31735,-0.23155 0.79009,0.30132 1.16437,0.18201 0.33332,-0.10626 3.83623,-2.66213 4.03913,-2.94712 0.22784,-0.32001 -0.13534,-0.93282 0.18201,-1.16437 2.78569,-2.03256 -0.66961,3.66675 2.51074,-0.80037 0.61135,-0.8587 -0.0653,-2.63441 0.54601,-3.49311 0.32221,-0.45258 1.02417,-0.5298 1.34637,-0.98237 0.41456,-0.58229 0.35961,-4.3887 0.72801,-4.6575 1.79517,-1.30982 0.86104,2.12263 1.34638,-0.98237"
       id="path3793"
       inkscape:connector-curvature="0" />
    <path
       style="fill:none;stroke:#000000;stroke-width:3;stroke-linecap:butt;stroke-linejoin:miter;stroke-miterlimit:4;stroke-opacity:1;stroke-dasharray:none"
       d="m 568.95273,57.172508 c -1.14895,-0.393222 -0.27957,-2.228757 -0.49978,-2.962768 -0.0798,-0.266061 -0.57956,-0.329173 -0.57115,-0.606824 0.004,-0.138819 0.29921,-0.146755 0.30342,-0.285573 0.004,-0.138819 -0.19039,-0.202277 -0.28558,-0.303416 0.20228,-0.190381 0.51105,-0.310398 0.60683,-0.571144 0.0479,-0.130362 -0.28978,-0.164589 -0.28558,-0.303415 0.004,-0.138819 0.25552,-0.155211 0.30342,-0.285573 0.66849,-1.819847 -0.30462,0.326259 -0.26773,-0.892396 0.004,-0.138819 0.25551,-0.15521 0.30341,-0.285572 0.0678,-0.184343 -0.0499,-0.404616 0.0178,-0.588988 0.0479,-0.130362 0.34333,-0.152539 0.30341,-0.285573 -0.0798,-0.26606 -0.49132,-0.340764 -0.57114,-0.606824 -0.0399,-0.133032 0.2992,-0.146753 0.30341,-0.285572 0.004,-0.138819 -0.24565,-0.170384 -0.28557,-0.303415 -0.0564,-0.188132 0.0743,-0.400849 0.0178,-0.588981 -0.0726,-0.24206 -1.14718,-1.052496 -1.1423,-1.213656 0.004,-0.138819 0.1646,-0.28977 0.30342,-0.285572 0.13882,0.0042 0.14675,0.29921 0.28557,0.303415 0.13882,0.0042 0.20228,-0.190381 0.30342,-0.285571 0.24425,-0.229897 1.08298,-0.899551 1.21365,-1.14229 0.14724,-0.273438 0.25115,-0.57201 0.32125,-0.874559 0.0443,-0.191348 -0.0753,-0.416042 0.0178,-0.588989 0.16766,-0.311359 1.72826,-1.462365 1.82048,-1.713433 0.0678,-0.184343 -0.0499,-0.404609 0.0179,-0.588981 0.10214,-0.278085 1.34461,-1.10758 1.51706,-1.427861 0.0931,-0.172932 -0.0499,-0.404616 0.0178,-0.588988 0.0871,-0.237219 1.20877,-0.981129 1.21365,-1.142288 0.004,-0.138819 -0.28978,-0.16459 -0.28557,-0.303416 0.004,-0.138819 0.20227,-0.190382 0.30341,-0.285573 0.60683,-0.571144 1.21366,-1.142289 1.82048,-1.713433 0.10114,-0.09519 0.20228,-0.190382 0.30341,-0.285572 0.10114,-0.09519 0.1646,-0.289771 0.30342,-0.285572 0.13882,0.0042 0.14675,0.29921 0.28557,0.303416 0.13882,0.0042 0.1646,-0.289772 0.30342,-0.285573 0.13882,0.0042 0.14674,0.299211 0.28557,0.303416 0.13882,0.0042 0.16459,-0.289771 0.30341,-0.285573 0.27765,0.0084 0.29349,0.598413 0.57115,0.606824 0.13882,0.0042 0.16459,-0.28977 0.30341,-0.285571 0.13882,0.0042 0.14675,0.29921 0.28557,0.303415 1.21864,0.03692 -0.92745,-0.936223 0.8924,-0.267736 0.13037,0.04789 0.14675,0.29921 0.28557,0.303416 0.27765,0.0084 0.32918,-0.579556 0.60683,-0.571145 0.31042,0.0094 0.57201,0.251157 0.87455,0.321252 0.53545,0.629583 0.58198,-0.27713 0.89241,-0.267729 0.31042,0.0094 0.572,0.251157 0.87455,0.321252 0.19135,0.04434 0.39266,0.0119 0.58899,0.01784 0.58899,0.01784 1.17797,0.03568 1.76695,0.05352 0.19633,0.0059 0.40462,-0.04988 0.58899,0.01784 0.13037,0.04789 0.15521,0.255521 0.28557,0.303409 1.81985,0.668494 -0.32623,-0.304647 0.8924,-0.267729 0.27765,0.0084 0.2935,0.59842 0.57114,0.606824 0.13882,0.0042 0.1646,-0.289771 0.30342,-0.285572 0.13882,0.0042 0.1552,0.255521 0.28557,0.303416 0.18437,0.06773 0.40462,-0.04988 0.58899,0.01784 0.13036,0.04789 0.14674,0.299203 0.28557,0.303408 0.13882,0.0042 0.16459,-0.28977 0.30341,-0.285572 0.27765,0.0084 0.31041,0.511054 0.57115,0.606832 0.18437,0.06772 0.40461,-0.04989 0.58898,0.01784 0.13037,0.04789 0.14675,0.29921 0.28557,0.303415 0.13882,0.0042 0.1646,-0.28977 0.30342,-0.285572 0.27765,0.0084 0.3104,0.511046 0.57114,0.606824 0.36875,0.135457 0.80923,-0.09977 1.17798,0.03569 0.13036,0.04789 0.14674,0.299203 0.28556,0.303409 0.13882,0.0042 0.1646,-0.289771 0.30342,-0.285573 0.13882,0.0042 0.14675,0.299211 0.28557,0.303416 0.13882,0.0042 0.1646,-0.28977 0.30341,-0.285572 0.13882,0.0042 0.14675,0.299211 0.28558,0.303416 0.13882,0.0042 0.16459,-0.289771 0.30341,-0.285573 0.84572,0.02562 -0.29654,0.807281 -0.32126,0.874553 -0.73512,2.001254 1.16916,-1.337553 -0.33909,1.463548 -0.0659,0.122274 -0.20227,0.190382 -0.30341,0.285573 -0.10708,0.29152 -0.17402,0.601107 -0.32126,0.874552 -0.0659,0.122274 -0.25551,0.155211 -0.30341,0.285573 -0.0678,0.184343 0.0499,0.404616 -0.0178,0.588988 -0.0479,0.130362 -0.25552,0.15521 -0.30341,0.285572 -0.0678,0.184343 0.0499,0.404616 -0.0178,0.588988 -0.0479,0.130362 -0.25552,0.15521 -0.30342,0.285572 -0.0678,0.184343 0.0499,0.404608 -0.0178,0.58898 -0.0479,0.130362 -0.2992,0.146755 -0.30342,0.285573 -0.004,0.138819 0.24566,0.170384 0.28558,0.303416 0.0564,0.188132 -0.0119,0.392658 -0.0178,0.588988 -0.006,0.196329 0.0499,0.404608 -0.0178,0.58898 -0.0958,0.260746 -0.59841,0.2935 -0.60682,0.571145 -0.004,0.138819 0.19038,0.202277 0.28557,0.303416 0.0952,0.101138 0.19039,0.202277 0.28558,0.303415 0.0952,0.101139 0.19038,0.202277 0.28556,0.303409 0.0952,0.101138 0.28978,0.164589 0.28558,0.303415 -0.004,0.138819 -0.2992,0.146754 -0.30341,0.285572 -0.008,0.277652 0.57955,0.32918 0.57114,0.606824 -0.004,0.138819 -0.20228,0.190382 -0.30342,0.285573 -0.14305,0.134646 -1.49036,1.428681 -1.51706,1.427861 -0.13882,-0.0042 -0.14674,-0.299204 -0.28557,-0.303409 -0.0189,-5.74e-4 -0.83665,0.787459 -0.91024,0.856717 -1.92162,1.808624 -3.84323,3.617248 -5.76485,5.425873 -0.30341,0.285572 -0.53209,0.681745 -0.91024,0.856716 -0.17825,0.08249 -0.40086,-0.07429 -0.58899,-0.01784 -0.13302,0.03992 -0.20822,0.38671 -0.30341,0.285572 -0.0952,-0.101139 0.40455,-0.380763 0.30341,-0.285572 -0.20227,0.190382 -0.34076,0.491325 -0.60683,0.571144 -0.26606,0.07982 -0.29349,-0.598412 -0.57114,-0.606824 -0.13882,-0.0042 -0.16459,0.28977 -0.30341,0.285573 -0.13882,-0.0042 -0.14675,-0.299211 -0.28558,-0.303416 -0.13881,-0.0042 -0.16459,0.28977 -0.30341,0.285572 -0.13882,-0.0042 -0.1552,-0.255521 -0.28557,-0.303416 -0.18437,-0.06773 -0.40461,0.04989 -0.58898,-0.01784 -0.13038,-0.04789 -0.14675,-0.299211 -0.28558,-0.303416 -1.21863,-0.03692 0.92745,0.936223 -0.8924,0.267729 -0.26074,-0.09578 -0.29349,-0.598413 -0.57114,-0.606824 -0.13882,-0.0042 -0.17039,0.245652 -0.30342,0.285572 -0.1881,0.05647 -0.39265,-0.0119 -0.58898,-0.01784 -0.19633,-0.0059 -0.40461,0.04989 -0.58898,-0.01784 -0.13038,-0.04789 -0.14675,-0.29921 -0.28558,-0.303415 -0.13882,-0.0042 -0.16459,0.289771 -0.30341,0.285572 -0.13882,-0.0042 -0.14675,-0.29921 -0.28558,-0.303416 -0.13882,-0.0042 -0.16459,0.289771 -0.30341,0.285573 -1.21863,-0.03691 0.98242,-0.878371 -0.87455,-0.321253 -0.13303,0.03992 -0.1646,0.289772 -0.30342,0.285573 -1.01197,-0.03066 -0.90259,-0.896476 -1.74912,-0.642511 -0.13302,0.03992 -0.16459,0.289771 -0.30341,0.285572 -0.13882,-0.0042 -0.1552,-0.255521 -0.28557,-0.303408 -0.18437,-0.06773 -0.40461,0.04988 -0.58898,-0.01784 -0.13038,-0.04789 -0.14675,-0.29921 -0.28558,-0.303415 -1.21863,-0.03691 0.92745,0.936223 -0.89239,0.267736 -0.13038,-0.04789 -0.16773,-0.376923 -0.28558,-0.303416 -0.58921,0.367539 -0.92785,1.060323 -1.51706,1.427861 -0.6346,0.395852 -1.40942,0.506961 -2.08821,0.821035 -0.23767,0.109987 -1.52652,1.436755 -1.82048,1.713434 -0.10114,0.09519 -0.17039,0.245651 -0.30342,0.285574 -0.1881,0.05647 -0.40085,-0.07429 -0.58899,-0.01784 -0.35696,0.107088 -0.55327,0.749622 -0.91024,0.856717 -0.1881,0.05647 -0.40085,-0.07429 -0.58898,-0.01785 -0.35696,0.107102 -0.55328,0.749629 -0.91024,0.856716 -0.18811,0.05648 -0.40085,-0.07428 -0.58898,-0.01783 -0.17691,0.05307 -0.78982,0.860379 -0.91024,0.856717 -0.13881,-0.0042 -0.14676,-0.299203 -0.28558,-0.303416 -0.29448,-0.0089 -0.61575,0.865638 -0.91024,0.856717 -0.13881,-0.0042 -0.14675,-0.299203 -0.28557,-0.303416 -0.12044,-0.0036 -0.73332,0.803635 -0.91024,0.856717 -0.18811,0.05647 -0.40084,-0.07428 -0.58898,-0.01783 -0.13579,0.04074 -0.7736,0.728107 -0.91024,0.856717 -0.79909,0.752094 -1.27914,1.317767 -1.51707,1.427859 -0.17825,0.08249 -0.40085,-0.07429 -0.58899,-0.01784 -0.13302,0.03992 -0.16459,0.289765 -0.30341,0.285567 -0.13881,-0.0042 -0.14675,-0.299203 -0.28557,-0.303415 -0.27765,-0.0084 -0.32918,0.579559 -0.60683,0.571149 -0.29449,-0.0089 -0.56222,-0.901319 -0.85672,-0.91024 -0.13881,-0.0042 -0.16459,0.289765 -0.30341,0.285567 -0.15746,-0.0048 -1.14893,-1.414604 -1.42786,-1.517063 -0.18434,-0.06775 -0.40461,0.04989 -0.58899,-0.01784 -0.13035,-0.04789 -0.15521,-0.255514 -0.28556,-0.303408 -0.18435,-0.06775 -0.40462,0.04988 -0.58899,-0.01784 -0.13037,-0.0479 -0.19039,-0.202277 -0.28558,-0.303416 -0.19037,-0.20227 -0.3266,-0.475107 -0.57114,-0.606824 -0.17293,-0.09313 -0.40461,0.04988 -0.58898,-0.01785 -0.13036,-0.04789 -0.1633,-0.23755 -0.28557,-0.303408 -0.27344,-0.147244 -0.60112,-0.174021 -0.87457,-0.321257 -0.12227,-0.06586 -0.14674,-0.299197 -0.28556,-0.303409 -0.13882,-0.0042 -0.1646,0.289773 -0.30342,0.285575 -0.13881,-0.0042 -0.15521,-0.255514 -0.28557,-0.303416 -0.18435,-0.06775 -0.40461,0.04988 -0.58899,-0.01785 -0.26074,-0.09578 -0.29349,-0.598414 -0.57114,-0.606824 -0.13881,-0.0042 -0.1646,0.289772 -0.30341,0.285574 -0.29449,-0.0089 -0.56223,-0.901319 -0.85672,-0.910239 -0.13881,-0.0042 -0.1646,0.289772 -0.30342,0.285574 -0.27765,-0.0084 -0.3104,-0.511049 -0.57114,-0.606824 -0.18434,-0.06775 -0.40461,0.04988 -0.58898,-0.01785 -0.13037,-0.0479 -0.14676,-0.299204 -0.28558,-0.303416 -1.21862,-0.03691 0.92745,0.936223 -0.8924,0.267741 -0.26073,-0.09578 -0.29349,-0.598421 -0.57115,-0.606831 -0.27764,-0.0084 -0.32917,0.579552 -0.60682,0.571142 -0.13881,-0.0042 -0.15521,-0.255514 -0.28557,-0.303409 -1.81985,-0.668496 0.32626,0.30462 -0.8924,0.267727 -0.27765,-0.0084 -0.29349,-0.598414 -0.57114,-0.606824 -0.27765,-0.0084 -0.34077,0.491317 -0.60683,0.571149 -0.1881,0.05647 -0.40085,-0.07429 -0.58898,-0.01785 -0.13303,0.03992 -0.1646,0.289772 -0.30342,0.285574 -0.13881,-0.0042 -0.14675,-0.299203 -0.28557,-0.303416 -0.13881,-0.0042 -0.17039,0.245652 -0.30342,0.285575 -0.37626,0.112884 -0.8017,-0.148566 -1.17796,-0.03568 -0.13303,0.03992 -0.17039,0.245651 -0.30342,0.285575 -0.1881,0.05647 -0.40085,-0.07429 -0.58898,-0.01785 -0.1358,0.04074 -0.7736,0.728106 -0.91024,0.856716 -0.70797,0.666341 -1.41594,1.332674 -2.1239,1.999008"
       id="path3814"
       inkscape:connector-curvature="0" />
    <path
       style="fill:none;stroke:#000000;stroke-width:3;stroke-linecap:butt;stroke-linejoin:miter;stroke-miterlimit:4;stroke-opacity:1;stroke-dasharray:none"
       d="m 551.28327,66.364459 c -1.56871,-1.977398 -1.09477,1.145885 -1.80263,1.12445 -1.21863,-0.03691 0.98242,-0.878371 -0.87457,-0.321257 -0.13301,0.03992 -0.17039,0.245651 -0.3034,0.285568 -0.37627,0.112891 -0.80171,-0.148566 -1.17798,-0.03567 -0.13301,0.03992 -0.16459,0.289765 -0.30341,0.285567 -0.13881,-0.0042 -0.14675,-0.299203 -0.28557,-0.303415 -0.13881,-0.0042 -0.17039,0.245651 -0.30342,0.285574 -0.1881,0.05647 -0.40084,-0.07428 -0.58898,-0.01783 -0.13302,0.03992 -0.17039,0.245652 -0.30341,0.285568 -0.18811,0.05648 -0.40086,-0.07428 -0.58899,-0.01784 -0.13302,0.03992 -0.17039,0.245651 -0.30341,0.285574 -0.37627,0.112884 -0.82145,-0.200651 -1.17797,-0.03568 -0.25207,0.116675 -0.35475,0.454468 -0.60682,0.571143 -0.17826,0.08249 -0.40086,-0.07428 -0.58899,-0.01784 -0.13303,0.03992 -0.17739,0.227238 -0.30342,0.285575 -0.28184,0.130416 -0.61054,0.137311 -0.8924,0.267726 -0.22491,0.104028 -0.71087,0.669069 -0.91024,0.856717 -0.60682,0.571142 -1.21365,1.142291 -1.82048,1.713433 -0.10114,0.09519 -0.20227,0.190383 -0.30341,0.285575 -0.10114,0.09519 -0.2992,0.146749 -0.30341,0.285568 -0.004,0.138812 0.28977,0.164596 0.28557,0.303415 -0.004,0.138812 -0.20227,0.190383 -0.30341,0.285575 -0.10114,0.09519 -0.20228,0.190383 -0.30342,0.285574 -0.8091,0.761526 -1.6182,1.523051 -2.4273,2.284576"
       id="path3816"
       inkscape:connector-curvature="0" />
    <path
       style="fill:none;stroke:#000000;stroke-width:3;stroke-linecap:butt;stroke-linejoin:miter;stroke-miterlimit:4;stroke-opacity:1;stroke-dasharray:none"
       d="m 549.07041,90.762752 c 0.92513,-0.870733 -0.28507,-0.311628 -0.26773,-0.892399 7.2e-4,-0.02375 1.10223,-1.037415 1.21365,-1.142284 0.10114,-0.09519 0.20228,-0.190383 0.30341,-0.285575 0.10114,-0.09519 0.29921,-0.146755 0.30342,-0.285574 0.004,-0.138812 -0.28978,-0.164604 -0.28557,-0.303416 0.004,-0.120436 0.84654,-0.683337 0.91024,-0.856716 0.0677,-0.184342 -0.0499,-0.404635 0.0178,-0.588977 0.0479,-0.130364 0.23755,-0.163302 0.30341,-0.285574 0.75487,-1.401943 0.0804,-0.347204 0.33909,-1.463548 0.57102,-2.464513 0.005,-0.009 0.62467,-1.160125 0.14725,-0.27344 0.25116,-0.572012 0.32125,-0.874558 0.0443,-0.191347 -0.0753,-0.416057 0.0178,-0.58899 0.13171,-0.244545 0.54413,-0.300532 0.60682,-0.571143 0.0701,-0.302552 -0.27713,-0.581979 -0.26773,-0.892398 0.004,-0.138812 0.23756,-0.163302 0.30342,-0.285575 0.14724,-0.273433 0.25115,-0.572005 0.32125,-0.874558 0.0887,-0.382694 -0.053,-0.795264 0.0357,-1.177966 0.0701,-0.302553 0.17401,-0.601125 0.32126,-0.874565 0.0659,-0.122272 0.29919,-0.146748 0.30341,-0.285567 0.004,-0.138812 -0.28978,-0.164597 -0.28557,-0.303409 0.004,-0.138812 0.25551,-0.15521 0.30341,-0.285574 0.13545,-0.368742 -0.0998,-0.809225 0.0357,-1.177974 0.0479,-0.130364 0.25551,-0.15521 0.30341,-0.285574 0.6685,-1.81985 -0.30462,0.326258 -0.26772,-0.892399 0.008,-0.277652 0.59841,-0.29349 0.60682,-0.571142 0.008,-0.277653 -0.57955,-0.329172 -0.57114,-0.606824 0.004,-0.138812 0.2992,-0.146756 0.30342,-0.285575 0.006,-0.182378 -1.43339,-1.334693 -1.42787,-1.517071 0.004,-0.138812 0.2992,-0.146749 0.30341,-0.285568 0.004,-0.138812 -0.24565,-0.17039 -0.28557,-0.303408 -0.0565,-0.188104 0.0897,-0.406192 0.0178,-0.58899 -0.20953,-0.532938 -0.55925,-0.999484 -0.83887,-1.49923 -0.41051,0.577096 -0.93294,1.089085 -1.2315,1.731281 -0.0585,0.125954 0.28977,0.164597 0.28557,0.303416 -0.008,0.277652 -0.51104,0.310398 -0.60682,0.571142 -0.13545,0.368742 0.0998,0.809225 -0.0357,1.177966 -0.0479,0.130365 -0.29921,0.146756 -0.30342,0.285575 -0.004,0.138812 0.28977,0.164596 0.28558,0.303416 -0.004,0.138812 -0.25552,0.155209 -0.30342,0.285574 -0.0677,0.184342 0.0499,0.404605 -0.0178,0.588976 -0.1285,0.34983 -0.78174,0.506901 -0.91024,0.856717 -0.0678,0.184348 0.0499,0.404619 -0.0178,0.58899 -0.0422,0.114995 -1.05499,0.992955 -1.21366,1.142291 -1.01137,0.951909 -2.02275,1.90381 -3.03412,2.855718 -0.60684,0.571149 -1.21366,1.142291 -1.82048,1.713433 -0.10114,0.09519 -0.29921,0.146756 -0.30342,0.285575 -0.004,0.138812 0.28977,0.164596 0.28558,0.303416 -0.004,0.138812 -0.20228,0.190383 -0.30342,0.285574 -0.10114,0.09519 -0.20227,0.190376 -0.30341,0.285568"
       id="path3818"
       inkscape:connector-curvature="0" />
    <path
       style="fill:none;stroke:#ff0000;stroke-width:3;stroke-linecap:butt;stroke-linejoin:miter;stroke-miterlimit:4;stroke-opacity:1;stroke-dasharray:none"
       d="m 587.78584,43.81116 c -2.0419,2.587994 -1.28709,-0.923276 -2.03468,-0.945922 -0.13881,-0.0042 -0.1646,0.289773 -0.30342,0.285575 -0.27765,-0.0084 -0.29349,-0.598414 -0.57114,-0.606824 -0.27765,-0.0084 -0.32917,0.579552 -0.60682,0.571142 -0.29451,-0.0089 -0.56223,-0.90132 -0.85672,-0.91024 -0.13881,-0.0042 -0.1646,0.289772 -0.30342,0.285574 -0.27765,-0.0084 -0.29349,-0.598421 -0.57115,-0.606831 -0.13881,-0.0042 -0.16459,0.289772 -0.30341,0.285575 -0.13881,-0.0042 -0.15521,-0.255515 -0.28557,-0.303409 -0.11609,-0.04266 -1.64849,-0.08907 -1.76696,-0.05352 -0.13301,0.03992 -0.16459,0.289768 -0.30341,0.28557 -1.21863,-0.03691 0.98242,-0.878373 -0.87456,-0.321257 -0.13303,0.03992 -0.20228,0.190383 -0.30342,0.285574 -0.19632,-0.0059 -0.40084,-0.07428 -0.58897,-0.01784 -0.26607,0.07982 -0.32918,0.579559 -0.60683,0.571149 -0.13882,-0.0042 -0.14676,-0.299204 -0.28558,-0.303416 -0.20674,-0.0063 -1.20886,1.335388 -1.51706,1.427859 -0.18811,0.05647 -0.40085,-0.07429 -0.58899,-0.01784 -0.13579,0.04074 -0.7736,0.728106 -0.91024,0.856716 -0.10114,0.09519 -0.2992,0.146749 -0.30341,0.285568 -0.008,0.277653 0.57956,0.329179 0.57115,0.606831 -0.004,0.138813 -0.29921,0.146756 -0.30342,0.285575 -0.008,0.277652 0.57955,0.329172 0.57114,0.606824 -0.008,0.277653 -0.59841,0.29349 -0.60682,0.571142 -0.008,0.277653 0.57956,0.329179 0.57114,0.606824 -0.004,0.138812 -0.2992,0.146756 -0.30341,0.285575 -0.004,0.138812 0.24565,0.170391 0.28557,0.303416 0.0565,0.188104 -0.0743,0.400858 -0.0178,0.58899 0.0399,0.133017 0.28977,0.164589 0.28557,0.303408 -0.004,0.138812 -0.2992,0.146749 -0.30341,0.285568 -0.004,0.138812 0.28977,0.164596 0.28557,0.303416 -0.004,0.138812 -0.2992,0.146755 -0.30341,0.285574 -0.008,0.277653 0.57956,0.329179 0.57114,0.606824 -0.004,0.138812 -0.2992,0.146756 -0.30342,0.285575 -5.7e-4,0.01894 0.78746,0.836656 0.85672,0.910239 0.0952,0.101139 0.14676,0.299204 0.28558,0.303416 0.13881,0.0042 0.20822,-0.386713 0.30341,-0.285574 0.0952,0.101138 -0.40455,0.380766 -0.30341,0.285574 1.71934,-1.618242 -0.0892,-0.297468 0.8924,-0.267733 0.29449,0.0089 0.61574,-0.865638 0.91024,-0.856717 0.13881,0.0042 0.14675,0.299197 0.28557,0.303409 0.29449,0.0089 0.61574,-0.865631 0.91024,-0.856717 0.13881,0.0042 0.14675,0.299204 0.28557,0.303416 0.27766,0.0084 0.32917,-0.579553 0.60683,-0.571143 0.13881,0.0042 0.14675,0.299204 0.28557,0.303416 0.13881,0.0042 0.20228,-0.190383 0.30342,-0.285574 0.11142,-0.104869 1.21296,-1.118564 1.21365,-1.142285 0.004,-0.138812 -0.28978,-0.164596 -0.28558,-0.303415 0.004,-0.138813 0.2992,-0.146756 0.30342,-0.285575 0.008,-0.277652 -0.57956,-0.329172 -0.57115,-0.606824 0.004,-0.138812 0.25552,-0.15521 0.30342,-0.285575 0.13545,-0.368741 -0.0998,-0.809224 0.0357,-1.177973 0.0479,-0.130365 0.2992,-0.146756 0.30341,-0.285575 0.004,-0.138812 -0.3867,-0.208217 -0.28557,-0.303408 0.60624,-0.570587 0.8092,0.614035 1.16013,0.624672 0.13881,0.0042 0.1646,-0.289772 0.30341,-0.285574 0.27766,0.0084 0.29349,0.598413 0.57115,0.606824 0.13881,0.0042 0.16459,-0.289773 0.30341,-0.285575 0.13881,0.0042 0.19039,0.202277 0.28558,0.303416 0.0952,0.101138 0.19038,0.202277 0.28556,0.303408 0.0952,0.101139 0.38077,0.404554 0.28558,0.303416 -0.19038,-0.202277 -0.77342,-0.416441 -0.57114,-0.606824 0.8355,-0.786372 0.73748,0.61186 1.16012,0.62467 0.27766,0.0084 0.32918,-0.57956 0.60684,-0.571149 0.13881,0.0042 0.14674,0.299196 0.28556,0.303408 0.58103,0.01761 0.0217,-1.192858 0.8924,-0.267726 0.87073,0.925131 0.31163,-0.285064 0.8924,-0.267727 0.13881,0.0042 0.14675,0.299197 0.28557,0.303409 0.0589,0.0018 0.90848,-0.797799 0.91024,-0.856717 0.004,-0.138812 -0.20828,-0.18802 -0.28557,-0.303408 -0.39399,-0.588484 -0.74963,-1.201762 -1.12445,-1.802646 z"
       id="path3820"
       inkscape:connector-curvature="0" />
  </g>
</svg>
