<?xml version="1.0" encoding="UTF-8" standalone="no"?>
<!-- Created with Inkscape (http://www.inkscape.org/) -->

<svg
   xmlns:dc="http://purl.org/dc/elements/1.1/"
   xmlns:cc="http://creativecommons.org/ns#"
   xmlns:rdf="http://www.w3.org/1999/02/22-rdf-syntax-ns#"
   xmlns:svg="http://www.w3.org/2000/svg"
   xmlns="http://www.w3.org/2000/svg"
   xmlns:sodipodi="http://sodipodi.sourceforge.net/DTD/sodipodi-0.dtd"
   xmlns:inkscape="http://www.inkscape.org/namespaces/inkscape"
   width="800px"
   height="600px"
   id="svg2983"
   version="1.1"
   inkscape:version="0.48.2 r9819"
   sodipodi:docname="infection3.svg">
  <defs
     id="defs2985" />
  <sodipodi:namedview
     id="base"
     pagecolor="#ffffff"
     bordercolor="#666666"
     borderopacity="1.0"
     inkscape:pageopacity="0.0"
     inkscape:pageshadow="2"
     inkscape:zoom="1.6970563"
     inkscape:cx="394.33097"
     inkscape:cy="420.22991"
     inkscape:current-layer="layer1"
     inkscape:document-units="px"
     showgrid="false"
     inkscape:window-width="1280"
     inkscape:window-height="949"
     inkscape:window-x="0"
     inkscape:window-y="25"
     inkscape:window-maximized="1" />
  <metadata
     id="metadata2988">
    <rdf:RDF>
      <cc:Work
         rdf:about="">
        <dc:format>image/svg+xml</dc:format>
        <dc:type
           rdf:resource="http://purl.org/dc/dcmitype/StillImage" />
        <dc:title />
      </cc:Work>
    </rdf:RDF>
  </metadata>
  <g
     id="layer1"
     inkscape:label="Layer 1"
     inkscape:groupmode="layer">
    <path
       style="fill:none;stroke:#000000;stroke-width:5;stroke-linecap:butt;stroke-linejoin:miter;stroke-miterlimit:4;stroke-opacity:1;stroke-dasharray:none"
       d="m 223.71968,80.292326 c 1.23409,1.213737 6.24705,0.469128 8.15061,1.274019 1.61811,0.68419 2.64465,2.450302 4.29348,3.056753 1.10607,0.406816 2.47962,-0.05542 3.49312,0.546009 0.95554,0.56702 0.95634,2.226178 1.96474,2.692747 1.78262,0.824793 3.97841,0.231977 5.82187,0.910014 1.98545,0.730263 3.57831,2.267872 5.45785,3.238756 12.01029,6.204012 -1.81737,-1.160963 7.96861,2.4384 0.82441,0.303225 1.31297,1.251888 2.14674,1.528376 1.49148,0.49459 3.10499,0.485341 4.65749,0.728012 3.88124,0.606675 7.76249,1.213351 11.64373,1.820026 1.5525,0.242671 3.10499,0.485341 4.65749,0.728012 1.16437,0.182002 2.36031,0.220984 3.49312,0.546007 1.9254,0.552423 3.70141,1.569643 5.63986,2.074383 1.90081,0.49493 3.88124,0.60668 5.82186,0.91001 3.49312,0.54601 6.98624,1.09202 10.47936,1.63803 7.90403,1.23548 3.7397,0.58455 11.64373,1.82003 2.71687,0.42467 5.40917,1.05897 8.15061,1.27402 2.38221,0.18687 4.78602,-0.25922 7.16824,-0.0724 2.74144,0.21505 5.43374,0.84935 8.1506,1.27402 2.71687,0.42467 5.43374,0.84935 8.15061,1.27402 2.71687,0.42467 5.40099,1.23784 8.15061,1.27402 2.85965,0.0376 5.65497,-1.09236 8.51462,-1.05474 2.74962,0.0362 5.43374,0.84935 8.15061,1.27402 3.49312,0.54601 6.98623,1.09202 10.47935,1.63803 14.74872,2.30537 29.49744,4.61073 44.24616,6.9161 5.43374,0.84935 10.86748,1.69869 16.30122,2.54804 3.49312,0.54601 7.0579,0.74715 10.47936,1.63802 22.93031,5.97059 1.66285,3.06936 27.21693,9.02556 5.35616,1.24842 10.86748,1.69869 16.30122,2.54804 16.68935,2.60871 33.37869,5.21741 50.06803,7.82612 8.15061,1.27401 16.30122,2.54803 24.45183,3.82205 2.32875,0.36401 4.65749,0.72801 6.98623,1.09202 1.02659,0.16046 2.46223,0.63895 3.49313,0.54601 3.48526,-0.31426 6.35877,-1.60327 9.86099,-2.0371 14.46984,-1.79242 -2.91388,0.22317 8.33261,0.10964 2.48439,-0.0251 4.86585,-1.21165 7.35023,-1.23673 1.17846,-0.0119 2.31567,0.5959 3.49313,0.54601 0.87762,-0.0372 1.64451,-0.65461 2.51074,-0.80037 0.70964,-0.1194 3.64847,0.5703 4.6575,0.72802 1.21086,0.18926 6.10611,0.71987 6.98623,1.09201 0.80906,0.3421 1.39132,1.08011 2.14675,1.52838 2.13664,1.26791 4.48559,2.15286 6.62222,3.42076 0.75543,0.44828 1.36631,1.12524 2.14675,1.52838 0.34902,0.18029 0.84435,-0.0458 1.16437,0.18201 0.45257,0.32221 0.57326,0.97051 0.98237,1.34637 0.64687,0.59428 1.49988,0.93409 2.14674,1.52838 0.40912,0.37585 0.65492,0.89758 0.98237,1.34637 0.98237,1.34638 1.96475,2.69275 2.94712,4.03913 1.63728,2.24396 3.27456,4.48791 4.91184,6.73187 0.65492,0.89759 1.00921,2.12573 1.96475,2.69275 1.0135,0.60143 2.40765,0.087 3.49311,0.54601 0.5117,0.21636 0.65491,0.89759 0.98237,1.34638 0.32746,0.44879 0.7493,0.84207 0.98237,1.34637 0.36854,0.79737 0.43184,1.71339 0.80037,2.51075 0.23308,0.5043 0.65492,0.89759 0.98238,1.34638 0.32744,0.44879 0.57325,0.97051 0.98236,1.34637 0.64687,0.59428 1.7782,0.73102 2.14675,1.52838 0.32962,0.71318 -0.69363,1.61556 -0.36401,2.32874 0.36853,0.79737 1.49988,0.9341 2.14674,1.52839 0.40911,0.37585 0.65492,0.89758 0.98237,1.34637 0.32746,0.44879 0.81364,0.81706 0.98237,1.34638 0.11932,0.37428 -0.30131,0.79008 -0.18201,1.16437 0.16875,0.52931 0.8902,0.79852 0.98238,1.34637 0.13036,0.77479 -0.49437,1.55397 -0.364,2.32875 0.18435,1.09571 1.62726,1.63413 1.96473,2.69276 0.11932,0.37427 -0.30131,0.79008 -0.182,1.16437 0.16873,0.5293 0.89019,0.79851 0.98237,1.34637 -0.82853,5.30056 -0.5593,-0.0192 0.61837,3.67512 0.25152,0.78903 -0.97954,3.86846 -0.72802,4.65749 1.83149,5.74535 0.28972,-5.01636 1.78274,3.85712 0.12987,0.77184 -0.95307,6.09735 -1.09202,6.98624 -0.364,2.32874 -0.72801,4.65749 -1.09201,6.98624 -0.12134,0.77624 -0.058,1.6051 -0.36401,2.32874 -0.34209,0.80906 -1.18627,1.33769 -1.52837,2.14674 -0.30598,0.72365 -0.058,1.60511 -0.36401,2.32875 -0.34209,0.80906 -1.18628,1.33768 -1.52838,2.14675 -0.74211,1.75509 -0.1679,4.06677 -0.91001,5.82185 -0.34209,0.80907 -1.18628,1.33769 -1.52838,2.14675 -0.74211,1.75509 -0.1679,4.06677 -0.91001,5.82186 -0.3421,0.80907 -1.18629,1.33769 -1.52838,2.14675 -0.30598,0.72364 -0.24267,1.55249 -0.364,2.32875 -0.26321,1.6839 -0.83591,6.95947 -1.27402,8.15061 -0.30323,0.82441 -1.18629,1.33768 -1.52838,2.14674 -0.30599,0.72364 -0.24267,1.55249 -0.364,2.32874 -0.18201,1.16437 -0.36401,2.32874 -0.54601,3.49312 -0.42468,2.71687 -0.84935,5.43374 -1.27402,8.15061 -0.182,1.16437 -0.17507,2.3745 -0.54601,3.49312 -0.39102,1.17912 -1.31937,2.132 -1.71038,3.31111 -0.37095,1.11861 -0.364,2.32875 -0.54601,3.49312 -0.57013,1.10371 -1.28156,2.14521 -1.71039,3.31111 -0.54242,1.47476 -0.11604,3.21021 -0.72801,4.6575 -0.34209,0.80906 -1.18627,1.33769 -1.52837,2.14674 -0.42888,1.01431 -0.69859,4.46924 -0.91002,5.82187 -0.0607,0.38811 0.13535,0.93282 -0.182,1.16437 -0.31734,0.23154 -0.84703,-0.41355 -1.16437,-0.182 -0.31735,0.23154 0.0458,0.84434 -0.182,1.16437 -0.32221,0.45257 -0.89758,0.65491 -1.34638,0.98237 -0.44879,0.32746 -0.84208,0.74928 -1.34637,0.98237 -6.00881,2.77723 1.75108,-2.06212 -6.36788,2.5831 -0.96441,0.55179 -1.69971,1.4663 -2.69275,1.96474 -2.0472,1.02756 -4.31097,1.57509 -6.36787,2.5831 -2.25873,1.10694 -4.29114,2.64055 -6.54987,3.74749 -4.11379,2.01603 -8.57721,3.24416 -12.73575,5.1662 -10.57046,4.88561 -7.92934,4.67369 -19.28562,8.91369 -3.29169,1.229 -6.69532,2.13431 -10.04299,3.20147 -1.16825,0.37241 -6.64135,2.36336 -7.53224,2.40111 -1.17746,0.0499 -2.31566,-0.5959 -3.49312,-0.54601 -0.87762,0.0372 -1.63313,0.76318 -2.51075,0.80036 -1.17746,0.0499 -2.32874,-0.364 -3.49311,-0.546 -1.94063,-0.30334 -3.88124,-0.60668 -5.82187,-0.91002 -5.04561,-0.78867 -10.09124,-1.57735 -15.13685,-2.36603 -1.5525,-0.24267 -3.14129,-0.31539 -4.65748,-0.72801 -1.9328,-0.52601 -3.77504,-1.34309 -5.63987,-2.07439 -1.50791,-0.59133 -2.91262,-1.46706 -4.47548,-1.89239 -3.79052,-1.03157 -7.85322,-0.78845 -11.64374,-1.82003 -12.79482,-3.48207 2.38821,-0.81952 -7.9686,-2.43839 -2.32875,-0.364 -4.65749,-0.72801 -6.98623,-1.09201 -0.77626,-0.12134 -1.5525,-0.24267 -2.32875,-0.36401 -0.77625,-0.12133 -1.6051,-0.058 -2.32875,-0.364 -0.80905,-0.34209 -1.33768,-1.18628 -2.14674,-1.52838 -1.44728,-0.61196 -3.21021,-0.11605 -4.65749,-0.72801 -1.61811,-0.68419 -2.64466,-2.4503 -4.29348,-3.05675 -1.10608,-0.40683 -2.38706,-0.1392 -3.49313,-0.54601 -0.82441,-0.30323 -1.43115,-1.01892 -2.14674,-1.52838 -1.1037,-0.57013 -2.12323,-1.34689 -3.31111,-1.71038 -1.50258,-0.45979 -3.15492,-0.26822 -4.6575,-0.72801 -1.18788,-0.3635 -2.14522,-1.28156 -3.31111,-1.71038 -0.73738,-0.27122 -1.59137,-0.0928 -2.32874,-0.364 -1.1659,-0.42883 -2.132,-1.31938 -3.31112,-1.71039 -1.11861,-0.37095 -2.37451,-0.17506 -3.49312,-0.54601 -1.17912,-0.39101 -2.12322,-1.34688 -3.31112,-1.71038 -2.6295,-0.80463 -5.52109,-0.46939 -8.15061,-1.27402 -1.54882,-0.47394 -2.92666,-1.41845 -4.47548,-1.89238 -1.12694,-0.34484 -2.32874,-0.36401 -3.49312,-0.54601 -1.94062,-0.30334 -3.91667,-0.43222 -5.82186,-0.91001 -19.03938,-4.77474 8.68929,0.45327 -17.10159,-5.05879 -3.45745,-0.73893 -7.08094,-0.66296 -10.47935,-1.63802 -2.749,-0.78873 -5.06104,-2.73659 -7.78661,-3.60276 -2.24632,-0.71389 -4.65749,-0.72801 -6.98624,-1.09202 -5.04561,-0.78868 -10.09122,-1.57736 -15.13685,-2.36603 -22.3179,-3.48851 6.57345,1.49535 -12.62609,-3.1664 -2.67222,-0.64884 -5.43374,-0.84935 -8.15061,-1.27402 -1.94063,-0.30334 -3.88124,-0.60668 -5.82187,-0.91002 -1.94061,-0.30333 -3.99325,-0.19292 -5.82185,-0.91001 -1.63556,-0.64139 -2.67537,-2.37257 -4.29349,-3.05676 -1.44729,-0.61197 -3.10499,-0.48534 -4.65749,-0.72801 -3.49312,-0.54601 -6.98624,-1.09202 -10.47935,-1.63803 -1.5525,-0.24267 -3.14709,-0.29465 -4.6575,-0.72801 -1.55689,-0.4467 -2.92667,-1.41845 -4.47549,-1.89238 -1.12693,-0.34485 -2.32874,-0.36401 -3.49312,-0.54601 -1.16437,-0.182 -2.32874,-0.364 -3.49311,-0.54601 -5.43374,-0.84934 -10.86748,-1.69869 -16.30122,-2.54804 -15.91309,-2.48737 -31.82619,-4.97473 -47.73928,-7.4621 -1.2317,-0.19253 -7.51951,-1.38021 -8.15061,-1.27402 -0.54786,0.0922 -0.81707,0.81363 -1.34638,0.98236 -0.40006,0.12753 -4.78124,-0.74735 -5.82186,-0.91001 -1.94063,-0.30334 -3.88124,-0.60667 -5.82187,-0.91001 -0.77624,-0.12134 -1.6051,-0.058 -2.32874,-0.36401 -0.80906,-0.34209 -1.36631,-1.12523 -2.14674,-1.52837 -0.34903,-0.18029 -0.77626,-0.12134 -1.16437,-0.18201 -1.5525,-0.24267 -3.16602,-0.23341 -4.6575,-0.72801 -0.83376,-0.27649 -1.39133,-1.0801 -2.14674,-1.52837 -1.06832,-0.63396 -2.2428,-1.07643 -3.31112,-1.71038 -1.51083,-0.89655 -2.7326,-2.25048 -4.29348,-3.05676 -0.34903,-0.18029 -0.84436,0.0458 -1.16437,-0.182 -0.90515,-0.64443 -0.97756,-2.18282 -1.96475,-2.69276 -0.69804,-0.36058 -1.55249,-0.24267 -2.32874,-0.364 -0.71558,-0.50946 -1.36631,-1.12524 -2.14674,-1.52838 -0.34903,-0.18029 -0.93283,0.13534 -1.16438,-0.182 -0.23154,-0.31735 0.47129,-0.8986 0.18201,-1.16437 -0.9148,-0.84044 -2.29913,-0.9899 -3.31112,-1.71039 -0.45257,-0.3222 -0.48878,-1.0914 -0.98237,-1.34637 -0.69804,-0.36058 -1.6051,-0.058 -2.32875,-0.364 -0.80905,-0.3421 -1.3663,-1.12525 -2.14674,-1.52838 -0.34902,-0.18029 -0.81535,-0.002 -1.16437,-0.182 -0.78044,-0.40315 -1.43116,-1.01893 -2.14675,-1.52838 -0.71558,-0.50946 -1.49988,-0.9341 -2.14674,-1.52839 -0.40911,-0.37585 -0.5298,-1.02415 -0.98237,-1.34637 -2.64366,-1.88215 0.52281,3.54417 -3.31111,-1.71038 -0.23155,-0.31735 0.41354,-0.84703 0.182,-1.16437 -0.23154,-0.31735 -0.77625,-0.12134 -1.16438,-0.18201 -0.59424,-1.2857 -0.94788,-2.71292 -1.78273,-3.85712 -2.92543,-4.0094 -1.78896,1.50437 -4.11148,-4.22113 -0.23804,-0.58678 -0.9987,-6.76345 -1.23674,-7.35024 -2.10255,-5.1832 -1.92765,-0.22621 -2.7651,-5.2035 -0.1163,-0.69116 0.42641,-2.728 0.54601,-3.49311 0.364,-2.32876 0.72801,-4.6575 1.09201,-6.98624 0.42468,-2.71687 0.84935,-5.43374 1.27402,-8.15061 0.12134,-0.77626 0.24267,-1.5525 0.36401,-2.32874 0.0607,-0.38813 0.002,-0.81536 0.182,-1.16439 0.40314,-0.78043 1.18629,-1.33767 1.52838,-2.14674 0.70822,-1.67495 0.43521,-5.2005 1.09201,-6.98623 0.42883,-1.1659 1.28156,-2.14521 1.71038,-3.31112 0.27122,-0.73738 0.24267,-1.5525 0.36401,-2.32874 0.30334,-1.94063 0.60667,-3.88124 0.91001,-5.82187 0.60668,-3.88124 1.21335,-7.76248 1.82003,-11.64372 0.15445,-0.98814 1.20565,-6.3109 1.09201,-6.98624 -0.0922,-0.54786 -0.89019,-0.79852 -0.98236,-1.34637 -0.13036,-0.77479 0.24267,-1.5525 0.364,-2.32875 0.36401,-2.32875 0.72801,-4.65749 1.09202,-6.98624 0.48534,-3.10499 0.97068,-6.20998 1.45602,-9.31498 0.182,-1.16437 0.13919,-2.38705 0.54601,-3.49312 0.0195,-0.0532 2.96721,-4.14258 3.05675,-4.29348 0.63396,-1.06832 1.07643,-2.2428 1.71039,-3.31111 0.44827,-0.75543 1.0801,-1.39133 1.52838,-2.14675 1.2679,-2.13665 2.28051,-4.41482 3.42075,-6.62223 0.57014,-1.10371 1.28156,-2.14522 1.71039,-3.31112 0.27121,-0.73738 0.058,-1.6051 0.364,-2.32875 0.3421,-0.80905 1.18629,-1.33768 1.52838,-2.14674 0.30598,-0.72364 -0.0917,-1.68871 0.364,-2.32875 0.22784,-0.32001 0.84704,0.41355 1.16437,0.182 0.27525,-0.20083 0.24302,-3.067526 0.54601,-3.49311 0.32222,-0.452568 0.89759,-0.654908 1.34638,-0.982369 0.12133,-0.776254 -0.0917,-1.688715 0.364,-2.328743 0.22785,-0.320022 0.84704,0.413543 1.16438,0.182004 0.31734,-0.23155 -0.0458,-0.844359 0.18201,-1.164381 0.3222,-0.45257 1.02416,-0.52979 1.34637,-0.982369 0.22783,-0.320014 -0.0458,-0.844348 0.182,-1.164372 0.32221,-0.452569 1.02417,-0.529799 1.34638,-0.982368 0.22783,-0.320014 -0.0458,-0.844358 0.182,-1.164372 0.32221,-0.452569 1.02417,-0.529799 1.34637,-0.982369 1.01892,-1.431164 -0.98237,-1.346374 1.34638,-0.982369 0.38812,0.06067 0.77625,0.121336 1.16437,0.182003 0.38813,0.06067 0.84704,0.413542 1.16437,0.182002 2.78571,-2.032565 -3.69618,-0.481292 1.52838,-2.14675 1.0043,-0.320143 2.48882,0.866161 3.49312,0.546009 0.52931,-0.168731 0.81707,-0.813638 1.34638,-0.982369 0.37427,-0.119311 0.82737,0.38387 1.16437,0.182002 2.38298,-1.4274 4.04973,-4.189229 6.73188,-4.911843 1.56394,-0.421358 2.95534,1.333262 4.47548,1.892381 0.73738,0.271211 1.5525,0.242671 2.32875,0.364007 0.38812,0.06067 1.55249,0.242669 1.16437,0.182002 -0.77625,-0.121336 -2.20741,-1.140261 -2.32875,-0.364006 -0.13565,0.867871 1.49989,0.93409 2.14675,1.528378 0.40911,0.37586 0.65491,0.897578 0.98237,1.346374"
       id="path3765"
       inkscape:connector-curvature="0" />
    <path
       style="fill:none;stroke:#000000;stroke-width:5;stroke-linecap:butt;stroke-linejoin:miter;stroke-miterlimit:4;stroke-opacity:1;stroke-dasharray:none"
       d="m 175.8663,157.50271 c 0.24267,-1.5525 0.48534,-3.105 0.72802,-4.65749 -0.32747,-0.44879 -0.8902,-0.79852 -0.98237,-1.34638 -0.13037,-0.77478 0.43455,-1.54624 0.364,-2.32874 1.03121,-1.99775 -1.54772,-2.46036 -1.78273,-3.85712 -0.13037,-0.77479 0.24267,-1.5525 0.364,-2.32875 0.0607,-0.38812 0.12134,-0.77625 0.182,-1.16437 0.0607,-0.38813 0.30132,-0.7901 0.18201,-1.16438 -0.16874,-0.52931 -0.81364,-0.81706 -0.98238,-1.34637 -0.32014,-1.0043 0.86616,-2.48883 0.54601,-3.49312 -0.16873,-0.52931 -0.81364,-0.81706 -0.98237,-1.34638 -0.11931,-0.37428 0.41355,-0.84703 0.182,-1.16437 -0.23155,-0.31735 -0.93282,0.13534 -1.16437,-0.182 -0.43661,-0.59839 1.2494,-2.05781 -0.98237,-1.34638 -0.2403,0.0766 -5.23922,3.72402 -5.38551,3.92949 -0.22783,0.32001 0.0459,0.84435 -0.182,1.16437 -0.32221,0.45257 -0.97051,0.57325 -1.34637,0.98237 -4.8409,5.26922 -0.0131,0.0256 -1.71038,3.31111 -0.40315,0.78044 -1.18628,1.33768 -1.52838,2.14675 -0.4027,0.95239 -0.47132,5.20567 -0.91001,5.82186 -0.32221,0.45258 -1.02417,0.5298 -1.34638,0.98237 -0.22783,0.32002 -0.12133,0.77625 -0.182,1.16437 -0.12134,0.77625 -0.24267,1.5525 -0.36401,2.32875 -0.30333,1.94062 -0.60667,3.88124 -0.91001,5.82186 -0.18329,1.17259 -0.77672,6.37587 -1.09201,6.98624 -0.25497,0.49359 -1.02417,0.5298 -1.34638,0.98236 -0.44136,0.61993 -0.62786,5.88852 -1.09201,6.98624 -0.3421,0.80906 -1.12524,1.36631 -1.52838,2.14674 -1.69717,3.28555 3.13051,-1.9581 -1.71038,3.31113 -0.37586,0.40911 -1.02417,0.52979 -1.34638,0.98236 -0.22784,0.32002 0.0458,0.84436 -0.182,1.16438 -0.32222,0.45256 -1.02416,0.5298 -1.34637,0.98236 -0.22785,0.32003 0.0458,0.84436 -0.182,1.16438 -0.20291,0.28499 -3.70582,2.84085 -4.03914,2.94711 -0.37427,0.11931 -0.79009,-0.30132 -1.16437,-0.182 -0.52931,0.16873 -0.81707,0.81364 -1.34637,0.98237 -0.38206,0.12179 -2.96874,-0.46404 -3.49313,-0.54601 -0.38811,-0.0607 -0.77624,-0.12134 -1.16437,-0.182 -0.38812,-0.0607 -0.84435,0.0458 -1.16437,-0.18201 -0.45257,-0.3222 -0.52979,-1.02416 -0.98237,-1.34637 -0.32001,-0.22784 -0.87508,0.0838 -1.16437,-0.182 -2.70686,-2.48684 -1.44989,-2.35791 -2.7651,-5.20351 -0.23309,-0.50429 -0.7493,-0.84207 -0.98238,-1.34637 -0.36853,-0.79736 -0.43183,-1.71338 -0.80037,-2.51075 -0.23308,-0.50429 -0.81364,-0.81706 -0.98237,-1.34637 -0.11931,-0.37429 0.24719,-0.77699 0.18201,-1.16438 -0.14576,-0.86623 -0.65462,-1.64451 -0.80037,-2.51075 -0.12987,-0.77183 0.95307,-6.09734 1.09202,-6.98624 0.78867,-5.04561 1.57735,-10.09122 2.36603,-15.13683 0.24267,-1.5525 0.48534,-3.105 0.72801,-4.6575 0.12134,-0.77624 0.39726,-1.54377 0.36401,-2.32874 -0.10516,-2.48229 -1.01362,-4.87576 -1.23673,-7.35025 -0.0353,-0.39125 0.30131,-0.79009 0.182,-1.16437 -0.16873,-0.52931 -0.89019,-0.79851 -0.98237,-1.34637 -0.13037,-0.77479 0.43456,-1.54625 0.36401,-2.32875 -0.0789,-0.87486 -0.53359,-1.67383 -0.80037,-2.51075 -0.26679,-0.83691 -0.53358,-1.67383 -0.80037,-2.51075 -0.53358,-1.67383 -1.30923,-3.28903 -1.60074,-5.02149 -0.0652,-0.38739 0.24719,-0.77699 0.18201,-1.16438 -0.37437,-2.22495 -0.65876,-2.31666 -1.78274,-3.85712 -0.32746,-0.44879 -0.5298,-1.02417 -0.98237,-1.34637 -0.32002,-0.22784 -0.93283,0.13534 -1.16437,-0.18201 -0.23155,-0.31734 0.41354,-0.84702 0.182,-1.16437 -0.23154,-0.31734 -0.77625,-0.12133 -1.16437,-0.182 -0.42761,-0.0668 -4.60332,-0.76752 -4.65749,-0.72801 -0.31735,0.23155 0.13534,0.93282 -0.18201,1.16437 -0.31734,0.23155 -0.79009,-0.30131 -1.16437,-0.182 -0.52931,0.16873 -0.89759,0.65491 -1.34637,0.98237 -0.4488,0.32746 -0.89759,0.65491 -1.34638,0.98237 -1.05163,0.76731 -3.21225,2.04707 -4.03913,2.94711 -0.59428,0.64686 -1.01891,1.43116 -1.52837,2.14674 -0.50946,0.71558 -1.18629,1.33769 -1.52838,2.14674 -0.30598,0.72365 -0.003,1.63071 -0.36401,2.32875 -0.25497,0.49359 -1.0914,0.48878 -1.34637,0.98237 -0.82853,5.30055 0.53848,0.15239 -1.71038,3.31112 -0.303,0.42558 -0.27076,3.29228 -0.54601,3.49311 -0.31735,0.23155 -0.84703,-0.41354 -1.16437,-0.182 -0.31735,0.23155 -0.12134,0.77625 -0.18201,1.16437 -0.10158,0.64991 -0.64903,5.31663 -0.91001,5.82187 -0.254973,0.49359 -1.091413,0.48878 -1.346373,0.98236 -0.3153,0.61038 -0.90874,5.81366 -1.09202,6.98624 -0.06067,0.38813 -0.121336,0.77625 -0.182004,1.16437 -0.06067,0.38813 0.04583,0.84436 -0.182002,1.16438 -0.322212,0.45258 -1.024166,0.5298 -1.346376,0.98237 -0.232568,0.32666 -0.464043,2.96874 -0.546009,3.49312 -0.242671,1.5525 -0.48534,3.10499 -0.72801,4.65749 -0.121336,0.77625 -0.242671,1.55249 -0.364007,2.32875 -0.06067,0.38812 0.04584,0.84435 -0.182002,1.16437 -0.32221,0.45257 -1.091406,0.48877 -1.346375,0.98237 -0.360579,0.69804 0.09167,1.6887 -0.364005,2.32874 -0.227836,0.32001 -0.790093,-0.30131 -1.164372,-0.182 -0.529312,0.16873 -0.817064,0.81364 -1.346376,0.98237 -0.37428,0.11931 -0.776249,-0.12134 -1.164373,-0.18201 -0.388124,-0.0607 -0.776248,-0.12133 -1.164372,-0.182 -0.776249,-0.12133 -1.552498,-0.24267 -2.328746,-0.364 -0.388124,-0.0607 -0.815351,-0.002 -1.164373,-0.18201 -0.780436,-0.40314 -1.366305,-1.12523 -2.146743,-1.52837 -0.349022,-0.1803 -0.932826,0.13534 -1.164372,-0.18201 -1.309827,-1.79516 2.122624,-0.86103 -0.98237,-1.34637 -0.388125,-0.0607 -0.932827,0.13534 -1.164374,-0.182 -0.231546,-0.31735 0.121335,-0.77625 0.182003,-1.16437 0.24267,-1.5525 0.485341,-3.105 0.728011,-4.6575 1.152683,-7.37436 2.305367,-14.74872 3.45805,-22.12308"
       id="path3767"
       inkscape:connector-curvature="0" />
    <text
       xml:space="preserve"
       style="font-size:56px;font-style:normal;font-variant:normal;font-weight:normal;font-stretch:normal;text-align:start;line-height:125%;letter-spacing:0px;word-spacing:0px;writing-mode:lr-tb;text-anchor:start;fill:#000000;fill-opacity:1;stroke:none;font-family:Sans;-inkscape-font-specification:Sans"
       x="360.71484"
       y="160.27316"
       id="text3769"
       sodipodi:linespacing="125%"
       transform="matrix(0.98800304,0.1544344,-0.1544344,0.98800304,0,0)"><tspan
         sodipodi:role="line"
         id="tspan3771"
         x="360.71484"
         y="160.27316">E. Coli</tspan></text>
    <path
       sodipodi:type="arc"
       style="fill:#000000;fill-opacity:1;stroke:#000000;stroke-width:5;stroke-miterlimit:4;stroke-opacity:1;stroke-dasharray:none"
       id="path3773"
       sodipodi:cx="556.25732"
       sodipodi:cy="165.71858"
       sodipodi:rx="3.5355339"
       sodipodi:ry="4.1247897"
       d="m 559.79286,165.71858 a 3.5355339,4.1247897 0 1 1 -7.07107,0 3.5355339,4.1247897 0 1 1 7.07107,0 z"
       transform="matrix(0.98800305,0.1544344,-0.1544344,0.98800305,55.384994,-33.235402)" />
    <path
       transform="matrix(0.98800305,0.1544344,-0.1544344,0.98800305,85.567695,-27.921141)"
       sodipodi:type="arc"
       style="fill:#000000;fill-opacity:1;stroke:#000000;stroke-width:5;stroke-miterlimit:4;stroke-opacity:1;stroke-dasharray:none"
       id="path3773-0"
       sodipodi:cx="556.25732"
       sodipodi:cy="165.71858"
       sodipodi:rx="3.5355339"
       sodipodi:ry="4.1247897"
       d="m 559.79286,165.71858 a 3.5355339,4.1247897 0 1 1 -7.07107,0 3.5355339,4.1247897 0 1 1 7.07107,0 z" />
    <path
       style="fill:none;stroke:#000000;stroke-width:5;stroke-linecap:butt;stroke-linejoin:miter;stroke-miterlimit:4;stroke-opacity:1;stroke-dasharray:none"
       d="m 570.80574,240.70634 c -0.8138,5.20638 -1.65419,3.38811 0.25436,6.00386 0.32746,0.44879 0.89019,0.79852 0.98237,1.34638 0.13036,0.77478 -0.49437,1.55396 -0.36401,2.32874 0.0922,0.54785 0.81364,0.81707 0.98237,1.34638 0.11932,0.37427 -0.30131,0.79009 -0.182,1.16437 0.33747,1.05863 1.62728,1.63413 1.96475,2.69275 0.11931,0.37428 -0.30132,0.79009 -0.18201,1.16438 0.16874,0.52931 0.65491,0.89758 0.98237,1.34637 0.32745,0.44879 0.52979,1.02417 0.98237,1.34638 0.32002,0.22783 0.84436,-0.0458 1.16437,0.182 0.45257,0.32221 0.5298,1.02417 0.98237,1.34637 0.32003,0.22784 0.93283,-0.13534 1.16437,0.18201 0.23155,0.31734 -0.41355,0.84702 -0.182,1.16437 0.23155,0.31734 0.77626,0.12133 1.16437,0.182 0.82531,0.129 6.70873,0.89444 6.98624,1.09202 0.45258,0.32221 0.5298,1.02416 0.98237,1.34637 0.31835,0.22665 5.86003,0.91598 6.98624,1.09202 0.38813,0.0607 0.84703,0.41355 1.16437,0.182 2.7857,-2.03256 -3.69618,-0.48129 1.52838,-2.14674 0.45398,-0.14473 5.012,0.78342 5.82186,0.91001 0.38813,0.0607 0.84703,0.41355 1.16438,0.182 0.31734,-0.23154 -0.13535,-0.93282 0.182,-1.16437 0.31735,-0.23155 0.79009,0.30132 1.16437,0.18201 0.33332,-0.10626 3.83623,-2.66213 4.03913,-2.94712 0.22784,-0.32001 -0.13534,-0.93282 0.18201,-1.16437 2.78569,-2.03256 -0.66961,3.66675 2.51074,-0.80037 0.61135,-0.8587 -0.0653,-2.63441 0.54601,-3.49311 0.32221,-0.45258 1.02417,-0.5298 1.34637,-0.98237 0.41456,-0.58229 0.35961,-4.3887 0.72801,-4.6575 1.79517,-1.30982 0.86104,2.12263 1.34638,-0.98237"
       id="path3793"
       inkscape:connector-curvature="0" />
    <path
       style="fill:none;stroke:#000000;stroke-width:3;stroke-linecap:butt;stroke-linejoin:miter;stroke-miterlimit:4;stroke-opacity:1;stroke-dasharray:none"
       d="m 508.88574,55.605774 c -0.97849,-0.719209 0.40061,-2.210209 0.41029,-2.976481 0.004,-0.277754 -0.4544,-0.487605 -0.36324,-0.749999 0.0456,-0.131188 0.32941,-0.05043 0.375,-0.181619 0.0456,-0.131189 -0.12108,-0.250003 -0.18162,-0.375004 0.25,-0.12108 0.58054,-0.143135 0.75,-0.363239 0.0847,-0.110038 -0.2272,-0.243806 -0.18162,-0.375003 0.0456,-0.131189 0.29026,-0.07158 0.375,-0.18162 1.18274,-1.536184 -0.38834,0.220078 0.0118,-0.931618 0.0456,-0.131188 0.29027,-0.07158 0.375,-0.181619 0.11985,-0.155597 0.0736,-0.400989 0.19338,-0.556623 0.0847,-0.110038 0.37325,-0.04274 0.375,-0.181619 0.004,-0.277754 -0.36674,-0.472245 -0.36323,-0.749999 0.002,-0.13888 0.32941,-0.05043 0.375,-0.181619 0.0456,-0.131188 -0.18337,-0.236123 -0.18162,-0.375004 0.002,-0.1964 0.1909,-0.360213 0.19338,-0.556614 0.003,-0.252699 -0.77939,-1.347701 -0.72648,-1.500006 0.0456,-0.131188 0.24381,-0.227191 0.375,-0.181619 0.1312,0.04557 0.0504,0.329423 0.18162,0.375004 0.1312,0.04557 0.25,-0.12108 0.375,-0.181619 0.30189,-0.146211 1.30265,-0.534004 1.50001,-0.726478 0.22236,-0.216804 0.4109,-0.470564 0.56838,-0.738242 0.0996,-0.169292 0.0528,-0.419493 0.19338,-0.556623 0.25319,-0.246872 2.08684,-0.877781 2.25,-1.089716 0.11985,-0.155598 0.0736,-0.400981 0.19339,-0.556615 0.18072,-0.23474 1.61456,-0.654148 1.875,-0.908096 0.14064,-0.137113 0.0735,-0.40099 0.19338,-0.556623 0.15417,-0.200244 1.44709,-0.574173 1.5,-0.726477 0.0456,-0.131189 -0.2272,-0.243806 -0.18162,-0.375004 0.0456,-0.131189 0.25,-0.12108 0.375,-0.18162 0.75,-0.363238 1.50001,-0.726477 2.25001,-1.089716 0.125,-0.06054 0.25,-0.121079 0.375,-0.181619 0.125,-0.06054 0.24381,-0.227191 0.375,-0.181619 0.13119,0.04557 0.0504,0.329423 0.18162,0.375004 0.13119,0.04557 0.24381,-0.227192 0.375,-0.18162 0.13119,0.04557 0.0504,0.329423 0.18162,0.375004 0.13119,0.04557 0.24381,-0.227191 0.375,-0.18162 0.26239,0.09116 0.10084,0.658837 0.36324,0.749999 0.13119,0.04557 0.24381,-0.227192 0.375,-0.181619 0.13119,0.04557 0.0504,0.329423 0.18162,0.375003 1.15167,0.400115 -0.60457,-1.170972 0.93162,0.01176 0.11005,0.08473 0.0504,0.329423 0.18162,0.375004 0.26239,0.09116 0.48761,-0.454401 0.75,-0.363239 0.29336,0.101919 0.47056,0.410909 0.73824,0.568379 0.32237,0.761026 0.63826,-0.09015 0.93162,0.01177 0.29336,0.101919 0.47056,0.410909 0.73824,0.568379 0.16929,0.0996 0.37108,0.128923 0.55662,0.193385 0.55662,0.193384 1.11324,0.386759 1.66986,0.580144 0.18554,0.06446 0.40099,0.07356 0.55662,0.193384 0.11005,0.08473 0.0716,0.29027 0.18162,0.374995 1.53619,1.182738 -0.22004,-0.388352 0.93162,0.01177 0.26239,0.09116 0.10085,0.658845 0.36324,0.749998 0.13119,0.04557 0.24381,-0.227191 0.375,-0.181619 0.13119,0.04557 0.0716,0.290269 0.18162,0.375004 0.15563,0.119824 0.40099,0.07356 0.55662,0.193384 0.11005,0.08472 0.0504,0.329414 0.18162,0.374995 0.13119,0.04557 0.2438,-0.227192 0.375,-0.181619 0.26239,0.09116 0.14314,0.58055 0.36324,0.750007 0.15563,0.119824 0.40098,0.07355 0.55662,0.193375 0.11004,0.08473 0.0504,0.329423 0.18162,0.375004 0.13119,0.04557 0.2438,-0.227191 0.375,-0.18162 0.26239,0.09116 0.14314,0.580542 0.36323,0.749999 0.31128,0.239656 0.80198,0.147112 1.11325,0.386769 0.11004,0.08472 0.0504,0.329414 0.18161,0.374994 0.1312,0.04557 0.24381,-0.227191 0.375,-0.181619 0.1312,0.04557 0.0504,0.329423 0.18163,0.375004 0.13119,0.04557 0.2438,-0.227192 0.375,-0.181619 0.13119,0.04557 0.0504,0.329422 0.18162,0.375003 0.13119,0.04557 0.24381,-0.227191 0.375,-0.181619 0.79925,0.277675 -0.52467,0.681447 -0.56839,0.738233 -1.30063,1.689316 1.51601,-0.926108 -0.76176,1.294865 -0.0995,0.09694 -0.25,0.12108 -0.375,0.18162 -0.18946,0.246081 -0.34603,0.52142 -0.56838,0.738233 -0.0994,0.09694 -0.29027,0.07158 -0.375,0.18162 -0.11985,0.155597 -0.0736,0.400989 -0.19338,0.556623 -0.0847,0.110038 -0.29027,0.07158 -0.375,0.181619 -0.11985,0.155597 -0.0736,0.400989 -0.19338,0.556623 -0.0847,0.110039 -0.29027,0.07158 -0.37501,0.18162 -0.11984,0.155597 -0.0736,0.40098 -0.19338,0.556613 -0.0847,0.110039 -0.32942,0.05043 -0.375,0.18162 -0.0456,0.131188 0.18337,0.236123 0.18162,0.375003 -0.002,0.196401 -0.12892,0.371083 -0.19338,0.556624 -0.0645,0.185541 -0.0736,0.40098 -0.19338,0.556613 -0.16946,0.220104 -0.65884,0.100854 -0.75001,0.363239 -0.0456,0.131189 0.12108,0.250003 0.18163,0.375004 0.0605,0.125001 0.12108,0.250003 0.18162,0.375004 0.0605,0.125001 0.12108,0.250002 0.18161,0.374994 0.0605,0.125002 0.2272,0.243807 0.18162,0.375004 -0.0456,0.131189 -0.32941,0.05043 -0.375,0.181619 -0.0912,0.262395 0.4544,0.487613 0.36324,0.749999 -0.0456,0.131188 -0.25,0.121079 -0.375,0.181619 -0.17681,0.08563 -1.84977,0.916875 -1.875,0.908097 -0.1312,-0.04557 -0.0504,-0.329414 -0.18162,-0.374995 -0.0179,-0.0062 -1.03406,0.500811 -1.125,0.544858 -2.37501,1.150256 -4.75001,2.300512 -7.12502,3.450768 -0.375,0.181619 -0.71181,0.491143 -1.125,0.544858 -0.19477,0.02533 -0.36022,-0.190906 -0.55662,-0.193385 -0.13887,-0.0017 -0.31446,0.306621 -0.375,0.181619 -0.0605,-0.125001 0.5,-0.242158 0.375,-0.181619 -0.25,0.12108 -0.47224,0.366749 -0.75,0.363239 -0.27776,-0.0035 -0.10084,-0.658836 -0.36324,-0.749998 -0.13119,-0.04557 -0.24381,0.227191 -0.375,0.181619 -0.13119,-0.04557 -0.0504,-0.329423 -0.18162,-0.375004 -0.13119,-0.04557 -0.24381,0.227192 -0.375,0.181619 -0.13119,-0.04557 -0.0716,-0.290269 -0.18162,-0.375003 -0.15563,-0.119824 -0.40098,-0.07355 -0.55662,-0.193376 -0.11005,-0.08473 -0.0504,-0.329422 -0.18162,-0.375003 -1.15167,-0.400115 0.60457,1.170973 -0.93162,-0.01176 -0.2201,-0.169457 -0.10084,-0.658836 -0.36324,-0.749999 -0.13119,-0.04557 -0.23613,0.183361 -0.375,0.18162 -0.19638,-0.0024 -0.37108,-0.128923 -0.55662,-0.193385 -0.18554,-0.06445 -0.40098,-0.07355 -0.55662,-0.193375 -0.11005,-0.08473 -0.0504,-0.329423 -0.18162,-0.375004 -0.13119,-0.04557 -0.24381,0.227192 -0.375,0.18162 -0.13119,-0.04557 -0.0504,-0.329423 -0.18162,-0.375004 -0.13119,-0.04557 -0.24381,0.227191 -0.375,0.181619 -1.15166,-0.400105 1.20035,-0.543906 -0.73824,-0.568379 -0.13887,-0.0017 -0.24381,0.227192 -0.375,0.18162 -0.95636,-0.332262 -0.59275,-1.125607 -1.47648,-1.136768 -0.13887,-0.0017 -0.24381,0.227192 -0.375,0.18162 -0.13119,-0.04557 -0.0716,-0.29027 -0.18162,-0.374995 -0.15563,-0.119824 -0.40099,-0.07356 -0.55662,-0.193384 -0.11005,-0.08473 -0.0504,-0.329423 -0.18162,-0.375004 -1.15166,-0.400106 0.60457,1.170973 -0.93162,-0.01176 -0.11005,-0.08473 -0.0472,-0.409852 -0.18162,-0.375004 -0.67223,0.17425 -1.20277,0.733848 -1.875,0.908097 -0.72401,0.187673 -1.49655,0.06168 -2.23824,0.158097 -0.2597,0.03378 -1.88668,0.913753 -2.25,1.089716 -0.12501,0.06054 -0.23613,0.183361 -0.37501,0.181621 -0.19638,-0.0024 -0.36021,-0.190908 -0.55662,-0.193383 -0.37265,-0.0047 -0.75235,0.549563 -1.125,0.544858 -0.19639,-0.0024 -0.36022,-0.190908 -0.55662,-0.193387 -0.37265,-0.0047 -0.75236,0.549567 -1.125,0.544858 -0.19639,-0.0024 -0.36022,-0.190894 -0.55662,-0.193374 -0.18469,-0.0023 -1.0112,0.584409 -1.125,0.544858 -0.13119,-0.04558 -0.0504,-0.329419 -0.18162,-0.375004 -0.27831,-0.09669 -0.8467,0.641547 -1.12501,0.544858 -0.13118,-0.04558 -0.0504,-0.329418 -0.18162,-0.375003 -0.11382,-0.03954 -0.94031,0.547185 -1.125,0.544858 -0.19638,-0.0024 -0.36021,-0.190899 -0.55662,-0.193374 -0.14176,-0.0018 -0.95612,0.463064 -1.125,0.544858 -0.98762,0.47832 -1.61503,0.874296 -1.875,0.908095 -0.19478,0.02533 -0.36022,-0.190908 -0.55663,-0.193383 -0.13886,-0.0017 -0.2438,0.227188 -0.37499,0.181616 -0.13119,-0.04558 -0.0504,-0.329418 -0.18162,-0.375003 -0.26239,-0.09115 -0.48761,0.454403 -0.75001,0.363241 -0.27831,-0.09669 -0.26654,-1.028308 -0.54486,-1.125002 -0.13118,-0.04558 -0.2438,0.227188 -0.37499,0.181617 -0.14882,-0.05169 -0.67265,-1.693723 -0.9081,-1.875001 -0.15559,-0.119841 -0.40099,-0.07355 -0.55662,-0.193383 -0.11004,-0.08473 -0.0716,-0.290265 -0.18162,-0.374994 -0.1556,-0.119842 -0.40099,-0.07356 -0.55662,-0.193383 -0.11004,-0.08474 -0.12108,-0.250003 -0.18162,-0.375004 -0.12108,-0.249994 -0.16936,-0.551101 -0.36324,-0.749998 -0.13711,-0.140638 -0.40098,-0.07355 -0.55662,-0.193388 -0.11003,-0.08473 -0.0847,-0.275546 -0.18161,-0.374994 -0.21681,-0.222364 -0.52143,-0.346028 -0.73825,-0.568387 -0.0969,-0.09945 -0.0504,-0.32941 -0.18162,-0.374995 -0.13118,-0.04558 -0.24381,0.227193 -0.375,0.181621 -0.13118,-0.04558 -0.0716,-0.290265 -0.18162,-0.375004 -0.1556,-0.119841 -0.40098,-0.07355 -0.55662,-0.193387 -0.2201,-0.169455 -0.10084,-0.658837 -0.36323,-0.749998 -0.13119,-0.04558 -0.24381,0.227192 -0.37501,0.18162 -0.2783,-0.09669 -0.26655,-1.028312 -0.54485,-1.125002 -0.13119,-0.04558 -0.24381,0.227193 -0.37501,0.181621 -0.26239,-0.09116 -0.14313,-0.580543 -0.36323,-0.749998 -0.1556,-0.119842 -0.40099,-0.07356 -0.55662,-0.193387 -0.11004,-0.08474 -0.0504,-0.329419 -0.18162,-0.375004 -1.15167,-0.400105 0.60457,1.170973 -0.93163,-0.01175 -0.22009,-0.16946 -0.10084,-0.658846 -0.36324,-0.750008 -0.26239,-0.09115 -0.4876,0.454399 -0.75,0.363238 -0.13118,-0.04558 -0.0716,-0.290266 -0.18161,-0.374995 -1.53619,-1.182738 0.22008,0.388334 -0.93162,-0.01177 -0.2624,-0.09116 -0.10085,-0.658837 -0.36324,-0.749999 -0.2624,-0.09116 -0.47225,0.36674 -0.75001,0.363242 -0.19638,-0.0024 -0.36021,-0.190908 -0.55661,-0.193387 -0.13888,-0.0017 -0.24381,0.227192 -0.37501,0.18162 -0.13118,-0.04558 -0.0504,-0.329418 -0.18162,-0.375003 -0.13118,-0.04558 -0.23613,0.18336 -0.375,0.18162 -0.3928,-0.005 -0.72044,-0.381801 -1.11324,-0.386761 -0.13887,-0.0017 -0.23613,0.183361 -0.375,0.181621 -0.19638,-0.0024 -0.36022,-0.190908 -0.55662,-0.193387 -0.14176,-0.0018 -0.95611,0.463064 -1.125,0.544858 -0.87501,0.423782 -1.75001,0.847559 -2.62501,1.271337"
       id="path3814"
       inkscape:connector-curvature="0" />
    <path
       style="fill:none;stroke:#000000;stroke-width:3;stroke-linecap:butt;stroke-linejoin:miter;stroke-miterlimit:4;stroke-opacity:1;stroke-dasharray:none"
       d="m 489.27465,59.085253 c -0.90465,-2.356389 -1.38765,0.765507 -2.05662,0.533101 -1.15167,-0.400114 1.20035,-0.543907 -0.73824,-0.568387 -0.13887,-0.0017 -0.23613,0.183361 -0.375,0.181617 -0.39281,-0.005 -0.72043,-0.381802 -1.11324,-0.386757 -0.13887,-0.0017 -0.2438,0.227188 -0.375,0.181616 -0.13118,-0.04558 -0.0504,-0.329418 -0.18162,-0.375003 -0.13118,-0.04558 -0.23613,0.18336 -0.375,0.18162 -0.19638,-0.0024 -0.36021,-0.190897 -0.55662,-0.193372 -0.13887,-0.0017 -0.23613,0.18336 -0.375,0.181616 -0.19639,-0.0024 -0.36022,-0.190903 -0.55662,-0.193383 -0.13888,-0.0017 -0.23613,0.183361 -0.37501,0.181621 -0.3928,-0.005 -0.72367,-0.437409 -1.11323,-0.386761 -0.27544,0.03585 -0.47456,0.327392 -0.75,0.363237 -0.19478,0.02533 -0.36022,-0.190903 -0.55663,-0.193383 -0.13887,-0.0017 -0.23728,0.163699 -0.375,0.181621 -0.30796,0.04004 -0.62364,-0.0518 -0.93162,-0.01177 -0.24574,0.03191 -0.87859,0.425516 -1.125,0.544858 -0.75,0.363237 -1.50001,0.726478 -2.25,1.089716 -0.12501,0.06054 -0.25001,0.12108 -0.37501,0.18162 -0.125,0.06054 -0.32941,0.05043 -0.37499,0.181617 -0.0456,0.131184 0.22719,0.24381 0.18162,0.375004 -0.0456,0.131184 -0.25,0.12108 -0.37501,0.18162 -0.125,0.06054 -0.25,0.121081 -0.375,0.181621 -1,0.484318 -2,0.968636 -3,1.452953"
       id="path3816"
       inkscape:connector-curvature="0" />
    <path
       style="fill:none;stroke:#000000;stroke-width:3;stroke-linecap:butt;stroke-linejoin:miter;stroke-miterlimit:4;stroke-opacity:1;stroke-dasharray:none"
       d="m 479.85777,81.701531 c 1.14341,-0.553771 -0.17867,-0.382686 0.0118,-0.931619 0.008,-0.02244 1.36229,-0.659779 1.5,-0.726474 0.125,-0.06054 0.25,-0.121081 0.375,-0.181621 0.125,-0.06054 0.32942,-0.05043 0.375,-0.181621 0.0456,-0.131184 -0.22719,-0.243819 -0.18162,-0.375003 0.0395,-0.113818 1.01232,-0.398506 1.12501,-0.544858 0.11984,-0.155597 0.0735,-0.401015 0.19337,-0.556612 0.0847,-0.11004 0.27556,-0.08468 0.37501,-0.18162 1.14001,-1.111593 0.18071,-0.307189 0.76176,-1.294866 1.28276,-2.18046 0.008,-0.0071 0.94338,-0.919853 0.22237,-0.216805 0.41091,-0.470564 0.56838,-0.73824 0.0996,-0.169293 0.0528,-0.419512 0.19338,-0.556625 0.1989,-0.193885 0.60916,-0.123814 0.75,-0.363237 0.15748,-0.267681 -0.0901,-0.638258 0.0118,-0.931619 0.0456,-0.131185 0.27555,-0.08468 0.375,-0.181621 0.22236,-0.216801 0.4109,-0.47056 0.56838,-0.738241 0.1992,-0.338584 0.18757,-0.774643 0.38676,-1.113236 0.15748,-0.26768 0.34602,-0.52144 0.56839,-0.738245 0.0994,-0.09694 0.32941,-0.05043 0.37499,-0.181617 0.0456,-0.131184 -0.22719,-0.24381 -0.18161,-0.374994 0.0456,-0.131184 0.29026,-0.07158 0.375,-0.181622 0.23965,-0.311266 0.14712,-0.801971 0.38676,-1.113245 0.0847,-0.11004 0.29026,-0.07158 0.375,-0.181621 1.18274,-1.536186 -0.38833,0.220077 0.0118,-0.931619 0.0912,-0.262395 0.65884,-0.100842 0.75,-0.363237 0.0912,-0.262395 -0.4544,-0.487603 -0.36324,-0.749999 0.0456,-0.131184 0.32942,-0.05043 0.375,-0.18162 0.0599,-0.172357 -0.96797,-1.702654 -0.90809,-1.87501 0.0456,-0.131184 0.3294,-0.05043 0.37499,-0.181616 0.0456,-0.131185 -0.18336,-0.236128 -0.18162,-0.374995 0.002,-0.196383 0.20722,-0.360693 0.19339,-0.556624 -0.0403,-0.571227 -0.23432,-1.121082 -0.35148,-1.681627 -0.56446,0.427702 -1.21624,0.759768 -1.69339,1.283103 -0.0936,0.102648 0.2272,0.243811 0.18162,0.375004 -0.0912,0.262395 -0.58054,0.143134 -0.75,0.363237 -0.23964,0.311265 -0.14711,0.80197 -0.38676,1.113236 -0.0847,0.11004 -0.32941,0.05043 -0.375,0.181621 -0.0456,0.131184 0.22719,0.24381 0.18162,0.375003 -0.0456,0.131184 -0.29027,0.07158 -0.37501,0.181622 -0.11984,0.155597 -0.0736,0.400979 -0.19337,0.556612 -0.22736,0.295301 -0.89765,0.249569 -1.12501,0.544858 -0.11985,0.155601 -0.0736,0.400991 -0.19338,0.556624 -0.0747,0.09708 -1.3039,0.631504 -1.5,0.726479 -1.25001,0.605398 -2.5,1.210792 -3.75001,1.81619 -0.75,0.363242 -1.5,0.726479 -2.25,1.089716 -0.125,0.06054 -0.32942,0.05043 -0.375,0.181621 -0.0456,0.131184 0.22719,0.243811 0.18162,0.375004 -0.0456,0.131184 -0.25001,0.12108 -0.37501,0.181621 -0.125,0.06054 -0.24999,0.121076 -0.37499,0.181616"
       id="path3818"
       inkscape:connector-curvature="0" />
    <path
       style="fill:none;stroke:#ff0000;stroke-width:3;stroke-linecap:butt;stroke-linejoin:miter;stroke-miterlimit:4;stroke-opacity:1;stroke-dasharray:none"
       d="m 467.91667,147.70833 c 0.48509,3.26064 -1.55446,0.30446 -2.08333,0.83333 -0.0982,0.0982 0.0982,0.31846 0,0.41667 -0.19642,0.19642 -0.63691,-0.19642 -0.83333,0 -0.19642,0.19642 0.19642,0.63691 0,0.83333 -0.20834,0.20834 -1.04167,-0.20833 -1.25,0 -0.0982,0.0982 0.0982,0.31846 0,0.41667 -0.19642,0.19642 -0.63692,-0.19642 -0.83334,0 -0.0982,0.0982 0.0982,0.31846 0,0.41667 -0.0982,0.0982 -0.29244,-0.0621 -0.41666,0 -0.11063,0.0553 -1.19469,1.13937 -1.25,1.25 -0.0621,0.12422 0.0982,0.31845 0,0.41666 -0.8621,0.8621 0.0337,-1.3174 -0.83334,0.41667 -0.0621,0.12423 0,0.27778 0,0.41667 -0.13888,0.13889 -0.32882,0.24098 -0.41666,0.41666 -0.12423,0.24845 0.19642,0.63692 0,0.83334 -0.0982,0.0982 -0.31846,-0.0982 -0.41667,0 -0.14626,0.14625 0.1439,1.79552 0,2.08333 -0.0878,0.17568 -0.32883,0.24098 -0.41667,0.41667 -0.0634,0.1268 0,1.06235 0,1.25 0,0.13889 -0.0982,0.31845 0,0.41666 0.19642,0.19642 0.63692,-0.19642 0.83334,0 0.0982,0.0982 -0.0982,0.31846 0,0.41667 0.19642,0.19642 0.63691,-0.19642 0.83333,0 0.19642,0.19642 -0.19642,0.63691 0,0.83333 0.19642,0.19642 0.63692,-0.19642 0.83333,0 0.0982,0.0982 -0.0982,0.31846 0,0.41667 0.0982,0.0982 0.29244,-0.0621 0.41667,0 0.17568,0.0878 0.24099,0.32883 0.41667,0.41667 0.12422,0.0621 0.31845,-0.0982 0.41666,0 0.0982,0.0982 -0.0982,0.31845 0,0.41666 0.0982,0.0982 0.31846,-0.0982 0.41667,0 0.0982,0.0982 -0.0982,0.31846 0,0.41667 0.19642,0.19642 0.63692,-0.19642 0.83333,0 0.0982,0.0982 -0.0982,0.31846 0,0.41667 0.0134,0.0134 1.14895,0 1.25,0 0.13889,0 0.31846,0.0982 0.41667,0 0.0982,-0.0982 -0.13889,-0.41667 0,-0.41667 0.13889,0 0,0.55556 0,0.41667 0,-2.36111 -0.27778,-0.13889 0.41667,-0.83334 0.20833,-0.20833 -0.20834,-1.04166 0,-1.25 0.0982,-0.0982 0.31845,0.0982 0.41666,0 0.20834,-0.20833 -0.20833,-1.04166 0,-1.25 0.0982,-0.0982 0.31846,0.0982 0.41667,0 0.19642,-0.19642 -0.19642,-0.63691 0,-0.83333 0.0982,-0.0982 0.31846,0.0982 0.41667,0 0.0982,-0.0982 0,-0.27778 0,-0.41667 0,-0.15301 0.0168,-1.6499 0,-1.66666 -0.0982,-0.0982 -0.31846,0.0982 -0.41667,0 -0.0982,-0.0982 0.0982,-0.31846 0,-0.41667 -0.19642,-0.19642 -0.63691,0.19642 -0.83333,0 -0.0982,-0.0982 0.0621,-0.29244 0,-0.41667 -0.17568,-0.35136 -0.65765,-0.48197 -0.83334,-0.83333 -0.0621,-0.12423 0.0982,-0.31846 0,-0.41667 -0.0982,-0.0982 -0.41666,0.13889 -0.41666,0 0,-0.83252 1.00174,-0.16841 1.25,-0.41666 0.0982,-0.0982 -0.0982,-0.31846 0,-0.41667 0.19642,-0.19642 0.63691,0.19642 0.83333,0 0.0982,-0.0982 -0.0982,-0.31846 0,-0.41667 0.0982,-0.0982 0.27778,0 0.41667,0 0.13889,0 0.27778,0 0.41666,0 0.13889,0 0.55556,0 0.41667,0 -0.27778,0 -0.83333,0.27778 -0.83333,0 0,-1.14736 0.951,-0.11767 1.25,-0.41666 0.19642,-0.19642 -0.19642,-0.63692 0,-0.83334 0.0982,-0.0982 0.31845,0.0982 0.41666,0 0.41104,-0.41103 -0.85378,-0.83333 0.41667,-0.83333 1.27045,0 0.006,-0.4223 0.41667,-0.83333 0.0982,-0.0982 0.31845,0.0982 0.41666,0 0.0417,-0.0417 0.0417,-1.20834 0,-1.25 -0.0982,-0.0982 -0.27966,0.0228 -0.41666,0 -0.69856,-0.11643 -1.38889,-0.27778 -2.08334,-0.41667 z"
       id="path3820"
       inkscape:connector-curvature="0" />
    <path
       style="fill:none;stroke:#ff0000;stroke-width:3.70746063999999986;stroke-linecap:butt;stroke-linejoin:miter;stroke-miterlimit:4;stroke-opacity:1;stroke-dasharray:none"
       d="m 357.81408,145.87858 c -4.99906,-0.20824 -0.24555,-1.60382 -0.97237,-2.23932 -0.13495,-0.11799 -0.49527,0.03 -0.63025,-0.088 -0.26993,-0.23602 0.38519,-0.5893 0.11525,-0.82532 -0.26994,-0.23602 -0.99054,0.06 -1.26047,-0.17601 -0.28632,-0.25034 0.45917,-0.98766 0.17286,-1.23799 -0.13495,-0.118 -0.49527,0.03 -0.63024,-0.088 -0.26994,-0.23602 0.38518,-0.58932 0.11524,-0.82533 -0.13495,-0.118 -0.49527,0.03 -0.63024,-0.088 -0.13496,-0.118 0.13433,-0.27652 0.0576,-0.41266 -0.0684,-0.12125 -1.55816,-1.42385 -1.71785,-1.502 -0.17931,-0.0877 -0.49527,0.03 -0.63024,-0.088 -1.18476,-1.0359 1.98801,0.31162 -0.515,-0.91334 -0.17931,-0.0877 -0.42016,-0.0587 -0.63024,-0.088 -0.19088,-0.16688 -0.31903,-0.37656 -0.57261,-0.50066 -0.35862,-0.17551 -0.99055,0.06 -1.26049,-0.17601 -0.13495,-0.11799 0.19257,-0.29466 0.0576,-0.41266 -0.20099,-0.17575 -2.73576,-0.23671 -3.1512,-0.44002 -0.25359,-0.12406 -0.31903,-0.37657 -0.57262,-0.50067 -0.18303,-0.0896 -1.60689,-0.22438 -1.89073,-0.26401 -0.21008,-0.0293 -0.4681,-0.16452 -0.63023,-0.088 -0.32426,0.15304 0.20902,0.67228 -0.11524,0.82533 -0.16212,0.0765 -0.46812,-0.16452 -0.63025,-0.088 -0.32426,0.15305 0.20902,0.67228 -0.11524,0.82533 -0.32426,0.15304 -0.93621,-0.32906 -1.26048,-0.17601 -0.32426,0.15305 0.20902,0.67229 -0.11525,0.82532 -0.1621,0.0765 -0.4681,-0.16451 -0.63024,-0.088 -0.16211,0.0765 0.0535,0.30275 -0.0576,0.41266 -0.1571,0.15545 -0.53071,0.16923 -0.68787,0.32467 -0.11107,0.10991 0.1045,0.33613 -0.0576,0.41265 -0.16211,0.0765 -0.4681,-0.16451 -0.63023,-0.088 -0.16212,0.0765 0.1045,0.33614 -0.0576,0.41267 -0.16212,0.0765 -0.46812,-0.16452 -0.63025,-0.088 -0.32426,0.15305 0.20902,0.67229 -0.11524,0.82533 -0.16212,0.0765 -0.46812,-0.16452 -0.63025,-0.088 -0.0222,0.0104 -0.15889,1.13791 -0.17286,1.23799 -0.0192,0.13756 -0.19258,0.29466 -0.0576,0.41267 0.13496,0.11799 0.64946,-0.0496 0.63025,0.088 -0.0192,0.13756 -0.84033,-0.11734 -0.63025,-0.088 3.57137,0.49868 0.2485,-0.24578 1.20287,0.58867 0.2863,0.25033 1.60441,0.0137 1.89072,0.26401 0.13496,0.118 -0.19257,0.29465 -0.0576,0.41266 0.28631,0.25034 1.6044,0.0137 1.89072,0.26401 0.13495,0.118 -0.19258,0.29466 -0.0576,0.41267 0.26994,0.23601 0.99054,-0.06 1.26047,0.176 0.13496,0.118 -0.19257,0.29466 -0.0576,0.41267 0.13496,0.118 0.42016,0.0587 0.63025,0.088 0.23144,0.0323 2.49328,0.36512 2.52095,0.35202 0.16212,-0.0765 -0.10449,-0.33614 0.0576,-0.41267 0.16212,-0.0765 0.46812,0.16452 0.63025,0.088 0.32426,-0.15304 -0.20902,-0.67227 0.11524,-0.82532 0.16212,-0.0765 0.43375,0.12327 0.63024,0.088 0.55576,-0.0998 0.81997,-0.54954 1.37573,-0.64933 0.1965,-0.0353 0.46812,0.16452 0.63025,0.088 0.16211,-0.0765 -0.15246,-0.442 0.0576,-0.41266 1.25924,0.17583 0.11619,1.02768 0.45736,1.32599 0.13496,0.118 0.49527,-0.03 0.63024,0.088 0.26994,0.23602 -0.38518,0.58931 -0.11524,0.82533 0.13496,0.11799 0.49528,-0.03 0.63024,0.088 0.13496,0.118 -0.0384,0.27511 -0.0576,0.41267 -0.0192,0.13755 -0.0384,0.27511 -0.0576,0.41265 -0.0192,0.13756 -0.0768,0.55023 -0.0576,0.41267 0.0384,-0.27511 -0.30492,-0.88399 0.11524,-0.82532 1.73547,0.24233 0.0465,0.96671 0.45737,1.32599 0.26993,0.23602 0.99055,-0.06 1.26049,0.17601 0.13495,0.11799 -0.19258,0.29465 -0.0576,0.41265 0.56486,0.49391 1.37854,-0.66957 1.20285,0.58868 -0.1757,1.25824 0.63793,0.0951 1.20285,0.58867 0.13495,0.118 -0.19257,0.29465 -0.0576,0.41266 0.0573,0.0501 1.82195,0.29651 1.89073,0.26401 0.16212,-0.0765 0.004,-0.28179 0.0576,-0.41266 0.27272,-0.66725 0.61224,-1.31687 0.91836,-1.97532 z"
       id="path3820-8"
       inkscape:connector-curvature="0" />
    <path
       style="fill:none;stroke:#ff0000;stroke-width:3;stroke-linecap:butt;stroke-linejoin:miter;stroke-miterlimit:4;stroke-opacity:1;stroke-dasharray:none"
       d="m 407.68638,175.61126 c -2.92692,-1.51666 0.66371,-1.43824 0.54482,-2.17667 -0.022,-0.13711 -0.31564,-0.10694 -0.33771,-0.24405 -0.0442,-0.27424 0.53225,-0.40118 0.48809,-0.67543 -0.0442,-0.27423 -0.63126,-0.21385 -0.67542,-0.48809 -0.0468,-0.29091 0.77898,-0.72227 0.73215,-1.01315 -0.022,-0.13711 -0.31563,-0.10693 -0.33771,-0.24404 -0.0442,-0.27425 0.53226,-0.40119 0.4881,-0.67544 -0.022,-0.13712 -0.31563,-0.10694 -0.33771,-0.24406 -0.022,-0.13711 0.22162,-0.20064 0.24404,-0.3377 0.0199,-0.12205 -0.22372,-1.63567 -0.28099,-1.74529 -0.0643,-0.12309 -0.31562,-0.10694 -0.33771,-0.24405 -0.19379,-1.2037 1.04803,0.79894 0.15039,-0.91948 -0.0643,-0.1231 -0.22514,-0.16271 -0.33771,-0.24406 -0.0312,-0.19392 -0.003,-0.40766 -0.0937,-0.58174 -0.12864,-0.24621 -0.63128,-0.21386 -0.67544,-0.48811 -0.022,-0.13712 0.26613,-0.2006 0.24406,-0.33772 -0.0329,-0.2042 -1.53958,-0.93504 -1.68857,-1.22024 -0.0909,-0.17407 -0.003,-0.40768 -0.0937,-0.58176 -0.0657,-0.12565 -0.86105,-0.62225 -1.01314,-0.73216 -0.11256,-0.0814 -0.20059,-0.26611 -0.33771,-0.24404 -0.27426,0.0441 -0.21385,0.63127 -0.4881,0.67542 -0.13712,0.0221 -0.2006,-0.26611 -0.33771,-0.24405 -0.27425,0.0442 -0.21386,0.63127 -0.48811,0.67543 -0.27423,0.0442 -0.40117,-0.53225 -0.67542,-0.48811 -0.27424,0.0442 -0.21386,0.63129 -0.4881,0.67543 -0.13712,0.0221 -0.2006,-0.26612 -0.33772,-0.24405 -0.13712,0.0221 -0.12096,0.2734 -0.24405,0.33771 -0.17407,0.0909 -0.40768,0.003 -0.58176,0.0937 -0.12309,0.0643 -0.10693,0.31562 -0.24404,0.33771 -0.13712,0.022 -0.20059,-0.26612 -0.33772,-0.24405 -0.13711,0.022 -0.10693,0.31564 -0.24405,0.33771 -0.13712,0.0221 -0.20059,-0.26611 -0.33771,-0.24405 -0.27427,0.0441 -0.21386,0.63128 -0.4881,0.67543 -0.13712,0.022 -0.2006,-0.26613 -0.33772,-0.24406 -0.0186,0.003 -0.67296,0.93124 -0.73215,1.01315 -0.0814,0.11256 -0.26613,0.20059 -0.24405,0.33771 0.022,0.13712 0.41907,0.13148 0.33771,0.24406 -0.0813,0.11256 -0.45028,-0.32541 -0.33771,-0.24406 1.9137,1.38295 0.27528,-0.14376 0.43138,0.82582 0.0468,0.29089 0.9663,0.44126 1.01313,0.73216 0.022,0.13711 -0.26611,0.20059 -0.24405,0.3377 0.0468,0.29089 0.96631,0.44127 1.01315,0.73215 0.0221,0.13713 -0.26612,0.2006 -0.24406,0.33772 0.0442,0.27424 0.63128,0.21385 0.67543,0.4881 0.022,0.13711 -0.26612,0.2006 -0.24405,0.33772 0.0221,0.13711 0.22514,0.16269 0.33771,0.24405 0.124,0.0896 1.32743,0.98 1.35085,0.9762 0.13712,-0.0221 0.10694,-0.31564 0.24406,-0.33772 0.13711,-0.022 0.20059,0.26613 0.33771,0.24405 0.27426,-0.0441 0.21386,-0.63127 0.4881,-0.67542 0.13712,-0.022 0.20065,0.22162 0.33772,0.24405 0.38768,0.0634 0.77584,-0.25073 1.16352,-0.18733 0.13706,0.0224 0.2006,0.26612 0.33772,0.24405 0.13712,-0.022 0.13147,-0.41905 0.24405,-0.3377 0.67477,0.48762 -0.45025,0.91056 -0.39445,1.25718 0.022,0.13712 0.31564,0.10693 0.33772,0.24405 0.0442,0.27424 -0.53225,0.40117 -0.4881,0.67543 0.022,0.13712 0.31564,0.10693 0.33772,0.24405 0.022,0.13712 -0.1627,0.22514 -0.24406,0.33771 -0.0814,0.11256 -0.1627,0.22515 -0.24404,0.33771 -0.0814,0.11256 -0.3254,0.45029 -0.24406,0.33773 0.1627,-0.22516 0.26297,-0.83813 0.4881,-0.67544 0.92995,0.67204 -0.46164,0.83972 -0.39443,1.2572 0.0442,0.27423 0.63127,0.21385 0.67542,0.4881 0.022,0.13712 -0.26611,0.20059 -0.24405,0.33771 0.0924,0.5739 1.17551,-0.2039 0.43138,0.82582 -0.74413,1.02971 0.33877,0.2522 0.43136,0.82581 0.022,0.13712 -0.26611,0.20059 -0.24403,0.3377 0.009,0.0582 0.95494,0.74155 1.01313,0.73216 0.13712,-0.0221 0.14533,-0.24002 0.24405,-0.33771 0.50353,-0.49799 1.03865,-0.96301 1.55798,-1.44452 z"
       id="path3820-0"
       inkscape:connector-curvature="0" />
    <path
       style="fill:none;stroke:#ff0000;stroke-width:3;stroke-linecap:butt;stroke-linejoin:miter;stroke-miterlimit:4;stroke-opacity:1;stroke-dasharray:none"
       d="m 538.72618,166.08965 c -3.06023,1.22559 -0.6555,-1.442 -1.2923,-1.83431 -0.11819,-0.0729 -0.28714,0.16915 -0.40538,0.0963 -0.23652,-0.14566 0.0439,-0.66506 -0.19262,-0.81076 -0.23652,-0.14565 -0.57426,0.33831 -0.81075,0.19261 -0.25085,-0.15458 -0.0381,-1.06162 -0.28893,-1.21615 -0.11819,-0.0729 -0.28713,0.16914 -0.40537,0.0963 -0.23653,-0.14567 0.0439,-0.66508 -0.19262,-0.81078 -0.1182,-0.0729 -0.28714,0.16914 -0.40539,0.0963 -0.11819,-0.0729 -0.007,-0.29887 -0.0963,-0.40537 -0.0794,-0.0948 -1.38466,-0.899 -1.50507,-0.92724 -0.13521,-0.0317 -0.28714,0.16914 -0.40538,0.0963 -1.03802,-0.63951 1.28951,-0.27171 -0.598,-0.71447 -0.13521,-0.0317 -0.27026,0.0642 -0.40539,0.0963 -0.16721,-0.10304 -0.31064,-0.26401 -0.50169,-0.30904 -0.27046,-0.0634 -0.57428,0.33831 -0.81079,0.19262 -0.11819,-0.0729 0.0219,-0.33255 -0.0963,-0.4054 -0.17611,-0.10847 -1.71364,0.55501 -2.02691,0.48154 -0.19118,-0.0449 -0.31066,-0.26402 -0.50172,-0.30905 -0.13805,-0.0323 -1.03359,0.24554 -1.21615,0.28891 -0.13516,0.0321 -0.33252,-0.0219 -0.40538,0.0963 -0.14575,0.23647 0.33831,0.57426 0.19261,0.81076 -0.0728,0.11826 -0.33253,-0.0219 -0.40538,0.0963 -0.14567,0.23654 0.3383,0.57428 0.1926,0.81078 -0.14565,0.23652 -0.66505,-0.0439 -0.81077,0.1926 -0.14566,0.23653 0.33832,0.57428 0.19262,0.81077 -0.0728,0.11826 -0.33254,-0.0219 -0.40539,0.0963 -0.0728,0.11826 0.12801,0.27017 0.0963,0.40538 -0.0449,0.19118 -0.26402,0.31066 -0.30905,0.50171 -0.0317,0.13521 0.16914,0.28713 0.0963,0.40538 -0.0729,0.11819 -0.33253,-0.0219 -0.40539,0.0963 -0.0729,0.11819 0.16916,0.28714 0.0963,0.40538 -0.0728,0.11826 -0.33252,-0.0219 -0.40538,0.0963 -0.14576,0.23648 0.33831,0.57428 0.19261,0.81077 -0.0729,0.1182 -0.33254,-0.0219 -0.4054,0.0963 -0.01,0.016 0.26557,1.11783 0.28893,1.21615 0.0321,0.13516 -0.022,0.33254 0.0963,0.40538 0.1182,0.0729 0.37329,-0.23143 0.40539,-0.0963 0.0321,0.13508 -0.54052,0.1284 -0.40539,0.0963 2.29717,-0.54572 0.071,-0.30234 0.90708,0.21278 0.25083,0.15457 0.9653,-0.44346 1.21615,-0.2889 0.11819,0.0729 -0.0219,0.33252 0.0963,0.40537 0.25083,0.15457 0.96531,-0.44345 1.21616,-0.28892 0.11827,0.0728 -0.0219,0.33253 0.0963,0.40539 0.23653,0.14567 0.57427,-0.33832 0.81077,-0.19261 0.11819,0.0729 -0.0219,0.33253 0.0963,0.40539 0.11826,0.0728 0.27025,-0.0642 0.40538,-0.0963 0.14884,-0.0354 1.60911,-0.365 1.62154,-0.38521 0.0728,-0.11827 -0.16915,-0.28715 -0.0963,-0.4054 0.0729,-0.11819 0.33254,0.022 0.40538,-0.0963 0.14575,-0.23648 -0.3383,-0.57427 -0.1926,-0.81077 0.0729,-0.11819 0.29887,-0.007 0.40538,-0.0963 0.30124,-0.25214 0.31692,-0.75123 0.61815,-1.00337 0.10649,-0.0892 0.33254,0.0219 0.40539,-0.0963 0.0729,-0.1182 -0.23143,-0.37327 -0.0963,-0.40538 0.80997,-0.19243 0.39537,0.9357 0.69428,1.11985 0.1182,0.0729 0.28714,-0.16916 0.40539,-0.0963 0.23652,0.14566 -0.0439,0.66506 0.19261,0.81077 0.1182,0.0729 0.28714,-0.16916 0.40539,-0.0963 0.1182,0.0729 0.0642,0.27025 0.0963,0.40539 0.0321,0.13516 0.0642,0.27026 0.0963,0.40537 0.0321,0.13516 0.12841,0.54052 0.0963,0.4054 -0.0642,-0.27026 -0.46286,-0.74657 -0.19262,-0.81077 1.11629,-0.26519 0.33429,0.89804 0.69431,1.11985 0.23652,0.14565 0.57426,-0.33832 0.81076,-0.19261 0.1182,0.0729 -0.0219,0.33252 0.0963,0.40538 0.49491,0.3049 0.61343,-1.02328 0.90708,0.21278 0.29363,1.23604 0.41224,-0.0918 0.90705,0.21278 0.1182,0.0729 -0.0219,0.33252 0.0963,0.40536 0.0499,0.0312 1.18526,-0.23871 1.21616,-0.2889 0.0728,-0.11827 -0.0868,-0.26682 -0.0963,-0.40539 -0.0482,-0.70655 -0.0507,-1.41548 -0.0761,-2.12323 z"
       id="path3820-0-1"
       inkscape:connector-curvature="0" />
  </g>
</svg>
