<?xml version="1.0" encoding="UTF-8" standalone="no"?>
<!-- Created with Inkscape (http://www.inkscape.org/) -->

<svg
   xmlns:dc="http://purl.org/dc/elements/1.1/"
   xmlns:cc="http://creativecommons.org/ns#"
   xmlns:rdf="http://www.w3.org/1999/02/22-rdf-syntax-ns#"
   xmlns:svg="http://www.w3.org/2000/svg"
   xmlns="http://www.w3.org/2000/svg"
   xmlns:sodipodi="http://sodipodi.sourceforge.net/DTD/sodipodi-0.dtd"
   xmlns:inkscape="http://www.inkscape.org/namespaces/inkscape"
   width="800px"
   height="600px"
   id="svg12335"
   version="1.1"
   inkscape:version="0.48.1 r9760"
   sodipodi:docname="restriction.svg">
  <defs
     id="defs12337" />
  <sodipodi:namedview
     id="base"
     pagecolor="#ffffff"
     bordercolor="#666666"
     borderopacity="1.0"
     inkscape:pageopacity="0.0"
     inkscape:pageshadow="2"
     inkscape:zoom="0.84852814"
     inkscape:cx="374.43404"
     inkscape:cy="411.46172"
     inkscape:current-layer="layer1"
     inkscape:document-units="px"
     showgrid="false"
     inkscape:window-width="1024"
     inkscape:window-height="549"
     inkscape:window-x="0"
     inkscape:window-y="25"
     inkscape:window-maximized="1" />
  <metadata
     id="metadata12340">
    <rdf:RDF>
      <cc:Work
         rdf:about="">
        <dc:format>image/svg+xml</dc:format>
        <dc:type
           rdf:resource="http://purl.org/dc/dcmitype/StillImage" />
        <dc:title />
      </cc:Work>
    </rdf:RDF>
  </metadata>
  <g
     id="layer1"
     inkscape:label="Layer 1"
     inkscape:groupmode="layer">
    <text
       xml:space="preserve"
       style="font-size:33.01239777px;font-style:normal;font-weight:normal;line-height:125%;letter-spacing:0px;word-spacing:0px;fill:#000000;fill-opacity:1;stroke:none;font-family:Sans"
       x="194.1059"
       y="97.769508"
       id="text12343"
       sodipodi:linespacing="125%"><tspan
         sodipodi:role="line"
         id="tspan12345"
         x="194.1059"
         y="97.769508">TGCGAG</tspan></text>
    <text
       xml:space="preserve"
       style="font-size:33.01239777px;font-style:normal;font-weight:normal;line-height:125%;letter-spacing:0px;word-spacing:0px;fill:#000000;fill-opacity:1;stroke:none;font-family:Sans"
       x="200.91437"
       y="128.89388"
       id="text12347"
       sodipodi:linespacing="125%"><tspan
         sodipodi:role="line"
         id="tspan12349"
         x="200.91437"
         y="128.89388">ACGCTC</tspan></text>
    <text
       xml:space="preserve"
       style="font-size:33.01239777px;font-style:normal;font-weight:normal;line-height:125%;letter-spacing:0px;word-spacing:0px;fill:#0000ff;fill-opacity:1;stroke:none;font-family:Sans"
       x="337.08356"
       y="98.742142"
       id="text12351"
       sodipodi:linespacing="125%"><tspan
         sodipodi:role="line"
         id="tspan12353"
         x="337.08356"
         y="98.742142">GAATTC</tspan></text>
    <text
       xml:space="preserve"
       style="font-size:33.01239777px;font-style:normal;font-weight:normal;line-height:125%;letter-spacing:0px;word-spacing:0px;fill:#0000ff;fill-opacity:1;stroke:none;font-family:Sans"
       x="338.05618"
       y="129.8665"
       id="text12355"
       sodipodi:linespacing="125%"><tspan
         sodipodi:role="line"
         id="tspan12357"
         x="338.05618"
         y="129.8665">CTTAAG</tspan></text>
    <text
       xml:space="preserve"
       style="font-size:33.01239777px;font-style:normal;font-weight:normal;line-height:125%;letter-spacing:0px;word-spacing:0px;fill:#000000;fill-opacity:1;stroke:none;font-family:Sans"
       x="468.38959"
       y="97.769508"
       id="text12359"
       sodipodi:linespacing="125%"><tspan
         sodipodi:role="line"
         id="tspan12361"
         x="468.38959"
         y="97.769508">GCTAGA</tspan></text>
    <text
       xml:space="preserve"
       style="font-size:33.01239777px;font-style:normal;font-weight:normal;line-height:125%;letter-spacing:0px;word-spacing:0px;fill:#000000;fill-opacity:1;stroke:none;font-family:Sans"
       x="471.30743"
       y="126.94861"
       id="text12363"
       sodipodi:linespacing="125%"><tspan
         sodipodi:role="line"
         id="tspan12365"
         x="471.30743"
         y="126.94861">CGATCT</tspan></text>
    <text
       xml:space="preserve"
       style="font-size:33.01239777px;font-style:normal;font-weight:normal;line-height:125%;letter-spacing:0px;word-spacing:0px;fill:#000000;fill-opacity:1;stroke:none;font-family:Sans"
       x="130.88449"
       y="103.60532"
       id="text12367"
       sodipodi:linespacing="125%"><tspan
         sodipodi:role="line"
         id="tspan12369"
         x="130.88449"
         y="103.60532">....</tspan></text>
    <text
       xml:space="preserve"
       style="font-size:33.01239777px;font-style:normal;font-weight:normal;line-height:125%;letter-spacing:0px;word-spacing:0px;fill:#000000;fill-opacity:1;stroke:none;font-family:Sans"
       x="618.17572"
       y="101.66004"
       id="text12371"
       sodipodi:linespacing="125%"><tspan
         sodipodi:role="line"
         id="tspan12373"
         x="618.17572"
         y="101.66004">....</tspan></text>
    <text
       xml:space="preserve"
       style="font-size:33.01239777px;font-style:normal;font-weight:normal;line-height:125%;letter-spacing:0px;word-spacing:0px;fill:#000000;fill-opacity:1;stroke:none;font-family:Sans"
       x="146.36293"
       y="230.39348"
       id="text12343-0"
       sodipodi:linespacing="125%"><tspan
         sodipodi:role="line"
         id="tspan12345-9"
         x="146.36293"
         y="230.39348">TGCGAG</tspan></text>
    <text
       xml:space="preserve"
       style="font-size:33.01239777px;font-style:normal;font-weight:normal;line-height:125%;letter-spacing:0px;word-spacing:0px;fill:#000000;fill-opacity:1;stroke:none;font-family:Sans"
       x="149.28085"
       y="263.46313"
       id="text12347-2"
       sodipodi:linespacing="125%"><tspan
         sodipodi:role="line"
         id="tspan12349-7"
         x="149.28085"
         y="263.46313">ACGCTC</tspan></text>
    <text
       xml:space="preserve"
       style="font-size:33.01239777px;font-style:normal;font-weight:normal;line-height:125%;letter-spacing:0px;word-spacing:0px;fill:#0000ff;fill-opacity:1;stroke:none;font-family:Sans"
       x="424.53714"
       y="231.3661"
       id="text12351-4"
       sodipodi:linespacing="125%"><tspan
         sodipodi:role="line"
         id="tspan12353-5"
         x="424.53714"
         y="231.3661">AATTC</tspan></text>
    <text
       xml:space="preserve"
       style="font-size:33.01239777px;font-style:normal;font-weight:normal;line-height:125%;letter-spacing:0px;word-spacing:0px;fill:#0000ff;fill-opacity:1;stroke:none;font-family:Sans"
       x="284.47742"
       y="262.49048"
       id="text12355-0"
       sodipodi:linespacing="125%"><tspan
         sodipodi:role="line"
         id="tspan12357-9"
         x="284.47742"
         y="262.49048">CTTAA</tspan></text>
    <text
       xml:space="preserve"
       style="font-size:33.01239777px;font-style:normal;font-weight:normal;line-height:125%;letter-spacing:0px;word-spacing:0px;fill:#000000;fill-opacity:1;stroke:none;font-family:Sans"
       x="529.63672"
       y="230.39348"
       id="text12359-2"
       sodipodi:linespacing="125%"><tspan
         sodipodi:role="line"
         id="tspan12361-1"
         x="529.63672"
         y="230.39348">GCTAGA</tspan></text>
    <text
       xml:space="preserve"
       style="font-size:33.01239777px;font-style:normal;font-weight:normal;line-height:125%;letter-spacing:0px;word-spacing:0px;fill:#000000;fill-opacity:1;stroke:none;font-family:Sans"
       x="530.55457"
       y="261.57257"
       id="text12363-6"
       sodipodi:linespacing="125%"><tspan
         sodipodi:role="line"
         id="tspan12365-0"
         x="530.55457"
         y="261.57257">CGATCT</tspan></text>
    <text
       xml:space="preserve"
       style="font-size:33.01239777px;font-style:normal;font-weight:normal;line-height:125%;letter-spacing:0px;word-spacing:0px;fill:#000000;fill-opacity:1;stroke:none;font-family:Sans"
       x="83.141518"
       y="236.22928"
       id="text12367-8"
       sodipodi:linespacing="125%"><tspan
         sodipodi:role="line"
         id="tspan12369-1"
         x="83.141518"
         y="236.22928">....</tspan></text>
    <text
       xml:space="preserve"
       style="font-size:33.01239777px;font-style:normal;font-weight:normal;line-height:125%;letter-spacing:0px;word-spacing:0px;fill:#000000;fill-opacity:1;stroke:none;font-family:Sans"
       x="677.42285"
       y="234.284"
       id="text12371-5"
       sodipodi:linespacing="125%"><tspan
         sodipodi:role="line"
         id="tspan12373-9"
         x="677.42285"
         y="234.284">....</tspan></text>
    <text
       xml:space="preserve"
       style="font-size:33.01239777px;font-style:normal;font-weight:normal;line-height:125%;letter-spacing:0px;word-spacing:0px;fill:#0000ff;fill-opacity:1;stroke:none;font-family:Sans"
       x="286.42892"
       y="230.7576"
       id="text12438"
       sodipodi:linespacing="125%"><tspan
         sodipodi:role="line"
         id="tspan12440"
         x="286.42892"
         y="230.7576">G</tspan></text>
    <text
       xml:space="preserve"
       style="font-size:33.01239777px;font-style:normal;font-weight:normal;line-height:125%;letter-spacing:0px;word-spacing:0px;fill:#0000ff;fill-opacity:1;stroke:none;font-family:Sans"
       x="506.44876"
       y="261.86145"
       id="text12438-1"
       sodipodi:linespacing="125%"><tspan
         sodipodi:role="line"
         id="tspan12440-1"
         x="506.44876"
         y="261.86145">G</tspan></text>
    <path
       style="fill:#aa0000;fill-opacity:0.00423728;stroke:#d40000;stroke-width:2.47592998;stroke-miterlimit:4;stroke-opacity:1;stroke-dasharray:none"
       d="m 464.49903,70.535654 c 0,-2.269487 0,-4.538973 0,-6.80846 0,-0.648424 0.12716,-1.309441 0,-1.945274 -0.20107,-1.00534 -0.72398,-1.923273 -0.97264,-2.917912 -0.20804,-0.832124 0,-3.891024 0,-4.863185 0,-0.324212 0,-0.648425 0,-0.972637 0,-0.324212 0.14499,-0.682653 0,-0.972638 -0.20505,-0.410099 -0.76759,-0.562537 -0.97264,-0.972636 -0.67081,-1.341614 1.17792,-0.869998 -0.97264,-1.945275 -0.28998,-0.144992 -0.68265,0.144993 -0.97264,0 -0.41009,-0.20505 -0.56253,-0.767587 -0.97263,-0.972637 -0.35451,-0.177251 -4.30276,0 -4.86318,0 -0.32422,0 -0.64843,0 -0.97265,0 -0.3242,0 -0.68264,-0.144992 -0.97263,0 -0.4101,0.20505 -0.59114,0.718304 -0.97264,0.972637 -7.05218,3.526092 1.53788,-1.02525 -2.91791,1.945275 -0.6032,0.402136 -1.34207,0.570501 -1.94527,0.972636 -0.38151,0.254334 -0.64843,0.648426 -0.97264,0.972638 -0.32421,0.324212 -0.76759,0.562537 -0.97264,0.972637 -0.14499,0.289984 0.14499,0.682653 0,0.972637 -0.20505,0.4101 -0.76759,0.562538 -0.97264,0.972638 -0.14499,0.289984 0,0.648424 0,0.972636 0,0.972637 -0.30757,1.995187 0,2.917912 0.27822,0.834633 2.47106,1.796321 2.91792,1.945274 0.30757,0.102525 0.6581,-0.07864 0.97264,0 2.63269,-1.653066 2.51502,1.486768 3.89054,1.945274 0.61515,0.20505 1.29685,0 1.94527,0 0.97265,0 1.94528,0 2.91792,0 0.32421,0 0.97264,-0.324212 0.97264,0 0,0.324213 -0.74339,-0.229253 -0.97264,0 -0.22925,0.229253 0.22925,0.743384 0,0.972637 -0.51262,0.512625 -1.25752,0.743385 -1.94527,0.972638 -0.30758,0.102525 -0.74339,-0.229253 -0.97265,0 -0.22924,0.229252 0.28999,0.827645 0,0.972637 -0.57996,0.289984 -1.29684,0 -1.94527,0 -0.32421,0 -0.74338,-0.229253 -0.97263,0 -0.22926,0.229253 0.22925,0.743384 0,0.972637 -0.22926,0.229253 -0.64843,0 -0.97264,0 -0.32422,0 -0.64843,0 -0.97264,0 -0.97263,0 -1.99518,0.307575 -2.91791,0 -0.43497,-0.144992 -0.56253,-0.767587 -0.97264,-0.972637 -0.28998,-0.144992 -0.68265,0.144992 -0.97264,0 -0.41009,-0.20505 -0.53765,-0.827645 -0.97263,-0.972637 -0.61515,-0.20505 -1.33013,0.20505 -1.94527,0 -0.43498,-0.144993 -0.56254,-0.767588 -0.97264,-0.972638 -0.28999,-0.144992 -0.66507,0.102525 -0.97264,0 -0.68776,-0.229253 -1.25751,-0.743384 -1.94528,-0.972637 -0.61514,-0.20505 -1.3653,0.289985 -1.94527,0 -4.45137,-2.225689 4.1273,0.403131 -2.91791,-1.945274 -0.37847,-0.126159 -2.76697,0.150941 -2.91791,0 -0.22926,-0.229252 0.14499,-0.682653 0,-0.972637 -0.20505,-0.4101 -0.76759,-0.562537 -0.97264,-0.972637 -0.14499,-0.289984 0,-0.648425 0,-0.972638 0,-0.324212 -0.14499,-0.682652 0,-0.972637 0.20505,-0.410099 0.76759,-0.562537 0.97264,-0.972637 0.14499,-0.289984 -0.14499,-0.682652 0,-0.972636 0.20505,-0.4101 0.71831,-0.591139 0.97263,-0.972638 0.94494,-1.417406 0.60723,-2.025873 1.94528,-2.917912 1.20641,-0.804272 2.68414,-1.141001 3.89055,-1.945273 0.3815,-0.254334 0.64842,-0.648425 0.97263,-0.972638 0.97264,-0.972637 1.94528,-1.945274 2.91792,-2.917911 0.32421,-0.324213 0.56253,-0.767588 0.97264,-0.972637 0.28998,-0.144993 0.68264,0.144992 0.97263,0 0.4101,-0.20505 0.53766,-0.827645 0.97264,-0.972637 0.61515,-0.20505 1.33013,0.20505 1.94527,0 0.43498,-0.144992 0.56254,-0.767587 0.97264,-0.972637 0.57997,-0.289985 1.36531,0.289984 1.94528,0 0.41009,-0.20505 0.56253,-0.767588 0.97263,-0.972638 0.28998,-0.144992 0.64842,0 0.97264,0 0.38449,0 4.44778,-0.207698 4.86319,0 0.82019,0.4101 1.12507,1.535175 1.94527,1.945275 0.28998,0.144992 0.68266,-0.144992 0.97264,0 0.41009,0.20505 0.51413,0.972637 0.97263,0.972637 0.32422,0 0,-0.648425 0,-0.972637 0,-0.438035 0.14801,-2.621905 0,-2.917912 -0.20505,-0.4101 -0.64842,-0.648424 -0.97263,-0.972637 -0.32422,-0.324212 -0.56254,-0.767587 -0.97264,-0.972637 -2.37258,-1.186289 -4.30441,-0.972637 -6.80846,-0.972637 -0.97264,0 -2.01484,-0.361229 -2.91791,0 -0.85143,0.340569 -1.21167,1.395067 -1.94528,1.945274 -1.71184,1.283881 -4.12398,1.634031 -5.83582,2.917912 -0.73361,0.550206 -1.15895,1.473475 -1.94528,1.945274 -0.56214,0.337286 -3.441,0.596656 -3.89054,1.945274 -0.024,0.07216 -0.10678,5.622272 0,5.835823 0.20505,0.4101 0.76759,0.562537 0.97264,0.972637 0.14499,0.289984 -0.14499,0.682653 0,0.972637 0.78662,1.573261 2.91529,1.455032 3.89054,2.917911 0.40214,0.603205 0.46001,1.43265 0.97264,1.945275 0.22925,0.229253 0.74339,-0.229253 0.97264,0 0.22925,0.229253 0,0.648425 0,0.972637 0,0.324212 0.22925,0.743385 0,0.972637 -0.22925,0.229253 -0.74339,-0.229252 -0.97264,0 -0.22925,0.229253 0.22925,0.743384 0,0.972637 -0.22925,0.229253 -0.66506,-0.102525 -0.97264,0 -0.68776,0.229253 -1.23439,0.83046 -1.94527,0.972637 -1.9075,0.3815 -3.92833,-0.381499 -5.83583,0 -0.71088,0.142176 -1.24196,0.796808 -1.94527,0.972637 -0.62907,0.157266 -1.29685,0 -1.94527,0 -0.64843,0 -1.29685,0 -1.94527,0 -1.62107,0 -3.24213,0 -4.86319,0 -0.32422,0 -0.68266,0.144992 -0.97264,0 -0.4101,-0.20505 -0.64843,-0.648424 -0.97263,-0.972637 -0.32422,-0.324212 -0.76759,-0.562537 -0.97265,-0.972637 -0.0936,-0.187166 -0.0181,-4.808676 0,-4.863186 0.22926,-0.687758 0.79681,-1.241958 0.97265,-1.945273 0,-6.451663 -0.45851,1.375516 0.97263,-2.917912 0.20505,-0.61515 -0.20505,-1.330125 0,-1.945274 0.28998,-0.869953 1.43661,-1.182275 1.94527,-1.945275 0.59233,-0.888492 0.83023,-2.360387 1.94528,-2.917911 0.28999,-0.144993 0.68265,0.144992 0.97263,0 0.41011,-0.20505 0.56254,-0.767588 0.97265,-0.972637 0.28998,-0.144993 0.64842,0 0.97263,0 0.32421,0 0.64842,0 0.97264,0 0.67651,0 4.51145,-0.175869 4.86318,0 0.4101,0.205049 0.59114,0.718304 0.97264,0.972637 0.60321,0.402136 1.43265,0.460012 1.94528,0.972637 0.51262,0.512625 0.5705,1.342071 0.97263,1.945274 0.25434,0.3815 0.64842,0.648425 0.97264,0.972638 0.32421,0.324212 0.59113,0.718303 0.97263,0.972637 0.60321,0.402136 1.34207,0.570501 1.94528,0.972636 1.30155,0.8677 1.94528,2.391282 1.94528,3.89055 0,0.324212 0,0.648424 0,0.972636 0,0.324213 0.14499,0.682653 0,0.972637 -0.20505,0.4101 -0.64843,0.648425 -0.97264,0.972637 -0.32421,0.324213 -0.56254,0.767588 -0.97264,0.972638 -0.28998,0.144992 -0.66506,-0.102525 -0.97264,0 -0.68776,0.229253 -1.23439,0.830461 -1.94527,0.972637 -0.95375,0.19075 -1.95851,-0.159901 -2.91791,0 -1.0113,0.16855 -1.90661,0.804087 -2.91792,0.972637 -0.95939,0.1599 -1.94527,0 -2.9179,0 -1.62107,0 -3.24213,0 -4.86319,0 -1.29685,0 -2.60372,-0.160854 -3.89055,0 -1.32644,0.165804 -2.56197,0.825017 -3.89055,0.972637 -1.61115,0.179017 -3.24212,0 -4.86318,0 -0.97264,0 -1.97431,-0.235899 -2.91792,0 -0.44481,0.111204 -0.53765,0.827645 -0.97263,0.972637 -1.17669,0.392229 -4.51096,-0.331216 -5.83583,0 -4.6968,1.174203 0.0482,0.462216 -2.91791,1.945275 -0.28998,0.144992 -0.68265,-0.144993 -0.97263,0 -0.54043,0.270215 -1.63166,1.945274 -1.94528,1.945274 -0.32421,0 0,-0.648425 0,-0.972637 0,-0.648425 0,-1.29685 0,-1.945275 0,-0.648424 -0.15726,-1.316209 0,-1.945274 0.55376,-2.215037 1.5086,-2.128904 2.91791,-3.890549 4.84176,-6.052196 -1.52583,0.493276 4.86319,-6.80846 4.3441,-4.964691 3.0356,-2.853882 7.7811,-6.808459 1.40893,-1.174113 2.42332,-2.790136 3.89054,-3.890549 0.57997,-0.434976 1.32363,-0.599648 1.94528,-0.972637 1.00238,-0.601427 1.91553,-1.343847 2.91791,-1.945274 0.62165,-0.372989 1.34207,-0.570502 1.94527,-0.972637 0.3815,-0.254333 0.56254,-0.767587 0.97264,-0.972637 0.28999,-0.144993 0.74338,0.229252 0.97264,0 0.22925,-0.229253 -0.22926,-0.743385 0,-0.972638 0.22925,-0.229253 0.97263,-0.324212 0.97263,0 0,0.324213 -0.64842,0 -0.97263,0 -2.26949,0 -4.53898,0 -6.80846,0 -0.32421,0 -0.64843,0 -0.97264,0 -0.32421,0 -0.68265,-0.144992 -0.97264,0 -0.41009,0.20505 -0.53765,0.827645 -0.97263,0.972638 -0.61516,0.20505 -1.29685,0 -1.94527,0 -0.32422,0 -0.68266,-0.144993 -0.97264,0 -0.8202,0.4101 -1.07532,1.65529 -1.94528,1.945274 -0.61515,0.20505 -1.33012,-0.20505 -1.94527,0 -0.43498,0.144992 -0.59114,0.718304 -0.97264,0.972637 -1.4174,0.944937 -2.02587,0.607216 -2.91791,1.945274 -0.40214,0.603204 -0.5705,1.342071 -0.97264,1.945275 -0.25433,0.381499 -0.76759,0.562537 -0.97264,0.972637 -0.14499,0.289984 0.14499,0.682652 0,0.972637 -0.20505,0.410099 -0.76759,0.562537 -0.97263,0.972637 -0.10677,0.21355 -0.024,5.763666 0,5.835822 0.14499,0.434978 0.82764,0.537661 0.97263,0.972638 0.20505,0.61515 -0.15726,1.316209 0,1.945274 0.75272,3.010867 1.25693,1.12225 2.91792,3.890548 0.52748,0.879145 0.51413,2.000901 0.97264,2.917912 0.20504,0.4101 0.64842,0.648425 0.97263,0.972637 0.32422,0.324213 0.59114,0.718304 0.97264,0.972637 0.6032,0.402136 1.34207,0.570502 1.94527,0.972637 0.3815,0.254333 0.59114,0.718305 0.97264,0.972638 0.60321,0.402135 1.34207,0.5705 1.94528,0.972637 0.3815,0.254333 0.56253,0.767587 0.97263,0.972637 0.57997,0.289984 1.94527,-0.648425 1.94527,0 0,0.324212 -0.64842,0 -0.97263,0 -0.64842,0 -1.29685,0 -1.94527,0 -1.01148,0 -5.07073,0.191273 -5.83583,0 -0.70331,-0.175829 -1.25752,-0.743384 -1.94527,-0.972637 -2.53633,-0.845443 -5.21045,-1.210801 -7.7811,-1.945275 -6.76284,-1.93224 1.49138,0.194527 -6.80846,-2.917911 -1.25165,-0.469368 -2.69492,-0.374819 -3.89055,-0.972637 -1.34838,-0.674192 -5.83512,-4.375806 -6.80846,-5.835823 -0.56871,-0.85306 -0.69098,-1.932109 -0.97264,-2.917912 -0.36724,-1.285328 -0.75287,-2.571974 -0.97263,-3.890548 -0.19168,-1.15008 0,-2.685809 0,-3.890548 0,-0.560431 -0.17726,-4.508684 0,-4.863186 0.20504,-0.4101 0.76758,-0.562537 0.97263,-0.972637 0.28999,-0.579969 -0.4585,-1.486769 0,-1.945274 0.45851,-0.458506 1.36531,0.289984 1.94527,0 0.41011,-0.20505 0.56254,-0.767588 0.97265,-0.972638 0.28998,-0.144992 0.64842,0 0.97264,0 0.3242,0 0.74338,-0.229253 0.97263,0 0.22926,0.229253 0,0.648425 0,0.972638 0,0.324212 0,0.648425 0,0.972637 0,2.269487 0,4.538973 0,6.80846 0,0.972637 -0.2359,1.974314 0,2.917911 0.1112,0.444816 0.7183,0.591137 0.97264,0.972637 0.40213,0.603204 0.5705,1.34207 0.97263,1.945275 0.25434,0.381499 0.71831,0.591137 0.97264,0.972637 1.07979,1.619671 1.79105,4.333349 2.91792,5.835822 0.5502,0.733609 1.29684,1.29685 1.94527,1.945274 4.20693,4.206939 -0.25766,0.152438 3.89054,2.917912 0.3815,0.254333 0.53767,0.827645 0.97264,0.972637 0.92273,0.307575 1.94528,0 2.91791,0 0.32422,0 0.68266,0.144993 0.97264,0 0.25825,-0.129123 2.78879,-2.659666 2.91791,-2.917911 0.145,-0.289984 -0.10252,-0.665063 0,-0.972638 0.22925,-0.687758 0.74339,-1.257516 0.97264,-1.945274 0.10252,-0.307574 -0.145,-0.682652 0,-0.972636 0.20505,-0.4101 0.76758,-0.562538 0.97264,-0.972638 0.14499,-0.289984 0,-0.648425 0,-0.972637 0,-0.324212 0.22925,-0.743385 0,-0.972637 -0.22926,-0.229253 -0.68266,0.144992 -0.97264,0 -0.4101,-0.20505 -0.56254,-0.767588 -0.97264,-0.972638 -0.28998,-0.144992 -0.68265,0.144992 -0.97264,0 -0.41009,-0.20505 -0.56253,-0.767587 -0.97263,-0.972636 -0.28998,-0.144993 -0.68266,-0.144993 -0.97264,0 -0.4101,0.205049 -0.64842,0.648424 -0.97264,0.972636 -0.62291,0.622915 -2.98034,3.283744 -3.89055,3.89055 -0.6032,0.402135 -1.43265,0.460012 -1.94527,0.972636 -0.51262,0.512625 -0.5705,1.342071 -0.97264,1.945274 -0.25433,0.381501 -0.76758,0.562538 -0.97263,0.972638 -0.14499,0.289984 0.10252,0.665062 0,0.972637 -0.22926,0.687758 -0.57051,1.34207 -0.97264,1.945274 -0.27484,0.412265 -2.51549,2.716697 -2.91791,2.917912 -0.77812,0.389054 -2.1398,-0.389055 -2.91791,0 -0.4101,0.20505 -0.53767,0.827645 -0.97264,0.972637 -0.61515,0.20505 -1.31621,-0.157266 -1.94527,0 -0.70332,0.175829 -1.25752,0.743384 -1.94528,0.972637 -0.30758,0.102525 -0.64842,0 -0.97264,0 -0.64842,0 -1.29685,0 -1.94527,0 -1.62107,0 -3.24212,0 -4.86319,0 -0.3242,0 -0.74338,0.229253 -0.97263,0 -0.22926,-0.229253 0.14499,-0.682653 0,-0.972637 -0.37149,-0.742987 -2.69837,-2.25929 -2.91791,-2.917912 -0.48632,-1.458955 0.48631,-3.40423 0,-4.863186 -0.14499,-0.434976 -0.76759,-0.562537 -0.97264,-0.972637 -0.16055,-0.321083 -0.0279,-4.807424 0,-4.863185 0.79736,-1.594723 3.47443,-2.084661 4.86318,-2.917911 0.97264,-0.648425 1.94528,-1.29685 2.91792,-1.945275 0.97263,-0.324212 2.03876,-0.445151 2.91791,-0.972637 0.78633,-0.471798 1.12507,-1.535175 1.94527,-1.945274 0.57997,-0.289985 1.31621,0.157266 1.94528,0 1.76041,0.586236 1.80893,-1.575615 2.91791,-1.945274 0.61515,-0.20505 1.3653,0.289984 1.94527,0 0.28999,-0.144992 -0.14499,-0.682653 0,-0.972638 0.20505,-0.4101 0.76759,-0.562537 0.97264,-0.972637 0.14499,-0.289984 0,-0.648424 0,-0.972637 0,-0.864566 0.22925,-1.544644 -0.97264,-1.945274 -0.61515,-0.20505 -1.31621,0.157266 -1.94527,0 -0.70332,-0.175829 -1.24196,-0.796808 -1.94527,-0.972637 -0.62907,-0.157266 -1.29686,0 -1.94529,0 -0.64842,0 -1.29684,0 -1.94527,0 -0.33135,0 -3.36415,0.175466 -3.89054,0 -0.68777,-0.229253 -1.24196,-0.796809 -1.94528,-0.972637 -4e-4,-1.01e-4 -4.66031,-0.101436 -4.86318,0 -0.41011,0.20505 -0.53767,0.827645 -0.97264,0.972637 -0.61515,0.20505 -1.33013,-0.20505 -1.94528,0 -0.43497,0.144992 -0.64842,0.648424 -0.97263,0.972637 -0.32421,0.324212 -0.64843,0.648424 -0.97264,0.972637 -0.57205,0.572051 -3.66534,3.440141 -3.89055,3.890549 -0.12787,0.255746 0,3.381936 0,3.890548 0,0.783007 -0.20349,3.280069 0,3.890549 2.34841,7.045215 -0.28041,-1.533468 1.94528,2.917911 0.14499,0.289984 -0.14499,0.682653 0,0.972637 0.20505,0.4101 0.76758,0.562538 0.97263,0.972638 0.14499,0.289984 0,0.648424 0,0.972636 0,0.324213 0,0.648425 0,0.972637 0,1.621063 0,3.242124 0,4.863186 0,0.357188 0.0391,3.851408 0,3.890549 -0.22925,0.229253 -0.74338,-0.229253 -0.97263,0 -0.22926,0.229253 0.22925,0.743384 0,0.972637 -0.22926,0.229253 -0.68266,-0.144992 -0.97264,0 -0.4101,0.20505 -0.56254,0.767587 -0.97264,0.972637 -0.28998,0.144992 -0.68265,-0.144993 -0.97264,0 -0.4101,0.205049 -0.56253,0.767587 -0.97264,0.972637 -0.28998,0.144992 -0.68264,-0.144992 -0.97263,0 -0.4101,0.20505 -0.56254,0.767587 -0.97264,0.972637 -0.28998,0.144992 -0.64842,0 -0.97263,0 -0.32422,0 -0.64843,0 -0.97264,0 -0.3845,0 -4.44779,0.207698 -4.86319,0 -0.41009,-0.20505 -0.56254,-0.767587 -0.97263,-0.972637 -0.57997,-0.289984 -1.36531,0.289984 -1.94528,0 -0.4101,-0.20505 -0.56254,-0.767588 -0.97263,-0.972637 -0.38565,-0.192822 -2.71908,0.198842 -2.91792,0 -0.22925,-0.229253 0,-0.648425 0,-0.972637 0,-0.648425 0,-1.29685 0,-1.945274 0,-1.129884 -0.22043,-3.981445 0,-4.863186 0.35166,-1.406631 1.48677,-2.515032 1.94527,-3.890549 0.22301,-0.669011 -0.28693,-2.344036 0,-2.917911 0.20506,-0.4101 0.76759,-0.562537 0.97265,-0.972637 0.28998,-0.579969 -0.28999,-1.365306 0,-1.945274 0.20505,-0.4101 0.82764,-0.537661 0.97263,-0.972637 0,-4.427722 -0.45851,-0.05563 0.97264,-2.917912 0.28998,-0.579969 -0.45851,-1.486769 0,-1.945274 0.22925,-0.229253 0.74338,0.229253 0.97264,0 0.4585,-0.458506 -0.45851,-1.486769 0,-1.945274 0.22925,-0.229253 0.74338,-0.229253 0.97263,0 0.0313,0.03128 0,2.68202 0,2.917911 0,2.593699 0,5.187398 0,7.781097 0,0.648425 0,1.296849 0,1.945275 0,0.648424 -0.15726,1.316209 0,1.945273 0.17583,0.703315 0.79681,1.241959 0.97264,1.945275 0.15727,0.629064 -0.15726,1.316209 0,1.945274 0.17583,0.703316 0.64843,1.29685 0.97263,1.945274 0.32422,0.648425 0.53767,1.365306 0.97265,1.945275 0.90806,1.210761 3.75341,3.753417 4.86318,4.863185 3.22583,3.225831 -0.91701,-0.458506 1.94527,0.972637 0.41011,0.20505 0.53767,0.827646 0.97264,0.972638 0.61515,0.20505 1.29685,0 1.94528,0 0.32421,0 0.68265,0.144992 0.97263,0 0.4101,-0.20505 0.64842,-0.648426 0.97264,-0.972638 0.64843,-0.648425 1.43661,-1.182275 1.94527,-1.945274 1.55505,-2.33257 1.8332,-5.25008 2.91792,-7.781097 0.57115,-1.332689 1.29685,-2.593699 1.94527,-3.890549 0.64842,-1.296849 1.22592,-2.631663 1.94527,-3.890548 0.57997,-1.014946 1.4225,-1.872358 1.94528,-2.917911 0.4585,-0.917011 0.64842,-1.945275 0.97264,-2.917912 1.05866,-3.17602 1.47578,-4.025241 1.94527,-7.781097 0.12064,-0.965126 0,-1.945274 0,-2.917911 0,-0.648425 0.15726,-1.31621 0,-1.945275 0.58623,-1.760415 -1.57562,-1.808934 -1.94527,-2.917911 -0.20506,-0.61515 0.20505,-1.330124 0,-1.945274 -0.31859,-0.955756 -2.40722,-1.60481 -2.91792,-1.945275 -0.8854,-0.59027 -2.05582,-2.486868 -2.91791,-2.917911 -0.10856,-0.05428 -4.75462,-0.05428 -4.86318,0 -0.4101,0.20505 -0.56254,0.767588 -0.97264,0.972638 -2.39556,1.197779 0.87803,-2.823308 -2.91791,0.972637 -0.51262,0.512624 -0.64843,1.296849 -0.97264,1.945273 -0.32421,0.648426 -0.64842,1.29685 -0.97264,1.945275 -0.32421,0.648424 -0.7968,1.241959 -0.97264,1.945274 -0.15726,0.629065 0,1.29685 0,1.945274 0,0.324213 -0.14499,0.682653 0,0.972638 0.20506,0.4101 0.64843,0.648425 0.97264,0.972637 1.48527,1.485262 0.56254,0.767587 2.91792,1.945274 0.64842,0.324213 1.32362,0.599648 1.94527,0.972637 1.00238,0.601428 1.87236,1.422498 2.91791,1.945274 0.91702,0.458506 1.95794,0.612648 2.91791,0.972638 1.63478,0.613039 3.16938,1.521822 4.86319,1.945274 2.22408,0.556019 4.54712,0.595748 6.80845,0.972637 1.63068,0.271779 3.25938,0.571686 4.86319,0.972637 0.99464,0.248659 1.90297,0.827645 2.91791,0.972637 1.28382,0.183402 2.63243,-0.314532 3.89055,0 1.40664,0.351658 2.49642,1.54695 3.89055,1.945275 0.93521,0.267204 1.95279,-0.120642 2.91791,0 1.6404,0.20505 3.21823,0.808141 4.86319,0.972637 1.61301,0.161301 3.24213,0 4.86318,0 0.97264,0 1.95851,-0.159901 2.91792,0 1.01129,0.168549 1.91256,0.771569 2.91791,0.972636 1.09552,0.219106 2.72005,0 3.89054,0 0.32422,0 0.74339,0.229253 0.97265,0 0.22924,-0.229252 -0.22926,-0.743384 0,-0.972636 0.22924,-0.229253 0.64842,0 0.97263,0 0.64842,0 1.29685,0 1.94527,0 0.32422,0 0.68266,-0.144993 0.97264,0 1.16716,0.583582 1.75075,2.334329 2.91792,2.917911 0.57996,0.289984 1.3653,-0.289984 1.94527,0 0.4101,0.20505 1.29685,0.648425 0.97264,0.972637 -0.32422,0.324212 -1.43115,-0.972637 -0.97264,-0.972637 0.72496,0 1.25752,0.743384 1.94527,0.972637 0.30758,0.102525 0.74338,-0.229253 0.97264,0 0.22925,0.229253 -0.22926,0.743385 0,0.972638 0.0944,0.09441 4.49254,0 4.86319,0 0.32421,0 0.74338,-0.229253 0.97263,0 0.22926,0.229252 -0.22925,0.743384 0,0.972636 0.45851,0.458506 1.48677,-0.458505 1.94527,0 0.22926,0.229253 -0.22925,0.743384 0,0.972637 0.22926,0.229253 0.64843,0 0.97264,0 0.32422,0 0.68266,0.144992 0.97264,0 1.82481,-0.912402 0.41591,-1.24774 0.97264,-2.917911 0.14499,-0.434976 0.82765,-0.537661 0.97264,-0.972637 0.41009,-1.2303 -0.41011,-2.660249 0,-3.890548 0.14499,-0.434978 0.82764,-0.537661 0.97263,-0.972638 0.17994,-0.539794 0,-6.615087 0,-7.781097 0,-0.324212 0,-0.648424 0,-0.972637 0,-0.324212 0.22926,-0.743384 0,-0.972637 -0.22925,-0.229253 -0.74338,0.229253 -0.97263,0 -0.22926,-0.229253 0,-0.648425 0,-0.972637 0,-0.676509 -0.17588,-4.511447 0,-4.863186 0.55752,-1.115048 2.02942,-1.352946 2.9179,-1.945274 0.39933,-0.266218 2.71884,-2.917912 2.91792,-2.917912 0.4585,0 0.64842,0.648425 0.97264,0.972637 0.3242,0.324213 0.76759,0.562538 0.97263,0.972638 0.31845,0.636898 -0.28772,4.000036 0,4.863185 1.26262,3.787865 0.97264,0.09099 0.97264,3.890549 0,0.235891 0.0313,2.886632 0,2.917911 -0.22926,0.229253 -0.97264,0.324212 -0.97264,0 0,-0.324212 0.64842,0 0.97264,0"
       id="path9855"
       inkscape:connector-curvature="0" />
    <path
       style="fill:#aa0000;fill-opacity:0.00423728;stroke:#d40000;stroke-width:2.47592998;stroke-miterlimit:4;stroke-opacity:1;stroke-dasharray:none"
       d="m 342.41195,130.46509 c -0.0502,2.26892 -0.10039,4.53785 -0.15057,6.80679 -0.0144,0.64826 -0.15609,1.30631 -0.043,1.94479 0.17879,1.00955 0.68127,1.93882 0.90787,2.93872 0.18958,0.83651 -0.0861,3.89007 -0.10754,4.86199 -0.007,0.32413 -0.0144,0.64827 -0.0215,0.97239 -0.007,0.32414 -0.16005,0.67928 -0.0215,0.97241 0.19593,0.41454 0.75496,0.57937 0.95089,0.99391 0.64098,1.35611 -1.19686,0.84373 0.92939,1.9663 0.2867,0.15137 0.68569,-0.12985 0.9724,0.0215 0.40546,0.21406 0.54541,0.77984 0.95089,0.99391 0.35049,0.18505 4.3017,0.0952 4.86198,0.10754 0.32414,0.007 0.64828,0.0144 0.97242,0.0216 0.32412,0.007 0.67927,0.16005 0.97239,0.0215 0.41453,-0.19593 0.60688,-0.70506 0.99391,-0.95089 7.12844,-3.36928 -1.56017,0.99099 2.96021,-1.88027 0.61195,-0.3887 1.35436,-0.54068 1.96631,-0.92938 0.38704,-0.24583 0.66261,-0.63393 0.99391,-0.95089 0.33131,-0.31697 0.77985,-0.54543 0.99391,-0.95089 0.15137,-0.28671 -0.12986,-0.68569 0.0215,-0.9724 0.21406,-0.40547 0.77984,-0.54543 0.99391,-0.95089 0.15136,-0.2867 0.0144,-0.64826 0.0215,-0.9724 0.0215,-0.97239 0.35162,-1.9879 0.0645,-2.9172 -0.25969,-0.84058 -2.43073,-1.85053 -2.87419,-2.00933 -0.30522,-0.10929 -0.65968,0.064 -0.9724,-0.0215 -2.6686,1.59444 -2.48153,-1.54202 -3.84657,-2.03084 -0.61047,-0.2186 -1.29653,-0.0287 -1.9448,-0.043 -0.9724,-0.0215 -1.9448,-0.043 -2.9172,-0.0645 -0.32413,-0.007 -0.97957,0.30263 -0.9724,-0.0215 0.007,-0.32414 0.73813,0.24564 0.9724,0.0215 0.23427,-0.22413 -0.21276,-0.74826 0.0215,-0.97239 0.52383,-0.50116 1.27364,-0.71541 1.9663,-0.92938 0.30977,-0.0957 0.73814,0.24562 0.9724,0.0215 0.23427,-0.22413 -0.27161,-0.83386 0.0215,-0.9724 0.58624,-0.27709 1.29653,0.0287 1.9448,0.043 0.32414,0.007 0.73813,0.24563 0.9724,0.0215 0.23427,-0.22413 -0.21276,-0.74828 0.0215,-0.97241 0.23426,-0.22412 0.64825,0.0144 0.97239,0.0215 0.32413,0.007 0.64828,0.0144 0.9724,0.0215 0.9724,0.0215 2.0015,-0.26336 2.9172,0.0645 0.43166,0.15459 0.54542,0.77985 0.95089,0.99392 0.2867,0.15137 0.68569,-0.12987 0.9724,0.0215 0.40546,0.21406 0.51922,0.83932 0.95088,0.9939 0.61048,0.21861 1.33434,-0.17559 1.9448,0.043 0.43167,0.15457 0.54543,0.77984 0.95089,0.9939 0.28672,0.15137 0.66718,-0.0878 0.97241,0.0215 0.68251,0.24441 1.24076,0.77101 1.92328,1.01541 0.61046,0.21861 1.37139,-0.25971 1.9448,0.043 4.40107,2.32359 -4.11737,-0.49431 2.87417,2.00933 0.3756,0.13449 2.76964,-0.0897 2.91721,0.0645 0.22413,0.23426 -0.16005,0.67928 -0.0215,0.97239 0.19593,0.41454 0.75495,0.57938 0.95089,0.99391 0.13853,0.29312 -0.0144,0.64827 -0.0215,0.97241 -0.007,0.32413 0.12986,0.68569 -0.0215,0.9724 -0.21407,0.40546 -0.77985,0.54541 -0.99391,0.95089 -0.15137,0.2867 0.12986,0.68569 -0.0215,0.97239 -0.21407,0.40546 -0.7312,0.57511 -0.9939,0.95089 -0.97606,1.39616 -0.65188,2.01195 -2.00934,2.87419 -1.2239,0.77738 -2.70871,1.08136 -3.93261,1.85875 -0.38703,0.24583 -0.6626,0.63392 -0.99391,0.95089 -0.9939,0.95089 -1.98781,1.90178 -2.98173,2.85267 -0.3313,0.31696 -0.57937,0.75496 -0.99391,0.95089 -0.29312,0.13854 -0.67927,-0.16006 -0.9724,-0.0215 -0.41453,0.19593 -0.55583,0.81555 -0.9939,0.95089 -0.61954,0.1914 -1.32528,-0.23442 -1.9448,-0.043 -0.43808,0.13533 -0.57938,0.75495 -0.99391,0.95088 -0.58624,0.27709 -1.35856,-0.32011 -1.94481,-0.043 -0.41453,0.19592 -0.57936,0.75496 -0.9939,0.95088 -0.29312,0.13855 -0.64827,-0.0144 -0.9724,-0.0215 -0.3844,-0.008 -4.45129,0.10928 -4.862,-0.10755 -0.81092,-0.42814 -1.09084,-1.55968 -1.90178,-1.98781 -0.2867,-0.15138 -0.68569,0.12986 -0.97239,-0.0215 -0.40546,-0.21408 -0.49251,-0.98378 -0.95089,-0.99391 -0.32413,-0.007 -0.0144,0.64827 -0.0215,0.9724 -0.01,0.43793 -0.20596,2.61799 -0.0645,2.9172 0.19593,0.41453 0.63392,0.6626 0.95089,0.99391 0.31696,0.3313 0.54542,0.77984 0.95089,0.9939 2.34576,1.23848 4.28184,1.0676 6.78528,1.12297 0.9724,0.0216 2.00636,0.4057 2.91719,0.0645 0.85876,-0.32164 1.24223,-1.36792 1.98783,-1.90177 1.73982,-1.2457 4.15911,-1.54243 5.89893,-2.78813 0.74559,-0.53385 1.19124,-1.44749 1.98781,-1.90179 0.56947,-0.32477 3.45336,-0.52041 3.93261,-1.85876 0.0256,-0.0716 0.23109,-5.61853 0.12906,-5.8344 -0.19592,-0.41453 -0.75496,-0.57937 -0.95088,-0.9939 -0.13855,-0.29312 0.16005,-0.67927 0.0215,-0.9724 -0.75165,-1.59027 -2.88241,-1.51915 -3.82507,-3.00324 -0.3887,-0.61195 -0.42821,-1.44247 -0.92937,-1.96631 -0.22413,-0.23426 -0.74829,0.21276 -0.97241,-0.0215 -0.22413,-0.23425 0.0144,-0.64826 0.0215,-0.97239 0.007,-0.32413 -0.21276,-0.74827 0.0215,-0.9724 0.23426,-0.22413 0.73814,0.24564 0.9724,0.0215 0.23427,-0.22413 -0.21276,-0.74827 0.0215,-0.9724 0.23427,-0.22413 0.66263,0.11721 0.97241,0.0215 0.69265,-0.21398 1.25245,-0.80295 1.9663,-0.92937 1.91547,-0.33923 3.91892,0.46828 5.83439,0.12905 0.71386,-0.12642 1.25929,-0.76914 1.96631,-0.92937 0.6324,-0.14332 1.29653,0.0287 1.9448,0.043 0.64827,0.0144 1.29653,0.0287 1.9448,0.043 1.62067,0.0358 3.24133,0.0717 4.86199,0.10754 0.32414,0.007 0.6857,-0.12985 0.97241,0.0215 0.40546,0.21406 0.63392,0.6626 0.95088,0.99391 0.31697,0.3313 0.75496,0.57937 0.95089,0.9939 0.0894,0.18919 -0.0882,4.8079 -0.10754,4.862 -0.24441,0.68252 -0.82408,1.22404 -1.01543,1.92329 -0.14267,6.45008 0.48882,-1.36504 -1.03693,2.89568 -0.2186,0.61047 0.17559,1.33434 -0.043,1.94481 -0.30915,0.86332 -1.4624,1.15021 -1.98781,1.90178 -0.61183,0.87517 -0.88223,2.34144 -2.00933,2.87417 -0.29312,0.13855 -0.67928,-0.16005 -0.97239,-0.0215 -0.41455,0.19593 -0.57938,0.75496 -0.99393,0.95089 -0.29311,0.13856 -0.64826,-0.0144 -0.97239,-0.0215 -0.32413,-0.007 -0.64827,-0.0144 -0.9724,-0.0215 -0.67634,-0.0149 -4.51424,0.0761 -4.86199,-0.10755 -0.40547,-0.21406 -0.57512,-0.73119 -0.9509,-0.99391 -0.59416,-0.41538 -1.42212,-0.49158 -1.92328,-1.01542 -0.50117,-0.52383 -0.54069,-1.35436 -0.92939,-1.9663 -0.24583,-0.38704 -0.63392,-0.66262 -0.95088,-0.99391 -0.31697,-0.33131 -0.57511,-0.73121 -0.95089,-0.99391 -0.59416,-0.41538 -1.32912,-0.60005 -1.92329,-1.01542 -1.28204,-0.89627 -1.89192,-2.43372 -1.85876,-3.93261 0.007,-0.32414 0.0144,-0.64827 0.0215,-0.9724 0.007,-0.32414 -0.12986,-0.6857 0.0215,-0.97241 0.21406,-0.40546 0.66261,-0.63392 0.9939,-0.95088 0.33131,-0.31697 0.57938,-0.75496 0.99392,-0.95089 0.29311,-0.13855 0.66263,0.11721 0.9724,0.0215 0.69266,-0.21398 1.25245,-0.80296 1.9663,-0.92939 0.95773,-0.1696 1.9545,0.20318 2.9172,0.0645 1.01478,-0.14613 1.92393,-0.76172 2.93871,-0.90786 0.9627,-0.13865 1.9448,0.043 2.91719,0.0645 1.62067,0.0358 3.24133,0.0717 4.862,0.10755 1.29654,0.0287 2.59952,0.2184 3.8896,0.086 1.32978,-0.13643 2.57959,-0.76816 3.91111,-0.88636 1.61471,-0.14335 3.24133,0.0717 4.86199,0.10755 0.97241,0.0215 1.96861,0.2795 2.9172,0.0645 0.44717,-0.10134 0.55583,-0.81556 0.99391,-0.95089 1.18507,-0.36611 4.50252,0.43089 5.8344,0.12906 4.72162,-1.07005 -0.038,-0.46317 2.96021,-1.88027 0.29313,-0.13855 0.67928,0.16005 0.9724,0.0215 0.54627,-0.2582 1.67427,-1.90872 1.98783,-1.90179 0.32412,0.007 -0.0144,0.64828 -0.0215,0.97242 -0.0144,0.64825 -0.0287,1.29652 -0.043,1.94479 -0.0144,0.64827 0.12812,1.31936 -0.043,1.94479 -0.60262,2.20226 -1.55532,2.09503 -3.00325,3.82508 -4.97441,5.94364 1.53637,-0.45942 -5.01257,6.69924 -4.45283,4.86741 -3.09796,2.78605 -7.92976,6.63471 -1.43455,1.14268 -2.48444,2.73587 -3.97563,3.80357 -0.58945,0.42204 -1.33656,0.57022 -1.96631,0.92938 -1.01543,0.57911 -1.94479,1.30115 -2.96022,1.88026 -0.62975,0.35915 -1.35436,0.54069 -1.9663,0.92938 -0.38703,0.24584 -0.57938,0.75496 -0.99392,0.9509 -0.29312,0.13854 -0.73812,-0.24565 -0.97239,-0.0215 -0.23427,0.22412 0.21275,0.74827 -0.0215,0.9724 -0.23428,0.22413 -0.97957,0.30262 -0.9724,-0.0215 0.007,-0.32413 0.64826,0.0144 0.9724,0.0215 2.26893,0.0502 4.53786,0.10038 6.80679,0.15057 0.32413,0.007 0.64826,0.0144 0.9724,0.0215 0.32413,0.007 0.67928,0.16005 0.97239,0.0215 0.41454,-0.19593 0.55583,-0.81556 0.99392,-0.95089 0.61953,-0.19141 1.29653,0.0287 1.94479,0.043 0.32414,0.007 0.67929,0.16005 0.9724,0.0215 0.82907,-0.39187 1.11166,-1.63111 1.98782,-1.90179 0.61954,-0.1914 1.32526,0.23442 1.9448,0.043 0.43808,-0.13534 0.60688,-0.70506 0.99391,-0.95089 1.43795,-0.91336 2.0388,-0.56227 2.96021,-1.88027 0.41539,-0.59416 0.60005,-1.32912 1.01543,-1.92329 0.2627,-0.37578 0.77984,-0.54542 0.9939,-0.95089 0.15137,-0.28671 -0.12985,-0.68569 0.0215,-0.9724 0.21407,-0.40546 0.77984,-0.54542 0.99391,-0.95089 0.11147,-0.21114 0.15148,-5.76172 0.12906,-5.83439 -0.13533,-0.43808 -0.81555,-0.55584 -0.95089,-0.99391 -0.1914,-0.61954 0.18633,-1.31241 0.043,-1.9448 -0.68594,-3.02678 -1.2318,-1.14978 -2.83116,-3.95412 -0.50791,-0.8906 -0.46975,-2.01179 -0.90787,-2.93871 -0.19593,-0.41453 -0.63392,-0.66261 -0.95088,-0.99392 -0.31697,-0.3313 -0.57511,-0.73119 -0.95089,-0.9939 -0.59417,-0.41537 -1.32913,-0.60004 -1.92329,-1.01542 -0.37579,-0.26271 -0.57511,-0.7312 -0.95089,-0.99391 -0.59417,-0.41538 -1.32914,-0.60005 -1.92329,-1.01542 -0.37579,-0.26271 -0.54543,-0.77984 -0.95089,-0.99391 -0.57342,-0.30274 -1.95914,0.60525 -1.9448,-0.043 0.007,-0.32412 0.64826,0.0144 0.9724,0.0215 0.64826,0.0144 1.29653,0.0287 1.94479,0.043 1.01123,0.0224 5.07372,-0.0791 5.8344,0.12906 0.69925,0.19134 1.24077,0.77102 1.92329,1.01542 2.517,0.90132 5.18239,1.32573 7.73617,2.11688 6.71846,2.08133 -1.48671,-0.22746 6.74227,3.06776 1.24096,0.49694 2.68597,0.43433 3.86809,1.05844 1.33314,0.70385 5.73692,4.50378 6.67773,5.98496 0.54971,0.86543 0.64809,1.94693 0.90788,2.93872 0.33872,1.29313 0.69581,2.58799 0.88635,3.9111 0.1662,1.15404 -0.0594,2.68516 -0.086,3.8896 -0.0124,0.56029 0.0775,4.5115 -0.10756,4.862 -0.21406,0.40546 -0.77983,0.54542 -0.9939,0.95089 -0.30274,0.5734 0.42551,1.49654 -0.043,1.9448 -0.46854,0.44825 -1.35856,-0.32012 -1.94479,-0.043 -0.41454,0.19593 -0.57938,0.75496 -0.99392,0.95089 -0.29311,0.13854 -0.64826,-0.0144 -0.97239,-0.0215 -0.32414,-0.007 -0.74828,0.21275 -0.97241,-0.0215 -0.22413,-0.23428 0.0144,-0.64828 0.0215,-0.9724 0.007,-0.32414 0.0144,-0.64827 0.0215,-0.97241 0.0502,-2.26893 0.10038,-4.53786 0.15057,-6.80679 0.0215,-0.9724 0.2795,-1.96861 0.0645,-2.9172 -0.10134,-0.44717 -0.70505,-0.60688 -0.95089,-0.99391 -0.38869,-0.61194 -0.54068,-1.35436 -0.92938,-1.9663 -0.24583,-0.38704 -0.70506,-0.60688 -0.95089,-0.99391 -1.0437,-1.64315 -1.69478,-4.37191 -2.78814,-5.89893 -0.53385,-0.74559 -1.26784,-1.32521 -1.90178,-1.98782 -4.11287,-4.29895 0.26097,-0.14671 -3.82507,-3.00324 -0.37578,-0.2627 -0.51922,-0.83933 -0.95088,-0.99391 -0.9157,-0.3279 -1.94481,-0.043 -2.9172,-0.0645 -0.32414,-0.007 -0.67928,-0.16005 -0.9724,-0.0215 -0.26105,0.12338 -2.84692,2.59735 -2.98172,2.85267 -0.15138,0.28671 0.0878,0.66717 -0.0215,0.9724 -0.24441,0.68252 -0.77101,1.24078 -1.01542,1.92329 -0.10931,0.30523 0.12986,0.6857 -0.0215,0.9724 -0.21407,0.40546 -0.77983,0.54543 -0.99391,0.95089 -0.15137,0.28671 -0.0144,0.64827 -0.0215,0.9724 -0.007,0.32413 -0.24563,0.73813 -0.0215,0.9724 0.22413,0.23426 0.6857,-0.12986 0.9724,0.0215 0.40547,0.21408 0.54543,0.77984 0.9509,0.99391 0.2867,0.15137 0.68569,-0.12986 0.9724,0.0215 0.40546,0.21407 0.54542,0.77983 0.95088,0.99391 0.28671,0.15137 0.67929,0.16005 0.97241,0.0215 0.41453,-0.19594 0.6626,-0.63393 0.9939,-0.95089 0.63655,-0.60899 3.05224,-3.21703 3.97564,-3.80356 0.61195,-0.38869 1.44247,-0.42822 1.9663,-0.92938 0.52384,-0.50116 0.60005,-1.32912 1.01542,-1.92329 0.26272,-0.37578 0.77985,-0.54542 0.99392,-0.95089 0.15136,-0.28671 -0.0878,-0.66717 0.0215,-0.9724 0.2444,-0.68252 0.60004,-1.32912 1.01542,-1.92329 0.28389,-0.40608 2.57495,-2.6604 2.98173,-2.85266 0.78652,-0.37176 2.13067,0.43627 2.91719,0.0645 0.41453,-0.19594 0.55584,-0.81556 0.99391,-0.95089 0.61954,-0.1914 1.31242,0.18633 1.94479,0.043 0.70705,-0.16025 1.27365,-0.71541 1.96632,-0.92939 0.30977,-0.0957 0.64827,0.0144 0.9724,0.0215 0.64826,0.0144 1.29653,0.0287 1.94479,0.043 1.62067,0.0358 3.24133,0.0717 4.862,0.10755 0.32413,0.007 0.74828,-0.21275 0.97241,0.0215 0.22412,0.23427 -0.16006,0.67929 -0.0215,0.97241 0.35496,0.75102 2.64774,2.31841 2.85266,2.98173 0.45394,1.46935 -0.56148,3.39264 -0.10754,4.862 0.13533,0.43806 0.75496,0.57936 0.95089,0.9939 0.1534,0.32455 -0.0784,4.80687 -0.10756,4.86199 -0.83242,1.57671 -3.51968,2.00732 -4.92652,2.80965 -0.98673,0.62676 -1.97348,1.25352 -2.96022,1.88027 -0.97957,0.30263 -2.04811,0.39996 -2.9387,0.90787 -0.79657,0.45429 -1.15875,1.50992 -1.98782,1.90178 -0.58624,0.27709 -1.31241,-0.18633 -1.94481,-0.043 -1.74701,-0.62502 -1.84333,1.53523 -2.96021,1.88027 -0.61954,0.1914 -1.35855,-0.32011 -1.94479,-0.043 -0.29313,0.13854 0.12985,0.68569 -0.0215,0.9724 -0.21406,0.40546 -0.77984,0.54542 -0.99391,0.95089 -0.15137,0.2867 -0.0144,0.64825 -0.0215,0.97239 -0.0192,0.86436 -0.26336,1.5392 0.92938,1.96631 0.61046,0.21861 1.31936,-0.12812 1.9448,0.043 0.69925,0.19134 1.22403,0.82408 1.92328,1.01542 0.62544,0.17115 1.29654,0.0287 1.9448,0.043 0.64827,0.0144 1.29653,0.0287 1.94481,0.043 0.33127,0.007 3.3672,-0.10102 3.88958,0.086 0.68253,0.24441 1.22404,0.82408 1.9233,1.01543 3.9e-4,1.1e-4 4.65693,0.20446 4.86199,0.10755 0.41454,-0.19594 0.55584,-0.81556 0.99391,-0.9509 0.61954,-0.1914 1.32527,0.23442 1.9448,0.043 0.43808,-0.13535 0.66261,-0.63393 0.99392,-0.95089 0.33129,-0.31696 0.6626,-0.63393 0.9939,-0.95089 0.58456,-0.55926 3.74053,-3.35825 3.97563,-3.80356 0.1335,-0.25286 0.0748,-3.38111 0.086,-3.8896 0.0173,-0.78281 0.27599,-3.27477 0.086,-3.88959 -2.19202,-7.09543 0.24644,1.5393 -1.88026,-2.96022 -0.13855,-0.29312 0.16004,-0.67928 0.0215,-0.97241 -0.19593,-0.41452 -0.75496,-0.57937 -0.95089,-0.9939 -0.13855,-0.29312 0.0144,-0.64826 0.0215,-0.9724 0.007,-0.32414 0.0144,-0.64827 0.0215,-0.97239 0.0358,-1.62067 0.0717,-3.24133 0.10755,-4.862 0.008,-0.35711 0.0461,-3.85134 0.086,-3.8896 0.23427,-0.22413 0.73814,0.24563 0.9724,0.0215 0.23427,-0.22413 -0.21276,-0.74827 0.0215,-0.9724 0.23427,-0.22412 0.67929,0.16006 0.9724,0.0215 0.41454,-0.19593 0.57938,-0.75495 0.99391,-0.95089 0.29313,-0.13854 0.67928,0.16006 0.9724,0.0215 0.41453,-0.19593 0.57937,-0.75496 0.99392,-0.95089 0.29311,-0.13854 0.67927,0.16005 0.97239,0.0215 0.41453,-0.19593 0.57938,-0.75496 0.99391,-0.95089 0.29312,-0.13854 0.64826,0.0144 0.9724,0.0215 0.32414,0.007 0.64827,0.0144 0.9724,0.0215 0.3844,0.008 4.45129,-0.10928 4.86199,0.10755 0.40547,0.21407 0.54543,0.77984 0.95089,0.9939 0.57342,0.30275 1.37139,-0.25971 1.9448,0.043 0.40547,0.21407 0.54543,0.77985 0.95089,0.99391 0.38128,0.20131 2.72281,-0.13866 2.9172,0.0645 0.22413,0.23427 -0.0144,0.64827 -0.0215,0.97239 -0.0144,0.64827 -0.0287,1.29654 -0.043,1.94481 -0.025,1.1296 0.13233,3.98534 -0.10754,4.86199 -0.38268,1.39852 -1.54203,2.48154 -2.03084,3.84658 -0.23775,0.66392 0.23503,2.34981 -0.0645,2.91719 -0.21407,0.40548 -0.77984,0.54543 -0.99392,0.95089 -0.30273,0.57342 0.25973,1.3714 -0.043,1.94481 -0.21406,0.40546 -0.83933,0.51922 -0.99391,0.95089 -0.0979,4.42663 0.45717,0.0658 -1.03693,2.89568 -0.30273,0.57342 0.42553,1.49655 -0.043,1.9448 -0.23428,0.22413 -0.73814,-0.24563 -0.9724,-0.0215 -0.46854,0.44826 0.42551,1.49654 -0.043,1.9448 -0.23426,0.22412 -0.74827,0.21276 -0.9724,-0.0215 -0.0306,-0.0319 0.0593,-2.68138 0.0645,-2.91721 0.0574,-2.59306 0.11472,-5.18612 0.17208,-7.77919 0.0144,-0.64826 0.0287,-1.29654 0.043,-1.94479 0.0144,-0.64827 0.18634,-1.31242 0.043,-1.9448 -0.16024,-0.70704 -0.76916,-1.25928 -0.92938,-1.96631 -0.14332,-0.63239 0.18633,-1.31241 0.043,-1.9448 -0.16023,-0.70703 -0.61959,-1.31088 -0.92938,-1.96631 -0.30979,-0.65543 -0.50733,-1.37686 -0.92938,-1.9663 -0.88107,-1.23055 -3.66949,-3.83551 -4.75444,-4.96955 -3.15371,-3.29638 0.90664,0.47868 -1.92329,-1.01542 -0.40548,-0.21407 -0.51923,-0.83933 -0.9509,-0.99391 -0.61045,-0.2186 -1.29653,-0.0287 -1.94479,-0.043 -0.32414,-0.007 -0.67929,-0.16006 -0.97241,-0.0215 -0.41452,0.19592 -0.6626,0.63392 -0.9939,0.95088 -0.66261,0.63393 -1.4624,1.15021 -1.98782,1.90178 -1.60625,2.29762 -1.94885,5.20826 -3.08928,7.71466 -0.60048,1.31974 -1.35389,2.56439 -2.03083,3.84658 -0.67695,1.2822 -1.28381,2.60391 -2.03084,3.84658 -0.60227,1.00187 -1.46355,1.84044 -2.00934,2.87419 -0.47866,0.90664 -0.69128,1.93044 -1.03692,2.89568 -1.12865,3.15183 -1.56445,3.99162 -2.11687,7.73617 -0.14197,0.96222 -0.043,1.9448 -0.0645,2.91719 -0.0144,0.64828 -0.18633,1.31242 -0.043,1.94481 -0.62503,1.74702 1.53522,1.84333 1.88026,2.96022 0.19141,0.61953 -0.23441,1.32526 -0.043,1.94479 0.29737,0.96257 2.37113,1.65766 2.87418,2.00933 0.87213,0.60971 2.00032,2.53172 2.85266,2.98173 0.10734,0.0567 4.75227,0.15944 4.862,0.10755 0.41454,-0.19593 0.57938,-0.75496 0.99392,-0.95089 2.42146,-1.14451 -0.94026,2.8032 2.93869,-0.90787 0.52384,-0.50117 0.67696,-1.28219 1.01542,-1.92328 0.33848,-0.6411 0.67696,-1.2822 1.01543,-1.9233 0.33847,-0.6411 0.82407,-1.22404 1.01542,-1.92329 0.17114,-0.62544 0.0287,-1.29653 0.043,-1.94479 0.007,-0.32414 0.16005,-0.67928 0.0215,-0.9724 -0.19593,-0.41454 -0.63393,-0.66261 -0.95088,-0.99392 -1.45207,-1.51774 -0.54543,-0.77983 -2.87418,-2.00933 -0.6411,-0.33847 -1.31004,-0.62877 -1.9233,-1.01541 -0.98882,-0.62345 -1.84043,-1.46355 -2.87417,-2.00933 -0.90665,-0.47867 -1.94391,-0.6558 -2.89569,-1.03693 -1.62082,-0.64904 -3.13495,-1.59153 -4.81898,-2.05235 -2.21124,-0.60506 -4.53283,-0.69615 -6.78528,-1.12296 -1.62426,-0.30778 -3.24594,-0.64363 -4.84049,-1.07995 -0.98889,-0.2706 -1.8842,-0.86953 -2.89568,-1.03693 -1.27945,-0.21175 -2.63874,0.25624 -3.8896,-0.086 -1.39852,-0.38268 -2.4616,-1.60178 -3.84658,-2.03083 -0.92907,-0.28782 -1.95497,0.0774 -2.91719,-0.0645 -1.63546,-0.24128 -3.19957,-0.87912 -4.8405,-1.07995 -1.60905,-0.19694 -3.24133,-0.0717 -4.86199,-0.10755 -0.9724,-0.0215 -1.96156,0.11654 -2.91721,-0.0645 -1.00731,-0.19088 -1.89502,-0.81368 -2.89568,-1.03693 -1.09041,-0.24328 -2.71938,-0.0602 -3.88959,-0.086 -0.32414,-0.007 -0.73814,-0.24564 -0.97241,-0.0215 -0.23425,0.22412 0.21277,0.74826 -0.0215,0.97239 -0.23426,0.22412 -0.64826,-0.0144 -0.9724,-0.0215 -0.64826,-0.0144 -1.29653,-0.0287 -1.94479,-0.043 -0.32414,-0.007 -0.6857,0.12987 -0.9724,-0.0215 -1.15397,-0.60925 -1.6987,-2.37247 -2.85267,-2.98173 -0.57341,-0.30274 -1.37139,0.25973 -1.9448,-0.043 -0.40546,-0.21406 -1.2822,-0.67694 -0.95089,-0.9939 0.33131,-0.31697 1.40929,1.00405 0.95089,0.9939 -0.72478,-0.016 -1.24077,-0.77101 -1.92329,-1.01542 -0.30523,-0.10929 -0.74827,0.21277 -0.9724,-0.0215 -0.22413,-0.23426 0.24564,-0.73813 0.0215,-0.97239 -0.0923,-0.0965 -4.49144,-0.0993 -4.862,-0.10755 -0.32413,-0.007 -0.74826,0.21276 -0.97239,-0.0215 -0.22413,-0.23426 0.24563,-0.73812 0.0215,-0.9724 -0.44825,-0.46853 -1.49654,0.42552 -1.9448,-0.043 -0.22412,-0.23427 0.24564,-0.73813 0.0215,-0.9724 -0.22413,-0.23426 -0.64827,-0.0144 -0.9724,-0.0215 -0.32413,-0.007 -0.67928,-0.16005 -0.9724,-0.0215 -1.84454,0.87182 -0.4434,1.23823 -1.03693,2.89568 -0.15458,0.43167 -0.83934,0.51923 -0.99391,0.95089 -0.43721,1.22093 0.35117,2.66867 -0.086,3.8896 -0.15458,0.43166 -0.83934,0.51922 -0.99391,0.95089 -0.19183,0.53569 -0.14629,6.61348 -0.17208,7.77919 -0.007,0.32414 -0.0144,0.64827 -0.0215,0.9724 -0.007,0.32414 -0.24563,0.73813 -0.0215,0.9724 0.22413,0.23427 0.74828,-0.21276 0.97241,0.0215 0.22412,0.23426 -0.0144,0.64827 -0.0215,0.97239 -0.0149,0.67635 0.0761,4.51424 -0.10755,4.862 -0.58204,1.10245 -2.05884,1.30774 -2.96021,1.88027 -0.40512,0.25732 -2.7827,2.85708 -2.98173,2.85267 -0.4584,-0.0102 -0.63393,-0.66261 -0.95089,-0.9939 -0.31696,-0.33131 -0.75496,-0.57939 -0.95089,-0.99392 -0.30428,-0.64378 0.37611,-3.99269 0.10755,-4.86199 -1.17855,-3.81487 -0.97039,-0.11248 -0.88636,-3.91112 0.005,-0.23583 0.0326,-2.88661 0.0645,-2.91719 0.23426,-0.22413 0.97957,-0.30262 0.97239,0.0215 -0.007,0.32414 -0.64826,-0.0144 -0.97239,-0.0215"
       id="path9855-4"
       inkscape:connector-curvature="0" />
  </g>
</svg>
