<?xml version="1.0" encoding="UTF-8" standalone="no"?>
<!-- Created with Inkscape (http://www.inkscape.org/) -->

<svg
   xmlns:dc="http://purl.org/dc/elements/1.1/"
   xmlns:cc="http://creativecommons.org/ns#"
   xmlns:rdf="http://www.w3.org/1999/02/22-rdf-syntax-ns#"
   xmlns:svg="http://www.w3.org/2000/svg"
   xmlns="http://www.w3.org/2000/svg"
   xmlns:sodipodi="http://sodipodi.sourceforge.net/DTD/sodipodi-0.dtd"
   xmlns:inkscape="http://www.inkscape.org/namespaces/inkscape"
   width="1024px"
   height="768px"
   id="svg3070"
   version="1.1"
   inkscape:version="0.48.1 r9760"
   sodipodi:docname="transistor.svg">
  <defs
     id="defs3072" />
  <sodipodi:namedview
     id="base"
     pagecolor="#ffffff"
     bordercolor="#666666"
     borderopacity="1.0"
     inkscape:pageopacity="0.0"
     inkscape:pageshadow="2"
     inkscape:zoom="0.5"
     inkscape:cx="674.39787"
     inkscape:cy="471.7377"
     inkscape:current-layer="layer1"
     inkscape:document-units="px"
     showgrid="false"
     inkscape:window-width="1024"
     inkscape:window-height="549"
     inkscape:window-x="0"
     inkscape:window-y="25"
     inkscape:window-maximized="1" />
  <metadata
     id="metadata3075">
    <rdf:RDF>
      <cc:Work
         rdf:about="">
        <dc:format>image/svg+xml</dc:format>
        <dc:type
           rdf:resource="http://purl.org/dc/dcmitype/StillImage" />
      </cc:Work>
    </rdf:RDF>
  </metadata>
  <g
     id="layer1"
     inkscape:label="Layer 1"
     inkscape:groupmode="layer">
    <rect
       style="fill:#999999;fill-rule:evenodd;stroke:#000000;stroke-width:1px;stroke-linecap:butt;stroke-linejoin:miter;stroke-opacity:0"
       id="rect3080"
       width="101.82338"
       height="147.07822"
       x="31.840622"
       y="228.10641" />
    <rect
       style="fill:#999999;fill-rule:evenodd;stroke:#000000;stroke-width:1px;stroke-linecap:butt;stroke-linejoin:miter;stroke-opacity:0"
       id="rect3080-9"
       width="101.82338"
       height="147.07822"
       x="403.16867"
       y="227.52063" />
    <rect
       style="fill:#00ff00;fill-rule:evenodd;stroke:#000000;stroke-width:1px;stroke-linecap:butt;stroke-linejoin:miter;stroke-opacity:0"
       id="rect3104"
       width="212"
       height="41"
       x="4.3238106"
       y="374.24265" />
    <rect
       style="fill:#008000;fill-opacity:1;stroke:#0000ff;stroke-width:1.25426376;stroke-miterlimit:4;stroke-opacity:0;stroke-dasharray:none"
       id="rect3108"
       width="83.434227"
       height="63"
       x="133.32381"
       y="311.24265" />
    <rect
       style="fill:#008000;fill-opacity:1;stroke:#0000ff;stroke-width:1.25426376;stroke-miterlimit:4;stroke-opacity:0;stroke-dasharray:none"
       id="rect3108-9"
       width="83.434227"
       height="63"
       x="319.60672"
       y="311.74265" />
    <rect
       style="fill:#00ff00;fill-rule:evenodd;stroke:#000000;stroke-width:1px;stroke-linecap:butt;stroke-linejoin:miter;stroke-opacity:0"
       id="rect3104-7"
       width="212"
       height="41"
       x="319.32382"
       y="372.74265" />
    <rect
       style="fill:#ffff00;fill-opacity:1;stroke:#0000ff;stroke-width:0.75370926;stroke-miterlimit:4;stroke-opacity:0;stroke-dasharray:none"
       id="rect3146"
       width="526.49158"
       height="59"
       x="5.5475502"
       y="414.24265" />
    <rect
       style="fill:#00ffff;fill-opacity:1;stroke:#000000;stroke-width:0.71881008;stroke-miterlimit:4;stroke-opacity:0;stroke-dasharray:none"
       id="rect3916"
       width="103"
       height="88.374008"
       x="216.32382"
       y="286.24265" />
    <rect
       style="fill:#ffff00;fill-opacity:1;stroke:#000000;stroke-width:0.8764658;stroke-miterlimit:4;stroke-opacity:0;stroke-dasharray:none"
       id="rect3923"
       width="103.89069"
       height="42"
       x="215.43314"
       y="372.24265" />
    <path
       style="fill:none;stroke:#000000;stroke-width:2;stroke-linecap:butt;stroke-linejoin:miter;stroke-miterlimit:4;stroke-opacity:1;stroke-dasharray:none"
       d="m 87.32381,176.24264 0,33"
       id="path3946"
       inkscape:connector-curvature="0" />
    <path
       style="fill:none;stroke:#000000;stroke-width:2;stroke-linecap:butt;stroke-linejoin:miter;stroke-miterlimit:4;stroke-opacity:1;stroke-dasharray:none"
       d="m 273.32381,178.74264 0,33"
       id="path3946-0"
       inkscape:connector-curvature="0" />
    <path
       style="fill:none;stroke:#000000;stroke-width:2;stroke-linecap:butt;stroke-linejoin:miter;stroke-miterlimit:4;stroke-opacity:1;stroke-dasharray:none"
       d="m 87.32381,194.24264 186,1"
       id="path3966"
       inkscape:connector-curvature="0" />
    <text
       xml:space="preserve"
       style="font-size:40px;font-style:normal;font-weight:normal;line-height:125%;letter-spacing:0px;word-spacing:0px;fill:#000000;fill-opacity:1;stroke:none;font-family:Sans"
       x="120.82381"
       y="173.74265"
       id="text3968"
       sodipodi:linespacing="125%"><tspan
         sodipodi:role="line"
         id="tspan3970"
         x="120.82381"
         y="173.74265">22nm</tspan></text>
    <path
       style="fill:none;stroke:#000000;stroke-width:1.30550003;stroke-linecap:butt;stroke-linejoin:miter;stroke-miterlimit:4;stroke-opacity:1;stroke-dasharray:none"
       d="m 631.54131,263.06222 c 0.32992,-0.87111 0.32992,-3.04887 0.98977,-2.61332 0.65985,0.43555 -0.98977,3.58725 -0.98977,2.61332 0,-1.17276 0.70885,-2.15407 0.98977,-3.26665 0.0522,-0.2066 -0.0738,-0.45855 0,-0.65333 0.10433,-0.27547 0.39056,-0.37787 0.49488,-0.65333 0.14755,-0.38958 -0.14754,-0.9171 0,-1.30667 0.20867,-0.55093 0.78112,-0.75572 0.98977,-1.30666 0.0738,-0.19478 0,-0.43556 0,-0.65333 0.16497,-0.21778 0.39056,-0.37786 0.49489,-0.65333 0.14755,-0.38957 -0.14755,-0.91709 0,-1.30666 0.20867,-0.55094 0.73096,-0.79415 0.98977,-1.30667 0.20461,-0.40518 0.29028,-0.90148 0.49489,-1.30666 0.12941,-0.25626 0.39055,-0.37786 0.49488,-0.65333 0.0738,-0.19479 0,-0.43556 0,-0.65333 0.16497,-0.43556 0.29028,-0.90149 0.49489,-1.30666 0.28469,-0.56377 1.09811,-1.44969 1.48465,-1.96 0.16496,-0.21778 0.39056,-0.37786 0.49489,-0.65333 0.0738,-0.19478 -0.0738,-0.45854 0,-0.65333 0.10433,-0.27547 0.39056,-0.37787 0.49489,-0.65333 0.0738,-0.19479 -0.11665,-0.49934 0,-0.65333 0.11664,-0.154 0.37824,0.15399 0.49488,0 1.02393,-1.35177 -1.56471,0.0528 0.49489,-1.30667 0.14755,-0.0974 0.34734,0.0974 0.49488,0 0.20866,-0.13773 0.28623,-0.51559 0.49489,-0.65333 0.14754,-0.0974 0.34734,0.0974 0.49489,0 0.20865,-0.13773 0.28622,-0.5156 0.49488,-0.65333 0.14754,-0.0974 0.32992,0 0.49489,0 0.16495,-0.21777 0.28622,-0.5156 0.49488,-0.65333 0.14755,-0.0974 0.37824,0.15399 0.49489,0 0.11664,-0.15399 -0.11665,-0.49934 0,-0.65333 0.11664,-0.15399 0.34734,0.0974 0.49488,0 0.20866,-0.13774 0.28622,-0.5156 0.49488,-0.65333 0.11093,-0.0732 1.86194,0 1.97955,0 0.34421,0 2.29546,-0.11813 2.47442,0 0.20867,0.13773 0.28623,0.51559 0.49489,0.65333 0.14755,0.0974 0.33839,-0.0689 0.49489,0 0.34993,0.15399 0.63983,0.49934 0.98977,0.65333 0.19257,0.0847 1.40785,-0.10139 1.48465,0 0.11665,0.15399 -0.11664,0.49934 0,0.65333 0.11665,0.15399 0.34734,-0.0974 0.49489,0 0.20866,0.13773 0.28622,0.5156 0.49488,0.65333 0.2951,0.19479 0.69469,-0.19478 0.98978,0 0.20866,0.13774 0.28622,0.5156 0.49488,0.65333 0.29509,0.19479 0.75648,-0.30798 0.98977,0 0.11664,0.154 -0.11664,0.49934 0,0.65333 0.11664,0.15399 0.34734,-0.0974 0.49488,0 0.0947,0.0625 1.93218,2.48827 1.97955,2.61333 0.0738,0.19478 -0.11664,0.49934 0,0.65333 0.11664,0.15399 0.34734,-0.0974 0.49488,0 2.0596,1.35951 -0.52904,-0.0451 0.49489,1.30667 0.11664,0.15399 0.37824,-0.154 0.49488,0 0.11665,0.15399 -0.11664,0.49934 0,0.65333 0.11665,0.15399 0.37824,-0.15399 0.49489,0 0.11665,0.15399 -0.11665,0.49933 0,0.65332 0.11665,0.154 0.37824,-0.15399 0.49488,0 0.11665,0.154 -0.0738,0.45855 0,0.65334 0.20867,0.55094 0.78112,0.75572 0.98977,1.30666 0.0738,0.19479 -0.0738,0.45855 0,0.65333 0.10434,0.27547 0.39057,0.37787 0.49489,0.65333 0.0738,0.19479 -0.11665,0.49934 0,0.65334 0.11665,0.15399 0.37824,-0.154 0.49489,0 0.11664,0.15399 -0.0738,0.45854 0,0.65333 0.20866,0.55093 0.73096,0.79414 0.98977,1.30666 0.93752,-0.0744 0.32993,1.52444 0.49488,1.95999 0.10433,0.27547 0.39056,0.37787 0.49489,0.65333 0.0738,0.19479 -0.0738,0.45855 0,0.65333 0.10433,0.27547 0.39055,0.37787 0.49489,0.65334 0.14754,0.38957 -0.2333,0.99868 0,1.30666 0.11664,0.15399 0.37823,-0.15399 0.49488,0 0.11665,0.15399 -0.11665,0.49934 0,0.65333 0.11665,0.15399 0.37824,-0.15399 0.49489,0 0.11908,0.15721 -0.11909,2.45611 0,2.61332 0.11664,0.154 0.37824,-0.15399 0.49488,0 0.11665,0.154 -0.0738,0.45855 0,0.65334 0.54711,1.44455 0.30714,0.20274 0.98977,0.65333 0.41733,0.27546 0.57244,1.03119 0.98977,1.30666 0.2951,0.19478 0.69468,-0.19479 0.98978,0 0.20866,0.13773 0.28622,0.5156 0.49488,0.65333 0.14754,0.0974 0.37824,-0.15399 0.49489,0 0.11664,0.15399 -0.11665,0.49934 0,0.65333 0.11664,0.15399 0.32992,0 0.49488,0 0.98977,0 1.97955,0 2.96931,0 0.18174,0 1.95963,0.0263 1.97954,0 0.11665,-0.15399 -0.11664,-0.49934 0,-0.65333 0.23329,-0.30798 0.75648,0.30798 0.98977,0 0.11665,-0.15399 -0.11664,-0.49934 0,-0.65333 0.11665,-0.15399 0.34734,0.0974 0.49489,0 0.48698,-0.32145 1.49256,-2.29188 1.97954,-2.61333 0.14755,-0.0974 0.37824,0.154 0.49489,0 0.23328,-0.30798 -0.14755,-0.91709 0,-1.30666 0.10433,-0.27547 0.39055,-0.37786 0.49488,-0.65333 0.0738,-0.19479 -0.11664,-0.49934 0,-0.65333 0.11664,-0.15399 0.34734,0.0974 0.49488,0 0.20867,-0.13773 0.32993,-0.43555 0.4949,-0.65333 0.16495,-0.21778 0.39055,-0.37786 0.49488,-0.65333 0.0738,-0.19479 -0.11664,-0.49934 0,-0.65333 0.11665,-0.154 0.37824,0.15399 0.49489,0 0.24743,-0.32667 -0.24745,-1.63333 0,-1.96 1.02393,-1.35176 -0.04,2.06568 0.98976,-0.65333 0.19796,-0.52267 -0.19795,-1.43733 0,-1.95999 0.10433,-0.27547 0.39056,-0.37787 0.49489,-0.65333 0.14755,-0.38958 -0.14754,-0.91709 0,-1.30667 1.64133,-2.16682 -0.23329,0.61597 0.49488,-1.30666 0.10434,-0.27547 0.42112,-0.36115 0.49489,-0.65333 7e-4,-0.003 -3.5e-4,-1.95937 0,-1.95999 0.11665,-0.15399 0.37824,0.15399 0.49489,0 0.11664,-0.15399 -0.0738,-0.45855 0,-0.65333 0.10433,-0.27548 0.39055,-0.37787 0.49488,-0.65334 0.13424,-0.35442 -0.13541,-2.43456 0,-2.61332 0.11665,-0.15399 0.34734,0.0974 0.49489,0 1.64133,-2.16683 -0.46659,0.30798 0.98977,-0.65333 0.20866,-0.13774 0.28622,-0.5156 0.49488,-0.65334 0.14755,-0.0974 0.34735,0.0974 0.49489,0 0.20866,-0.13773 0.28623,-0.51559 0.49488,-0.65333 0.14755,-0.0974 0.37824,0.154 0.49489,0 0.11665,-0.15399 -0.11665,-0.49933 0,-0.65333 0.23329,-0.30798 0.75648,0.30799 0.98977,0 0.11665,-0.15399 -0.14755,-0.55594 0,-0.65333 0.29509,-0.19479 0.67678,0.13773 0.98977,0 0.22132,-0.0974 0.28622,-0.5156 0.49489,-0.65333 0.14755,-0.0974 0.34734,0.0974 0.49489,0 0.20865,-0.13774 0.28621,-0.51559 0.49488,-0.65333 0.14754,-0.0974 0.33838,0.0689 0.49488,0 0.34994,-0.15399 0.63984,-0.49934 0.98978,-0.65333 0.15649,-0.0689 0.37824,0.15399 0.49488,0 0.11665,-0.15399 -0.11664,-0.49934 0,-0.65333 0.23329,-0.30799 0.75648,0.30798 0.98977,0 0.11664,-0.154 -0.11664,-0.49934 0,-0.65334 0.11664,-0.15399 0.32993,0 0.49488,0 0.16497,0 0.32993,0 0.4949,0 0.59169,0 2.64631,0.14214 2.9693,0 0.34994,-0.15399 0.63984,-0.49934 0.98978,-0.65333 0.18629,-0.082 2.43365,-0.0179 2.47442,0 0.22132,0.0974 0.28622,0.5156 0.49489,0.65333 0.31104,0.20532 1.6685,-0.20531 1.97954,0 1.64133,2.16683 -0.46658,-0.30798 0.98977,0.65334 0.41733,0.27546 0.57245,1.03119 0.98977,1.30666 0.14755,0.0974 0.34734,-0.0974 0.49489,0 0.20866,0.13774 0.28622,0.51559 0.49488,0.65333 0.14755,0.0974 0.34734,-0.0974 0.49489,0 0.20866,0.13773 0.32992,0.43556 0.49489,0.65333 0.16495,0.21778 0.39055,0.37786 0.49488,0.65333 0.0738,0.19479 -0.0738,0.45855 0,0.65333 0.10433,0.27547 0.39055,0.37787 0.49489,0.65333 0.0738,0.19479 -0.11665,0.49934 0,0.65334 0.11664,0.15399 0.34733,-0.0974 0.49488,0 0.97148,0.64126 0.2228,1.24158 0.49488,1.95999 1.0298,2.71901 -0.0342,-0.69843 0.98977,0.65333 0.16314,0.21537 -0.11937,2.14054 0,2.61332 0.0738,0.29219 0.39056,0.37787 0.49489,0.65334 0.14755,0.38957 -0.10433,0.89346 0,1.30666 0.11665,0.46197 0.37825,0.84469 0.49489,1.30666 0.0522,0.20661 -0.0738,0.45855 0,0.65334 0.10433,0.27546 0.39055,0.37785 0.49488,0.65333 0.0981,0.25903 -0.10116,1.82642 0,1.95999 0.11665,0.15399 0.37824,-0.15399 0.49489,0 0.10117,0.13357 -0.0981,1.70095 0,1.95999 0.10433,0.27547 0.39056,0.37787 0.49488,0.65333 0.16203,0.42781 -0.14639,2.68687 0,3.26666 0.11665,0.46197 0.37824,0.84469 0.49489,1.30666 0.0522,0.2066 -0.11665,0.49934 0,0.65333 0.23329,0.30799 0.75648,-0.30798 0.98977,0 0.66195,0.87389 -0.66195,0.43278 0,1.30667 0.17777,0.23468 1.65938,-0.21134 1.97954,0 0.14754,0.0974 -0.11664,0.49934 0,0.65333 0.11665,0.15399 0.33839,-0.0689 0.49489,0 0.34994,0.15399 0.63983,0.49934 0.98977,0.65333 0.1565,0.0689 0.33838,-0.0689 0.49488,0 0.34994,0.15399 0.63984,0.49934 0.98978,0.65333 0.41477,0.18253 1.65157,-0.21649 1.97953,0 0.20867,0.13773 0.27358,0.55594 0.49489,0.65333 0.0408,0.018 2.28814,0.082 2.47443,0 0.34993,-0.15399 0.63192,-0.53523 0.98977,-0.65333 0.32007,-0.10564 0.67678,0.13773 0.98977,0 0.22132,-0.0974 0.27357,-0.55594 0.49489,-0.65333 0.31299,-0.13774 0.66969,0.10564 0.98977,0 0.35785,-0.11811 0.63983,-0.49934 0.98977,-0.65333 0.32731,-0.14404 2.48315,0 2.96931,0 0.16497,0 0.34734,0.0974 0.49489,0 0.20866,-0.13774 0.32992,-0.43556 0.49488,-0.65333 0.32992,0 0.67678,0.13773 0.98977,0 0.22132,-0.0974 0.27357,-0.55594 0.49488,-0.65333 0.74233,-0.32667 1.7321,0.32666 2.47443,0 0.22132,-0.0974 0.28623,-0.5156 0.49489,-0.65334 0.29509,-0.19478 0.75648,0.30799 0.98977,0 0.11664,-0.15399 -0.11665,-0.49934 0,-0.65333 0.11664,-0.15399 0.34734,0.0974 0.49488,0 0.26432,-0.17447 1.22412,-1.61604 1.48466,-1.95999 0.16497,-0.21778 0.32992,-0.43555 0.49489,-0.65333 0.16496,-0.21778 0.39055,-0.37786 0.49488,-0.65333 0.0738,-0.19479 -0.0738,-0.45855 0,-0.65333 0.10433,-0.27547 0.39056,-0.37787 0.49489,-0.65334 0.0738,-0.19478 0,-0.43555 0,-0.65333 0,-0.43555 -0.10433,-0.89346 0,-1.30666 0.1117,-0.4424 1.29564,-1.46092 1.48466,-1.95999 0.0738,-0.19479 -0.0738,-0.45855 0,-0.65333 0.10433,-0.27548 0.39055,-0.37787 0.49488,-0.65333 0.14754,-0.38958 -0.23329,-0.99869 0,-1.30667 0.11665,-0.15399 0.37824,0.15399 0.49489,0 0.11664,-0.15399 -0.0738,-0.45854 0,-0.65333 0.10433,-0.27547 0.39055,-0.37786 0.49488,-0.65333 0.0738,-0.19479 -0.11664,-0.49934 0,-0.65333 0.11665,-0.154 0.37824,0.15399 0.49489,0 0.11664,-0.154 -0.11665,-0.49934 0,-0.65334 0.11664,-0.15399 0.37824,0.154 0.49488,0 0.11665,-0.15399 -0.11664,-0.49933 0,-0.65332 0.11665,-0.15399 0.37824,0.15399 0.49488,0 0.11665,-0.15399 -0.11664,-0.49934 0,-0.65333 0.11665,-0.154 0.37824,0.15399 0.49489,0 0.11664,-0.154 -0.11665,-0.49934 0,-0.65334 0.11664,-0.15399 0.37824,0.154 0.49488,0 0.11666,-0.15399 -0.0738,-0.45854 0,-0.65333 0.29694,-0.784 1.18773,-1.17599 1.48466,-1.95999 0.0738,-0.19479 -0.11664,-0.49934 0,-0.65333 0.11665,-0.154 0.34734,0.0974 0.49489,0 0.20866,-0.13774 0.28622,-0.5156 0.49488,-0.65334 0.14755,-0.0974 0.37824,0.15399 0.4949,0 0.23328,-0.30798 -0.2333,-0.99867 0,-1.30666 0.11664,-0.15399 0.37823,0.154 0.49488,0 0.11664,-0.15399 -0.11665,-0.49934 0,-0.65333 0.11664,-0.15399 0.42111,0.19479 0.49488,0 0.14755,-0.38957 -0.183,-0.94426 0,-1.30666 0.20462,-0.40518 0.72894,-0.30899 0.98977,-0.65333 0.11665,-0.15399 -0.0738,-0.45855 0,-0.65333 1.0298,-2.71901 -0.0342,0.69843 0.98977,-0.65334 0.11665,-0.15399 -0.0738,-0.45854 0,-0.65333 0.47067,-1.24271 1.21109,-0.31516 1.97955,-0.65333 0.22132,-0.0974 0.28622,-0.5156 0.49488,-0.65333 0.14754,-0.0974 0.33839,0.0689 0.49489,0 0.34993,-0.15399 0.63983,-0.49934 0.98977,-0.65333 0.34798,-0.15313 2.33877,0.17909 2.47443,0 0.11664,-0.15399 -0.11665,-0.49934 0,-0.65333 0.11664,-0.15399 0.32992,0 0.49488,0 0.98977,0 1.97954,0 2.96932,0 0.16495,0 0.34733,-0.0974 0.49488,0 0.20866,0.13773 0.28622,0.5156 0.49488,0.65333 0.28995,0.19138 2.10975,-0.12036 2.47443,0 0.35785,0.1181 0.63983,0.49934 0.98977,0.65333 0.1565,0.0689 0.34734,-0.0974 0.49489,0 0.20866,0.13773 0.28622,0.5156 0.49488,0.65333 0.19622,0.12952 1.38349,-0.13356 1.48466,0 0.11664,0.15399 -0.0738,0.45855 0,0.65333 0.24349,0.6429 1.73605,1.97043 1.97954,2.61333 0.0738,0.19478 -0.0738,0.45854 0,0.65333 0.10433,0.27547 0.32992,0.43556 0.49489,0.65333 0.32992,0.43556 0.65984,0.87111 0.98976,1.30666 0.32993,0.43556 0.70982,0.81389 0.98977,1.30667 0.44265,0.77914 0.58056,1.80296 0.98978,2.61332 0.12941,0.25626 0.36548,0.39707 0.49489,0.65333 0.60908,1.20615 0.87556,2.71384 1.48465,3.91999 0.12941,0.25626 0.32993,0.43555 0.49489,0.65333 0.65984,0.87111 1.31969,1.74222 1.97954,2.61333 0.32992,0.43555 0.65985,0.8711 0.98977,1.30666 0.32993,0.43555 0.70982,0.81389 0.98977,1.30666 0.44264,0.77914 0.46811,1.92466 0.98977,2.61333 0.26083,0.34433 0.72894,0.30899 0.98977,0.65333 0.11665,0.15399 -0.0738,0.45854 0,0.65333 0.10433,0.27547 0.39056,0.37786 0.49489,0.65333 0.0738,0.19479 -0.11665,0.49934 0,0.65333 0.11664,0.15399 0.34734,-0.0974 0.49488,0 0.20866,0.13774 0.28622,0.5156 0.49489,0.65333 0.14755,0.0974 0.34734,-0.0974 0.49488,0 0.20866,0.13774 0.28623,0.5156 0.49489,0.65333 0.14754,0.0974 0.32992,0 0.49489,0 0.16495,0 0.32992,0 0.49488,0 0.82481,0 1.64962,0 2.47442,0 0.32993,0 0.67678,0.13774 0.98978,0 0.34993,-0.15399 0.63192,-0.53522 0.98977,-0.65333 0.48011,-0.15845 1.01517,0.2066 1.48465,0 0.34994,-0.15399 0.63984,-0.49934 0.98977,-0.65333 0.41478,-0.18252 1.65157,0.21649 1.97955,0 0.20866,-0.13773 0.28622,-0.5156 0.49488,-0.65333 0.14755,-0.0974 0.33839,0.0689 0.49489,0 0.34993,-0.15399 0.63983,-0.49934 0.98977,-0.65333 0.1565,-0.0689 0.34734,0.0974 0.49489,0 0.20865,-0.13773 0.28622,-0.5156 0.49488,-0.65333 0.19622,-0.12952 1.38348,0.13356 1.48466,0 0.11664,-0.15399 -0.11665,-0.49934 0,-0.65333 0.0308,-1.83961 1.11579,-0.16637 1.48465,-0.65333 1.02394,-1.35177 -1.56471,0.0528 0.49488,-1.30667 0.14755,-0.0974 0.37824,0.15399 0.4949,0 0.11664,-0.15399 -0.11666,-0.49934 0,-0.65333 0.11664,-0.15399 0.37824,0.15399 0.49488,0 0.11664,-0.15399 -0.0738,-0.45854 0,-0.65333 0.20866,-0.55094 0.78111,-0.75572 0.98977,-1.30666 0.14755,-0.38957 -0.14755,-0.91709 0,-1.30666 0.10433,-0.27548 0.39056,-0.37787 0.49488,-0.65333 0.14755,-0.38958 -0.14755,-0.9171 0,-1.30667 1.05393,-2.78272 -0.0642,1.47606 0.98977,-1.30666 0.13424,-0.35442 -0.1354,-2.43456 0,-2.61332 0.11665,-0.154 0.37824,0.15399 0.49489,0 0.11665,-0.154 -0.0738,-0.45855 0,-0.65334 0.10433,-0.27547 0.39055,-0.37786 0.49489,-0.65333 0.0738,-0.19479 -0.11665,-0.49934 0,-0.65333 0.11664,-0.15399 0.37824,0.15399 0.49488,0 0.11665,-0.15399 -0.0738,-0.45854 0,-0.65333 0.10433,-0.27547 0.39055,-0.37787 0.49489,-0.65333 0.0738,-0.19479 -0.11665,-0.49934 0,-0.65333 0.11664,-0.154 0.37824,0.15399 0.49488,0 0.11665,-0.154 -0.0738,-0.45855 0,-0.65334 0.10434,-0.27546 0.39056,-0.37786 0.49489,-0.65333 0.14755,-0.38957 -0.14755,-0.91709 0,-1.30666 0.20866,-0.55094 0.7811,-0.75573 0.98977,-1.30666 0.14755,-0.38957 -0.14755,-0.91709 0,-1.30666 0.10433,-0.27547 0.39055,-0.37787 0.49489,-0.65334 0.0738,-0.19478 0,-0.43555 0,-0.65333 0,-0.21777 0,-0.43555 0,-0.65333 0,-0.34164 -0.0651,-2.44153 0,-2.61332 0.10433,-0.27547 0.32992,-0.43556 0.49487,-0.65333"
       id="path3972"
       inkscape:connector-curvature="0" />
    <path
       style="fill:none;stroke:#000000;stroke-width:1.30550003;stroke-linecap:butt;stroke-linejoin:miter;stroke-miterlimit:4;stroke-opacity:1;stroke-dasharray:none"
       d="m 646.38788,264.988 c 0.32992,-0.87111 0.32992,-3.04888 0.98976,-2.61333 0.65985,0.43556 -0.98976,3.58726 -0.98976,2.61333 0,-1.17277 0.70885,-2.15408 0.98976,-3.26666 0.0522,-0.2066 -0.0738,-0.45854 0,-0.65333 0.10433,-0.27547 0.39056,-0.37786 0.49489,-0.65333 0.14755,-0.38957 -0.14754,-0.91709 0,-1.30666 0.20866,-0.55094 0.78111,-0.75573 0.98977,-1.30667 0.0738,-0.19478 0,-0.43555 0,-0.65333 0.16496,-0.21778 0.39055,-0.37786 0.49488,-0.65333 0.14755,-0.38957 -0.14754,-0.91709 0,-1.30666 0.20867,-0.55094 0.73096,-0.79415 0.98978,-1.30666 0.20461,-0.40518 0.29027,-0.90149 0.49488,-1.30667 0.12941,-0.25625 0.39056,-0.37786 0.49489,-0.65333 0.0738,-0.19478 0,-0.43555 0,-0.65333 0.16496,-0.43555 0.29027,-0.90148 0.49488,-1.30666 0.28469,-0.56376 1.09811,-1.44969 1.48466,-1.95999 0.16496,-0.21778 0.39055,-0.37787 0.49489,-0.65333 0.0738,-0.19479 -0.0738,-0.45855 0,-0.65334 0.10433,-0.27546 0.39055,-0.37786 0.49488,-0.65333 0.0738,-0.19478 -0.11664,-0.49934 0,-0.65333 0.11665,-0.15399 0.37824,0.15399 0.49489,0 1.02393,-1.35176 -1.56471,0.0528 0.49488,-1.30666 0.14754,-0.0974 0.34734,0.0974 0.49489,0 0.20866,-0.13773 0.28622,-0.5156 0.49488,-0.65333 0.14755,-0.0974 0.34734,0.0974 0.49488,0 0.20867,-0.13774 0.28623,-0.5156 0.49489,-0.65333 0.14755,-0.0974 0.32993,0 0.49489,0 0.16496,-0.21778 0.28622,-0.5156 0.49489,-0.65333 0.14755,-0.0974 0.37824,0.15399 0.49488,0 0.11664,-0.154 -0.11664,-0.49934 0,-0.65334 0.11664,-0.15399 0.34734,0.0974 0.49488,0 0.20867,-0.13773 0.28623,-0.51559 0.49489,-0.65333 0.11092,-0.0732 1.86194,0 1.97954,0 0.34422,0 2.29546,-0.11813 2.47443,0 0.20866,0.13774 0.28622,0.5156 0.49489,0.65333 0.14754,0.0974 0.33839,-0.0689 0.49488,0 0.34994,0.154 0.63983,0.49934 0.98977,0.65334 0.19257,0.0847 1.40786,-0.10139 1.48466,0 0.11664,0.15399 -0.11665,0.49934 0,0.65333 0.11664,0.15399 0.34734,-0.0974 0.49488,0 0.20866,0.13773 0.28623,0.51559 0.49489,0.65333 0.29509,0.19478 0.69468,-0.19479 0.98977,0 0.20866,0.13773 0.28622,0.5156 0.49489,0.65333 0.29509,0.19479 0.75647,-0.30798 0.98977,0 0.11664,0.15399 -0.11665,0.49934 0,0.65333 0.11664,0.15399 0.34734,-0.0974 0.49488,0 0.0947,0.0625 1.93217,2.48827 1.97955,2.61333 0.0738,0.19478 -0.11665,0.49934 0,0.65333 0.11664,0.15399 0.34733,-0.0974 0.49488,0 2.0596,1.3595 -0.52905,-0.0451 0.49488,1.30666 0.11665,0.15399 0.37824,-0.15399 0.49489,0 0.11664,0.15399 -0.11665,0.49934 0,0.65333 0.11664,0.15399 0.37824,-0.15399 0.49488,0 0.11665,0.15399 -0.11664,0.49934 0,0.65333 0.11665,0.15399 0.37824,-0.15399 0.49489,0 0.11664,0.15399 -0.0738,0.45855 0,0.65333 0.20866,0.55094 0.78111,0.75573 0.98977,1.30666 0.0738,0.19479 -0.0738,0.45855 0,0.65334 0.10433,0.27546 0.39055,0.37786 0.49489,0.65333 0.0738,0.19478 -0.11665,0.49934 0,0.65333 0.11664,0.15399 0.37824,-0.15399 0.49488,0 0.11665,0.15399 -0.0738,0.45854 0,0.65333 0.20867,0.55094 0.73096,0.79415 0.98977,1.30666 0.93753,-0.0744 0.32993,1.52444 0.49489,1.96 0.10432,0.27546 0.39055,0.37786 0.49488,0.65333 0.0738,0.19478 -0.0738,0.45854 0,0.65333 0.10434,0.27547 0.39056,0.37786 0.49489,0.65333 0.14755,0.38957 -0.23329,0.99868 0,1.30666 0.11664,0.154 0.37824,-0.15399 0.49488,0 0.11665,0.154 -0.11664,0.49934 0,0.65333 0.11665,0.15399 0.37824,-0.15399 0.49489,0 0.11909,0.15721 -0.11909,2.45612 0,2.61333 0.11665,0.15399 0.37824,-0.15399 0.49489,0 0.11664,0.15399 -0.0738,0.45854 0,0.65333 0.5471,1.44455 0.30714,0.20274 0.98977,0.65333 0.41732,0.27547 0.57244,1.03119 0.98976,1.30667 0.2951,0.19478 0.69468,-0.19479 0.98977,0 0.20867,0.13773 0.28623,0.51559 0.49489,0.65333 0.14755,0.0974 0.37825,-0.154 0.49489,0 0.11664,0.15399 -0.11664,0.49933 0,0.65332 0.11664,0.154 0.32992,0 0.49488,0 0.98977,0 1.97955,0 2.96931,0 0.18174,0 1.95963,0.0263 1.97955,0 0.11664,-0.15399 -0.11665,-0.49933 0,-0.65332 0.23329,-0.30799 0.75648,0.30798 0.98977,0 0.11665,-0.154 -0.11665,-0.49934 0,-0.65333 0.11665,-0.154 0.34734,0.0974 0.49489,0 0.48697,-0.32146 1.49255,-2.29188 1.97954,-2.61333 0.14755,-0.0974 0.37824,0.15399 0.49488,0 0.23329,-0.30798 -0.14754,-0.91709 0,-1.30667 0.10434,-0.27546 0.39056,-0.37785 0.49489,-0.65333 0.0738,-0.19478 -0.11665,-0.49934 0,-0.65333 0.11664,-0.15399 0.34734,0.0974 0.49488,0 0.20866,-0.13773 0.32993,-0.43555 0.49489,-0.65333 0.16496,-0.21777 0.39055,-0.37786 0.49489,-0.65333 0.0738,-0.19479 -0.11665,-0.49934 0,-0.65333 0.11664,-0.15399 0.37824,0.15399 0.49488,0 0.24744,-0.32667 -0.24745,-1.63333 0,-1.95999 1.02393,-1.35177 -0.04,2.06567 0.98977,-0.65334 0.19795,-0.52266 -0.19795,-1.43733 0,-1.95999 0.10433,-0.27547 0.39056,-0.37786 0.49488,-0.65333 0.14755,-0.38957 -0.14754,-0.91709 0,-1.30666 1.64134,-2.16683 -0.23328,0.61596 0.49489,-1.30667 0.10433,-0.27546 0.42111,-0.36115 0.49488,-0.65333 7.1e-4,-0.003 -3.4e-4,-1.95937 0,-1.95999 0.11666,-0.15399 0.37824,0.15399 0.4949,0 0.11664,-0.15399 -0.0738,-0.45855 0,-0.65333 0.10432,-0.27547 0.39054,-0.37786 0.49488,-0.65333 0.13423,-0.35443 -0.13541,-2.43456 0,-2.61333 0.11664,-0.15399 0.34733,0.0974 0.49488,0 1.64133,-2.16683 -0.46658,0.30799 0.98977,-0.65333 0.20867,-0.13773 0.28622,-0.5156 0.49489,-0.65333 0.14755,-0.0974 0.34734,0.0974 0.49488,0 0.20867,-0.13773 0.28623,-0.5156 0.49489,-0.65333 0.14755,-0.0974 0.37824,0.15399 0.49488,0 0.11665,-0.15399 -0.11664,-0.49934 0,-0.65333 0.2333,-0.30798 0.75648,0.30798 0.98978,0 0.11664,-0.15399 -0.14755,-0.55594 0,-0.65333 0.29509,-0.19479 0.67678,0.13773 0.98977,0 0.22132,-0.0974 0.28622,-0.5156 0.49488,-0.65333 0.14755,-0.0974 0.34734,0.0974 0.49489,0 0.20866,-0.13774 0.28622,-0.5156 0.49488,-0.65334 0.14755,-0.0974 0.33839,0.0689 0.49489,0 0.34994,-0.15399 0.63983,-0.49934 0.98977,-0.65333 0.1565,-0.0689 0.37824,0.15399 0.49489,0 0.11664,-0.15399 -0.11665,-0.49934 0,-0.65333 0.23328,-0.30798 0.75648,0.30798 0.98977,0 0.11664,-0.15399 -0.11665,-0.49934 0,-0.65333 0.11664,-0.15399 0.32992,0 0.49488,0 0.16496,0 0.32992,0 0.49488,0 0.59169,0 2.64632,0.14213 2.96932,0 0.34994,-0.15399 0.63983,-0.49934 0.98978,-0.65333 0.18628,-0.082 2.43363,-0.0179 2.47442,0 0.22132,0.0974 0.28622,0.5156 0.49488,0.65333 0.31105,0.20532 1.6685,-0.20532 1.97954,0 1.64133,2.16683 -0.46658,-0.30798 0.98978,0.65333 0.41732,0.27547 0.57245,1.0312 0.98977,1.30666 0.14755,0.0974 0.34734,-0.0974 0.49488,0 0.20866,0.13774 0.28623,0.5156 0.49488,0.65334 0.14755,0.0974 0.34735,-0.0974 0.4949,0 0.20865,0.13773 0.32992,0.43555 0.49488,0.65333 0.16496,0.21778 0.39055,0.37786 0.49489,0.65333 0.0738,0.19478 -0.0738,0.45854 0,0.65333 0.10432,0.27547 0.39054,0.37786 0.49488,0.65333 0.0738,0.19479 -0.11665,0.49934 0,0.65333 0.11664,0.15399 0.34734,-0.0974 0.49488,0 0.97149,0.64126 0.2228,1.24159 0.49489,1.96 1.02979,2.719 -0.0342,-0.69844 0.98977,0.65333 0.16314,0.21536 -0.11937,2.14054 0,2.61332 0.0738,0.29218 0.39055,0.37786 0.49488,0.65333 0.14755,0.38957 -0.10433,0.89346 0,1.30666 0.11665,0.46198 0.37825,0.84469 0.49489,1.30667 0.0522,0.2066 -0.0738,0.45854 0,0.65333 0.10433,0.27547 0.39055,0.37786 0.49489,0.65333 0.0981,0.25904 -0.10118,1.82643 0,1.95999 0.11664,0.15399 0.37824,-0.15399 0.49488,0 0.10117,0.13357 -0.0981,1.70096 0,1.96 0.10433,0.27546 0.39056,0.37786 0.49489,0.65333 0.16202,0.42781 -0.14639,2.68687 0,3.26665 0.11664,0.46198 0.37824,0.84469 0.49488,1.30667 0.0522,0.2066 -0.11664,0.49934 0,0.65333 0.23329,0.30798 0.75648,-0.30798 0.98977,0 0.66196,0.87388 -0.66195,0.43278 0,1.30666 0.17777,0.23469 1.65938,-0.21133 1.97955,0 0.14754,0.0974 -0.11665,0.49934 0,0.65333 0.11664,0.154 0.33839,-0.0689 0.49488,0 0.34994,0.154 0.63983,0.49934 0.98977,0.65334 0.1565,0.0689 0.33839,-0.0689 0.49489,0 0.34994,0.15399 0.63983,0.49933 0.98977,0.65333 0.41478,0.18252 1.65157,-0.2165 1.97954,0 0.20866,0.13773 0.27356,0.55593 0.49488,0.65332 0.0408,0.018 2.28815,0.082 2.47443,0 0.34994,-0.15399 0.63192,-0.53522 0.98977,-0.65332 0.32008,-0.10564 0.67678,0.13773 0.98978,0 0.22131,-0.0974 0.27356,-0.55595 0.49488,-0.65333 0.313,-0.13774 0.6697,0.10563 0.98977,0 0.35785,-0.11811 0.63983,-0.49934 0.98977,-0.65334 0.32732,-0.14403 2.48316,0 2.96931,0 0.16496,0 0.34734,0.0974 0.49489,0 0.20866,-0.13773 0.32992,-0.43555 0.49489,-0.65333 0.32992,0 0.67677,0.13773 0.98976,0 0.22133,-0.0974 0.27358,-0.55594 0.49489,-0.65333 0.74233,-0.32667 1.7321,0.32666 2.47443,0 0.22132,-0.0974 0.28622,-0.5156 0.49488,-0.65333 0.2951,-0.19478 0.75648,0.30798 0.98977,0 0.11665,-0.15399 -0.11664,-0.49934 0,-0.65333 0.11665,-0.15399 0.34735,0.0974 0.49489,0 0.26431,-0.17447 1.22412,-1.61604 1.48466,-1.96 0.16495,-0.21777 0.32992,-0.43555 0.49488,-0.65333 0.16496,-0.21777 0.39056,-0.37786 0.49489,-0.65333 0.0738,-0.19479 -0.0738,-0.45855 0,-0.65333 0.10433,-0.27547 0.39055,-0.37786 0.49488,-0.65333 0.0738,-0.19479 0,-0.43556 0,-0.65333 0,-0.43556 -0.10433,-0.89346 0,-1.30667 0.11171,-0.4424 1.29564,-1.46092 1.48466,-1.95999 0.0738,-0.19478 -0.0738,-0.45854 0,-0.65333 0.10433,-0.27547 0.39055,-0.37786 0.49489,-0.65333 0.14754,-0.38957 -0.2333,-0.99868 0,-1.30666 0.11664,-0.154 0.37824,0.15399 0.49488,0 0.11665,-0.154 -0.0738,-0.45855 0,-0.65334 0.10433,-0.27546 0.39055,-0.37786 0.49489,-0.65333 0.0738,-0.19478 -0.11665,-0.49934 0,-0.65333 0.11664,-0.15399 0.37824,0.15399 0.49488,0 0.11665,-0.15399 -0.11664,-0.49934 0,-0.65333 0.11665,-0.15399 0.37824,0.15399 0.49489,0 0.11664,-0.15399 -0.11665,-0.49934 0,-0.65333 0.11664,-0.15399 0.37824,0.15399 0.49488,0 0.11664,-0.15399 -0.11664,-0.49934 0,-0.65333 0.11664,-0.15399 0.37824,0.15399 0.49488,0 0.11665,-0.15399 -0.11664,-0.49934 0,-0.65333 0.11665,-0.15399 0.37824,0.15399 0.49489,0 0.11665,-0.15399 -0.0738,-0.45855 0,-0.65333 0.29693,-0.784 1.18773,-1.176 1.48466,-1.96 0.0738,-0.19478 -0.11664,-0.49934 0,-0.65333 0.11664,-0.15399 0.34733,0.0974 0.49488,0 0.20867,-0.13773 0.28623,-0.5156 0.49489,-0.65333 0.14755,-0.0974 0.37824,0.15399 0.49488,0 0.23329,-0.30799 -0.23329,-0.99868 0,-1.30666 0.11665,-0.15399 0.37824,0.15399 0.49489,0 0.11664,-0.15399 -0.11665,-0.49934 0,-0.65333 0.11664,-0.15399 0.42111,0.19478 0.49488,0 0.14755,-0.38957 -0.183,-0.94426 0,-1.30667 0.20461,-0.40517 0.72895,-0.30899 0.98978,-0.65333 0.11664,-0.15399 -0.0738,-0.45854 0,-0.65333 1.02979,-2.71901 -0.0342,0.69844 0.98977,-0.65333 0.11664,-0.15399 -0.0738,-0.45854 0,-0.65333 0.47067,-1.24272 1.21109,-0.31517 1.97954,-0.65333 0.22132,-0.0974 0.28622,-0.5156 0.49489,-0.65333 0.14754,-0.0974 0.33839,0.0689 0.49488,0 0.34994,-0.15399 0.63984,-0.49934 0.98977,-0.65333 0.34798,-0.15314 2.33877,0.17908 2.47442,0 0.11666,-0.15399 -0.11664,-0.49934 0,-0.65333 0.11666,-0.154 0.32993,0 0.4949,0 0.98977,0 1.97953,0 2.96931,0 0.16496,0 0.34734,-0.0974 0.49488,0 0.20867,0.13773 0.28623,0.51559 0.49489,0.65333 0.28994,0.19138 2.10974,-0.12036 2.47442,0 0.35786,0.1181 0.63984,0.49934 0.98978,0.65333 0.15649,0.0689 0.34733,-0.0974 0.49488,0 0.20867,0.13773 0.28622,0.51559 0.49489,0.65333 0.19622,0.12952 1.38348,-0.13357 1.48465,0 0.11665,0.15399 -0.0738,0.45854 0,0.65333 0.24349,0.6429 1.73605,1.97043 1.97955,2.61332 0.0738,0.19479 -0.0738,0.45855 0,0.65334 0.10432,0.27546 0.32992,0.43555 0.49488,0.65333 0.32992,0.43555 0.65984,0.87111 0.98977,1.30666 0.32992,0.43555 0.70982,0.81389 0.98977,1.30666 0.44264,0.77914 0.58055,1.80297 0.98978,2.61333 0.1294,0.25625 0.36547,0.39707 0.49488,0.65333 0.60909,1.20615 0.87556,2.71384 1.48465,3.91998 0.12941,0.25626 0.32992,0.43556 0.49489,0.65334 0.65985,0.87111 1.3197,1.74221 1.97954,2.61332 0.32992,0.43555 0.65985,0.87111 0.98977,1.30666 0.32993,0.43556 0.70982,0.81389 0.98977,1.30667 0.44264,0.77914 0.46812,1.92465 0.98977,2.61332 0.26083,0.34434 0.72895,0.309 0.98978,0.65333 0.11664,0.154 -0.0738,0.45855 0,0.65333 0.10432,0.27547 0.39055,0.37787 0.49488,0.65333 0.0738,0.19479 -0.11664,0.49934 0,0.65333 0.11665,0.154 0.34734,-0.0974 0.49489,0 0.20866,0.13774 0.28622,0.51561 0.49488,0.65334 0.14755,0.0974 0.34734,-0.0974 0.49489,0 0.20866,0.13773 0.28622,0.51559 0.49489,0.65333 0.14754,0.0974 0.32992,0 0.49487,0 0.16497,0 0.32993,0 0.49489,0 0.82481,0 1.64962,0 2.47443,0 0.32993,0 0.67678,0.13773 0.98978,0 0.34993,-0.15399 0.63191,-0.53523 0.98976,-0.65333 0.48011,-0.15846 1.01517,0.2066 1.48466,0 0.34994,-0.15399 0.63983,-0.49934 0.98977,-0.65334 0.41478,-0.18252 1.65157,0.21649 1.97954,0 0.20867,-0.13773 0.28622,-0.51559 0.49489,-0.65333 0.14755,-0.0974 0.33839,0.0689 0.49488,0 0.34993,-0.15399 0.63984,-0.49934 0.98977,-0.65333 0.1565,-0.0689 0.34734,0.0974 0.49489,0 0.20866,-0.13773 0.28622,-0.51559 0.49489,-0.65333 0.19621,-0.12952 1.38347,0.13357 1.48465,0 0.11664,-0.15399 -0.11664,-0.49934 0,-0.65333 0.0308,-1.83961 1.11579,-0.16637 1.48465,-0.65333 1.02394,-1.35177 -1.5647,0.0528 0.49489,-1.30666 0.14755,-0.0974 0.37824,0.15399 0.49489,0 0.11664,-0.15399 -0.11665,-0.49934 0,-0.65333 0.11664,-0.154 0.37824,0.15399 0.49488,0 0.11665,-0.154 -0.0738,-0.45855 0,-0.65334 0.20867,-0.55093 0.78111,-0.75572 0.98977,-1.30666 0.14755,-0.38957 -0.14755,-0.91709 0,-1.30666 0.10433,-0.27547 0.39056,-0.37786 0.49489,-0.65333 0.14755,-0.38957 -0.14755,-0.91709 0,-1.30666 1.05393,-2.78272 -0.0642,1.47605 0.98977,-1.30667 0.13424,-0.35442 -0.13541,-2.43455 0,-2.61332 0.11664,-0.15399 0.37824,0.15399 0.49488,0 0.11665,-0.15399 -0.0738,-0.45855 0,-0.65333 0.10434,-0.27547 0.39056,-0.37787 0.49489,-0.65333 0.0738,-0.19479 -0.11665,-0.49934 0,-0.65333 0.11665,-0.154 0.37824,0.15399 0.49489,0 0.11664,-0.154 -0.0738,-0.45855 0,-0.65334 0.10433,-0.27546 0.39055,-0.37786 0.49488,-0.65333 0.0738,-0.19478 -0.11664,-0.49934 0,-0.65333 0.11665,-0.15399 0.37824,0.15399 0.49489,0 0.11664,-0.15399 -0.0738,-0.45854 0,-0.65333 0.10433,-0.27547 0.39055,-0.37786 0.49488,-0.65333 0.14755,-0.38957 -0.14755,-0.91709 0,-1.30666 0.20866,-0.55094 0.78111,-0.75573 0.98977,-1.30667 0.14755,-0.38957 -0.14754,-0.91709 0,-1.30666 0.10434,-0.27547 0.39056,-0.37786 0.49489,-0.65333 0.0738,-0.19478 0,-0.43556 0,-0.65333 0,-0.21778 0,-0.43556 0,-0.65333 0,-0.34164 -0.0651,-2.44154 0,-2.61333 0.10433,-0.27546 0.32992,-0.43555 0.49488,-0.65333"
       id="path3972-0"
       inkscape:connector-curvature="0" />
    <path
       style="fill:none;stroke:#000000;stroke-width:2;stroke-linecap:butt;stroke-linejoin:miter;stroke-miterlimit:4;stroke-opacity:1;stroke-dasharray:none"
       d="m 637.80527,182.93798 0,33"
       id="path3946-8"
       inkscape:connector-curvature="0" />
    <path
       style="fill:none;stroke:#000000;stroke-width:2;stroke-linecap:butt;stroke-linejoin:miter;stroke-miterlimit:4;stroke-opacity:1;stroke-dasharray:none"
       d="m 823.80527,185.43798 0,33"
       id="path3946-0-6"
       inkscape:connector-curvature="0" />
    <path
       style="fill:none;stroke:#000000;stroke-width:2;stroke-linecap:butt;stroke-linejoin:miter;stroke-miterlimit:4;stroke-opacity:1;stroke-dasharray:none"
       d="m 637.80527,200.93798 186,1"
       id="path3966-1"
       inkscape:connector-curvature="0" />
    <text
       xml:space="preserve"
       style="font-size:40px;font-style:normal;font-weight:normal;line-height:125%;letter-spacing:0px;word-spacing:0px;fill:#000000;fill-opacity:1;stroke:none;font-family:Sans"
       x="671.3053"
       y="186.43797"
       id="text3968-6"
       sodipodi:linespacing="125%"><tspan
         sodipodi:role="line"
         id="tspan3970-0"
         x="671.3053"
         y="186.43797">22nm</tspan></text>
    <text
       xml:space="preserve"
       style="font-size:40px;font-style:normal;font-weight:normal;line-height:125%;letter-spacing:0px;word-spacing:0px;fill:#000000;fill-opacity:1;stroke:none;font-family:Sans"
       x="881.28253"
       y="259.33493"
       id="text3968-4"
       sodipodi:linespacing="125%"><tspan
         sodipodi:role="line"
         id="tspan3970-7"
         x="881.28253"
         y="259.33493">2.5nm</tspan></text>
    <path
       style="fill:none;stroke:#000000;stroke-width:3;stroke-linecap:butt;stroke-linejoin:miter;stroke-miterlimit:4;stroke-opacity:1;stroke-dasharray:none"
       d="m 855.25606,230.81962 0,33"
       id="path3946-0-6-0"
       inkscape:connector-curvature="0" />
    <path
       style="fill:#000000;fill-opacity:1;stroke:#000000;stroke-width:2.25;stroke-miterlimit:4;stroke-opacity:1;stroke-dasharray:none"
       d="m 843.23525,229.64196 24.04163,0"
       id="path4133"
       inkscape:connector-curvature="0" />
    <path
       style="fill:#000000;fill-opacity:1;stroke:#000000;stroke-width:2.25;stroke-miterlimit:4;stroke-opacity:1;stroke-dasharray:none"
       d="m 843.23525,264.29018 24.04163,0"
       id="path4133-3"
       inkscape:connector-curvature="0" />
    <path
       style="fill:none;stroke:#000000;stroke-width:2;stroke-linecap:butt;stroke-linejoin:miter;stroke-miterlimit:4;stroke-opacity:1;stroke-dasharray:none"
       d="m 638.27208,279.66421 0,33"
       id="path3946-8-0"
       inkscape:connector-curvature="0" />
    <path
       style="fill:none;stroke:#000000;stroke-width:2;stroke-linecap:butt;stroke-linejoin:miter;stroke-miterlimit:4;stroke-opacity:1;stroke-dasharray:none"
       d="m 824.27208,282.16421 0,33"
       id="path3946-0-6-7"
       inkscape:connector-curvature="0" />
    <path
       style="fill:none;stroke:#000000;stroke-width:2;stroke-linecap:butt;stroke-linejoin:miter;stroke-miterlimit:4;stroke-opacity:1;stroke-dasharray:none"
       d="m 638.27208,297.66421 186,1"
       id="path3966-1-2"
       inkscape:connector-curvature="0" />
    <text
       xml:space="preserve"
       style="font-size:40px;font-style:normal;font-weight:normal;line-height:125%;letter-spacing:0px;word-spacing:0px;fill:#000000;fill-opacity:1;stroke:none;font-family:Sans"
       x="628.27209"
       y="357.41422"
       id="text4195"
       sodipodi:linespacing="125%"><tspan
         sodipodi:role="line"
         id="tspan4197"
         x="628.27209"
         y="357.41422">66 bases</tspan><tspan
         sodipodi:role="line"
         x="628.27209"
         y="407.41422"
         id="tspan4199">132 bits</tspan><tspan
         sodipodi:role="line"
         x="628.27209"
         y="457.41422"
         id="tspan4201">16.5 bytes</tspan></text>
    <text
       xml:space="preserve"
       style="font-size:40px;font-style:normal;font-variant:normal;font-weight:bold;font-stretch:normal;text-align:start;line-height:125%;letter-spacing:0px;word-spacing:0px;writing-mode:lr-tb;text-anchor:start;fill:#000000;fill-opacity:1;stroke:none;font-family:Sans;-inkscape-font-specification:Sans Bold"
       x="90"
       y="58"
       id="text4203"
       sodipodi:linespacing="125%"><tspan
         sodipodi:role="line"
         id="tspan4205"
         x="90"
         y="58">Transistor on an IC</tspan><tspan
         sodipodi:role="line"
         x="90"
         y="108"
         id="tspan4228">(22nm half-pitch)</tspan></text>
    <text
       xml:space="preserve"
       style="font-size:40px;font-style:normal;font-variant:normal;font-weight:bold;font-stretch:normal;text-align:start;line-height:125%;letter-spacing:0px;word-spacing:0px;writing-mode:lr-tb;text-anchor:start;fill:#000000;fill-opacity:1;stroke:none;font-family:Sans;-inkscape-font-specification:Sans Bold"
       x="568.90625"
       y="75.035156"
       id="text4203-7"
       sodipodi:linespacing="125%"><tspan
         sodipodi:role="line"
         x="568.90625"
         y="75.035156"
         id="tspan8618">Non-chromosonal</tspan><tspan
         sodipodi:role="line"
         x="568.90625"
         y="125.03516"
         id="tspan8622">DNA</tspan></text>
  </g>
</svg>
